<svg id="Capa_1" enable-background="new 0 0 511.952 511.952" height="512" viewBox="0 0 511.952 511.952" width="512" xmlns="http://www.w3.org/2000/svg"><g><path d="m255.976 7.476v443.173c5.865 0 11.73-2.238 16.204-6.712l116.378-116.378c33.931-33.931 54.917-80.806 54.917-132.583.001-103.553-83.946-187.5-187.499-187.5z" fill="#e0343f"/><path d="m255.976 7.476c-103.553 0-187.5 83.947-187.5 187.5 0 51.777 20.987 98.652 54.917 132.583l116.378 116.378c4.475 4.475 10.34 6.712 16.205 6.712 4.927 0 9.853-2.238 13.612-6.712l97.758-116.378c28.502-33.931 46.131-80.806 46.131-132.583-.001-103.553-70.516-187.5-157.501-187.5z" fill="#ff4040"/><path d="m271.532 457.057c-8.591-8.592-22.521-8.592-31.113 0l-28.944 28.972c24.597 24.597 64.403 24.597 89 0z" fill="#e0343f"/><circle cx="255.976" cy="314.976" fill="#ffc766" r="15"/><circle cx="255.976" cy="254.976" fill="#ffc766" r="15"/><circle cx="204.015" cy="284.976" fill="#ffa857" r="15"/><circle cx="204.015" cy="224.976" fill="#ffdc96" r="15"/><circle cx="152.053" cy="254.976" fill="#ffc766" r="15"/><circle cx="307.938" cy="224.976" fill="#ffa857" r="15"/><circle cx="359.899" cy="254.976" fill="#ffc766" r="15"/><circle cx="204.015" cy="344.976" fill="#ffdc96" r="15"/><circle cx="255.976" cy="374.976" fill="#ffc766" r="15"/><circle cx="307.938" cy="344.976" fill="#ffa857" r="15"/><circle cx="307.938" cy="284.976" fill="#ffdc96" r="15"/><path d="m382.437 254.996c0-12.407-10.093-22.5-22.5-22.5s-22.5 10.093-22.5 22.5 10.093 22.5 22.5 22.5 22.5-10.094 22.5-22.5zm-30 0c0-4.136 3.364-7.5 7.5-7.5s7.5 3.364 7.5 7.5-3.364 7.5-7.5 7.5-7.5-3.365-7.5-7.5z"/><path d="m174.516 254.996c0-12.407-10.093-22.5-22.5-22.5s-22.5 10.093-22.5 22.5 10.093 22.5 22.5 22.5 22.5-10.094 22.5-22.5zm-30 0c0-4.136 3.364-7.5 7.5-7.5s7.5 3.364 7.5 7.5-3.364 7.5-7.5 7.5-7.5-3.365-7.5-7.5z"/><path d="m307.927 307.5c12.407 0 22.5-10.093 22.5-22.5s-10.093-22.5-22.5-22.5-22.5 10.093-22.5 22.5 10.093 22.5 22.5 22.5zm0-30c4.136 0 7.5 3.364 7.5 7.5s-3.364 7.5-7.5 7.5-7.5-3.364-7.5-7.5 3.364-7.5 7.5-7.5z"/><path d="m307.927 247.5c12.407 0 22.5-10.093 22.5-22.5s-10.093-22.5-22.5-22.5-22.5 10.093-22.5 22.5 10.093 22.5 22.5 22.5zm0-30c4.136 0 7.5 3.364 7.5 7.5s-3.364 7.5-7.5 7.5-7.5-3.364-7.5-7.5 3.364-7.5 7.5-7.5z"/><path d="m307.927 367.5c12.407 0 22.5-10.093 22.5-22.5s-10.093-22.5-22.5-22.5-22.5 10.093-22.5 22.5 10.093 22.5 22.5 22.5zm0-30c4.136 0 7.5 3.364 7.5 7.5s-3.364 7.5-7.5 7.5-7.5-3.364-7.5-7.5 3.364-7.5 7.5-7.5z"/><path d="m255.976 337.5c12.407 0 22.5-10.093 22.5-22.5s-10.093-22.5-22.5-22.5-22.5 10.093-22.5 22.5 10.093 22.5 22.5 22.5zm0-30c4.136 0 7.5 3.364 7.5 7.5s-3.364 7.5-7.5 7.5-7.5-3.364-7.5-7.5 3.364-7.5 7.5-7.5z"/><path d="m255.976 277.5c12.407 0 22.5-10.093 22.5-22.5s-10.093-22.5-22.5-22.5-22.5 10.093-22.5 22.5 10.093 22.5 22.5 22.5zm0-30c4.136 0 7.5 3.364 7.5 7.5s-3.364 7.5-7.5 7.5-7.5-3.364-7.5-7.5 3.364-7.5 7.5-7.5z"/><path d="m255.976 397.5c12.407 0 22.5-10.093 22.5-22.5s-10.093-22.5-22.5-22.5-22.5 10.093-22.5 22.5 10.093 22.5 22.5 22.5zm0-30c4.136 0 7.5 3.364 7.5 7.5s-3.364 7.5-7.5 7.5-7.5-3.364-7.5-7.5 3.364-7.5 7.5-7.5z"/><path d="m393.862 332.886c36.831-36.831 57.114-85.8 57.114-137.886 0-107.523-87.477-195-195-195-46.306 0-91.199 16.526-126.41 46.534-3.153 2.687-3.53 7.42-.844 10.573 2.688 3.153 7.422 3.531 10.573.843 32.499-27.697 73.937-42.95 116.681-42.95 99.252 0 180 80.748 180 180 0 48.079-18.723 93.281-52.721 127.279l-116.378 116.378c-2.956 2.956-6.824 4.45-10.707 4.499-.13-.001-.26-.001-.39 0-3.883-.049-7.751-1.543-10.706-4.499l-116.377-116.378c-33.998-33.998-52.721-79.2-52.721-127.279 0-42.744 15.253-84.182 42.95-116.681 2.687-3.152 2.309-7.886-.844-10.573-3.153-2.686-7.886-2.31-10.573.844-30.007 35.211-46.533 80.104-46.533 126.41 0 52.086 20.284 101.055 57.114 137.886l116.378 116.378c.541.541 1.102 1.049 1.673 1.54-.348.316-.691.64-1.027.976l-28.944 28.972c-2.927 2.929-2.926 7.676.002 10.604 13.731 13.731 31.767 20.596 49.803 20.596s36.072-6.865 49.803-20.596c2.928-2.928 2.929-7.675.002-10.604l-28.944-28.972c-.337-.337-.68-.661-1.027-.976.57-.491 1.132-.999 1.673-1.54zm-104.347 152.807c-19.742 15.024-47.336 15.024-67.078 0l23.286-23.309c2.776-2.775 6.406-4.18 10.051-4.23.067 0 .135.005.202.005s.134-.004.201-.005c3.645.05 7.275 1.454 10.05 4.229z"/><path d="m204.003 307.5c12.407 0 22.5-10.093 22.5-22.5s-10.093-22.5-22.5-22.5-22.5 10.093-22.5 22.5 10.094 22.5 22.5 22.5zm0-30c4.136 0 7.5 3.364 7.5 7.5s-3.364 7.5-7.5 7.5-7.5-3.364-7.5-7.5 3.365-7.5 7.5-7.5z"/><path d="m204.003 247.5c12.407 0 22.5-10.093 22.5-22.5s-10.093-22.5-22.5-22.5-22.5 10.093-22.5 22.5 10.094 22.5 22.5 22.5zm0-30c4.136 0 7.5 3.364 7.5 7.5s-3.364 7.5-7.5 7.5-7.5-3.364-7.5-7.5 3.365-7.5 7.5-7.5z"/><path d="m204.003 367.5c12.407 0 22.5-10.093 22.5-22.5s-10.093-22.5-22.5-22.5-22.5 10.093-22.5 22.5 10.094 22.5 22.5 22.5zm0-30c4.136 0 7.5 3.364 7.5 7.5s-3.364 7.5-7.5 7.5-7.5-3.364-7.5-7.5 3.365-7.5 7.5-7.5z"/></g></svg>