<svg id="Capa_1" enable-background="new 0 0 512 512" height="512" viewBox="0 0 512 512" width="512" xmlns="http://www.w3.org/2000/svg"><g><path d="m420 420h-30s84.39 80.152 84.5 84.5h30c0-46.668-37.832-84.5-84.5-84.5z" fill="#e0343f"/><path d="m390 420h-298c-46.668 0-84.5 37.832-84.5 84.5h467c0-46.668-37.832-84.5-84.5-84.5z" fill="#ff4040"/><circle cx="256" cy="37.5" fill="#f7f4f6" r="30"/><path d="m282.131 77.555c-7.165-6.472-16.476-10.055-26.131-10.055v42.555h62.11z" fill="#e0343f"/><path d="m269.509 77.555c-3.704-6.472-8.518-10.055-13.509-10.055-9.655 0-18.966 3.583-26.131 10.055l-35.979 32.5h94.22z" fill="#ff4040"/><path d="m383.447 136.456c-38.678-22.307-82.123-33.956-127.447-33.956l127.5 167.5c16.569 0 30-13.432 30-30v-51.542c0-21.459-11.464-41.282-30.053-52.002z" fill="#ebe1e8"/><path d="m359.171 136.456c-31.311-22.307-66.48-33.956-103.171-33.956-45.324 0-88.768 11.649-127.447 33.955-18.59 10.721-30.053 30.543-30.053 52.002v51.542c0 16.568 13.432 30 30 30h255v-81.542c0-21.458-9.28-41.281-24.329-52.001z" fill="#f7f4f6"/><path d="m383.5 270c16.57 0 30 13.43 30 30s-13.43 30-30 30l-15-30z" fill="#ffdac7"/><path d="m128.5 270 15 30-15 30c-16.57 0-30-13.43-30-30s13.43-30 30-30z" fill="#ffdac7"/><path d="m353.5 270-97.5 234.5c70.12 0 127.5-57.38 127.5-127.5v-107z" fill="#ebe1e8"/><path d="m353.5 377v-107h-225v107c0 70.12 57.38 127.5 127.5 127.5 53.621 0 97.5-57.38 97.5-127.5z" fill="#f7f4f6"/><path d="m372.11 202.48c-10.19-7.931-21.204-14.853-32.891-20.613l14.281 118.133c0-16.5 13.5-30 30-30v-15c0-18.69-4.08-36.48-11.39-52.52z" fill="#ffc1b0"/><path d="m353.368 240c0-21.189-5.176-41.112-14.149-58.133-25.109-12.373-53.331-19.367-83.219-19.367-43.8 0-84.03 15.01-116.11 39.98-7.31 16.04-11.39 33.83-11.39 52.52v15c16.5 0 30 13.5 30 30v35.42c0 6.1 2.48 11.62 6.48 15.62s9.52 6.48 15.62 6.48c5.87 0 11.49-2.33 15.63-6.47l14.74-14.74c5.63-5.63 13.26-8.79 21.22-8.79h47.62c7.96 0 15.59 3.16 21.22 8.79l14.74 14.74c2.07 2.07 4.51 3.69 7.17 4.79 2.65 1.1 5.52 1.68 8.46 1.68 11.53 0 21.01-8.85 22.01-20.12l.09-37.4v-45z" fill="#ffdac7"/><path d="m323.368 210h-30l30 30h30c0-16.569-13.432-30-30-30z" fill="#f7f4f6"/><path d="m293.368 210h-22.368c0 16.568 13.431 30 30 30h22.368c0-16.569-13.432-30-30-30z" fill="#fff"/><circle cx="203.5" cy="285" fill="#524051" r="15"/><circle cx="308.5" cy="285" fill="#524051" r="15"/><path d="m188.632 210h52.368c0 16.568-13.431 30-30 30h-52.368c0-16.569 13.431-30 30-30z" fill="#fff"/><path d="m420 412.5h-33.746c3.088-11.317 4.746-23.218 4.746-35.5v-40.255c17.096-3.484 30-18.635 30-36.745 0-12.254-5.909-23.153-15.026-30 9.117-6.847 15.026-17.746 15.026-30v-51.542c0-24.058-12.954-46.473-33.806-58.499-20.477-11.809-42.479-20.736-65.326-26.615l-34.71-31.354c-2.308-2.084-4.803-3.907-7.435-5.471 8.404-6.884 13.777-17.335 13.777-29.019 0-20.678-16.822-37.5-37.5-37.5s-37.5 16.822-37.5 37.5c0 11.684 5.373 22.135 13.777 29.018-2.632 1.564-5.127 3.387-7.435 5.472l-34.588 31.243c-12.868 3.306-25.479 7.601-37.783 12.877-3.807 1.633-5.569 6.042-3.937 9.849 1.633 3.807 6.042 5.568 9.849 3.937 30.783-13.202 63.626-19.896 97.617-19.896 44.167 0 85.786 11.087 123.7 32.953 16.222 9.355 26.3 26.792 26.3 45.505v51.542c0 9.778-6.271 18.114-15 21.21v-6.21c0-19.349-4.059-38.065-12.064-55.628-.502-1.101-1.263-2.064-2.218-2.808-34.934-27.191-76.678-41.564-120.718-41.564-44.041 0-85.785 14.373-120.719 41.564-.955.743-1.716 1.707-2.218 2.808-8.004 17.563-12.063 36.279-12.063 55.628v6.21c-8.729-3.096-15-11.432-15-21.21v-51.542c0-18.713 10.078-36.15 26.3-45.505 3.588-2.069 4.819-6.656 2.75-10.244s-6.657-4.819-10.244-2.75c-20.852 12.025-33.806 34.44-33.806 58.499v51.542c0 12.254 5.909 23.153 15.026 30-9.117 6.847-15.026 17.746-15.026 30 0 18.11 12.904 33.261 30 36.745v40.255c0 12.282 1.658 24.183 4.746 35.5h-33.746c-50.729 0-92 41.271-92 92 0 4.142 3.358 7.5 7.5 7.5h497c4.142 0 7.5-3.358 7.5-7.5 0-50.729-41.271-92-92-92zm-164-397.5c12.407 0 22.5 10.093 22.5 22.5s-10.093 22.5-22.5 22.5-22.5-10.093-22.5-22.5 10.093-22.5 22.5-22.5zm0 80c-12.535 0-24.92.88-37.123 2.59l16.019-14.469c5.797-5.237 13.292-8.121 21.104-8.121s15.307 2.884 21.104 8.12l16.065 14.512c-12.267-1.741-24.688-2.632-37.169-2.632zm135 183.79c8.729 3.096 15 11.432 15 21.21s-6.271 18.114-15 21.21zm-270 42.42c-8.729-3.096-15-11.432-15-21.21s6.271-18.114 15-21.21zm15-66.21c0-16.574 3.351-32.622 9.964-47.731 31.973-24.389 69.979-37.269 110.036-37.269 40.056 0 78.062 12.88 110.035 37.269 6.614 15.109 9.965 31.157 9.965 47.731v8.255c-17.096 3.484-30 18.635-30 36.745v35.416c0 8.053-6.552 14.604-14.604 14.604-3.901 0-7.568-1.519-10.327-4.278l-14.739-14.739c-7.083-7.083-16.5-10.983-26.517-10.983h-47.626c-10.017 0-19.434 3.9-26.516 10.983l-14.739 14.739c-2.759 2.759-6.426 4.278-10.327 4.278-8.053 0-14.604-6.552-14.604-14.604v-35.416c0-18.11-12.904-33.261-30-36.745v-8.255zm-120.638 242c3.781-38.953 36.709-69.5 76.638-69.5h38.808c12.156 30.027 34.809 54.721 63.39 69.5zm120.638-120v-98.21c8.729 3.096 15 11.432 15 21.21v35.416c0 16.324 13.281 29.604 29.604 29.604 7.908 0 15.342-3.08 20.934-8.671l14.739-14.739c4.25-4.25 9.9-6.59 15.91-6.59h47.626c6.01 0 11.661 2.34 15.91 6.59l14.739 14.739c5.592 5.592 13.026 8.671 20.934 8.671 16.324 0 29.604-13.281 29.604-29.604v-35.416c0-9.778 6.271-18.114 15-21.21v98.21c0 66.168-53.832 120-120 120s-120-53.832-120-120zm181.802 120c28.581-14.779 51.234-39.473 63.39-69.5h38.808c39.929 0 72.856 30.547 76.638 69.5z"/><path d="m203.5 262.5c-12.407 0-22.5 10.093-22.5 22.5s10.093 22.5 22.5 22.5 22.5-10.093 22.5-22.5-10.093-22.5-22.5-22.5zm0 30c-4.136 0-7.5-3.364-7.5-7.5s3.364-7.5 7.5-7.5 7.5 3.364 7.5 7.5-3.364 7.5-7.5 7.5z"/><path d="m308.5 262.5c-12.407 0-22.5 10.093-22.5 22.5s10.094 22.5 22.5 22.5 22.5-10.093 22.5-22.5-10.093-22.5-22.5-22.5zm0 30c-4.136 0-7.5-3.364-7.5-7.5s3.365-7.5 7.5-7.5 7.5 3.364 7.5 7.5-3.364 7.5-7.5 7.5z"/><path d="m274.674 351.069c-11.518 6.832-25.83 6.832-37.348 0-3.563-2.113-8.164-.938-10.277 2.625s-.938 8.164 2.625 10.277c8.12 4.816 17.222 7.224 26.326 7.224 9.102 0 18.208-2.409 26.326-7.224 3.563-2.113 4.738-6.714 2.625-10.277-2.113-3.561-6.713-4.739-10.277-2.625z"/><path d="m301 247.5h52.368c4.142 0 7.5-3.358 7.5-7.5 0-20.678-16.822-37.5-37.5-37.5h-52.368c-4.142 0-7.5 3.358-7.5 7.5 0 20.678 16.822 37.5 37.5 37.5zm22.368-30c9.778 0 18.12 6.27 21.215 15h-43.583c-9.778 0-18.12-6.27-21.215-15z"/><path d="m211 247.5c20.678 0 37.5-16.822 37.5-37.5 0-4.142-3.358-7.5-7.5-7.5h-52.368c-20.678 0-37.5 16.822-37.5 37.5 0 4.142 3.358 7.5 7.5 7.5zm-22.368-30h43.583c-3.095 8.73-11.437 15-21.215 15h-43.583c3.095-8.73 11.437-15 21.215-15z"/></g></svg>