<svg id="Capa_1" enable-background="new 0 0 512 512" height="512" viewBox="0 0 512 512" width="512" xmlns="http://www.w3.org/2000/svg"><g><circle cx="256" cy="37.5" fill="#f7f4f6" r="30"/><path d="m282.131 77.555c-7.165-6.472-16.476-10.055-26.131-10.055v42.555h62.11z" fill="#e0343f"/><path d="m269.509 77.555c-3.704-6.472-8.518-10.055-13.509-10.055-9.655 0-18.966 3.583-26.131 10.055l-35.979 32.5h94.22z" fill="#ff4040"/><path d="m383.447 136.456c-38.678-22.307-82.123-33.956-127.447-33.956l127.5 167.5c16.569 0 30-13.432 30-30v-51.542c0-21.459-11.464-41.282-30.053-52.002z" fill="#ebe1e8"/><path d="m359.171 136.456c-31.311-22.307-66.48-33.956-103.171-33.956-45.324 0-88.768 11.649-127.447 33.955-18.59 10.721-30.053 30.543-30.053 52.002v51.542c0 16.568 13.432 30 30 30h255v-81.542c0-21.458-9.28-41.281-24.329-52.001z" fill="#f7f4f6"/><path d="m420 420h-30s84.39 80.152 84.5 84.5h30c0-46.668-37.832-84.5-84.5-84.5z" fill="#e0343f"/><path d="m390 420h-26.954l-107.046 45-107.046-45h-56.954c-46.668 0-84.5 37.832-84.5 84.5h96.878l151.622-30 152.046 30h66.454c0-46.668-37.832-84.5-84.5-84.5z" fill="#ff4040"/><path d="m408.046 474.5v-9.5c0-24.853-20.147-45-45-45h-15l15 84.5h45c8.284 0 15-6.716 15-15s-6.716-15-15-15z" fill="#f7f4f6"/><path d="m348.046 420h-199.092c-24.853 0-45 20.147-45 45v9.5c-8.525 0-15.388 7.111-14.983 15.725.38 8.068 7.33 14.275 15.406 14.275h258.668c8.284 0 15-6.716 15-15v-39.5c.001-16.569-13.431-30-29.999-30z" fill="#fff"/><path d="m273.046 420v84.5h30c24.853 0 45-20.147 45-45v-39.5z" fill="#e0343f"/><path d="m318.046 459.5v-39.5h-154.092v39.5c0 24.853 20.147 45 45 45h64.092c24.853 0 45-20.147 45-45z" fill="#ff4040"/><path d="m353.506 359.998.006-74.994c.002-24.854-20.146-45.004-45-45.004h-11.018c-11.592 0-22.146-6.678-27.11-17.153l-14.384-30.353-14.384 30.353c-4.964 10.475-15.518 17.153-27.11 17.153h-11.018c-24.854 0-45.002 20.149-45 45.004l.006 74.994c.001 12.047-7.102 22.43-17.346 27.203 20.67 42.683 64.47 72.299 114.852 72.299s94.182-29.616 114.852-72.299c-10.244-4.774-17.347-15.157-17.346-27.203z" fill="#ffdac7"/><path d="m298.45 345c10.21 0 17.6 10.04 14.24 19.69-3.42 9.86-9.34 18.55-17.01 25.32h-39.68l30-45.01z" fill="#524051"/><path d="m213.55 345c-10.21 0-17.6 10.04-14.24 19.69 3.42 9.86 9.34 18.55 17.01 25.32.01-.01 64-9.87 64-9.87 3.57-9.88 5.68-22.02 5.68-35.14z" fill="#7e4158"/><path d="m295.67 390c-10.56 9.34-24.46 15-39.67 15 10.01 0 18.87-9.8 24.32-24.86 5.62 2.5 10.79 5.85 15.35 9.86z" fill="#e0343f"/><path d="m256 375c8.66 0 16.89 1.84 24.32 5.14-5.45 15.06-14.31 24.86-24.32 24.86-15.21 0-29.11-5.66-39.68-14.99 10.59-9.34 24.47-15.01 39.68-15.01z" fill="#ff4040"/><path d="m458.096 318.399c-2.46-21.91-16.028-41.254-36.222-50.907l-11.061-5.287c-9.574-4.576-17.222-12.388-21.595-22.056l-17.048-37.693v135l39.638 52.544h30c20.793 0 38.355-17.011 38.191-37.803-.119-15.014-9.067-27.918-21.903-33.798z" fill="#b59ab0"/><path d="m449.999 352.197c-.119-15.014-9.067-27.917-21.902-33.798-1.601-21.91-10.432-41.254-23.575-50.907l-7.199-5.287c-6.231-4.576-11.209-12.388-14.056-22.056l-11.096-37.693c-32.083-24.945-72.368-39.956-116.171-39.956s-84.088 15.011-116.17 39.983c0-.026-17.048 37.666-17.048 37.666-4.373 9.668-12.021 17.48-21.595 22.056l-11.061 5.287c-20.194 9.652-33.762 28.997-36.222 50.907-12.836 5.88-21.783 18.784-21.902 33.798-.166 20.792 17.397 37.803 38.19 37.803h58.302c16.569 0 30.001-13.433 30-30.002l-.006-74.994c-.002-24.854 20.146-45.004 45-45.004h11.018c11.592 0 22.146-6.678 27.11-17.153l14.384-30.353 14.384 30.353c4.964 10.475 15.518 17.153 27.11 17.153h11.018c24.854 0 45.002 20.149 45 45.004l-.006 74.994c-.001 16.569 13.43 30.002 30 30.002h28.302c20.793 0 38.355-17.011 38.191-37.803z" fill="#c7adc0"/><path d="m98.5 315c0 16.568 13.432 30 30 30v-60c-16.569 0-30 13.431-30 30z" fill="#ffdac7"/><path d="m413.5 315c0 16.568-13.432 30-30 30v-60c16.568 0 30 13.431 30 30z" fill="#ffdac7"/><circle cx="203.5" cy="300" fill="#524051" r="15"/><circle cx="308.5" cy="300" fill="#524051" r="15"/><path d="m420 412.5h-55.811c3.807-5.1 7.258-10.471 10.326-16.082 2.908.712 5.92 1.082 8.99 1.082h58.302c12.116 0 24.007-4.98 32.621-13.664 8.521-8.589 13.163-19.847 13.069-31.699-.126-15.968-8.835-30.698-22.515-38.612-3.896-23.072-18.57-42.617-39.875-52.8l-4.107-1.963v-70.304c0-24.058-12.953-46.473-33.806-58.5-20.477-11.809-42.479-20.735-65.325-26.615l-34.711-31.354c-2.308-2.085-4.802-3.907-7.435-5.472 8.404-6.882 13.777-17.333 13.777-29.017 0-20.678-16.822-37.5-37.5-37.5s-37.5 16.822-37.5 37.5c0 11.684 5.373 22.135 13.777 29.018-2.632 1.564-5.127 3.387-7.435 5.472l-34.588 31.243c-12.868 3.306-25.479 7.601-37.783 12.877-3.807 1.633-5.569 6.042-3.937 9.849 1.633 3.807 6.042 5.568 9.849 3.937 30.783-13.202 63.626-19.896 97.617-19.896 44.167 0 85.785 11.087 123.7 32.953 16.223 9.355 26.3 26.792 26.3 45.505v61.767c-4.222-3.575-7.64-8.064-9.948-13.167l-17.048-37.693c-.503-1.11-1.269-2.082-2.23-2.83-34.948-27.172-76.711-41.535-120.774-41.535-44.079 0-85.842 14.373-120.777 41.564-1.599 1.44-2.488 3.399-2.959 4.439l-16.315 36.055c-2.308 5.103-5.726 9.591-9.948 13.167v-61.768c0-18.713 10.078-36.15 26.3-45.505 3.588-2.069 4.819-6.656 2.75-10.244-2.07-3.588-6.657-4.819-10.244-2.75-20.853 12.026-33.807 34.441-33.807 58.5v70.304l-4.109 1.964c-21.304 10.183-35.979 29.728-39.874 52.8-13.68 7.914-22.389 22.644-22.516 38.612-.094 11.852 4.547 23.109 13.069 31.699 8.615 8.683 20.505 13.663 32.621 13.663h58.302c3.07 0 6.082-.37 8.99-1.082 3.068 5.611 6.52 10.983 10.326 16.082h-55.809c-50.729 0-92 41.271-92 92 0 4.142 3.358 7.5 7.5 7.5h497c4.143 0 7.5-3.358 7.5-7.5 0-50.729-41.271-92-92-92zm-186.5-375c0-12.407 10.093-22.5 22.5-22.5 12.406 0 22.5 10.093 22.5 22.5s-10.094 22.5-22.5 22.5c-12.407 0-22.5-10.093-22.5-22.5zm-14.623 60.09 16.019-14.469c5.797-5.237 13.292-8.121 21.104-8.121s15.307 2.884 21.104 8.12l16.066 14.512c-12.268-1.741-24.689-2.632-37.17-2.632-12.535 0-24.92.88-37.123 2.59zm-148.685 284.91c-8.146 0-16.154-3.363-21.973-9.228-5.684-5.729-8.78-13.193-8.718-21.016.092-11.59 6.971-22.203 17.526-27.039 2.393-1.096 4.036-3.366 4.33-5.981 2.205-19.639 14.169-36.453 32.003-44.977l11.062-5.287c11.153-5.331 20.1-14.469 25.194-25.731 3.977-8.792 13.523-29.896 16.271-35.955 31.978-24.402 70.01-37.286 110.113-37.286 40.086 0 78.118 12.876 110.109 37.256l16.275 35.984c5.094 11.262 14.041 20.4 25.193 25.731l11.062 5.287c17.835 8.525 29.799 25.338 32.004 44.977.294 2.615 1.937 4.885 4.329 5.981 10.556 4.836 17.435 15.449 17.525 27.039.063 7.823-3.034 15.287-8.718 21.016-5.818 5.865-13.827 9.228-21.973 9.228h-58.302c-6.011 0-11.661-2.341-15.911-6.591-4.249-4.25-6.59-9.901-6.589-15.911l.006-74.994c.001-14.024-5.459-27.209-15.375-37.126s-23.099-15.377-37.123-15.377h-11.019c-8.647 0-16.629-5.05-20.332-12.865l-14.384-30.353c-1.241-2.619-3.88-4.288-6.777-4.288-2.898 0-5.537 1.669-6.777 4.288l-14.384 30.353c-3.703 7.815-11.684 12.865-20.333 12.865h-11.018c-14.024 0-27.208 5.461-37.125 15.378-9.916 9.917-15.376 23.102-15.375 37.126l.006 74.994c0 6.01-2.34 11.661-6.589 15.911-4.25 4.25-9.9 6.591-15.911 6.591zm84.82 4.016c7.083-7.084 10.983-16.501 10.982-26.519l-.006-74.994c-.001-10.017 3.899-19.435 10.982-26.519 7.083-7.083 16.5-10.984 26.518-10.984h11.018c14.414 0 27.716-8.417 33.888-21.441l7.606-16.051 7.606 16.05c6.172 13.025 19.474 21.442 33.887 21.442h11.019c10.018 0 19.435 3.901 26.518 10.984s10.983 16.501 10.982 26.519l-.006 74.993c-.001 10.017 3.899 19.435 10.982 26.519 1.249 1.249 2.574 2.394 3.959 3.441-21.097 37.897-61.564 62.044-104.947 62.044-43.384 0-83.85-24.147-104.948-62.043 1.385-1.047 2.71-2.192 3.96-3.441zm-63.012 40.984h20.262c-9.745 9.537-15.808 22.821-15.808 37.5v3.285c-8.73 3.095-15 11.437-15 21.215 0 2.629.458 5.153 1.29 7.5h-67.382c3.782-38.953 36.709-69.5 76.638-69.5zm11.954 69.5c-4.136 0-7.5-3.364-7.5-7.5s3.364-7.5 7.5-7.5c4.142 0 7.5-3.358 7.5-7.5v-9.5c0-20.678 16.822-37.5 37.5-37.5h7.5v32c0 14.676 6.052 27.964 15.793 37.5zm199.092 0h-94.092c-20.678 0-37.5-16.822-37.5-37.5v-22.444c3.807 3.07 7.782 5.95 11.924 8.611 21.726 13.956 46.839 21.333 72.622 21.333s50.896-7.377 72.621-21.333c4.143-2.661 8.118-5.542 11.925-8.611v22.444c0 20.678-16.822 37.5-37.5 37.5zm36.707 0c9.74-9.536 15.793-22.824 15.793-37.5v-32h7.5c20.678 0 37.5 16.822 37.5 37.5v9.5c0 4.142 3.357 7.5 7.5 7.5 4.136 0 7.5 3.364 7.5 7.5s-3.364 7.5-7.5 7.5zm89.503 0c.833-2.347 1.29-4.871 1.29-7.5 0-9.778-6.27-18.12-15-21.215v-3.285c0-14.679-6.063-27.963-15.808-37.5h20.262c39.929 0 72.856 30.547 76.638 69.5z"/><path d="m128.5 277.5c-20.678 0-37.5 16.822-37.5 37.5s16.822 37.5 37.5 37.5c4.142 0 7.5-3.358 7.5-7.5v-60c0-4.142-3.358-7.5-7.5-7.5zm-7.5 58.715c-8.73-3.095-15-11.437-15-21.215s6.27-18.12 15-21.215z"/><path d="m383.5 352.5c20.678 0 37.5-16.822 37.5-37.5s-16.822-37.5-37.5-37.5c-4.143 0-7.5 3.358-7.5 7.5v60c0 4.142 3.357 7.5 7.5 7.5zm7.5-58.715c8.73 3.095 15 11.437 15 21.215s-6.27 18.12-15 21.215z"/><path d="m203.5 322.5c12.407 0 22.5-10.093 22.5-22.5s-10.093-22.5-22.5-22.5-22.5 10.093-22.5 22.5 10.093 22.5 22.5 22.5zm0-30c4.136 0 7.5 3.364 7.5 7.5s-3.364 7.5-7.5 7.5-7.5-3.364-7.5-7.5 3.364-7.5 7.5-7.5z"/><path d="m308.5 322.5c12.406 0 22.5-10.093 22.5-22.5s-10.094-22.5-22.5-22.5-22.5 10.093-22.5 22.5 10.094 22.5 22.5 22.5zm0-30c4.136 0 7.5 3.364 7.5 7.5s-3.364 7.5-7.5 7.5-7.5-3.364-7.5-7.5 3.364-7.5 7.5-7.5z"/><path d="m195.136 347.012c-4.231 5.949-5.294 13.29-2.915 20.14 9.42 27.125 35.051 45.349 63.779 45.349s54.358-18.224 63.779-45.349c2.379-6.851 1.316-14.191-2.915-20.14-4.237-5.956-11.122-9.511-18.418-9.511h-84.893c-7.296-.001-14.181 3.555-18.417 9.511zm33.832 42.991c8.113-4.881 17.443-7.503 27.032-7.503s18.918 2.622 27.032 7.503c-7.987 4.796-17.279 7.497-27.032 7.497s-19.045-2.701-27.032-7.497zm75.673-34.297c1.381 1.941 1.734 4.32.969 6.524-2.33 6.709-5.939 12.714-10.492 17.79-11.382-8.107-25.029-12.52-39.118-12.52-14.09 0-27.736 4.413-39.117 12.52-4.553-5.075-8.162-11.081-10.492-17.79-.766-2.205-.413-4.583.968-6.524 1.449-2.038 3.708-3.207 6.195-3.207h84.893c2.487.001 4.744 1.169 6.194 3.207z"/></g></svg>