<svg id="Capa_1" enable-background="new 0 0 512 512" height="512" viewBox="0 0 512 512" width="512" xmlns="http://www.w3.org/2000/svg"><g><path d="m443.375 288.699h-30l-18.66 86.301h30c23.328 0 44.338-18.999 45.705-42.286 1.153-19.649-10.312-36.763-27.045-44.015z" fill="#ff4040"/><path d="m440.42 332.714c1.153-19.649-10.312-36.763-27.045-44.015h-44.882v86.301h26.222c23.328 0 44.338-18.999 45.705-42.286z" fill="#ff6f4f"/><path d="m68.625 288.699c-16.733 7.252-28.198 24.366-27.045 44.015 1.367 23.287 22.377 42.286 45.704 42.286h56.222v-86.301z" fill="#ff6f4f"/><path d="m420 420h-30s84.39 80.152 84.5 84.5h30c0-46.668-37.832-84.5-84.5-84.5z" fill="#49c470"/><path d="m390 420h-298c-46.668 0-84.5 37.832-84.5 84.5h135.993l48.755-30 48.755 30h30l48.745-30 48.745 30h106.007c0-46.668-37.832-84.5-84.5-84.5z" fill="#77d489"/><path d="m398.494 405c-8.28 0-15 6.71-15 15l-44.65 84.5h29.65c24.86 0 45-20.15 45-45v-39.5c0-8.29-6.711-15-15-15z" fill="#e0343f"/><path d="m353.493 300 30 159.5c0 24.73-19.95 44.81-44.65 45-.12 0-.23 0-.35 0l-67.49-.01v-30.01c0-8.28-6.72-14.99-15-14.99s-15 6.71-15 14.99v30.01l-97.51.01c-24.85 0-45-20.15-45-45v-39.5c0-8.29 6.72-15 15-15 8.29 0 15 6.71 15 15z" fill="#ff4040"/><circle cx="256" cy="37.5" fill="#f7f4f6" r="30"/><path d="m282.131 77.555c-7.165-6.472-16.476-10.055-26.131-10.055v42.555h62.11z" fill="#49c470"/><path d="m269.509 77.555c-3.704-6.472-8.518-10.055-13.509-10.055-9.655 0-18.966 3.583-26.131 10.055l-35.979 32.5h94.22z" fill="#77d489"/><path d="m383.447 136.456c-38.678-22.307-82.123-33.956-127.447-33.956l127.5 167.5c16.569 0 30-13.432 30-30v-51.542c0-21.459-11.464-41.282-30.053-52.002z" fill="#ebe1e8"/><path d="m359.171 136.456c-31.311-22.307-66.48-33.956-103.171-33.956-45.324 0-88.768 11.649-127.447 33.955-18.59 10.721-30.053 30.543-30.053 52.002v51.542c0 16.568 13.432 30 30 30h255v-81.542c0-21.458-9.28-41.281-24.329-52.001z" fill="#f7f4f6"/><path d="m256 177.5-114.852 60v149.701c20.67 42.683 64.47 72.299 114.852 72.299s94.182-29.616 114.852-72.299v-149.701z" fill="#ffdac7"/><path d="m413.5 218.047-30 126.953c33.137 0 60-26.863 60-60v-75c-10.933 0-21.173 2.939-30 8.047z" fill="#ffc1b0"/><path d="m413.5 285v-66.953c-17.929 10.376-30 29.749-30 51.953l-15 45 15 30c16.568 0 30-26.863 30-60z" fill="#ffdac7"/><path d="m128.5 270c0-33.137-26.863-60-60-60v75c0 33.137 26.863 60 60 60l15-45z" fill="#ffdac7"/><path d="m372.111 202.483c-14.011-10.906-29.577-19.912-46.315-26.597 0 0 27.704 78.776 27.704 104.297l.005 179.323c0 8.281 6.713 14.994 14.994 14.994s14.994-6.713 14.994-14.994l.007-204.506c0-18.694-4.079-36.48-11.389-52.517z" fill="#ff6f4f"/><path d="m325.796 175.886c-21.586-8.623-45.124-13.386-69.796-13.386-43.803 0-84.03 15.011-116.112 39.983-7.309 16.036-11.388 33.823-11.388 52.517l-.006 204.507c0 8.281 6.713 14.993 14.994 14.993 8.294 0 15.006-6.713 15.006-14.994l-.006-174.502c-.002-24.854 20.146-45.004 45-45.004h7.518c0 8.281 6.713 14.993 14.994 14.993 8.294 0 15.007-6.713 15.006-14.994l-.006-32.505c.003-8.282 6.718-14.994 15-14.994s14.996 6.712 15 14.994l.006 32.506c0 8.281 6.713 14.993 14.994 14.993 8.294 0 15.007-6.713 15.006-14.994l7.506.001c24.693 0 44.732 19.892 44.988 44.524 0-55.045-10.382-86.86-27.704-108.638z" fill="#ff8e59"/><path d="m298.45 345c10.21 0 17.6 10.04 14.24 19.69-3.42 9.86-9.34 18.55-17.01 25.32h-39.68l30-45.01z" fill="#524051"/><path d="m213.55 345c-10.21 0-17.6 10.04-14.24 19.69 3.42 9.86 9.34 18.55 17.01 25.32.01-.01 64-9.87 64-9.87 3.57-9.88 5.68-22.02 5.68-35.14z" fill="#7e4158"/><path d="m295.67 390c-10.56 9.34-24.46 15-39.67 15 10.01 0 18.87-9.8 24.32-24.86 5.62 2.5 10.79 5.85 15.35 9.86z" fill="#e0343f"/><path d="m256 375c8.66 0 16.89 1.84 24.32 5.14-5.45 15.06-14.31 24.86-24.32 24.86-15.21 0-29.11-5.66-39.68-14.99 10.59-9.34 24.47-15.01 39.68-15.01z" fill="#ff4040"/><circle cx="203.5" cy="300" fill="#524051" r="15"/><circle cx="308.5" cy="300" fill="#524051" r="15"/><path d="m420 412.5h-.387c-2.855-7.962-9.9-13.895-18.592-14.854-3.424-.378-6.849.041-10.026 1.162v-16.309h33.719c27.732 0 51.594-22.137 53.191-49.347 1.187-20.228-9.474-39.313-26.907-49.032v-74.12c0-4.142-3.357-7.5-7.5-7.5-7.888 0-15.458 1.373-22.5 3.87v-17.912c0-24.058-12.953-46.474-33.806-58.5-20.477-11.809-42.479-20.735-65.326-26.615l-34.71-31.354c-2.308-2.085-4.802-3.907-7.435-5.472 8.406-6.882 13.779-17.333 13.779-29.017 0-20.678-16.822-37.5-37.5-37.5s-37.5 16.822-37.5 37.5c0 11.684 5.373 22.135 13.776 29.018-2.632 1.564-5.127 3.387-7.435 5.472l-34.588 31.243c-12.868 3.307-25.48 7.601-37.783 12.878-3.807 1.632-5.569 6.042-3.937 9.849 1.633 3.807 6.043 5.568 9.849 3.937 30.783-13.203 63.627-19.897 97.618-19.897 44.167 0 85.785 11.087 123.7 32.953 16.223 9.355 26.3 26.792 26.3 45.505v25.448c-6.684 4.483-12.516 10.135-17.226 16.651-1.975-10.707-5.258-21.135-9.839-31.185-.502-1.101-1.263-2.064-2.218-2.808-34.933-27.191-76.676-41.564-120.717-41.564s-85.784 14.373-120.718 41.564c-.955.743-1.716 1.707-2.218 2.808-4.581 10.05-7.863 20.478-9.839 31.185-4.709-6.516-10.542-12.167-17.226-16.651v-25.449c0-18.713 10.078-36.149 26.301-45.505 3.588-2.069 4.819-6.656 2.75-10.244-2.07-3.59-6.657-4.819-10.244-2.75-20.852 12.026-33.806 34.442-33.806 58.5v17.913c-7.042-2.498-14.612-3.87-22.5-3.87-4.143 0-7.5 3.358-7.5 7.5v74.121c-17.435 9.72-28.095 28.805-26.907 49.032 1.597 27.21 25.458 49.347 53.191 49.347h33.712v16.309c-3.175-1.121-6.601-1.54-10.03-1.162-8.691.958-15.737 6.891-18.592 14.854h-.374c-50.729 0-92 41.271-92 92 0 4.142 3.357 7.5 7.5 7.5h497c4.143 0 7.5-3.358 7.5-7.5 0-50.731-41.271-92.002-92-92.002zm-186.5-375c0-12.407 10.094-22.5 22.5-22.5s22.5 10.093 22.5 22.5-10.094 22.5-22.5 22.5-22.5-10.093-22.5-22.5zm-14.622 60.09 16.019-14.47c5.796-5.236 13.291-8.12 21.103-8.12s15.307 2.884 21.104 8.12l16.065 14.512c-12.267-1.741-24.688-2.632-37.169-2.632-12.535 0-24.92.88-37.122 2.59zm174.615 316.827c1.608-1.441 3.698-2.099 5.884-1.861 3.711.41 6.617 3.855 6.617 7.845l-.001 39.105c0 20.6-16.698 37.369-37.269 37.494h-90.224v-22.51c-.001-3.232-.694-6.304-1.928-9.084 25.796-3.996 49.89-15.434 69.435-33l-.001 26.706c0 11.713 8.584 21.493 19.967 22.748 6.384.706 12.774-1.335 17.532-5.596 4.76-4.263 7.489-10.372 7.489-16.758l.001-39.54c.012-2.145.896-4.114 2.498-5.549zm-227.506-129.414c-.001-10.018 3.899-19.435 10.982-26.519 7.083-7.083 16.501-10.984 26.518-10.984h1.304c3.096 8.727 11.435 14.993 21.209 14.993 12.41 0 22.506-10.091 22.506-22.496l-.006-32.5c.002-4.134 3.366-7.497 7.5-7.497s7.498 3.363 7.5 7.495l.006 32.505c0 12.403 10.091 22.493 22.493 22.493 9.779 0 18.123-6.267 21.221-14.993h1.292c10.018 0 19.435 3.901 26.518 10.984 7.083 7.084 10.983 16.501 10.982 26.519l-.004 126.109c-22.903 26.017-55.55 40.888-90.008 40.888s-67.106-14.872-90.009-40.889zm90.013 181.997c4.134 0 7.498 3.363 7.5 7.494v22.506h-15v-22.503c.002-4.134 3.366-7.497 7.5-7.497zm206.933-134.726c-1.121 19.094-18.622 35.226-38.217 35.226h-33.719v-15.426c28.389-3.153 51.51-23.978 58.099-51.198 9.211 7.504 14.555 19.159 13.837 31.398zm-26.933-114.24v66.966c0 26.403-19.594 48.306-45.002 51.956l.002-66.956c0-26.402 19.592-48.315 45-51.966zm-300 36.966c0-16.574 3.352-32.622 9.965-47.731 31.973-24.389 69.979-37.269 110.035-37.269 40.057 0 78.063 12.881 110.035 37.27 6.496 14.84 9.837 30.587 9.954 46.848 0 .011.005 205.388.005 205.388 0 2.159-.887 4.143-2.497 5.585-1.608 1.44-3.699 2.099-5.88 1.86-3.707-.409-6.611-3.852-6.611-7.839l.006-174.107c.002-14.024-5.459-27.209-15.375-37.126s-23.101-15.379-37.124-15.379l-7.506-.001c-1.99 0-3.897.79-5.304 2.196-1.407 1.407-2.197 3.314-2.197 5.304 0 4.132-3.367 7.494-7.507 7.494-4.132 0-7.493-3.361-7.493-7.495l-.006-32.508c-.006-12.401-10.1-22.49-22.5-22.49s-22.494 10.089-22.5 22.495l.006 32.504c0 4.132-3.367 7.494-7.506 7.494-4.132 0-7.494-3.361-7.494-7.493 0-4.142-3.357-7.5-7.5-7.5h-7.519c-14.023 0-27.208 5.461-37.124 15.378-9.917 9.917-15.377 23.102-15.376 37.125l.006 174.503c0 2.001-.779 3.882-2.194 5.297-1.417 1.417-3.304 2.196-5.312 2.196-4.132 0-7.493-3.361-7.493-7.493l.006-189.506c0-.017 0-15 0-15zm-60-36.966c25.402 3.649 44.99 25.553 45 51.947l-.002 66.974c-25.406-3.652-44.998-25.554-44.998-51.955zm11.284 149.466c-19.596 0-37.097-16.131-38.217-35.226-.719-12.239 4.625-23.896 13.836-31.399 6.588 27.219 29.707 48.043 58.094 51.198v15.427zm18.709 52.901c0-3.99 2.906-7.436 6.617-7.845 2.186-.241 4.275.42 5.884 1.861 1.612 1.444 2.5 3.429 2.5 5.59.001 0 0 39.5 0 39.5 0 12.403 10.091 22.493 22.493 22.493 6.014 0 11.665-2.339 15.915-6.587 4.251-4.249 6.592-9.898 6.591-15.908l-.001-27.1c19.545 17.566 43.64 29.005 69.436 33-1.235 2.781-1.927 5.854-1.928 9.088v22.507h-90.276c-20.554-.146-37.231-16.906-37.231-37.493zm-90.631 76.599c3.749-38.624 36.159-68.965 75.631-69.476v31.983c0 14.676 6.06 27.957 15.801 37.493zm389.829 0c9.741-9.536 15.802-22.818 15.802-37.494l.001-31.982c39.478.504 71.894 30.848 75.644 69.476z"/><path d="m203.5 322.5c12.406 0 22.5-10.093 22.5-22.5s-10.094-22.5-22.5-22.5-22.5 10.093-22.5 22.5 10.094 22.5 22.5 22.5zm0-30c4.136 0 7.5 3.364 7.5 7.5s-3.364 7.5-7.5 7.5-7.5-3.364-7.5-7.5 3.364-7.5 7.5-7.5z"/><path d="m308.5 322.5c12.406 0 22.5-10.093 22.5-22.5s-10.094-22.5-22.5-22.5-22.5 10.093-22.5 22.5 10.094 22.5 22.5 22.5zm0-30c4.136 0 7.5 3.364 7.5 7.5s-3.364 7.5-7.5 7.5-7.5-3.364-7.5-7.5 3.364-7.5 7.5-7.5z"/><path d="m195.136 347.011c-4.231 5.949-5.294 13.289-2.915 20.14 9.42 27.125 35.051 45.349 63.779 45.349s54.359-18.224 63.779-45.349c2.379-6.851 1.316-14.191-2.915-20.14-4.237-5.956-11.122-9.511-18.418-9.511h-84.893c-7.295 0-14.18 3.556-18.417 9.511zm33.832 42.992c8.113-4.881 17.443-7.503 27.032-7.503 9.588 0 18.918 2.622 27.031 7.503-7.986 4.797-17.279 7.497-27.031 7.497s-19.045-2.701-27.032-7.497zm75.673-34.297c1.381 1.941 1.734 4.32.969 6.524-2.33 6.709-5.94 12.715-10.493 17.79-11.382-8.107-25.028-12.52-39.117-12.52-14.09 0-27.736 4.413-39.117 12.521-4.553-5.076-8.162-11.081-10.492-17.79-.766-2.205-.412-4.583.969-6.525 1.449-2.038 3.707-3.206 6.194-3.206h84.893c2.487 0 4.744 1.168 6.194 3.206z"/></g></svg>