<svg id="Capa_1" enable-background="new 0 0 512.872 512.872" height="512" viewBox="0 0 512.872 512.872" width="512" xmlns="http://www.w3.org/2000/svg"><g><path d="m474.936 370.373v60h-60l30-60z" fill="#ffc766"/><path d="m286.436 370.373c-16.57 0-30 13.43-30 30l-30 60h218.5v-90z" fill="#ffdc96"/><path d="m226.436 370.373h-188.5v90h218.5v-60c0-16.57-13.43-30-30-30z" fill="#ffecc7"/><path d="m504.936 400.373v30l-75 37.5 45-67.5z" fill="#ffa857"/><path d="m286.436 400.373c-16.57 0-30 13.43-30 30l-30 30h248.5v-60z" fill="#ffc766"/><path d="m226.436 400.373h-218.5v30l248.5 30v-30c0-16.57-13.43-30-30-30z" fill="#ffdc96"/><path d="m504.936 430.373v75h-30l-45-37.5 45-37.5z" fill="#b53a4c"/><path d="m474.936 430.373v75h-218.5l-30-22.503 30-22.497c0-16.57 13.43-30 30-30z" fill="#e0343f"/><path d="m256.436 460.373v45h-248.5v-75h218.5c16.57 0 30 13.43 30 30z" fill="#ff4040"/><path d="m141.584 75.869v192.202c20.67 42.683 64.47 72.299 114.852 72.299s94.182-29.616 114.852-72.299v-192.202z" fill="#ffdac7"/><path d="m465.9 211.676c-11.901-5.554-20.569-16.296-23.486-29.101l-5.956 157.795c37.154 0 68.479-30.393 68.454-67.547-.019-27.077-15.988-50.41-39.012-61.147z" fill="#7e4158"/><path d="m454.626 211.676c-6.188-5.554-10.696-16.296-12.212-29.101-2.876-12.702-9.775-23.869-19.292-32.116-6.385-5.512-10.973-12.794-13.205-20.906-16.08-69.916-78.697-122.055-153.493-122.055s-137.414 52.139-153.494 122.054c-2.232 8.113-6.82 15.394-13.205 20.906-9.516 8.247-16.416 19.414-19.292 32.116-2.916 12.804-11.584 23.547-23.486 29.101-23.025 10.737-38.993 34.071-39.012 61.147-.025 37.154 31.3 67.547 68.454 67.547h52.539c16.569 0 30-13.432 30-30.001l-.004-129.499c-.001-24.852 20.144-44.999 44.995-45.001h60.008c24.853 0 45-20.147 45-45 24.852.003 44.996 20.15 44.995 45.001l-.004 174.499c0 16.569 13.431 30.001 30 30.001h52.54c20.871 0 38.467-30.393 38.453-67.547-.01-27.076-8.313-50.409-20.285-61.146z" fill="#b53a4c"/><circle cx="203.936" cy="180.87" fill="#524051" r="15"/><circle cx="308.936" cy="180.87" fill="#524051" r="15"/><path d="m98.936 195.873c0 16.568 13.432 30 30 30v-60c-16.569 0-30 13.432-30 30z" fill="#ffdac7"/><path d="m413.936 195.873c0 16.568-13.432 30-30 30v-60c16.568 0 30 13.432 30 30z" fill="#ffdac7"/><path d="m256.436 210.87-.026 67.5h38.99c3.831-6.621 6.035-14.301 6.035-22.5.001-24.853-20.146-45-44.999-45z" fill="#524051"/><path d="m256.436 210.87c-24.853 0-45 20.147-45 45 0 8.199 2.204 15.879 6.035 22.5l53.939-19.941c.016-.847.026-1.699.026-2.559 0-24.853-6.716-45-15-45z" fill="#7e4158"/><path d="m271.41 258.429-14.974 42.441c16.653 0 31.183-9.053 38.965-22.5-5.328-9.207-13.821-16.349-23.991-19.941z" fill="#e0343f"/><path d="m271.41 258.429c-4.684-1.655-9.723-2.559-14.974-2.559-16.653 0-31.183 9.053-38.965 22.5 7.782 13.447 22.312 22.5 38.965 22.5 7.998 0 14.532-18.78 14.974-42.441z" fill="#ff4040"/><path d="m504.936 392.872h-22.5v-22.5c0-4.142-3.357-7.5-7.5-7.5h-188.5c-12.254 0-23.153 5.909-30 15.026-6.847-9.117-17.746-15.026-30-15.026h-188.5c-4.143 0-7.5 3.358-7.5 7.5v22.5h-22.5c-4.143 0-7.5 3.358-7.5 7.5v105c0 4.142 3.357 7.5 7.5 7.5h497c4.143 0 7.5-3.358 7.5-7.5v-105c0-4.143-3.358-7.5-7.5-7.5zm-7.5 30h-211c-8.436 0-16.228 2.801-22.5 7.52 0-12.427 10.094-22.52 22.5-22.52h211zm-211-45h181v15h-181c-8.435 0-16.229 2.8-22.5 7.518 0-12.425 10.094-22.518 22.5-22.518zm-248.5 30c4.143 0 7.5-3.358 7.5-7.5v-22.5h181c12.406 0 22.5 10.093 22.5 22.5-6.271-4.7-14.065-7.5-22.5-7.5h-158.5c-4.143 0-7.5 3.358-7.5 7.5s3.357 7.5 7.5 7.5h158.5c12.406 0 22.5 10.093 22.5 22.5-6.272-4.699-14.064-7.5-22.5-7.5h-211v-15zm211 90h-233.5v-60h211c12.406 0 22.5 10.093 22.5 22.5zm15 0v-37.5c0-12.407 10.094-22.5 22.5-22.5h211v60z"/><path d="m128.936 233.375c4.143 0 7.5-3.358 7.5-7.5v-60c0-4.142-3.357-7.5-7.5-7.5-20.678 0-37.5 16.822-37.5 37.5s16.822 37.5 37.5 37.5zm-7.5-58.715v42.43c-8.73-3.095-15-11.437-15-21.215s6.269-18.12 15-21.215z"/><path d="m383.936 233.375c20.678 0 37.5-16.822 37.5-37.5s-16.822-37.5-37.5-37.5c-4.143 0-7.5 3.358-7.5 7.5v60c0 4.142 3.357 7.5 7.5 7.5zm7.5-58.715c8.73 3.095 15 11.437 15 21.215s-6.27 18.12-15 21.215z"/><path d="m76.39 347.872h52.538c10.017 0 19.435-3.901 26.518-10.983 6.417-6.417 10.211-14.753 10.869-23.711 24.681 22.232 56.637 34.695 90.122 34.695 33.475 0 65.422-12.456 90.1-34.676 1.45 19.362 17.656 34.676 37.383 34.676h52.539c20.005 0 38.978-7.809 53.423-21.988 14.543-14.275 22.545-33.12 22.531-53.064-.02-29.002-17.032-55.669-43.34-67.938-9.874-4.607-16.925-13.344-19.343-23.96-3.192-14.103-10.694-26.595-21.705-36.137-5.229-4.514-8.973-10.417-10.835-17.077-8.253-35.71-28.595-68.106-57.293-91.238-29.178-23.519-65.925-36.471-103.473-36.471s-74.296 12.952-103.473 36.469c-28.698 23.132-49.04 55.529-57.293 91.24-1.861 6.658-5.605 12.56-10.846 17.083-11 9.533-18.502 22.025-21.692 36.119-2.42 10.625-9.471 19.362-19.343 23.969-26.31 12.27-43.322 38.937-43.342 67.939-.014 19.944 7.988 38.789 22.531 53.064 14.446 14.18 33.419 21.989 53.424 21.989zm180.046-15c-34.458 0-67.106-14.872-90.008-40.889l-.002-111.111c-.001-20.676 16.82-37.499 37.495-37.501h60.007c26.184 0 47.951-19.267 51.871-44.368 17.405 3.24 30.625 18.541 30.624 36.87l-.003 156.14c-22.902 25.998-55.539 40.859-89.984 40.859zm-206.317-114.398c14.102-6.581 24.171-19.057 27.628-34.241 2.482-10.962 8.322-20.681 16.879-28.096 7.524-6.497 12.896-15.001 15.535-24.595.028-.102.054-.205.078-.308 15.741-68.437 75.854-116.234 146.185-116.234s130.443 47.797 146.184 116.235c.024.104.05.207.078.309 2.641 9.594 8.012 18.098 15.524 24.585 8.567 7.424 14.407 17.142 16.892 28.114 3.455 15.174 13.525 27.651 27.628 34.232 21.053 9.817 34.666 31.153 34.682 54.355.011 15.88-6.396 30.92-18.038 42.349-11.624 11.41-26.865 17.693-42.916 17.693h-52.539c-12.406 0-22.5-10.094-22.5-22.5l.004-174.499c.001-28.946-23.548-52.499-52.494-52.502-1.99 0-3.897.79-5.304 2.196-1.407 1.407-2.197 3.314-2.197 5.304 0 20.678-16.822 37.5-37.5 37.5h-60.008c-28.946.003-52.495 23.556-52.494 52.501l.003 129.5c0 6.01-2.34 11.66-6.59 15.91-4.249 4.25-9.899 6.59-15.91 6.59h-52.539c-16.051 0-31.292-6.284-42.916-17.693-11.643-11.429-18.049-26.469-18.038-42.349.015-23.203 13.629-44.538 34.683-54.356z"/><path d="m226.436 180.872c0-12.407-10.094-22.5-22.5-22.5s-22.5 10.093-22.5 22.5 10.094 22.5 22.5 22.5 22.5-10.094 22.5-22.5zm-30 0c0-4.136 3.364-7.5 7.5-7.5s7.5 3.364 7.5 7.5-3.364 7.5-7.5 7.5-7.5-3.365-7.5-7.5z"/><path d="m256.436 203.372c-28.948 0-52.5 23.551-52.5 52.5s23.552 52.5 52.5 52.5 52.5-23.551 52.5-52.5-23.552-52.5-52.5-52.5zm0 90c-12.239 0-23.126-5.895-29.975-14.994 7.037-9.347 18.15-15.006 29.975-15.006 11.824 0 22.938 5.659 29.975 15.006-6.849 9.098-17.736 14.994-29.975 14.994zm36.739-29.964c-9.7-9.486-22.872-15.037-36.739-15.037-13.866 0-27.039 5.551-36.739 15.037-.499-2.435-.761-4.956-.761-7.537 0-20.678 16.822-37.5 37.5-37.5s37.5 16.822 37.5 37.5c0 2.581-.262 5.102-.761 7.537z"/><path d="m308.936 158.372c-12.406 0-22.5 10.093-22.5 22.5s10.094 22.5 22.5 22.5 22.5-10.093 22.5-22.5-10.094-22.5-22.5-22.5zm0 30c-4.136 0-7.5-3.364-7.5-7.5s3.364-7.5 7.5-7.5 7.5 3.364 7.5 7.5-3.364 7.5-7.5 7.5z"/></g></svg>