<svg id="Capa_1" enable-background="new 0 0 512 512" height="512" viewBox="0 0 512 512" width="512" xmlns="http://www.w3.org/2000/svg"><g><path d="m76 335.41c-37.83 0-68.5 30.67-68.5 68.5v100.59h128.08z" fill="#49c470"/><path d="m135.58 504.5-41.58-31.5c-11.33-8.5-18-21.84-18-36v-101.59c0-8.29 6.72-15 15-15 4.14 0 7.89 1.68 10.6 4.39 2.72 2.72 4.4 6.46 4.4 10.61h89.58z" fill="#33965d"/><path d="m135.58 357.5h60l-30 147h-30z" fill="#ff4040"/><path d="m436 335.41 38.5 169.09h30v-100.59c0-37.83-30.67-68.5-68.5-68.5z" fill="#38ad63"/><path d="m436 335.41-59.58 169.09h98.08v-100.59c0-37.83-17.24-68.5-38.5-68.5z" fill="#49c470"/><path d="m431.6 324.8c-2.71-2.71-6.46-4.39-10.6-4.39s-7.89 1.68-10.6 4.39c-2.72 2.72-4.4 6.46-4.4 10.61l-17.8 160.17 29.8-22.58c11.33-8.5 18-21.84 18-36v-101.59c0-4.15-1.68-7.89-4.4-10.61z" fill="#377d5b"/><path d="m406 335.41v124.32c0 14.08-6.59 27.34-17.8 35.85-.07.05-.13.1-.2.15l-11.58 8.77-75-169.09z" fill="#33965d"/><path d="m376.42 357.5h-60l30 147h30z" fill="#ff4040"/><path d="m256 327.75-90.42 29.75v147h45l45.42-45 45.42 45h45v-147z" fill="#fff"/><path d="m271 414.5 30.42 90h-90.84l30.42-90 15-15z" fill="#33965d"/><path d="m285.06 326h-58.12l-16.4 31.67.04.08 30.42 56.75h30l30.42-56.86z" fill="#377d5b"/><path d="m256 337.5c4.83 0 9.67 1.17 14.06 3.5l71.08 37.72c3.47 1.84 7.34 2.8 11.26 2.8 6.64 0 12.64-2.69 16.99-7.03 4.34-4.35 7.03-10.35 7.03-16.99v-22.09l-44.13-23.42h-152.58l-44.13 23.42v22.09c0 6.64 2.69 12.64 7.03 16.99 4.35 4.34 10.35 7.03 16.99 7.03 3.92 0 7.79-.96 11.26-2.8l71.08-37.72c4.39-2.33 9.23-3.5 14.06-3.5z" fill="#f7f4f6"/><path d="m383.5 150c16.57 0 30 13.43 30 30s-13.43 30-30 30l-15-30z" fill="#ffa294"/><path d="m128.5 150 15 30-15 30c-16.57 0-30-13.43-30-30s13.43-30 30-30z" fill="#ffc1b0"/><path d="m256 7.5v330c70.125 0 127.5-57.375 127.5-127.5v-75c0-70.125-57.375-127.5-127.5-127.5z" fill="#ffc1b0"/><path d="m353.5 210v-75c0-70.125-43.875-127.5-97.5-127.5-70.125 0-127.5 57.375-127.5 127.5v75c0 70.125 57.375 127.5 127.5 127.5 53.625 0 97.5-57.375 97.5-127.5z" fill="#ffdac7"/><path d="m322.868 90h-30l30 30h30c0-16.569-13.432-30-30-30z" fill="#a1849f"/><path d="m292.868 90h-22.368c0 16.568 13.431 30 30 30h22.368c0-16.569-13.432-30-30-30z" fill="#b59ab0"/><path d="m188.132 90h52.368c0 16.568-13.431 30-30 30h-52.368c0-16.569 13.431-30 30-30z" fill="#b59ab0"/><g fill="#524051"><circle cx="203.5" cy="165" r="15"/><circle cx="308.5" cy="165" r="15"/><path d="m298.45 210c10.21 0 17.6 10.04 14.24 19.69-3.42 9.86-9.34 18.55-17.01 25.32h-39.68l30-45.01z"/></g><path d="m213.55 210c-10.21 0-17.6 10.04-14.24 19.69 3.42 9.86 9.34 18.55 17.01 25.32.01-.01 64-9.87 64-9.87 3.57-9.88 5.68-22.02 5.68-35.14z" fill="#7e4158"/><path d="m295.67 255c-10.56 9.34-24.46 15-39.67 15 10.01 0 18.87-9.8 24.32-24.86 5.62 2.5 10.79 5.85 15.35 9.86z" fill="#e0343f"/><path d="m256 240c8.66 0 16.89 1.84 24.32 5.14-5.45 15.06-14.31 24.86-24.32 24.86-15.21 0-29.11-5.66-39.68-14.99 10.59-9.34 24.47-15.01 39.68-15.01z" fill="#ff4040"/><path d="m442.306 328.191c-3.015-8.876-11.423-15.282-21.306-15.282-9.778 0-18.12 6.27-21.215 15h-21.496l-32.46-17.227c26.126-23.334 43.151-56.654 45.001-93.906 17.18-3.419 30.17-18.607 30.17-36.776 0-18.11-12.904-33.261-30-36.745v-8.255c0-74.439-60.561-135-135-135s-135 60.561-135 135v8.255c-17.096 3.484-30 18.635-30 36.745 0 18.169 12.99 33.357 30.17 36.776 1.851 37.252 18.876 70.572 45.001 93.906l-32.461 17.227h-21.496c-3.095-8.73-11.437-15-21.215-15-9.882 0-18.291 6.407-21.306 15.282-38.964 3.218-69.693 35.936-69.693 75.717v100.592c0 4.142 3.358 7.5 7.5 7.5h497c4.142 0 7.5-3.358 7.5-7.5v-100.592c0-39.781-30.729-72.499-69.694-75.717zm-36.637 14.717c5.086 0 7.831-3.865 7.831-7.5 0-4.135 3.364-7.5 7.5-7.5s7.5 3.364 7.5 7.5v101.592c0 11.74-5.607 22.956-15.029 30.022l-29.548 22.387v-146.5zm-240.092 107.223c-4.142 0-7.5 3.358-7.5 7.5v39.369h-15v-112.668c4.402 2.721 9.519 4.391 15 4.653v38.646c0 4.142 3.358 7.5 7.5 7.5s7.5-3.358 7.5-7.5v-41.648c.435-.206.871-.412 1.297-.638l33.078-17.554 25.402 47.387-27.659 81.822h-32.118v-39.369c0-4.142-3.358-7.5-7.5-7.5zm100.97-102.506 24.707 13.111-24.748 46.264h-21.017l-24.787-46.24 24.751-13.135c6.473-3.435 14.621-3.435 21.094 0zm-20.165 74.375h19.236l25.352 75h-69.941zm32.763-6.826 25.359-47.406 33.122 17.577c.426.226.862.432 1.297.638v111.017h-32.119zm74.778-26.19c5.481-.262 10.597-1.932 15-4.652v112.668h-15zm14.999-49.065v17.592c-.005 9.105-7.414 16.512-16.521 16.512-2.69 0-5.368-.667-7.745-1.928l-57.78-30.662c16.782-3.942 32.363-11.026 46.095-20.592zm37.078-159.919c0 9.778-6.271 18.114-15 21.21v-42.42c8.729 3.096 15 11.432 15 21.21zm-300 0c0-9.778 6.271-18.114 15-21.21v42.42c-8.729-3.096-15-11.432-15-21.21zm30 30v-75c0-66.168 53.832-120 120-120s120 53.832 120 120v75c0 66.168-53.832 120-120 120s-120-53.832-120-120zm7.077 129.919 35.95-19.078c13.732 9.565 29.313 16.65 46.095 20.592l-57.78 30.662c-2.376 1.261-5.054 1.928-7.744 1.928-9.11 0-16.521-7.412-16.521-16.521zm-59.577-4.511c0-4.135 3.364-7.5 7.5-7.5s7.5 3.364 7.5 7.5c0 3.635 2.745 7.5 7.831 7.5h21.746v146.5l-29.577-22.408c-9.393-7.044-15-18.259-15-30zm-68.5 68.5c0-31.095 23.392-56.812 53.5-60.522v93.614c0 16.437 7.851 32.138 20.971 41.978l23.787 18.022h-98.258zm482 93.092h-98.258l23.758-18c13.149-9.862 21-25.563 21-42v-93.614c30.108 3.71 53.5 29.427 53.5 60.522z"/><path d="m301 127.5h51.868c4.142 0 7.5-3.358 7.5-7.5 0-20.678-16.822-37.5-37.5-37.5h-51.868c-4.142 0-7.5 3.358-7.5 7.5 0 20.678 16.822 37.5 37.5 37.5zm21.868-30c9.778 0 18.12 6.27 21.215 15h-43.083c-9.778 0-18.12-6.27-21.215-15z"/><path d="m248.5 90c0-4.142-3.358-7.5-7.5-7.5h-51.868c-20.678 0-37.5 16.822-37.5 37.5 0 4.142 3.358 7.5 7.5 7.5h51.868c20.678 0 37.5-16.822 37.5-37.5zm-59.368 7.5h43.083c-3.095 8.73-11.437 15-21.215 15h-43.083c3.095-8.73 11.437-15 21.215-15z"/><path d="m226 165c0-12.407-10.093-22.5-22.5-22.5s-22.5 10.093-22.5 22.5 10.093 22.5 22.5 22.5 22.5-10.093 22.5-22.5zm-30 0c0-4.136 3.364-7.5 7.5-7.5s7.5 3.364 7.5 7.5-3.364 7.5-7.5 7.5-7.5-3.364-7.5-7.5z"/><path d="m308.5 142.5c-12.407 0-22.5 10.093-22.5 22.5s10.093 22.5 22.5 22.5 22.5-10.093 22.5-22.5-10.093-22.5-22.5-22.5zm0 30c-4.136 0-7.5-3.364-7.5-7.5s3.364-7.5 7.5-7.5 7.5 3.364 7.5 7.5-3.364 7.5-7.5 7.5z"/><path d="m195.136 212.012c-4.231 5.949-5.294 13.29-2.915 20.14 9.42 27.125 35.051 45.349 63.779 45.349s54.359-18.224 63.779-45.349c2.379-6.85 1.316-14.191-2.915-20.14-4.236-5.956-11.122-9.512-18.418-9.512h-84.893c-7.296 0-14.181 3.556-18.417 9.512zm33.833 42.991c8.113-4.881 17.443-7.503 27.031-7.503 9.589 0 18.918 2.622 27.031 7.503-7.986 4.797-17.279 7.497-27.031 7.497s-19.045-2.701-27.031-7.497zm75.672-34.296c1.381 1.941 1.734 4.319.968 6.524-2.33 6.709-5.94 12.714-10.492 17.79-11.382-8.108-25.028-12.521-39.117-12.521s-27.735 4.413-39.117 12.52c-4.553-5.076-8.162-11.081-10.492-17.79-.766-2.205-.413-4.583.968-6.524 1.449-2.038 3.708-3.207 6.195-3.207h84.893c2.487.001 4.745 1.169 6.194 3.208z"/></g></svg>