<svg id="Capa_1" enable-background="new 0 0 512 512" height="512" viewBox="0 0 512 512" width="512" xmlns="http://www.w3.org/2000/svg"><g><path d="m406 271c-55.211 0-210 30-210 30v195s180 8.5 210 8.5c16.57 0 30-13.43 30-30v-173.5c0-16.57-13.43-30-30-30z" fill="#ffc766"/><path d="m286 271h120c-16.57 0-30 13.43-30 30v105c0 16.56-13.43 30-30 30s-60-13.44-60-30z" fill="#ffa857"/><path d="m346 466h-210v8.5c0 16.57 13.43 30 30 30h210z" fill="#ffecc7"/><path d="m376 474.5v-8.5h-30v8.5c0 16.57 13.43 30 30 30h30c-16.57 0-30-13.43-30-30z" fill="#ffdc96"/><path d="m406 241c-55.211 0-210-30-210-30v-195s180-8.5 210-8.5c16.57 0 30 13.43 30 30v173.5c0 16.57-13.43 30-30 30z" fill="#ffc766"/><path d="m286 241h120c-16.57 0-30-13.43-30-30v-105c0-16.56-13.43-30-30-30s-60 13.44-60 30z" fill="#ffa857"/><path d="m346 46h-210v-8.5c0-16.57 13.43-30 30-30h210z" fill="#ffecc7"/><path d="m376 37.5v8.5h-30v-8.5c0-16.57 13.43-30 30-30h30c-16.57 0-30 13.43-30 30z" fill="#ffdc96"/><path d="m301 406v-300l15-30h-210c-16.5 0-30 13.5-30 30v300c0 16.5 13.5 30 30 30h210z" fill="#ffecc7"/><path d="m316 406v-300c0-16.56 13.43-30 30-30h-30c-16.57 0-30 13.44-30 30v300c0 16.56 13.43 30 30 30h30c-16.57 0-30-13.44-30-30z" fill="#ffdc96"/><path d="m256 128.504h-120c-4.142 0-7.5 3.358-7.5 7.5s3.358 7.5 7.5 7.5h120c4.142 0 7.5-3.358 7.5-7.5s-3.358-7.5-7.5-7.5z"/><path d="m256 158.504h-120c-4.142 0-7.5 3.358-7.5 7.5s3.358 7.5 7.5 7.5h120c4.142 0 7.5-3.358 7.5-7.5s-3.358-7.5-7.5-7.5z"/><path d="m256 188.504h-120c-4.142 0-7.5 3.358-7.5 7.5s3.358 7.5 7.5 7.5h120c4.142 0 7.5-3.358 7.5-7.5s-3.358-7.5-7.5-7.5z"/><path d="m256 218.504h-120c-4.142 0-7.5 3.358-7.5 7.5s3.358 7.5 7.5 7.5h120c4.142 0 7.5-3.358 7.5-7.5s-3.358-7.5-7.5-7.5z"/><path d="m256 248.504h-120c-4.142 0-7.5 3.358-7.5 7.5s3.358 7.5 7.5 7.5h120c4.142 0 7.5-3.358 7.5-7.5s-3.358-7.5-7.5-7.5z"/><path d="m256 278.504h-120c-4.142 0-7.5 3.358-7.5 7.5s3.358 7.5 7.5 7.5h120c4.142 0 7.5-3.358 7.5-7.5s-3.358-7.5-7.5-7.5z"/><path d="m256 308.504h-120c-4.142 0-7.5 3.358-7.5 7.5s3.358 7.5 7.5 7.5h120c4.142 0 7.5-3.358 7.5-7.5s-3.358-7.5-7.5-7.5z"/><path d="m256 338.504h-120c-4.142 0-7.5 3.358-7.5 7.5s3.358 7.5 7.5 7.5h120c4.142 0 7.5-3.358 7.5-7.5s-3.358-7.5-7.5-7.5z"/><path d="m256 368.504h-120c-4.142 0-7.5 3.358-7.5 7.5s3.358 7.5 7.5 7.5h120c4.142 0 7.5-3.358 7.5-7.5s-3.358-7.5-7.5-7.5z"/><path d="m443.5 211v-173.5c0-20.678-16.822-37.5-37.5-37.5h-240c-20.678 0-37.5 16.822-37.5 37.5v8.504c0 4.142 3.358 7.5 7.5 7.5h52.5v22.5c0 4.142 3.358 7.5 7.5 7.5h120.02c-4.719 6.272-7.52 14.064-7.52 22.5v299.991c0 8.436 2.801 16.228 7.52 22.5h-210.02c-12.407 0-22.5-10.093-22.5-22.5v-299.991c0-12.407 10.093-22.5 22.5-22.5h60c4.142 0 7.5-3.358 7.5-7.5s-3.358-7.5-7.5-7.5h-60c-20.678 0-37.5 16.822-37.5 37.5v299.991c0 20.678 16.822 37.5 37.5 37.5h82.5v15h-52.5c-4.142 0-7.5 3.358-7.5 7.5v8.504c0 20.678 16.822 37.5 37.5 37.5h240c20.678 0 37.5-16.822 37.5-37.5v-173.499c0-20.677-16.822-37.5-37.5-37.5l-82.5-.004v-14.992l82.5-.004c20.678 0 37.5-16.823 37.5-37.5zm-300-173.5c0-12.407 10.093-22.5 22.5-22.5h210.018c-4.718 6.271-7.518 14.065-7.518 22.5v1.004h-225zm22.5 459.5c-12.407 0-22.5-10.093-22.5-22.5v-1.004h225v1.004c0 8.435 2.8 16.229 7.518 22.5zm262.5-196v173.5c0 12.407-10.093 22.5-22.5 22.5s-22.5-10.093-22.5-22.5v-8.504c0-4.142-3.358-7.5-7.5-7.5h-172.5v-15h142.5c20.678 0 37.5-16.822 37.5-37.5v-104.996c0-12.407 10.093-22.5 22.5-22.5s22.5 10.093 22.5 22.5zm-52.478-22.501c-4.72 6.272-7.522 14.065-7.522 22.501v104.996c0 12.407-10.093 22.5-22.5 22.5s-22.5-10.093-22.5-22.5v-127.5zm-52.522-172.495c0-12.407 10.093-22.5 22.5-22.5s22.5 10.093 22.5 22.5v104.996c0 8.436 2.802 16.229 7.522 22.501l-52.522.003zm105 104.996c0 12.407-10.093 22.5-22.5 22.5s-22.5-10.093-22.5-22.5v-104.996c0-20.678-16.822-37.5-37.5-37.5h-142.5v-15h172.5c4.142 0 7.5-3.358 7.5-7.5v-8.504c0-12.407 10.093-22.5 22.5-22.5s22.5 10.093 22.5 22.5z"/></g></svg>