<svg id="Capa_1" enable-background="new 0 0 512 512" height="512" viewBox="0 0 512 512" width="512" xmlns="http://www.w3.org/2000/svg"><g><path d="m256 7.5v497c137.243 0 248.5-111.257 248.5-248.5s-111.257-248.5-248.5-248.5z" fill="#6a5269"/><path d="m474.5 256c0-137.243-97.826-248.5-218.5-248.5-137.243 0-248.5 111.257-248.5 248.5s111.257 248.5 248.5 248.5c120.674 0 218.5-111.257 218.5-248.5z" fill="#7d617d"/><circle cx="256" cy="256" fill="#a1849f" r="119"/><path d="m300.5 178.91-9.01 35.98-35.49-47.89c16.21 0 31.41 4.33 44.5 11.91z" fill="#ffdc96"/><path d="m300.5 333.09-9.01-35.98-35.49 47.89c16.21 0 31.41-4.33 44.5-11.91z" fill="#ffdc96"/><path d="m256 167c-49.15 0-89 39.85-89 89s39.85 89 89 89c13.32 0 25.61-6.66 35.49-17.89v-142.22c-9.88-11.23-22.17-17.89-35.49-17.89z" fill="#ffecc7"/><path d="m300.5 178.91c-3.13 1.81-6.14 3.81-9.01 5.98v142.22c2.87 2.17 5.88 4.17 9.01 5.98 26.6-15.39 44.5-44.15 44.5-77.09s-17.9-61.7-44.5-77.09z" fill="#6a5269"/><path d="m291.49 184.89c14.27 16.24 23.51 42.05 23.51 71.11s-9.24 54.87-23.51 71.11c-21.56-16.24-35.49-42.05-35.49-71.11s13.93-54.87 35.49-71.11z" fill="#7d617d"/><g fill="#ffdc96"><path d="m256 37.5 11.588 23.48 25.912 3.765-18.75 18.277 4.426 25.807-23.176-12.184-23.176 12.184 4.426-25.807-18.75-18.277 25.912-3.765z"/><path d="m101.497 101.497 24.797 8.409 20.985-15.66-.335 26.182 21.379 15.118-25.004 7.773-7.773 25.004-15.118-21.379-26.182.335 15.66-20.985z"/><path d="m37.5 256 23.48-11.588 3.765-25.912 18.277 18.75 25.807-4.426-12.184 23.176 12.184 23.176-25.807-4.426-18.277 18.75-3.765-25.912z"/><path d="m101.497 410.503 8.409-24.797-15.66-20.985 26.182.335 15.118-21.379 7.773 25.004 25.004 7.773-21.379 15.118.335 26.182-20.985-15.66z"/><path d="m256 474.5-11.588-23.48-25.912-3.765 18.75-18.277-4.426-25.807 23.176 12.184 23.176-12.184-4.426 25.807 18.75 18.277-25.912 3.765z"/><path d="m410.503 410.503-24.797-8.409-20.985 15.66.335-26.182-21.379-15.118 25.004-7.773 7.773-25.004 15.118 21.379 26.182-.335-15.66 20.985z"/><path d="m474.5 256-23.48 11.588-3.765 25.912-18.277-18.75-25.807 4.426 12.184-23.176-12.184-23.176 25.807 4.426 18.277-18.75 3.765 25.912z"/><path d="m410.503 101.497-8.409 24.797 15.66 20.985-26.182-.335-15.118 21.379-7.773-25.004-25.004-7.773 21.379-15.118-.335-26.182 20.985 15.66z"/></g><path d="m229.191 85.64-3.76 21.921c-.482 2.814.674 5.658 2.984 7.336 1.307.949 2.854 1.432 4.409 1.432 1.193 0 2.392-.285 3.489-.861l19.687-10.35 19.687 10.35c2.528 1.328 5.59 1.107 7.898-.571 2.31-1.678 3.467-4.521 2.983-7.335l-3.76-21.921 15.927-15.524c2.044-1.993 2.779-4.973 1.897-7.688s-3.229-4.694-6.055-5.104l-22.01-3.198-9.843-19.944c-1.262-2.562-3.87-4.183-6.724-4.183s-5.462 1.621-6.726 4.181l-9.843 19.944-22.01 3.198c-2.825.41-5.172 2.389-6.054 5.104s-.146 5.696 1.897 7.688zm16.299-17.238c2.443-.355 4.554-1.889 5.647-4.103l4.863-9.852 4.862 9.853c1.093 2.213 3.204 3.748 5.647 4.103l10.873 1.58-7.868 7.669c-1.768 1.723-2.574 4.206-2.156 6.639l1.857 10.829-9.726-5.113c-1.093-.574-2.291-.861-3.49-.861s-2.397.287-3.49.861l-9.725 5.113 1.857-10.829c.417-2.433-.389-4.916-2.157-6.639l-7.868-7.669z"/><path d="m94.342 154.778 22.239-.284 12.842 18.159c1.419 2.006 3.712 3.17 6.123 3.169.389 0 .782-.03 1.174-.092 2.819-.447 5.141-2.455 5.989-5.182l6.602-21.238 21.238-6.602c2.727-.848 4.735-3.169 5.182-5.989s-.747-5.648-3.077-7.297l-18.159-12.842.284-22.239c.036-2.854-1.551-5.482-4.095-6.778-2.544-1.297-5.603-1.036-7.891.672l-17.825 13.302-21.063-7.143c-2.704-.918-5.694-.22-7.712 1.799-2.019 2.019-2.716 5.008-1.799 7.712l7.143 21.063-13.302 17.825c-1.708 2.288-1.968 5.347-.672 7.891 1.297 2.544 3.966 4.141 6.779 4.094zm22.667-30.893-3.528-10.405 10.405 3.528c2.337.792 4.916.385 6.894-1.092l8.806-6.571-.141 10.986c-.031 2.468 1.154 4.794 3.169 6.219l8.971 6.344-10.492 3.261c-2.357.733-4.203 2.579-4.936 4.936l-3.261 10.492-6.344-8.971c-1.407-1.989-3.69-3.169-6.123-3.169-.032 0-.064 0-.096 0l-10.986.141 6.571-8.806c1.476-1.977 1.884-4.555 1.091-6.893z"/><path d="m114.897 283.584c1.678-2.31 1.899-5.372.571-7.898l-10.35-19.686 10.35-19.686c1.328-2.527 1.107-5.589-.571-7.898-1.679-2.31-4.521-3.468-7.336-2.984l-21.921 3.76-15.524-15.927c-1.992-2.044-4.972-2.78-7.688-1.897-2.715.882-4.694 3.229-5.104 6.054l-3.198 22.01-19.944 9.843c-2.561 1.263-4.182 3.87-4.182 6.725s1.621 5.462 4.181 6.726l19.944 9.843 3.198 22.01c.41 2.825 2.389 5.172 5.104 6.054.761.247 1.542.367 2.317.367 1.991 0 3.937-.793 5.372-2.265l15.524-15.927 21.921 3.76c2.814.482 5.657-.674 7.336-2.984zm-24.891-24.094 5.113 9.725-10.829-1.857c-2.431-.414-4.915.389-6.639 2.157l-7.669 7.868-1.58-10.873c-.355-2.443-1.889-4.554-4.103-5.647l-9.853-4.863 9.853-4.863c2.213-1.093 3.748-3.204 4.103-5.647l1.58-10.873 7.669 7.868c1.724 1.768 4.205 2.574 6.639 2.157l10.829-1.857-5.113 9.725c-1.149 2.185-1.149 4.795 0 6.98z"/><path d="m170.549 369.292-21.238-6.602-6.602-21.238c-.848-2.727-3.169-4.735-5.989-5.182-2.822-.444-5.649.747-7.297 3.077l-12.842 18.159-22.239-.284c-2.86-.056-5.482 1.551-6.778 4.095-1.296 2.543-1.036 5.603.672 7.891l13.302 17.825-7.143 21.063c-.917 2.704-.219 5.693 1.799 7.712 2.019 2.02 5.008 2.716 7.712 1.799l21.063-7.143 17.825 13.302c1.321.986 2.899 1.489 4.487 1.489 1.162 0 2.329-.27 3.404-.817 2.544-1.296 4.131-3.924 4.095-6.778l-.284-22.239 18.159-12.842c2.331-1.648 3.524-4.477 3.077-7.297-.448-2.821-2.457-5.143-5.183-5.99zm-27.935 16.157c-2.015 1.425-3.2 3.751-3.169 6.219l.141 10.986-8.806-6.571c-1.313-.98-2.89-1.489-4.486-1.489-.809 0-1.622.131-2.408.397l-10.405 3.528 3.528-10.405c.793-2.338.385-4.916-1.092-6.894l-6.571-8.806 10.986.141c2.472.035 4.794-1.153 6.219-3.169l6.344-8.971 3.261 10.492c.733 2.357 2.579 4.203 4.936 4.936l10.492 3.261z"/><path d="m282.809 426.36 3.76-21.921c.483-2.814-.674-5.658-2.983-7.335-2.309-1.678-5.37-1.9-7.898-.571l-19.688 10.349-19.686-10.35c-2.527-1.328-5.588-1.106-7.898.571-2.31 1.678-3.466 4.522-2.984 7.336l3.76 21.921-15.927 15.524c-2.044 1.993-2.78 4.973-1.897 7.688.882 2.715 3.229 4.694 6.054 5.104l22.01 3.198 9.843 19.944c1.264 2.56 3.871 4.181 6.726 4.181 2.854 0 5.462-1.621 6.726-4.181l9.843-19.944 22.01-3.198c2.825-.41 5.173-2.389 6.055-5.104s.146-5.696-1.897-7.688zm-16.299 17.238c-2.443.355-4.555 1.889-5.647 4.103l-4.863 9.852-4.863-9.853c-1.093-2.213-3.204-3.748-5.647-4.103l-10.873-1.58 7.868-7.669c1.768-1.723 2.574-4.206 2.157-6.639l-1.857-10.829 9.725 5.113c2.185 1.147 4.794 1.148 6.98 0l9.726-5.113-1.857 10.829c-.418 2.433.389 4.916 2.156 6.639l7.868 7.669z"/><path d="m417.754 357.221c-.031 0-.063 0-.096 0l-22.239.284-12.843-18.159c-1.648-2.331-4.476-3.522-7.297-3.077-2.819.447-5.141 2.456-5.988 5.182l-6.602 21.238-21.238 6.602c-2.726.848-4.734 3.169-5.181 5.989s.746 5.648 3.077 7.297l18.158 12.842-.284 22.239c-.037 2.854 1.551 5.482 4.094 6.778 1.075.548 2.242.817 3.404.817 1.588 0 3.166-.503 4.486-1.489l17.825-13.302 21.063 7.143c2.704.918 5.693.22 7.713-1.799 2.019-2.019 2.716-5.008 1.799-7.712l-7.143-21.063 13.302-17.825c1.707-2.288 1.968-5.347.672-7.891-1.281-2.514-3.865-4.094-6.682-4.094zm-22.763 30.894 3.528 10.405-10.405-3.528c-2.338-.793-4.916-.385-6.894 1.092l-8.807 6.571.141-10.986c.032-2.468-1.153-4.794-3.169-6.219l-8.971-6.344 10.493-3.261c2.357-.733 4.203-2.579 4.936-4.936l3.261-10.492 6.345 8.971c1.424 2.015 3.727 3.21 6.219 3.169l10.986-.141-6.571 8.806c-1.477 1.977-1.885 4.555-1.092 6.893z"/><path d="m477.819 249.274-19.944-9.843-3.198-22.009c-.41-2.825-2.389-5.172-5.104-6.055-2.717-.882-5.696-.146-7.688 1.897l-15.525 15.927-21.921-3.76c-2.813-.481-5.657.675-7.335 2.984-1.679 2.31-1.899 5.372-.571 7.898l10.349 19.687-10.35 19.686c-1.328 2.527-1.107 5.589.571 7.898 1.677 2.31 4.525 3.466 7.335 2.984l21.921-3.76 15.525 15.927c1.435 1.472 3.38 2.265 5.371 2.265.774 0 1.557-.12 2.316-.367 2.716-.882 4.694-3.229 5.104-6.055l3.198-22.009 19.944-9.843c2.56-1.264 4.181-3.871 4.181-6.726s-1.619-5.462-4.179-6.726zm-30.119 11.589c-2.214 1.093-3.748 3.205-4.103 5.647l-1.58 10.873-7.67-7.868c-1.423-1.46-3.365-2.265-5.37-2.265-.421 0-.846.036-1.268.108l-10.829 1.857 5.113-9.725c1.148-2.185 1.148-4.795 0-6.98l-5.113-9.725 10.829 1.857c2.437.415 4.916-.39 6.638-2.157l7.67-7.868 1.58 10.873c.354 2.443 1.889 4.555 4.103 5.647l9.854 4.863z"/><path d="m341.451 142.708 21.238 6.602 6.602 21.238c.848 2.726 3.169 4.735 5.988 5.182.393.062.785.092 1.175.092 2.409 0 4.703-1.163 6.122-3.169l12.843-18.159 22.239.284c2.833.05 5.481-1.551 6.778-4.095 1.296-2.543 1.035-5.603-.672-7.891l-13.302-17.825 7.143-21.063c.917-2.704.22-5.693-1.799-7.712-2.02-2.019-5.007-2.718-7.713-1.799l-21.063 7.143-17.825-13.302c-2.287-1.707-5.346-1.968-7.891-.672-2.543 1.296-4.131 3.924-4.094 6.778l.284 22.239-18.158 12.842c-2.331 1.648-3.524 4.477-3.077 7.297.448 2.822 2.457 5.143 5.182 5.99zm27.935-16.157c2.016-1.425 3.201-3.751 3.169-6.219l-.141-10.986 8.807 6.571c1.977 1.476 4.557 1.886 6.894 1.092l10.405-3.528-3.528 10.405c-.793 2.338-.385 4.916 1.092 6.894l6.571 8.806-10.986-.141c-.032 0-.063 0-.096 0-2.433 0-4.717 1.18-6.123 3.169l-6.345 8.971-3.261-10.492c-.732-2.357-2.578-4.203-4.936-4.936l-10.493-3.261z"/><path d="m437.02 74.98c-48.352-48.351-112.64-74.98-181.02-74.98s-132.667 26.629-181.02 74.98c-48.351 48.353-74.98 112.64-74.98 181.02s26.629 132.667 74.98 181.02c48.353 48.351 112.64 74.98 181.02 74.98s132.668-26.629 181.02-74.98c48.351-48.353 74.98-112.64 74.98-181.02s-26.629-132.667-74.98-181.02zm-181.02 422.02c-132.888 0-241-108.112-241-241s108.112-241 241-241 241 108.112 241 241-108.112 241-241 241z"/><path d="m256 352.5c53.21 0 96.5-43.29 96.5-96.5s-43.29-96.5-96.5-96.5-96.5 43.29-96.5 96.5 43.29 96.5 96.5 96.5zm81.5-96.5c0 28.543-14.76 53.688-37.037 68.25-22.904-14.988-36.963-40.737-36.963-68.25s14.059-53.262 36.963-68.25c22.277 14.562 37.037 39.707 37.037 68.25zm-81.5-81.5c10.401 0 20.343 1.98 29.497 5.547-23.093 18.15-36.997 46.178-36.997 75.953s13.904 57.803 36.997 75.953c-9.154 3.568-19.096 5.547-29.497 5.547-44.939 0-81.5-36.561-81.5-81.5s36.561-81.5 81.5-81.5z"/><path d="m177.207 166.516c2.539 3.272 7.25 3.869 10.523 1.33 19.69-15.273 43.298-23.346 68.27-23.346 61.481 0 111.5 50.019 111.5 111.5s-50.019 111.5-111.5 111.5-111.5-50.019-111.5-111.5c0-24.972 8.073-48.58 23.346-68.271 2.539-3.273 1.943-7.984-1.33-10.523s-7.985-1.943-10.523 1.33c-17.332 22.346-26.493 49.132-26.493 77.464 0 69.752 56.748 126.5 126.5 126.5s126.5-56.748 126.5-126.5-56.748-126.5-126.5-126.5c-28.332 0-55.118 9.161-77.464 26.493-3.273 2.539-3.868 7.25-1.329 10.523z"/></g></svg>