<svg id="Capa_1" enable-background="new 0 0 512 512" height="512" viewBox="0 0 512 512" width="512" xmlns="http://www.w3.org/2000/svg"><g><path d="m465.717 359.76-25.98-15c7.174-4.142 9.632-13.316 5.49-20.491s-13.316-9.632-20.49-5.49l-15 8.66-30-17.321 16.471-9.51c7.174-4.142 9.632-13.316 5.49-20.49-4.142-7.175-13.316-9.633-20.49-5.49l-31.208 18.018v-73.292l31.208 18.018c7.174 4.142 16.348 1.684 20.49-5.49 4.142-7.175 1.684-16.348-5.49-20.49l-16.471-9.51 30-17.32 15 8.66c7.174 4.142 16.348 1.684 20.49-5.49s1.684-16.348-5.49-20.491l25.98-15c7.174-4.142 9.633-13.316 5.49-20.49-4.142-7.174-13.316-9.633-20.49-5.49l-25.979 14.999c-.001-8.283-6.717-14.999-15.001-14.999s-15 6.716-15 15v17.321l-30 17.321v-19.019c0-8.284-6.716-15-15-15s-15 6.716-15 15v36.037l-63.474-36.646v199.456l63.474-36.646v36.037c0 8.284 6.716 15 15 15s15-6.716 15-15v-19.02l30 17.321v17.321c0 8.284 6.716 15 15 15s15-6.716 15-15c0 0 25.981 15 25.981 15 7.174 4.142 16.348 1.684 20.49-5.49 4.142-7.178 1.683-16.352-5.491-20.494z" fill="#d9c8d4"/><path d="m319.999 219.051-48.737-62.779 31.209-18.019c7.174-4.142 9.632-13.316 5.49-20.49-4.142-7.175-13.316-9.633-20.49-5.491l-16.471 9.51v-34.641l15-8.66c7.174-4.142 9.633-13.316 5.49-20.49s-13.316-9.633-20.49-5.491v-30c0-8.284-6.716-15-15-15s-15 6.716-15 15v30c-7.174-4.142-16.348-1.684-20.49 5.49s-1.684 16.348 5.49 20.49l15 8.66v34.641l-16.471-9.51c-7.174-4.142-16.348-1.684-20.49 5.49-4.142 7.175-1.684 16.348 5.49 20.49l31.21 18.019-63.474 36.646v-36.037c0-8.284-6.716-15-15-15s-15 6.716-15 15v19.019l-30-17.321v-17.321c0-8.284-6.716-15-15-15s-15 6.716-15 15c-.001 0-25.981-15-25.981-15-7.174-4.142-16.348-1.684-20.49 5.49s-1.684 16.348 5.49 20.49l25.981 15c-7.174 4.142-9.632 13.316-5.49 20.491 4.142 7.174 13.316 9.632 20.49 5.49l15-8.66 30 17.32-16.471 9.51c-7.174 4.142-9.632 13.316-5.49 20.49 4.142 7.175 13.316 9.633 20.49 5.491l31.208-18.018v73.292l-31.208-18.018c-7.174-4.142-16.348-1.684-20.49 5.49s-1.684 16.348 5.49 20.49l16.471 9.51-30 17.321-15-8.66c-7.174-4.142-16.348-1.684-20.49 5.49s-1.684 16.348 5.49 20.49c-.001.001-25.981 15-25.981 15-7.174 4.142-9.633 13.316-5.49 20.49 4.142 7.174 13.316 9.632 20.49 5.49l25.981-15c0 8.284 6.716 15 15 15s15-6.716 15-15v-17.321l30-17.321v19.02c0 8.284 6.716 15 15 15s15-6.716 15-15v-36.037l63.474 36.646-31.209 18.019c-7.174 4.142-9.632 13.316-5.49 20.49 4.142 7.175 13.316 9.633 20.49 5.491l16.471-9.51v34.641l-15 8.66c-7.174 4.142-9.633 13.316-5.49 20.49s13.316 9.633 20.49 5.49v30c0 8.284 6.716 15 15 15s15-6.716 15-15v-30c7.174 4.142 16.348 1.684 20.49-5.49s1.684-16.348-5.49-20.49l-15-8.66v-34.641l16.471 9.51c7.174 4.142 16.348 1.684 20.49-5.49 4.142-7.175 1.684-16.348-5.49-20.49l-31.21-18.019 48.738-62.779-49-36.944z" fill="#ebe1e8"/><path d="m192.001 219.051h48.998v73.898h-48.998z" fill="#c7adc0"/><path d="m238.801 265.709h73.898v48.998h-73.898z" fill="#a1849f" transform="matrix(.866 -.5 .5 .866 -108.161 176.756)"/><path d="m251.251 184.843h48.998v73.898h-48.998z" fill="#a1849f" transform="matrix(.5 -.866 .866 .5 -54.203 349.703)"/><g fill="#b59ab0"><path d="m256 256 63.999-36.949v73.898z"/><path d="m256 256-63.998-36.95 63.998-36.949z"/><path d="m256 256v73.899l-63.998-36.949z"/></g><path d="m222.001 275.629v-39.258l33.999-19.629 33.999 19.629v39.258l-33.999 19.629z" fill="#d9c8d4"/><path d="m469.467 353.265-17.736-10.241c.968-1.684 1.723-3.505 2.239-5.431 1.556-5.806.757-11.869-2.248-17.073-3.005-5.205-7.856-8.928-13.662-10.484-5.805-1.554-11.868-.757-17.073 2.248l-11.25 6.495-15-8.66 5.221-3.015c5.205-3.005 8.928-7.857 10.483-13.662s.757-11.869-2.248-17.073c-3.004-5.205-7.856-8.929-13.661-10.484-5.805-1.554-11.869-.756-17.074 2.248l-19.959 11.523v-47.313l19.959 11.523c5.205 3.005 11.27 3.802 17.073 2.248 5.806-1.556 10.657-5.279 13.662-10.483 3.005-5.205 3.804-11.269 2.248-17.074s-5.278-10.657-10.483-13.662l-5.221-3.015 15-8.66 11.25 6.495c10.741 6.202 24.531 2.51 30.735-8.236 4.156-7.198 3.869-15.763-.004-22.498l17.749-10.248c5.205-3.005 8.928-7.857 10.483-13.662s.757-11.869-2.248-17.073c-3.005-5.205-7.856-8.928-13.662-10.484-5.806-1.554-11.868-.756-17.073 2.248l-17.749 10.247c-3.896-6.721-11.169-11.252-19.481-11.252-12.406 0-22.5 10.093-22.5 22.5v12.99l-15 8.66v-6.029c0-12.407-10.094-22.5-22.5-22.5s-22.5 10.093-22.5 22.5v23.047l-40.974-23.657 19.958-11.523c10.744-6.203 14.439-19.99 8.236-30.735s-19.991-14.44-30.736-8.236l-5.221 3.014v-17.32l11.25-6.496c5.205-3.005 8.928-7.857 10.483-13.662s.757-11.869-2.248-17.073c-4.155-7.198-11.717-11.232-19.485-11.245v-20.492c0-12.407-10.094-22.5-22.5-22.5s-22.5 10.093-22.5 22.5v20.481c-1.942.003-3.897.26-5.823.776-5.806 1.556-10.657 5.279-13.662 10.483-3.005 5.205-3.804 11.269-2.248 17.074s5.278 10.657 10.483 13.662l11.25 6.495v17.321l-5.222-3.015c-10.741-6.202-24.531-2.51-30.735 8.236-6.202 10.745-2.508 24.532 8.235 30.735l19.959 11.522-7.496 4.328c-3.587 2.071-4.816 6.658-2.745 10.245 2.072 3.588 6.661 4.817 10.245 2.745l18.746-10.823c2.32-1.34 3.75-3.816 3.75-6.495 0-2.68-1.43-5.156-3.75-6.495l-31.209-18.018c-3.581-2.068-4.813-6.664-2.745-10.245 2.068-3.582 6.666-4.813 10.245-2.746l16.472 9.51c2.32 1.34 5.18 1.34 7.5 0s3.75-3.815 3.75-6.495v-34.64c0-2.68-1.43-5.155-3.75-6.495l-15-8.66c-1.735-1.002-2.977-2.619-3.495-4.554s-.252-3.956.75-5.691c1.002-1.734 2.619-2.976 4.555-3.494 1.933-.52 3.956-.252 5.69.749 2.32 1.34 5.18 1.34 7.5 0s3.75-3.815 3.75-6.495v-30c0-4.136 3.364-7.5 7.5-7.5s7.5 3.364 7.5 7.5v30c0 2.679 1.43 5.155 3.75 6.495s5.18 1.34 7.5 0c3.579-2.068 8.177-.837 10.245 2.746 1.002 1.735 1.268 3.756.75 5.69-.519 1.935-1.76 3.552-3.495 4.554l-15 8.661c-2.32 1.34-3.75 3.815-3.75 6.495v34.641c0 2.68 1.43 5.156 3.75 6.495 2.32 1.34 5.18 1.34 7.5 0l16.471-9.51c3.58-2.069 8.178-.835 10.246 2.745 2.067 3.582.836 8.178-2.746 10.246l-31.208 18.019c-2.32 1.34-3.75 3.815-3.75 6.495s1.43 5.155 3.75 6.495l63.474 36.647c2.32 1.34 5.18 1.34 7.5 0s3.75-3.815 3.75-6.495v-36.038c0-4.136 3.364-7.5 7.5-7.5s7.5 3.364 7.5 7.5v19.02c0 2.68 1.43 5.155 3.75 6.495s5.18 1.34 7.5 0l30-17.321c2.32-1.34 3.75-3.815 3.75-6.495v-17.32c0-4.136 3.364-7.5 7.5-7.5s7.5 3.364 7.5 7.5c0 2.68 1.43 5.155 3.75 6.495s5.18 1.34 7.5 0l25.98-15c1.734-1.001 3.754-1.269 5.691-.749 1.935.518 3.552 1.759 4.554 3.495 1.002 1.735 1.268 3.756.75 5.69-.519 1.935-1.76 3.552-3.495 4.554l-25.98 15c-2.32 1.34-3.75 3.815-3.75 6.495 0 2.679 1.43 5.155 3.75 6.495 3.581 2.068 4.813 6.664 2.745 10.245-2.067 3.582-6.664 4.814-10.245 2.746l-15-8.66c-2.32-1.34-5.18-1.34-7.5 0l-30 17.32c-2.32 1.34-3.75 3.815-3.75 6.495 0 2.679 1.43 5.155 3.75 6.495l16.471 9.51c1.735 1.002 2.977 2.619 3.495 4.554s.252 3.956-.75 5.692c-1.002 1.734-2.619 2.976-4.554 3.494-1.937.519-3.958.252-5.691-.749l-31.209-18.019c-2.32-1.34-5.18-1.34-7.5 0s-3.75 3.815-3.75 6.495v73.293c0 2.68 1.43 5.155 3.75 6.495s5.18 1.34 7.5 0l31.209-18.019c1.733-1.001 3.755-1.269 5.691-.749 1.935.518 3.552 1.759 4.554 3.495 1.002 1.735 1.268 3.756.75 5.69-.519 1.935-1.76 3.552-3.495 4.554l-16.471 9.51c-2.32 1.34-3.75 3.816-3.75 6.495 0 2.68 1.43 5.155 3.75 6.495l30 17.32c2.32 1.34 5.18 1.34 7.5 0l15-8.66c1.735-1.001 3.755-1.268 5.691-.749 1.935.519 3.552 1.759 4.554 3.495 1.002 1.734 1.268 3.755.749 5.69s-1.76 3.553-3.494 4.554c-2.32 1.34-3.75 3.816-3.75 6.495 0 2.68 1.43 5.155 3.75 6.495l25.98 15c1.735 1.002 2.977 2.619 3.495 4.554s.252 3.956-.75 5.691c-1.002 1.734-2.619 2.976-4.554 3.494-1.938.52-3.957.252-5.691-.749l-25.98-15c-2.32-1.34-5.18-1.34-7.5 0s-3.75 3.815-3.75 6.495c0 4.136-3.364 7.5-7.5 7.5s-7.5-3.365-7.5-7.5v-17.32c0-2.68-1.43-5.155-3.75-6.495l-30-17.321c-2.32-1.34-5.18-1.34-7.5 0s-3.75 3.815-3.75 6.495v19.02c0 4.136-3.365 7.5-7.501 7.5-4.135 0-7.499-3.365-7.499-7.5l-.001-36.035c0-2.68-1.43-5.155-3.75-6.495s-5.18-1.34-7.5 0l-63.473 36.646c-2.32 1.34-3.75 3.816-3.75 6.495 0 2.68 1.43 5.156 3.75 6.495l31.209 18.018c3.581 2.068 4.813 6.664 2.745 10.245-2.067 3.583-6.664 4.813-10.245 2.746l-16.472-9.51c-2.32-1.34-5.18-1.34-7.5 0s-3.75 3.815-3.75 6.495v34.641c0 2.68 1.43 5.155 3.75 6.495l15 8.66c1.735 1.002 2.977 2.619 3.495 4.554s.252 3.956-.75 5.692c-1.002 1.734-2.619 2.976-4.554 3.494-1.938.518-3.958.252-5.691-.749-2.32-1.34-5.18-1.34-7.5 0s-3.75 3.816-3.75 6.495v30c0 4.136-3.364 7.5-7.5 7.5s-7.5-3.364-7.5-7.5v-30c0-2.68-1.43-5.155-3.75-6.495s-5.18-1.34-7.5 0c-1.734 1.001-3.756 1.268-5.691.749s-3.552-1.759-4.554-3.495c-1.002-1.735-1.268-3.756-.75-5.69.519-1.935 1.76-3.552 3.495-4.554l15-8.661c2.32-1.34 3.75-3.815 3.75-6.495v-34.641c0-2.68-1.43-5.155-3.75-6.495s-5.18-1.34-7.5 0l-16.472 9.51c-1.735 1.001-3.758 1.269-5.69.749-1.936-.519-3.553-1.76-4.555-3.494-2.067-3.582-.836-8.178 2.746-10.246l31.208-18.019c2.32-1.34 3.75-3.815 3.75-6.495s-1.43-5.155-3.75-6.495l-63.474-36.647c-2.32-1.34-5.18-1.34-7.5 0s-3.75 3.815-3.75 6.495v36.038c0 4.136-3.364 7.5-7.5 7.5s-7.5-3.364-7.5-7.5v-19.02c0-2.68-1.43-5.155-3.75-6.495s-5.18-1.34-7.5 0l-30 17.321c-2.32 1.34-3.75 3.815-3.75 6.495v17.32c0 4.136-3.364 7.5-7.5 7.5s-7.5-3.364-7.5-7.5c0-2.68-1.43-5.155-3.75-6.495s-5.18-1.34-7.5 0l-25.98 15c-1.734 1.001-3.756 1.269-5.691.749-1.935-.518-3.552-1.759-4.554-3.495-1.002-1.735-1.268-3.756-.75-5.69.519-1.935 1.76-3.552 3.495-4.554l25.98-15c2.32-1.34 3.75-3.815 3.75-6.495 0-2.679-1.43-5.155-3.75-6.495-3.581-2.068-4.813-6.664-2.745-10.245 2.068-3.582 6.666-4.813 10.245-2.746l15 8.66c2.32 1.34 5.18 1.34 7.5 0l30-17.32c2.32-1.34 3.75-3.815 3.75-6.495 0-2.679-1.43-5.155-3.75-6.495l-16.471-9.51c-1.735-1.002-2.977-2.619-3.495-4.554s-.252-3.956.75-5.691c2.068-3.582 6.665-4.812 10.245-2.745l31.209 18.018c2.32 1.34 5.18 1.34 7.5 0s3.75-3.815 3.75-6.495v-73.293c0-2.68-1.43-5.155-3.75-6.495s-5.18-1.34-7.5 0l-31.209 18.019c-1.735 1.001-3.755 1.268-5.691.749-1.935-.518-3.552-1.759-4.554-3.495-1.002-1.735-1.268-3.756-.75-5.69.519-1.935 1.76-3.552 3.495-4.554l16.471-9.51c2.32-1.34 3.75-3.816 3.75-6.495 0-2.68-1.43-5.155-3.75-6.495l-30-17.32c-2.32-1.34-5.18-1.34-7.5 0l-15 8.66c-1.735 1.001-3.756 1.268-5.691.749s-3.552-1.759-4.554-3.495c-1.002-1.734-1.268-3.755-.749-5.691.519-1.935 1.76-3.553 3.494-4.554 2.32-1.34 3.75-3.816 3.75-6.495 0-2.68-1.43-5.155-3.75-6.495l-25.98-15c-1.735-1.002-2.977-2.619-3.495-4.554s-.252-3.956.75-5.691c1.002-1.734 2.619-2.976 4.554-3.494 1.936-.52 3.957-.252 5.691.749l25.98 15c2.32 1.34 5.18 1.34 7.5 0s3.75-3.815 3.75-6.495c0-4.136 3.364-7.5 7.5-7.5s7.5 3.364 7.5 7.5v17.32c0 2.68 1.43 5.155 3.75 6.495l30 17.321c2.32 1.34 5.18 1.34 7.5 0s3.75-3.815 3.75-6.495v-19.02c0-4.136 3.364-7.5 7.5-7.5s7.5 3.364 7.5 7.5l.001 36.036c0 2.68 1.43 5.156 3.75 6.495 2.32 1.34 5.18 1.34 7.5 0l18.745-10.823c3.587-2.071 4.816-6.658 2.745-10.245-2.071-3.588-6.66-4.816-10.245-2.745l-7.495 4.328-.001-23.045c0-12.407-10.094-22.5-22.5-22.5s-22.5 10.093-22.5 22.5v6.029l-15-8.66v-12.99c0-12.407-10.094-22.5-22.5-22.5-8.313 0-15.586 4.531-19.481 11.252l-17.749-10.248c-5.206-3.005-11.271-3.803-17.073-2.248-5.806 1.556-10.657 5.279-13.662 10.483-3.005 5.205-3.804 11.269-2.248 17.074s5.278 10.657 10.483 13.662l17.736 10.241c-.968 1.684-1.723 3.505-2.239 5.431-1.556 5.806-.757 11.869 2.248 17.073 3.005 5.205 7.856 8.928 13.662 10.484 5.804 1.554 11.867.757 17.073-2.248l11.25-6.495 15 8.66-5.221 3.015c-5.205 3.005-8.928 7.857-10.483 13.662s-.757 11.869 2.248 17.073c3.004 5.205 7.856 8.929 13.661 10.484 5.807 1.555 11.87.757 17.074-2.248l19.959-11.523v47.313l-19.959-11.523c-10.744-6.204-24.532-2.51-30.735 8.235-3.005 5.205-3.804 11.269-2.248 17.074s5.278 10.657 10.483 13.662l5.221 3.015-15 8.66-11.25-6.495c-10.742-6.202-24.531-2.509-30.735 8.236-4.156 7.198-3.869 15.763.004 22.498l-17.749 10.248c-5.205 3.005-8.928 7.857-10.483 13.662s-.757 11.864 2.248 17.069 7.856 8.928 13.662 10.484c5.806 1.555 11.869.757 17.073-2.248l17.749-10.247c3.896 6.721 11.169 11.252 19.481 11.252 12.406 0 22.5-10.093 22.5-22.5v-12.99l15-8.66v6.029c0 12.407 10.094 22.5 22.5 22.5s22.5-10.093 22.5-22.5v-23.047l40.974 23.657-19.958 11.523c-10.744 6.203-14.439 19.99-8.236 30.735 3.005 5.205 7.857 8.928 13.662 10.483 5.806 1.556 11.869.757 17.073-2.248l5.222-3.015v17.321l-11.25 6.496c-5.205 3.005-8.928 7.857-10.483 13.662s-.757 11.869 2.248 17.073c3.005 5.205 7.856 8.928 13.662 10.484 1.927.516 3.881.773 5.823.776v20.48c0 12.407 10.094 22.5 22.5 22.5s22.5-10.093 22.5-22.5v-20.481c1.942-.003 3.897-.26 5.823-.776 5.806-1.556 10.657-5.279 13.662-10.483 3.005-5.205 3.804-11.269 2.248-17.074s-5.278-10.657-10.483-13.662l-11.25-6.495v-17.321l5.222 3.015c10.741 6.203 24.531 2.509 30.735-8.236 6.203-10.744 2.509-24.532-8.235-30.735l-19.959-11.522 40.973-23.656.001 23.045c0 12.407 10.093 22.5 22.499 22.5 12.407 0 22.501-10.093 22.501-22.5v-6.029l15 8.66v12.99c0 12.407 10.094 22.5 22.5 22.5 8.313 0 15.586-4.531 19.481-11.252l17.749 10.247c5.206 3.005 11.269 3.803 17.073 2.248 5.806-1.556 10.657-5.279 13.662-10.483 3.005-5.205 3.804-11.269 2.248-17.074s-5.278-10.656-10.483-13.661z"/><path d="m184.501 219.051v73.898c0 2.68 1.43 5.155 3.75 6.495l63.999 36.949c1.16.67 2.455 1.005 3.75 1.005s2.59-.335 3.75-1.005l63.999-36.949c2.32-1.34 3.75-3.815 3.75-6.495v-73.898c0-2.68-1.43-5.155-3.75-6.495l-63.999-36.949c-2.32-1.34-5.18-1.34-7.5 0l-63.999 36.949c-2.32 1.34-3.75 3.815-3.75 6.495zm37.5 65.238 26.499 15.299v17.32l-41.499-23.959zm33.999-58.887 26.499 15.299v30.598l-26.499 15.299-26.499-15.299v-30.598zm7.5 74.186 26.499-15.299 15 8.66-41.499 23.959zm33.999-28.289v-30.598l15-8.66v47.918zm-7.5-43.588-26.499-15.299v-17.32l41.499 23.959zm-41.499-15.299-26.499 15.299-15-8.66 41.499-23.959zm-33.999 28.289v30.598l-15 8.66v-47.918z"/></g></svg>