<svg id="Capa_1" enable-background="new 0 0 512.001 512.001" height="512" viewBox="0 0 512.001 512.001" width="512" xmlns="http://www.w3.org/2000/svg"><g><g fill="#ffa857"><path d="m337.5 316h30v90h-30z"/><path d="m241 316h30v90h-30z"/><path d="m82.5 316h30v90h-30z"/></g><path d="m474.5 316c0 41.355-33.645 75-75 75h-392v30h362c87.05 0 105-40.929 105-105z" fill="#ffc766"/><path d="m489.5 301c-8.284 0-15 6.716-15 15 0 57.897-47.103 105-105 105h30c57.897 0 105-47.103 105-105 0-8.284-6.716-15-15-15z" fill="#ffa857"/><path d="m412.5 286v-105l15-30c-33 0-60 27-60 60v15c0 45-15 45-15 45h-111.5s-15 0-15-45v-75c0-33-27-60-60-60h-143.076c-8.077 0-15.026 6.207-15.406 14.275-.406 8.614 6.458 15.725 14.982 15.725v150c0 33 27 60 60 60h270c38.5 0 60-20.147 60-45z" fill="#ff4040"/><path d="m352.5 241h-15l-15 60h30c8.25 0 15-6.75 15-15v-60c0 8.25-6.75 15-15 15z" fill="#7e4158"/><path d="m337.5 241v45c0 8.25-6.75 15-15 15h-81.5c-8.25 0-15-6.75-15-15v-60c0 8.25 6.75 15 15 15z" fill="#b53a4c"/><path d="m427.5 151c-16.5 0-30 13.5-30 30v105c0 24.853-20.147 45-45 45h15c33 0 60-27 60-60v-90c8.284 0 15-6.716 15-15s-6.715-15-15-15z" fill="#e0343f"/><path d="m489.501 293.5c-12.406 0-22.5 10.093-22.5 22.5 0 37.22-30.28 67.5-67.5 67.5h-24.5v-45.427c33.702-3.744 60-32.39 60-67.073v-83.785c8.73-3.095 15-11.437 15-21.215 0-12.407-10.094-22.5-22.5-22.5-37.22 0-67.5 30.28-67.5 67.5v15c0 4.136-3.364 7.5-7.5 7.5h-111.5c-4.136 0-7.5-3.364-7.5-7.5v-75c0-37.22-30.28-67.5-67.5-67.5h-143.077c-12.274 0-22.332 9.41-22.898 21.421-.293 6.216 1.906 12.114 6.192 16.607 2.452 2.57 5.479 4.504 8.782 5.675v143.797c0 34.684 26.298 63.329 60 67.073v52.927c0 4.142 3.357 7.5 7.5 7.5h317c45.49 0 82.5-37.009 82.5-82.5 0-4.136 3.364-7.5 7.5-7.5s7.5 3.364 7.5 7.5c0 53.762-43.738 97.5-97.5 97.5h-384.5v-15h37.5c4.143 0 7.5-3.358 7.5-7.5s-3.357-7.5-7.5-7.5h-45c-4.143 0-7.5 3.358-7.5 7.5v30c0 4.142 3.357 7.5 7.5 7.5h392c62.033 0 112.5-50.467 112.5-112.5.001-12.406-10.093-22.5-22.499-22.5zm-256 45v15h-113.5v-15zm-113.5 30h113.5v15h-113.5zm128.5-30h15v45h-15zm81.5 15h-51.5v-15h51.5zm-51.5 15h51.5v15h-51.5zm66.5-30h15v45h-15zm-104-90h111.5c2.629 0 5.153-.458 7.5-1.29v38.79c0 4.136-3.364 7.5-7.5 7.5h-111.5c-4.136 0-7.5-3.364-7.5-7.5v-38.79c2.347.833 4.87 1.29 7.5 1.29zm-211 22.5v-150c0-4.142-3.357-7.5-7.5-7.5-2.07 0-3.998-.826-5.428-2.325-1.429-1.497-2.161-3.467-2.063-5.548.185-3.93 3.735-7.127 7.914-7.127h143.076c28.948 0 52.5 23.551 52.5 52.5v135c0 12.407 10.094 22.5 22.5 22.5h111.5c12.406 0 22.5-10.093 22.5-22.5v-75c0-28.949 23.552-52.5 52.5-52.5 4.136 0 7.5 3.364 7.5 7.5s-3.364 7.5-7.5 7.5c-4.143 0-7.5 3.358-7.5 7.5v90c0 28.949-23.552 52.5-52.5 52.5h-285c-28.948 0-52.499-23.551-52.499-52.5zm60 67.5h15v45h-15z"/></g></svg>