<svg id="Capa_1" enable-background="new 0 0 512 512" height="512" viewBox="0 0 512 512" width="512" xmlns="http://www.w3.org/2000/svg"><g><path d="m504.5 274.64h-30l-67.62 105.452 67.62 124.408h30v-75l-35-52.5 35-52.5z" fill="#ebe1e8"/><path d="m7.5 274.64v49.86l104.18 75-104.18 75v30h467v-229.86z" fill="#f7f4f6"/><path d="m504.5 324.5v105h-30l-50-52.5 50-52.5z" fill="#c7adc0"/><path d="m474.5 324.5v105h-164.18c-20.37 0-39.91 8.09-54.32 22.5-7.2 7.2-15.69 12.83-24.92 16.65-9.24 3.83-19.22 5.85-29.4 5.85h-194.18v-150z" fill="#d9c8d4"/><path d="m234.66 214.64-57.29-47.267 18.577 77.267h30c11.57 0 18.802-12.525 13.017-22.546z" fill="#33965d"/><path d="m177.37 167.373-147.184 47.267-4.304 7.454c-5.785 10.02 1.446 22.546 13.017 22.546h157.048c11.57 0 18.802-12.525 13.017-22.546z" fill="#38ad63"/><path d="m190.05 137.373h-60l74.61 77.267h30z" fill="#d9c8d4"/><path d="m160.05 137.373h-85.254l-44.61 77.267h174.474z" fill="#ebe1e8"/><path d="m220.387 144.828-74.947-129.813c-2.893-5.01-7.955-7.515-13.017-7.515s-10.124 2.505-13.017 7.515l-1.983 3.435 59.947 148.923h30c11.571 0 18.802-12.525 13.017-22.545z" fill="#ebe1e8"/><path d="m190.387 144.828-72.964-126.378-72.964 126.378c-5.785 10.02 1.446 22.546 13.017 22.546h119.894c11.571-.001 18.802-12.526 13.017-22.546z" fill="#f7f4f6"/><path d="m481.813 214.64-57.29-47.267 18.577 77.267h30c11.57 0 18.802-12.525 13.017-22.546z" fill="#33965d"/><path d="m424.524 167.373-147.184 47.267-4.304 7.454c-5.785 10.02 1.446 22.546 13.017 22.546h157.047c11.57 0 18.802-12.525 13.017-22.546z" fill="#38ad63"/><path d="m437.203 137.373h-60l74.61 77.267h30z" fill="#d9c8d4"/><path d="m407.203 137.373h-85.253l-44.61 77.267h174.473z" fill="#ebe1e8"/><path d="m467.54 144.828-74.947-129.813c-2.893-5.01-7.955-7.515-13.017-7.515s-10.124 2.505-13.017 7.515l-1.983 3.435 59.947 148.923h30c11.571 0 18.802-12.525 13.017-22.545z" fill="#ebe1e8"/><path d="m437.54 144.828-72.964-126.378-72.964 126.377c-5.785 10.02 1.446 22.546 13.017 22.546h119.895c11.57 0 18.801-12.525 13.016-22.545z" fill="#f7f4f6"/><path d="m504.5 267.14h-497c-4.142 0-7.5 3.358-7.5 7.5v229.86c0 4.142 3.358 7.5 7.5 7.5h497c4.142 0 7.5-3.358 7.5-7.5v-229.86c0-4.142-3.358-7.5-7.5-7.5zm-60 139.86h52.5v15h-186.68c-22.523 0-43.698 8.771-59.623 24.697-13.093 13.093-30.501 20.303-49.017 20.303h-186.68v-75h52.5c4.142 0 7.5-3.358 7.5-7.5s-3.358-7.5-7.5-7.5h-52.5v-45h482v60h-52.5c-4.142 0-7.5 3.358-7.5 7.5s3.358 7.5 7.5 7.5zm52.5-124.86v34.86h-482v-34.86zm-482 214.86v-15h186.68c22.522 0 43.697-8.771 59.623-24.697 13.093-13.093 30.5-20.303 49.017-20.303h186.68v60z"/><path d="m414.5 347h-377c-4.142 0-7.5 3.358-7.5 7.5s3.358 7.5 7.5 7.5h377c4.142 0 7.5-3.358 7.5-7.5s-3.358-7.5-7.5-7.5z"/><path d="m444.5 362h30c4.142 0 7.5-3.358 7.5-7.5s-3.358-7.5-7.5-7.5h-30c-4.142 0-7.5 3.358-7.5 7.5s3.358 7.5 7.5 7.5z"/><path d="m256 377h-158.5c-4.142 0-7.5 3.358-7.5 7.5s3.358 7.5 7.5 7.5h158.5c4.142 0 7.5-3.358 7.5-7.5s-3.358-7.5-7.5-7.5z"/><path d="m38.899 252.14h187.048c8.145 0 15.439-4.211 19.512-11.265s4.073-15.477 0-22.53l-26.818-46.451c3.356-1.935 6.203-4.753 8.242-8.285 4.073-7.054 4.073-15.477 0-22.53l-74.948-129.814c-4.073-7.054-11.367-11.265-19.512-11.265s-15.439 4.211-19.512 11.265l-74.947 129.813c-4.073 7.054-4.073 15.476 0 22.53 2.039 3.532 4.885 6.351 8.242 8.285l-26.818 46.451c-4.073 7.054-4.073 15.476 0 22.53 4.072 7.054 11.366 11.266 19.511 11.266zm193.57-18.765c-.654 1.132-2.598 3.765-6.521 3.765h-187.049c-3.924 0-5.868-2.633-6.521-3.765s-1.962-4.132 0-7.53l2.139-3.705h195.813l2.139 3.705c1.962 3.397.653 6.397 0 7.53zm-168.498-69.752c-1.34-2.32-3.815-3.75-6.495-3.75-3.924 0-5.868-2.633-6.521-3.765s-1.962-4.132 0-7.53l74.947-129.813c1.962-3.398 5.214-3.765 6.521-3.765s4.559.367 6.521 3.765l74.947 129.813c1.962 3.398.653 6.398 0 7.53-.648 1.123-2.566 3.723-6.426 3.765-.08-.001-.159-.001-.238 0h-119.751c-4.142 0-7.5 3.358-7.5 7.5s3.358 7.5 7.5 7.5h115.564l18.629 32.267h-178.492l20.794-36.017c1.34-2.32 1.34-5.18 0-7.5z"/><path d="m286.053 252.14h187.047c8.145 0 15.439-4.211 19.512-11.265s4.073-15.477 0-22.53l-26.818-46.451c3.356-1.935 6.203-4.753 8.242-8.285 4.073-7.054 4.073-15.477 0-22.53l-74.948-129.814c-4.072-7.054-11.366-11.265-19.511-11.265s-15.439 4.211-19.512 11.265l-74.947 129.812c-4.073 7.054-4.073 15.477 0 22.53 2.039 3.532 4.885 6.351 8.242 8.286l-26.818 46.451c-4.073 7.054-4.073 15.476 0 22.53 4.071 7.054 11.366 11.266 19.511 11.266zm193.569-18.765c-.654 1.132-2.598 3.765-6.521 3.765h-187.048c-3.924 0-5.868-2.633-6.521-3.765s-1.962-4.132 0-7.53l2.139-3.705h195.813l2.139 3.705c1.96 3.397.652 6.397-.001 7.53zm-168.497-69.752c-1.34-2.32-3.815-3.75-6.495-3.75-3.924 0-5.868-2.633-6.522-3.765-.653-1.132-1.961-4.132 0-7.53l74.947-129.813c1.962-3.398 5.215-3.765 6.522-3.765s4.559.367 6.521 3.765l74.947 129.813c1.962 3.398.653 6.398 0 7.53-.648 1.123-2.566 3.722-6.425 3.765-.081-.001-.16-.001-.239 0h-119.752c-4.142 0-7.5 3.358-7.5 7.5s3.358 7.5 7.5 7.5h115.564l18.629 32.267h-178.492l20.794-36.017c1.34-2.32 1.34-5.18.001-7.5z"/></g></svg>