<svg id="Capa_1" enable-background="new 0 0 512 512" height="512" viewBox="0 0 512 512" width="512" xmlns="http://www.w3.org/2000/svg"><g><path d="m489.5 247.5-45-30v105l45-30z" fill="#b53a4c"/><path d="m414.5 232.5h45v75h-45z" fill="#e0343f"/><path d="m293.833 7.5h-30l-22.833 60 52.833-30c8.284 0 15-6.716 15-15s-6.715-15-15-15z" fill="#b53a4c"/><path d="m278.833 22.5c0-8.284-6.716-15-15-15h-45.667c-8.284 0-15 6.716-15 15s6.716 15 15 15l22.834 30 22.833-30c8.285 0 15-6.716 15-15z" fill="#e0343f"/><path d="m293.833 37.5h-30l-22.833 150 67.833-15z" fill="#7e4158"/><path d="m263.833 37.5h-45.666l-15 135 37.833 15 37.833-15z" fill="#b53a4c"/><path d="m158.167 7.5h-30l-22.833 60 52.833-30c8.284 0 15-6.716 15-15s-6.716-15-15-15z" fill="#b53a4c"/><path d="m143.167 22.5c0-8.284-6.716-15-15-15h-45.667c-8.284 0-15 6.716-15 15s6.716 15 15 15l22.833 30 22.833-30c8.285 0 15.001-6.716 15.001-15z" fill="#e0343f"/><path d="m158.167 37.5h-30l-22.834 150 67.834-15z" fill="#7e4158"/><path d="m128.167 37.5h-45.667l-15 135 37.833 15 37.834-15z" fill="#b53a4c"/><path d="m429.5 7.5h-30l-22.833 60 52.833-30c8.284 0 15-6.716 15-15s-6.716-15-15-15z" fill="#b53a4c"/><path d="m414.5 22.5c0-8.284-6.716-15-15-15h-45.667c-8.284 0-15 6.716-15 15s6.716 15 15 15l22.833 30 22.833-30c8.285 0 15.001-6.716 15.001-15z" fill="#e0343f"/><path d="m226 367.5 188.5 137h30v-137z" fill="#e0343f"/><path d="m67.5 367.5h347v137h-347z" fill="#ff4040"/><path d="m256 352.5 188.5 47h30v-47z" fill="#7e4158"/><path d="m37.5 352.5h407v47h-407z" fill="#b53a4c"/><path d="m429.5 37.5h-30l-22.833 150 67.833-15z" fill="#7e4158"/><path d="m399.5 37.5h-45.667l-15 135 37.834 15 37.833-15z" fill="#b53a4c"/><path d="m489.5 292.5h-30l-45 60h75z" fill="#ff4040"/><path d="m284.375 232.5h146.75v75h-146.75z" fill="#ff4040"/><path d="m197.625 232.5h116.75v75h-116.75z" fill="#e0343f"/><path d="m22.5 232.5h86.75v75h-86.75z" fill="#e0343f"/><path d="m80.875 232.5h116.75v75h-116.75z" fill="#ff4040"/><path d="m459.5 292.5h-86.75l-45 60h131.75z" fill="#ff6f4f"/><path d="m372.75 292.5h-116.75l-45 60h161.75z" fill="#ff8e59"/><path d="m256 292.5h-116.75l-45 60h161.75z" fill="#ff6f4f"/><path d="m22.5 292.5h116.75v60h-116.75z" fill="#ff8e59"/><path d="m489.5 247.5h-30l-45-60h75z" fill="#ff4040"/><path d="m459.5 247.5h-86.75l-45-60h131.75z" fill="#ff6f4f"/><path d="m372.75 247.5h-116.75l-45-60h161.75z" fill="#ff8e59"/><path d="m256 247.5h-116.75l-45-60h161.75z" fill="#ff6f4f"/><path d="m22.5 187.5h116.75v60h-116.75z" fill="#ff8e59"/><path d="m489.5 172.5h-30v30h30c8.284 0 15-6.716 15-15s-6.716-15-15-15z" fill="#ffdc96"/><path d="m474.5 187.5c0-8.284-6.716-15-15-15h-437c-8.284 0-15 6.716-15 15s6.716 15 15 15h437c8.284 0 15-6.716 15-15z" fill="#ffecc7"/><path d="m489.5 337.5h-30v30h30c8.284 0 15-6.716 15-15s-6.716-15-15-15z" fill="#ffdc96"/><path d="m474.5 352.5c0-8.284-6.716-15-15-15h-437c-8.284 0-15 6.716-15 15s6.716 15 15 15h437c8.284 0 15-6.716 15-15z" fill="#ffecc7"/><path d="m497 331.29v-122.58c8.729-3.096 15-11.432 15-21.21 0-12.407-10.093-22.5-22.5-22.5h-38.287l-13.506-121.556c8.358-3.287 14.293-11.433 14.293-20.944 0-12.407-10.093-22.5-22.5-22.5h-75.667c-12.407 0-22.5 10.093-22.5 22.5 0 9.511 5.935 17.657 14.293 20.944l-13.505 121.556h-16.574l-13.507-121.556c8.359-3.287 14.293-11.432 14.293-20.944 0-12.407-10.093-22.5-22.5-22.5h-75.667c-12.407 0-22.5 10.093-22.5 22.5 0 9.511 5.935 17.657 14.293 20.944l-13.505 121.556h-16.574l-13.507-121.556c8.359-3.287 14.293-11.432 14.293-20.944 0-12.407-10.093-22.5-22.5-22.5h-75.666c-12.407 0-22.5 10.093-22.5 22.5 0 9.511 5.935 17.657 14.293 20.944l-13.506 121.556h-38.287c-12.407 0-22.5 10.093-22.5 22.5 0 9.778 6.271 18.114 15 21.21v122.58c-8.729 3.096-15 11.432-15 21.21 0 12.407 10.093 22.5 22.5 22.5h7.5v24.5c0 4.142 3.358 7.5 7.5 7.5h22.5v97.5c0 4.142 3.358 7.5 7.5 7.5h377c4.142 0 7.5-3.358 7.5-7.5v-97.5h22.5c4.142 0 7.5-3.358 7.5-7.5v-24.5h7.5c12.407 0 22.5-10.093 22.5-22.5 0-9.778-6.271-18.114-15-21.21zm-365.25-121.29v30h-101.75v-30zm350.25 75h-43.375v-30h43.375zm-160.125 0v-30h101.75v30zm-116.75 0v-30h101.75v30zm-116.75 0v-30h101.75v30zm393.625-45h-101.75v-30h101.75zm-116.75 0h-101.75v-30h101.75zm-116.75 0h-101.75v-30h101.75zm-218.5 15h43.375v30h-43.375zm0 45h101.75v30h-101.75zm116.75 0h101.75v30h-101.75zm116.75 0h101.75v30h-101.75zm116.75 0h101.75v30h-101.75zm-26.417-285h75.667c4.136 0 7.5 3.364 7.5 7.5s-3.364 7.5-7.5 7.5h-75.667c-4.136 0-7.5-3.364-7.5-7.5s3.365-7.5 7.5-7.5zm6.713 30h62.241l13.333 120h-88.908zm-142.379-30h75.667c4.136 0 7.5 3.364 7.5 7.5s-3.364 7.5-7.5 7.5h-75.667c-4.136 0-7.5-3.364-7.5-7.5s3.364-7.5 7.5-7.5zm6.712 30h62.241l13.333 120h-88.908zm-142.379-30h75.667c4.136 0 7.5 3.364 7.5 7.5s-3.364 7.5-7.5 7.5h-75.667c-4.136 0-7.5-3.364-7.5-7.5s3.364-7.5 7.5-7.5zm6.713 30h62.241l13.333 120h-88.908zm-66.713 135h467c4.136 0 7.5 3.364 7.5 7.5s-3.364 7.5-7.5 7.5h-467c-4.136 0-7.5-3.364-7.5-7.5s3.364-7.5 7.5-7.5zm414.5 317h-362v-90h362zm52.5-137h-422c-4.142 0-7.5 3.358-7.5 7.5s3.358 7.5 7.5 7.5h399.5v17h-422v-24.5c0-4.142-3.358-7.5-7.5-7.5h-15c-4.136 0-7.5-3.364-7.5-7.5s3.364-7.5 7.5-7.5h467c4.136 0 7.5 3.364 7.5 7.5s-3.364 7.5-7.5 7.5z"/></g></svg>