<svg id="Capa_1" enable-background="new 0 0 512 512" height="512" viewBox="0 0 512 512" width="512" xmlns="http://www.w3.org/2000/svg"><g><path d="m414.5 97.5h60v362h-60z" fill="#ffdc96"/><path d="m37.5 97.5h407v362h-407z" fill="#ffecc7"/><path d="m112.5 112.5h287v347h-287z" fill="#ffc766"/><path d="m369.5 157.5v302h-227l197-302z" fill="#e0343f"/><path d="m142.5 157.5h197v302h-197z" fill="#ff4040"/><path d="m459.5 429.5-45 60h75v-60z" fill="#ebe1e8"/><path d="m369.5 22.5 90 105h30v-105z" fill="#ebe1e8"/><path d="m22.5 429.5h437v60h-437z" fill="#f7f4f6"/><path d="m22.5 22.5h437v105h-437z" fill="#f7f4f6"/><path d="m489.5 474.5h-30v30h30c8.284 0 15-6.716 15-15s-6.716-15-15-15z" fill="#d9c8d4"/><path d="m474.5 489.5c0-8.284-6.716-15-15-15h-437c-8.284 0-15 6.716-15 15s6.716 15 15 15h437c8.284 0 15-6.716 15-15z" fill="#ebe1e8"/><path d="m489.5 7.5h-30v30h30c8.284 0 15-6.716 15-15s-6.716-15-15-15z" fill="#ff6f4f"/><path d="m474.5 22.5c0-8.284-6.716-15-15-15h-437c-8.284 0-15 6.716-15 15s6.716 15 15 15h437c8.284 0 15-6.716 15-15z" fill="#ff8e59"/><path d="m322.518 267.748c.017 0-54.421-74.118-54.421-74.118-2.751-3.711-7.137-6.13-12.097-6.13-4.961 0-9.346 2.419-12.077 6.13-.021 0-54.459 74.118-54.459 74.118-10.023 13.666-15.964 30.529-15.964 48.787 0 45.563 36.937 82.5 82.5 82.5s82.5-36.937 82.5-82.5c0-18.258-5.942-35.122-15.982-48.787z" fill="#ff8e59"/><path d="m256 369.035c-24.813 0-45-20.187-45-45 0-9.644 3.01-18.845 8.705-26.609 8.242-11.222 36.298-49.412 36.298-49.412l36.29 49.429c5.696 7.753 8.707 16.949 8.707 26.593 0 24.812-20.187 44.999-45 44.999z" fill="#ffdc96"/><circle cx="256" cy="324.035" fill="#fff" r="15"/><path d="m497 468.285v-38.785c0-4.142-3.357-7.5-7.5-7.5h-7.5v-287h7.5c4.143 0 7.5-3.358 7.5-7.5v-83.79c8.729-3.096 15-11.432 15-21.21 0-12.407-10.094-22.5-22.5-22.5h-467c-12.407 0-22.5 10.093-22.5 22.5 0 9.778 6.271 18.114 15 21.21v83.79c0 4.142 3.358 7.5 7.5 7.5h7.5v287h-7.5c-4.142 0-7.5 3.358-7.5 7.5v38.785c-8.73 3.095-15 11.437-15 21.215 0 12.407 10.093 22.5 22.5 22.5h467c12.406 0 22.5-10.093 22.5-22.5 0-9.778-6.27-18.12-15-21.215zm-30-46.285h-60v-287h60zm-105 0h-212v-257h212zm7.5-272h-227c-4.142 0-7.5 3.358-7.5 7.5v264.5h-15v-287h272v287h-15v-264.5c0-4.142-3.357-7.5-7.5-7.5zm-339.5-30v-75h452v75zm-7.5-105h467c4.136 0 7.5 3.364 7.5 7.5s-3.364 7.5-7.5 7.5h-467c-4.136 0-7.5-3.364-7.5-7.5s3.364-7.5 7.5-7.5zm22.5 120h60v287h-60zm444.5 362h-467c-4.136 0-7.5-3.364-7.5-7.5s3.364-7.5 7.5-7.5c4.142 0 7.5-3.358 7.5-7.5v-37.5h452v30h-429.5c-4.142 0-7.5 3.358-7.5 7.5s3.358 7.5 7.5 7.5h437c4.136 0 7.5 3.364 7.5 7.5s-3.364 7.5-7.5 7.5z"/><path d="m256 406.535c49.626 0 90-40.374 90-90 0-19.294-6.029-37.7-17.438-53.228l-.063.046c-.619-.979-54.378-74.19-54.378-74.19-4.253-5.738-11.027-9.163-18.121-9.163-7.113 0-13.887 3.434-18.118 9.186l.05.037c-.704.847-54.516 74.09-54.516 74.09-11.394 15.534-17.416 33.938-17.416 53.222 0 49.626 40.374 90 90 90zm-60.491-134.347c18.323-24.947 53.127-72.328 54.385-74.019.024-.031.047-.063.07-.095 1.438-1.954 3.638-3.074 6.036-3.074 2.4 0 4.614 1.129 6.053 3.069 18.36 24.998 53.221 72.466 54.359 74.033.021.029.041.058.063.086 9.503 12.935 14.525 28.27 14.525 44.347 0 41.355-33.645 75-75 75s-75-33.645-75-75c0-16.071 5.018-31.407 14.509-44.347z"/><path d="m256 376.535c28.948 0 52.5-23.551 52.5-52.5 0-11.253-3.515-21.984-10.161-31.031l-36.29-49.429c-1.413-1.924-3.657-3.061-6.045-3.062-2.388 0-4.632 1.136-6.045 3.06l-36.302 49.417c-6.645 9.06-10.157 19.795-10.157 31.045 0 28.948 23.551 52.5 52.5 52.5zm-30.25-74.67 30.252-41.181 30.248 41.199c4.743 6.456 7.251 14.116 7.251 22.152 0 20.678-16.822 37.5-37.5 37.5s-37.5-16.822-37.5-37.5c-.001-8.038 2.507-15.705 7.249-22.17z"/><path d="m256 346.535c12.406 0 22.5-10.093 22.5-22.5s-10.094-22.5-22.5-22.5c-12.407 0-22.5 10.093-22.5 22.5s10.093 22.5 22.5 22.5zm0-30c4.136 0 7.5 3.364 7.5 7.5s-3.364 7.5-7.5 7.5-7.5-3.364-7.5-7.5 3.364-7.5 7.5-7.5z"/></g></svg>