<svg id="Capa_1" enable-background="new 0 0 511.992 511.992" height="512" viewBox="0 0 511.992 511.992" width="512" xmlns="http://www.w3.org/2000/svg"><g><path d="m330.996 230.148 45-30v-30l-45-30z" fill="#d9c8d4"/><path d="m345.996 140.148h-255l-30 30v30l30 30h255z" fill="#ebe1e8"/><path d="m425.024 408.176-33.62-19.2-38.06 109.02 38.27 5.89c31.22 4.8 59.38-19.36 59.38-50.95 0-18.5-9.91-35.58-25.97-44.76z" fill="#e0343f"/><path d="m403.754 398.386c10.89 10.87 17.24 25.77 17.24 41.57 0 35.99-32.08 63.52-67.65 58.04l-211.47-32.53c-29.27-4.5-50.88-29.69-50.88-59.3v-173.67h255v104.41c0 16.15 8.65 31.06 22.68 39.07l22.73 13c4.57 2.61 8.71 5.78 12.35 9.41z" fill="#ff4040"/><g fill="#f7f4f6"><circle cx="175.996" cy="277.496" r="15"/><circle cx="260.996" cy="277.496" r="15"/><circle cx="90.996" cy="277.496" r="15"/></g><circle cx="345.996" cy="277.496" fill="#ebe1e8" r="15"/><path d="m105.996 7.496c-8.284 0-15 6.716-15 15v75h30v-75c0-8.284-6.716-15-15-15z" fill="#ff4040"/><path d="m345.996 200.148-15.012 58.332c4.631 2.674 9.821 4.016 15.012 4.016 16.569 0 30-13.431 30-30v-32.348z" fill="#ebe1e8"/><path d="m345.996 232.496v-32.348h-285v32.348c0 16.569 13.431 30 30 30 7.691 0 15.382-2.934 21.25-8.802 11.736-11.736 30.764-11.736 42.5 0s30.764 11.736 42.5 0 30.764-11.736 42.5 0 30.764 11.736 42.5 0 30.764-11.736 42.5 0c1.907 1.907 4.009 3.498 6.238 4.786 8.971-5.187 15.012-14.877 15.012-25.984z" fill="#f7f4f6"/><path d="m345.996 67.496h-30l30 102.652h30v-72.652c0-16.569-13.432-30-30-30z" fill="#ebe1e8"/><path d="m345.996 97.496c0-16.569-13.431-30-30-30h-225c-16.569 0-30 13.431-30 30v72.652h285z" fill="#f7f4f6"/><circle cx="345.996" cy="232.5" r="7.5"/><circle cx="260.996" cy="232.5" r="7.5"/><circle cx="175.996" cy="232.5" r="7.5"/><circle cx="90.996" cy="232.5" r="7.5"/><path d="m428.743 401.672-56.352-32.202c-11.655-6.66-18.896-19.136-18.896-32.559v-38.201c8.729-3.096 15-11.432 15-21.21 0-4.627-1.405-8.931-3.809-12.511 11.23-6.486 18.809-18.615 18.809-32.489v-135c0-20.678-16.822-37.5-37.5-37.5h-217.5v-37.5c0-12.407-10.094-22.5-22.5-22.5s-22.5 10.093-22.5 22.5v38.255c-17.096 3.484-30 18.635-30 36.745v135c0 13.874 7.579 26.003 18.809 32.489-2.404 3.58-3.809 7.884-3.809 12.511 0 9.777 6.271 18.114 15 21.21v107.456c0 16.113 5.778 31.722 16.27 43.951s25.041 20.314 40.967 22.764l249.736 38.421c3.002.462 6.01.689 9.003.689 14.002 0 27.638-4.982 38.424-14.236 13.092-11.231 20.601-27.566 20.601-44.815 0-21.136-11.401-40.781-29.753-51.268zm-75.247-124.172c0 4.136-3.364 7.5-7.5 7.5s-7.5-3.364-7.5-7.5 3.364-7.5 7.5-7.5 7.5 3.364 7.5 7.5zm-247.5-262.5c4.136 0 7.5 3.364 7.5 7.5v37.5h-15v-37.5c0-4.136 3.364-7.5 7.5-7.5zm-15 60h255c12.406 0 22.5 10.093 22.5 22.5v65.152h-247.5c-4.143 0-7.5 3.358-7.5 7.5s3.357 7.5 7.5 7.5h247.5v15h-300v-15h22.5c4.143 0 7.5-3.358 7.5-7.5s-3.357-7.5-7.5-7.5h-22.5v-65.152c0-12.407 10.094-22.5 22.5-22.5zm-22.5 132.652h300v24.848c0 12.407-10.094 22.5-22.5 22.5-6.023 0-11.688-2.346-15.947-6.605-7.32-7.321-16.937-10.981-26.553-10.981s-19.232 3.661-26.553 10.981c-8.795 8.791-23.1 8.793-31.895 0-14.641-14.642-38.465-14.641-53.105 0-8.795 8.791-23.1 8.793-31.895 0-14.641-14.642-38.465-14.641-53.105 0-4.26 4.26-9.924 6.605-15.947 6.605-12.406 0-22.5-10.093-22.5-22.5zm192.5 62.348c4.136 0 7.5 3.364 7.5 7.5s-3.364 7.5-7.5 7.5-7.5-3.364-7.5-7.5 3.364-7.5 7.5-7.5zm-85 0c4.136 0 7.5 3.364 7.5 7.5s-3.364 7.5-7.5 7.5-7.5-3.364-7.5-7.5 3.364-7.5 7.5-7.5zm-77.5 7.5c0 4.136-3.364 7.5-7.5 7.5s-7.5-3.364-7.5-7.5 3.364-7.5 7.5-7.5 7.5 3.364 7.5 7.5zm329.633 208.872c-9.767 8.378-22.664 12.06-35.379 10.105l-249.736-38.421c-25.795-3.968-44.518-25.791-44.518-51.89v-107.456c8.729-3.096 15-11.432 15-21.21 0-4.616-1.399-8.91-3.792-12.485 2.832-1.633 5.472-3.64 7.846-6.014 8.791-8.794 23.1-8.792 31.893 0 2.397 2.397 5.043 4.394 7.852 6.006-2.397 3.576-3.798 7.874-3.798 12.493 0 12.407 10.094 22.5 22.5 22.5s22.5-10.093 22.5-22.5c0-4.619-1.401-8.917-3.798-12.493 2.808-1.612 5.455-3.609 7.852-6.005 8.792-8.794 23.101-8.792 31.893 0 2.397 2.397 5.043 4.394 7.852 6.006-2.397 3.576-3.798 7.874-3.798 12.493 0 12.407 10.094 22.5 22.5 22.5s22.5-10.093 22.5-22.5c0-4.619-1.401-8.917-3.798-12.493 2.808-1.612 5.455-3.609 7.852-6.005 8.792-8.794 23.101-8.792 31.893 0 2.374 2.374 5.014 4.381 7.846 6.014-2.394 3.575-3.792 7.869-3.792 12.485 0 9.777 6.271 18.114 15 21.21v38.202c0 18.792 10.136 36.258 26.453 45.583l56.353 32.202c13.689 7.823 22.194 22.477 22.194 38.245-.003 12.864-5.605 25.049-15.37 33.428z"/></g></svg>