<svg id="Capa_1" enable-background="new 0 0 512 512" height="512" viewBox="0 0 512 512" width="512" xmlns="http://www.w3.org/2000/svg"><g><path d="m414.5 7.5c-10.71 0-21.215 1.26-31.455 3.71l-7.235 138.61 38.69-7.32c19.1-42.97 19.1-92.03 0-135z" fill="#e0343f"/><path d="m383.045 11.21c10.44 18.71 16.455 40.84 16.455 63.79 0 27.86-8.77 53.66-23.69 74.82l-119.81 22.68 30-90 28.04-30.7c18.55-20.31 42.705-34.33 69.005-40.59z" fill="#ff4040"/><path d="m97.5 7.5c38.224 0 74.685 16.079 100.463 44.303l28.037 30.697 30 90-158.5-30c-19.099-42.973-19.099-92.027 0-135z" fill="#ff4040"/><path d="m226 82.5h60v90h-60z" fill="#e0343f"/><path d="m37.5 217.5v75l407 212h30v-287z" fill="#ffc1b0"/><path d="m37.5 292.5v212h158.5l60-30 60 30h128.5v-212z" fill="#ffdac7"/><path d="m196 232.5v60l90 212h30v-272z" fill="#ff6f4f"/><path d="m196 292.5v212h90v-111.213l30-100.787z" fill="#ff8e59"/><path d="m474.5 142.5-68.5 60 68.5 60h30v-120z" fill="#ffdac7"/><path d="m256 142.5c-53.479 0-90 30-90 30v90h180v-90s-36.521-30-90-30z" fill="#ff8e59"/><path d="m7.5 142.5h158.5v120h-158.5z" fill="#ffecc7"/><path d="m346 142.5h128.5v120h-128.5z" fill="#ffecc7"/><path d="m166 142.5h30l-60 182-4.393 4.393c-9.45 9.45-25.607 2.757-25.607-10.606v-115.787c0-33.137 26.863-60 60-60z" fill="#ff8e59"/><path d="m196 142.5c-33.137 0-60 26.863-60 60v190.787c0 13.364 16.157 20.056 25.607 10.607l19.393-19.394 15 15 30-257z" fill="#ff4040"/><path d="m226 142.5c-16.569 0-30 13.431-30 30v227l4.393 4.393c9.449 9.449 25.607 2.757 25.607-10.607v-220.786c0-16.569 13.431-30 30-30z" fill="#e0343f"/><path d="m346 142.5h-30l60 182 4.393 4.393c9.449 9.449 25.607 2.757 25.607-10.607v-115.786c0-33.137-26.863-60-60-60z" fill="#ff6f4f"/><path d="m316 142.5h-30l60 257 4.393 4.393c9.449 9.449 25.607 2.757 25.607-10.607v-190.786c0-33.137-26.863-60-60-60z" fill="#e0343f"/><path d="m286 142.5h-30c16.569 0 30 13.431 30 30v220.787c0 13.364 16.157 20.056 25.607 10.607l19.393-19.394 15 15v-197c0-33.137-26.863-60-60-60z" fill="#ff4040"/><path d="m504.5 135h-78.885c15.53-42.227 14.12-89.189-4.261-130.546-1.205-2.708-3.89-4.454-6.854-4.454-40.232 0-78.868 17.038-106.001 46.745l-25.807 28.255h-53.384l-25.807-28.255c-27.133-29.707-65.769-46.745-106.001-46.745-2.964 0-5.649 1.746-6.854 4.454-18.38 41.357-19.791 88.319-4.261 130.546h-78.885c-4.143 0-7.5 3.358-7.5 7.5v120c0 4.142 3.357 7.5 7.5 7.5h22.5v234.5c0 4.142 3.357 7.5 7.5 7.5h437c4.143 0 7.5-3.358 7.5-7.5v-234.5h22.5c4.143 0 7.5-3.358 7.5-7.5v-120c0-4.142-3.357-7.5-7.5-7.5zm-184.925-78.139c23.189-25.39 55.764-40.446 90.008-41.766 15.637 38.374 15.615 81.54-.047 119.905h-116.036v-49.59zm41.343 95.311c21.702 6.445 37.582 26.562 37.582 50.328v115.787c0 4.65-3.544 6.479-4.63 6.929-1.087.45-4.886 1.662-8.173-1.625l-2.197-2.197v-118.894c0-19.984-8.736-37.958-22.582-50.328zm-217.418 50.328c0-28.949 23.552-52.5 52.5-52.5h30.308c-4.883 6.448-7.808 14.483-7.808 23.124v220.163c0 4.65-3.544 6.479-4.63 6.929s-4.886 1.662-8.173-1.625l-19.394-19.394c-2.93-2.929-7.678-2.929-10.607 0l-19.394 19.394c-3.286 3.288-7.086 2.076-8.173 1.625-1.086-.45-4.63-2.279-4.63-6.929v-190.787zm135 52.5h-45v-81.876c0-12.416 9.808-22.785 21.862-23.115 6.165-.167 11.937 2.092 16.326 6.363 4.393 4.273 6.812 10.001 6.812 16.128zm-75 159.567c5.099 1.826 10.765 1.722 16.11-.492 8.567-3.549 13.89-11.514 13.89-20.788v-123.287h45v123.287c0 9.273 5.322 17.239 13.89 20.788 5.346 2.214 11.012 2.318 16.11.492v82.433h-105zm102.803-15.977c-3.286 3.288-7.086 2.076-8.173 1.625-1.086-.45-4.63-2.279-4.63-6.929v-220.786c0-8.243-2.63-16.05-7.493-22.5h29.993c28.948 0 52.5 23.551 52.5 52.5v190.787c0 4.65-3.544 6.479-4.63 6.929s-4.887 1.662-8.173-1.625l-19.394-19.394c-2.93-2.929-7.678-2.929-10.607 0zm-27.803-308.59v45h-45v-45zm-176.083-74.905c34.244 1.32 66.818 16.376 90.008 41.766l26.075 28.549v49.59h-116.036c-15.662-38.366-15.684-81.532-.047-119.905zm-87.417 134.905h108.618c-15.311 12.385-25.118 31.318-25.118 52.5v52.5h-83.5zm30 120h61c4.143 0 7.5-3.358 7.5-7.5v-60c0-23.767 15.879-43.883 37.582-50.328-13.845 12.37-22.582 30.345-22.582 50.328v118.893l-2.197 2.197c-3.287 3.288-7.086 2.076-8.173 1.625-1.086-.45-4.63-2.279-4.63-6.929v-25.786c0-4.142-3.357-7.5-7.5-7.5s-7.5 3.358-7.5 7.5v25.787c0 9.273 5.322 17.239 13.89 20.788 2.871 1.189 5.835 1.77 8.753 1.77 2.518 0 4.995-.458 7.357-1.305v53.747c0 9.273 5.322 17.239 13.89 20.788s17.963 1.678 24.521-4.877l14.09-14.09 7.5 7.5v94.392h-143.501zm422 227h-143.5v-94.393l7.5-7.5 14.09 14.09c4.36 4.36 9.975 6.647 15.768 6.647 2.918 0 5.883-.581 8.753-1.77 8.567-3.549 13.89-11.514 13.89-20.788v-53.746c2.362.847 4.839 1.305 7.357 1.305 2.918 0 5.883-.581 8.753-1.77 8.567-3.549 13.89-11.514 13.89-20.788v-48.287h53.499zm30-242h-83.5v-52.5c0-21.187-9.82-40.116-25.139-52.5h108.639z"/></g></svg>