<svg id="Capa_1" enable-background="new 0 0 512 512" height="512" viewBox="0 0 512 512" width="512" xmlns="http://www.w3.org/2000/svg"><g><path d="m327.75 7.5-56.75 90h86.75v-90z" fill="#b53a4c"/><path d="m271 7.5h56.75v90h-56.75z" fill="#e0343f"/><path d="m211 7.5-56.75 90h86.75v-90z" fill="#b53a4c"/><path d="m154.25 7.5h56.75v90h-56.75z" fill="#e0343f"/><path d="m444.5 271-56.75 90h86.75v-90z" fill="#ff8e59"/><path d="m387.75 271h56.75v90h-56.75z" fill="#ffa857"/><path d="m327.75 271-56.75 90h86.75v-90z" fill="#ff8e59"/><path d="m271 271h56.75v90h-56.75z" fill="#ffa857"/><path d="m211 271-56.75 90h86.75v-90z" fill="#ff8e59"/><path d="m154.25 271h56.75v90h-56.75z" fill="#ffa857"/><path d="m94.25 271-56.75 90h86.75v-90z" fill="#ff8e59"/><path d="m37.5 271h56.75v90h-56.75z" fill="#ffa857"/><path d="m154.25 504.5h-30l-60-131.75h90z" fill="#38ad63"/><path d="m124.25 504.5h-116.75v-86.75l116.75-45z" fill="#49c470"/><path d="m504.5 504.5h-30l-60-131.75 90 45z" fill="#e0343f"/><path d="m154.25 372.75h320.25v131.75h-320.25z" fill="#ff4040"/><path d="m504.5 417.75h-30l-45-43.375 45-43.375h30z" fill="#ffa857"/><path d="m7.5 331h467v86.75h-467z" fill="#ffc766"/><path d="m387.75 241h-30l-60-131.75 90 45z" fill="#38ad63"/><path d="m357.75 241h-233.5v-86.75l233.5-60z" fill="#49c470"/><path d="m387.75 154.25h-30l-45-43.375 45-43.375h30z" fill="#e0343f"/><path d="m124.25 67.5h233.5v86.75h-233.5z" fill="#ff4040"/><path d="m504.5 323.5h-22.5v-52.5c0-4.142-3.358-7.5-7.5-7.5h-86.75c-4.142 0-7.5 3.358-7.5 7.5v52.5h-15v-52.5c0-4.142-3.358-7.5-7.5-7.5h-86.75c-4.142 0-7.5 3.358-7.5 7.5v52.5h-15v-52.5c0-4.142-3.358-7.5-7.5-7.5h-86.75c-4.142 0-7.5 3.358-7.5 7.5v52.5h-15v-52.5c0-4.142-3.358-7.5-7.5-7.5h-86.75c-4.142 0-7.5 3.358-7.5 7.5v52.5h-22.5c-4.142 0-7.5 3.358-7.5 7.5v173.5c0 4.142 3.358 7.5 7.5 7.5h497c4.142 0 7.5-3.358 7.5-7.5v-173.5c0-4.142-3.358-7.5-7.5-7.5zm-109.25-45h71.75v45h-71.75zm-116.75 0h71.75v45h-71.75zm-116.75 0h71.75v45h-71.75zm-116.75 0h71.75v45h-71.75zm-30 146.75h131.75v71.75h-131.75zm146.75 71.75v-79.25c0-4.142-3.358-7.5-7.5-7.5h-139.25v-71.75h482v71.75h-312.75c-4.142 0-7.5 3.358-7.5 7.5s3.358 7.5 7.5 7.5h312.75v71.75z"/><path d="m124.25 248.5h263.5c4.142 0 7.5-3.358 7.5-7.5v-173.5c0-4.142-3.358-7.5-7.5-7.5h-22.5v-52.5c0-4.142-3.358-7.5-7.5-7.5h-86.75c-4.142 0-7.5 3.358-7.5 7.5v52.5h-15v-52.5c0-4.142-3.358-7.5-7.5-7.5h-86.75c-4.142 0-7.5 3.358-7.5 7.5v52.5h-22.5c-4.142 0-7.5 3.358-7.5 7.5v173.5c0 4.142 3.358 7.5 7.5 7.5zm7.5-15v-71.75h248.5v71.75zm146.75-218.5h71.75v45h-71.75zm-116.75 0h71.75v45h-71.75zm218.5 60v71.75h-248.5v-71.75z"/></g></svg>