<svg id="Capa_1" enable-background="new 0 0 512 512" height="512" viewBox="0 0 512 512" width="512" xmlns="http://www.w3.org/2000/svg"><g><path d="m443.5 52.5-15-15v-30h-30l-122 233.5 122 248.5h45z" fill="#ffa857"/><path d="m53.5 22.5v467h345v-45l-90-203.5 90-203.5v-30h-330c-8.284 0-15 6.716-15 15z" fill="#ffc766"/><path d="m398.5 37.5h-30l-92 203.5 92 203.5h30v-136l-60.4-67.5 60.4-67.5z" fill="#e0343f"/><path d="m83.5 37.5h285v407h-285v-136l60.4-67.5-60.4-67.5z" fill="#ff4040"/><path d="m68.5 474.5c-8.28 0-15 6.72-15 15s6.72 15 15 15h360l15-30z" fill="#ffecc7"/><path d="m428.5 37.5h30v467h-30z" fill="#ffdc96"/><path d="m338.487 294.491c.003.169.013.337.013.507 0 .001 0-.507-.013-.507z" fill="#fc7e65"/><path d="m398.5 308.5h-30l-45-67.5 45-67.5h30z" fill="#524051"/><path d="m83.5 173.5h285v135h-285z" fill="#7e4158"/><path d="m308.5 143.5h-30v195h30c16.569 0 30-13.431 30-30v-135c0-16.569-13.431-30-30-30z" fill="#ffa857"/><path d="m308.5 308.5v-135c0-16.569-13.431-30-30-30h-105c-16.569 0-30 13.431-30 30v135c0 16.569 13.431 30 30 30h105c16.569 0 30-13.431 30-30z" fill="#ffc766"/><path d="m203.5 203.5h75v75h-75z" fill="#7e4158" transform="matrix(0 1 -1 0 482 0)"/><path d="m458.5 30h-22.5v-22.5c0-4.142-3.358-7.5-7.5-7.5h-360c-12.407 0-22.5 10.093-22.5 22.5v466.834c-.002.413.006.828.025 1.244.566 12.012 10.624 21.422 22.899 21.422h389.576c4.142 0 7.5-3.358 7.5-7.5v-467c0-4.142-3.358-7.5-7.5-7.5zm-397.5-7.5c0-4.136 3.364-7.5 7.5-7.5h352.5v452h-352.5c-2.57 0-5.108.448-7.5 1.296zm390 474.5h-382.076c-4.179 0-7.73-3.197-7.915-7.128-.098-2.08.635-4.05 2.063-5.547 1.43-1.499 3.358-2.325 5.428-2.325h360c4.142 0 7.5-3.358 7.5-7.5v-429.5h15z"/><path d="m203.5 286h75c4.142 0 7.5-3.358 7.5-7.5v-75c0-4.142-3.358-7.5-7.5-7.5h-75c-4.142 0-7.5 3.358-7.5 7.5v75c0 4.142 3.358 7.5 7.5 7.5zm7.5-75h60v60h-60z"/><path d="m83.5 452h315c4.142 0 7.5-3.358 7.5-7.5v-407c0-4.142-3.358-7.5-7.5-7.5h-315c-4.142 0-7.5 3.358-7.5 7.5v106c0 4.142 3.358 7.5 7.5 7.5s7.5-3.358 7.5-7.5v-98.5h300v121h-45.755c-3.484-17.096-18.635-30-36.745-30h-135c-18.11 0-33.261 12.904-36.745 30h-53.255c-4.142 0-7.5 3.358-7.5 7.5v271c0 4.142 3.358 7.5 7.5 7.5zm307.5-151h-45v-120h45zm-45.754 15h45.754v121h-300v-121h45.755c3.484 17.096 18.635 30 36.745 30h135c18.11 0 33.261-12.904 36.746-30zm-171.746-165h135c12.407 0 22.5 10.093 22.5 22.5v135c0 12.407-10.093 22.5-22.5 22.5h-135c-12.407 0-22.5-10.093-22.5-22.5v-135c0-12.407 10.093-22.5 22.5-22.5zm-37.5 30v120h-45v-120z"/></g></svg>