<svg id="Capa_1" enable-background="new 0 0 512 512" height="512" viewBox="0 0 512 512" width="512" xmlns="http://www.w3.org/2000/svg"><g><path d="m263.343 504.5h30.157l7.493-87.243-44.993-30z" fill="#524051"/><path d="m211.007 417.257 7.493 87.243h44.843l7.492-87.243-14.835-30z" fill="#6a5269"/><path d="m504.5 327.257h-30l-120-159.879 120-159.878h30z" fill="#ebe1e8"/><path d="m7.5 7.5v319.757h467v-75l-45-107.379 45-107.378v-30z" fill="#f7f4f6"/><path d="m474.5 252.257h-30l-120-107.379 120-107.378h30z" fill="#e0343f"/><path d="m37.5 37.5h407v214.757h-407z" fill="#ff4040"/><path d="m270.835 417.257h30.158l10.306-120-85.299-30z" fill="#b59ab0"/><path d="m281.141 297.257-22.901-30-57.539 30 10.306 120h59.828l4.071-47.399-13.912-12.666 15.636-7.41z" fill="#c7adc0"/><path d="m256 237.257 25.141 60h30.158l2.576-30z" fill="#524051"/><path d="m283.718 267.257-27.718-30-57.875 30 2.576 30h80.44z" fill="#6a5269"/><path d="m313.875 237.257-57.875-30 27.875 60h30c8.284 0 15-6.716 15-15s-6.715-15-15-15z" fill="#a1849f"/><path d="m198.125 267.257h85.751c8.284 0 15-6.716 15-15s-6.716-15-15-15l-27.875-30-57.875 30c-8.284 0-15 6.716-15 15-.001 8.284 6.714 15 14.999 15z" fill="#b59ab0"/><path d="m256 127.5 27.875 109.757h30l19.466-33.716c8.037-13.471 12.659-29.215 12.659-46.041z" fill="#524051"/><path d="m316 157.5-60-30-90 30c0 16.826 4.622 32.57 12.659 46.041l19.466 33.716h85.751l19.466-33.716c8.036-13.471 12.658-29.215 12.658-46.041z" fill="#6a5269"/><path d="m256 67.5 60 90h30c0-49.706-40.294-90-90-90z" fill="#6a5269"/><path d="m256 67.5c-49.706 0-90 40.294-90 90h150c0-49.706-26.863-90-60-90z" fill="#7d617d"/><path d="m274.953 369.862 1.724-20.076c1.041-12.118-8.515-22.529-20.677-22.529s-21.718 10.411-20.677 22.529l1.724 20.076c.845 9.839 9.078 17.395 18.953 17.395s18.108-7.556 18.953-17.395z" fill="#6a5269"/><path d="m504.5 0h-497c-4.142 0-7.5 3.358-7.5 7.5v319.757c0 4.142 3.358 7.5 7.5 7.5h188.894l14.633 170.385c.333 3.879 3.579 6.858 7.473 6.858h75c3.894 0 7.14-2.979 7.473-6.858l14.633-170.385h188.894c4.143 0 7.5-3.358 7.5-7.5v-319.757c0-4.142-3.357-7.5-7.5-7.5zm-166.35 165c-1.115 12.256-4.941 24.125-11.25 34.698-.019.031-.037.062-.055.093l-17.301 29.966h-107.09l-17.3-29.966c-.018-.031-.036-.062-.054-.093-6.309-10.574-10.135-22.443-11.25-34.698zm-164.294-15c3.804-41.987 39.182-75 82.144-75 42.961 0 78.34 33.013 82.144 75zm24.269 94.757h115.75c4.136 0 7.5 3.364 7.5 7.5s-3.364 7.5-7.5 7.5h-115.75c-4.136 0-7.5-3.364-7.5-7.5s3.364-7.5 7.5-7.5zm10.748 60h94.254l-9.018 105h-76.218zm95.542-15h-96.83l-1.288-15h99.407zm-79.032 207.243-6.204-72.243h73.642l-6.205 72.243zm271.617-177.243h-180.106l3.96-46.114c8.999-2.944 15.521-11.416 15.521-21.386 0-8.312-4.534-15.58-11.255-19.476l14.69-25.444c8.957-15.031 13.69-32.263 13.69-49.837 0-53.762-43.738-97.5-97.5-97.5s-97.5 43.738-97.5 97.5c0 17.574 4.733 34.805 13.69 49.836l14.69 25.445c-6.721 3.896-11.256 11.164-11.256 19.476 0 9.971 6.521 18.442 15.521 21.386l3.96 46.114h-180.105v-304.757h482z"/><path d="m37.5 259.757h115.625c4.142 0 7.5-3.358 7.5-7.5s-3.358-7.5-7.5-7.5h-108.125v-199.757h422v199.757h-108.125c-4.143 0-7.5 3.358-7.5 7.5s3.357 7.5 7.5 7.5h115.625c4.143 0 7.5-3.358 7.5-7.5v-214.757c0-4.142-3.357-7.5-7.5-7.5h-437c-4.142 0-7.5 3.358-7.5 7.5v214.757c0 4.142 3.358 7.5 7.5 7.5z"/><path d="m276.815 328.906c-5.337-5.814-12.924-9.149-20.815-9.149-7.892 0-15.479 3.334-20.815 9.149-5.336 5.814-8.009 13.659-7.334 21.521l1.724 20.077c1.188 13.826 12.548 24.252 26.426 24.252 13.877 0 25.237-10.426 26.426-24.252 0 0 1.724-20.077 1.724-20.077.674-7.862-2-15.707-7.336-21.521zm-7.611 20.238-1.724 20.077c-.517 6.006-5.452 10.536-11.48 10.536-6.029 0-10.965-4.53-11.48-10.536l-1.724-20.077c-.322-3.743.9-7.328 3.44-10.096s6.008-4.292 9.764-4.292c3.757 0 7.225 1.524 9.765 4.292 2.539 2.768 3.76 6.353 3.439 10.096z"/></g></svg>