<svg id="Capa_1" enable-background="new 0 0 512 512" height="512" viewBox="0 0 512 512" width="512" xmlns="http://www.w3.org/2000/svg"><g><circle cx="331" cy="256" fill="#524051" r="173.5"/><circle cx="331" cy="256" fill="#7e4158" r="143.5"/><circle cx="331" cy="256" fill="#b53a4c" r="113.5"/><circle cx="331" cy="256" fill="#e0343f" r="83.5"/><path d="m384.5 444.5h-30l-150-188.5 150-188.5h30z" fill="#ffc766"/><path d="m354.5 444.5h-347v-377h347v30l-150 158.5 150 158.5z" fill="#ffdc96"/><path d="m354.5 414.5h-30l-120-158.5 120-158.5h30z" fill="#e0343f"/><path d="m37.5 97.5h287v317h-287z" fill="#ff4040"/><path d="m131.749 144.72v222.57l192.75-111.29z" fill="#e0343f"/><g fill="#b53a4c"><path d="m195.998 256c0 .01-64.25 37.1-64.25 37.1l-64.25-37.1 64.25-37.09z"/><path d="m260.248 144.72v74.19l-64.25 37.09v-74.19z"/><path d="m260.248 293.09v74.2l-64.25-37.1v-74.18c0-.01 64.25 37.08 64.25 37.08z"/></g><path d="m476.646 148.527c-21.573-29.182-50.756-50.862-84.646-62.968v-18.059c0-4.142-3.357-7.5-7.5-7.5h-377c-4.143 0-7.5 3.358-7.5 7.5v377c0 4.142 3.357 7.5 7.5 7.5h377c4.143 0 7.5-3.358 7.5-7.5v-18.06c33.89-12.105 63.073-33.785 84.646-62.968 23.128-31.287 35.354-68.451 35.354-107.472s-12.226-76.185-35.354-107.473zm-84.646 62.152c9.662 12.981 15 28.798 15 45.321s-5.338 32.34-15 45.321zm0 112.825c19.107-17.265 30-41.663 30-67.504s-10.893-50.239-30-67.504v-19.182c28.033 19.723 45 51.881 45 86.685s-16.967 66.963-45 86.685zm0 37.004c37.123-21.688 60-61.317 60-104.508s-22.877-82.82-60-104.508v-17.07c45.907 22.96 75 69.527 75 121.577s-29.093 98.618-75 121.577zm-15 76.492h-362v-362h362zm15-26.573v-16.274c25.61-11.31 47.478-29.42 63.46-52.633 17.362-25.219 26.54-54.791 26.54-85.52s-9.178-60.301-26.54-85.52c-15.982-23.213-37.85-41.323-63.46-52.633v-16.274c63.219 24.89 105 85.692 105 154.427s-41.781 129.537-105 154.427z"/><path d="m37.5 422h317c4.143 0 7.5-3.358 7.5-7.5v-317c0-4.142-3.357-7.5-7.5-7.5h-317c-4.143 0-7.5 3.358-7.5 7.5v143.503c0 4.142 3.357 7.5 7.5 7.5s7.5-3.358 7.5-7.5v-136.003h302v302h-302v-135.997c0-4.142-3.357-7.5-7.5-7.5s-7.5 3.358-7.5 7.5v143.497c0 4.142 3.357 7.5 7.5 7.5z"/><path d="m332 256c0-2.68-1.43-5.155-3.75-6.495l-60.498-34.929-.001-69.859c0-2.68-1.43-5.155-3.75-6.495s-5.18-1.34-7.5 0l-60.499 34.93-60.501-34.93c-2.32-1.34-5.18-1.34-7.5 0s-3.75 3.815-3.75 6.495v69.86l-60.501 34.931c-2.32 1.34-3.75 3.816-3.75 6.495 0 2.68 1.43 5.155 3.75 6.495l60.498 34.929.002 69.861c0 2.68 1.43 5.156 3.75 6.495 2.32 1.34 5.18 1.34 7.5 0l60.5-34.931 60.503 34.931c1.16.67 2.455 1.005 3.75 1.005s2.59-.335 3.75-1.005c2.32-1.34 3.75-3.816 3.75-6.495l-.001-69.864 60.498-34.93c2.32-1.339 3.75-3.815 3.75-6.494zm-79.248-41.424-49.25 28.434v-56.869l49.249-28.435zm-64.25-28.434v56.869l-49.251-28.434v-56.87zm-106.002 69.861 49.251-28.436 49.25 28.434-49.253 28.436zm56.748 41.424 49.254-28.436v56.871l-49.252 28.437zm64.254 28.436v-56.872l49.25 28.434.001 56.873zm56.75-41.428-49.25-28.434 49.25-28.434 49.248 28.433z"/></g></svg>