<svg id="Capa_1" enable-background="new 0 0 512 512" height="512" viewBox="0 0 512 512" width="512" xmlns="http://www.w3.org/2000/svg"><g><path d="m256 7.5c-8.284 0-15 6.716-15 15v197h30v-197c0-8.284-6.716-15-15-15z" fill="#ffc766"/><path d="m353.5 189.5-30 45h60v-45z" fill="#ffdc96"/><path d="m128.5 189.5h225v45h-225z" fill="#ffecc7"/><path d="m383.5 219.5h-30l-97.5 60 127.5-30c8.284 0 15-6.716 15-15s-6.716-15-15-15z" fill="#6a5269"/><path d="m368.5 234.5c0-8.284-6.716-15-15-15h-225c-8.284 0-15 6.716-15 15s6.716 15 15 15l127.5 30 97.5-30c8.284 0 15-6.716 15-15z" fill="#7d617d"/><path d="m256 279.5 67.5 225h30l30-195v-30z" fill="#ff6f4f"/><path d="m353.5 279.5h-225v30l30 195h165l30-195z" fill="#ff8e59"/><path d="m383.5 249.5h-30l14.988 55.984c4.631 2.674 9.821 4.016 15.012 4.016 16.569 0 30-13.431 30-30s-13.431-30-30-30z" fill="#ffdc96"/><path d="m383.5 279.5c0-16.569-13.431-30-30-30h-225c-16.569 0-30 13.431-30 30s13.431 30 30 30c7.691 0 15.382-2.934 21.25-8.802 11.736-11.736 30.764-11.736 42.5 0s30.764 11.736 42.5 0 30.764-11.736 42.5 0 30.764 11.736 42.5 0 30.764-11.736 42.5 0c1.907 1.907 4.009 3.498 6.238 4.786 8.971-5.187 15.012-14.877 15.012-25.984z" fill="#ffecc7"/><path d="m421 279.5c0-13.874-7.579-26.003-18.809-32.489 2.404-3.58 3.809-7.884 3.809-12.511 0-9.778-6.27-18.12-15-21.215v-23.785c0-4.142-3.357-7.5-7.5-7.5h-105v-159.5c0-12.407-10.094-22.5-22.5-22.5s-22.5 10.093-22.5 22.5v159.5h-105c-4.143 0-7.5 3.358-7.5 7.5v23.785c-8.73 3.095-15 11.437-15 21.215 0 4.627 1.405 8.931 3.809 12.511-11.23 6.486-18.809 18.615-18.809 32.489 0 18.452 13.399 33.822 30.976 36.92l29.111 189.22c.563 3.659 3.711 6.359 7.413 6.359h195c3.702 0 6.85-2.701 7.413-6.359l29.111-189.22c17.577-3.098 30.976-18.468 30.976-36.92zm-172.5-257c0-4.136 3.364-7.5 7.5-7.5s7.5 3.364 7.5 7.5v159.5h-15zm-127.5 212c0-4.136 3.364-7.5 7.5-7.5 4.143 0 7.5-3.358 7.5-7.5v-22.5h240v15h-217.5c-4.143 0-7.5 3.358-7.5 7.5s3.357 7.5 7.5 7.5h225c4.136 0 7.5 3.364 7.5 7.5s-3.364 7.5-7.5 7.5h-255c-4.136 0-7.5-3.364-7.5-7.5zm226.065 262.5h-182.13l-27.845-180.991c6.747-1.572 12.942-4.986 17.964-10.007 8.792-8.794 23.101-8.792 31.893 0 14.643 14.642 38.465 14.642 53.107 0 8.792-8.794 23.101-8.792 31.893 0 14.644 14.642 38.466 14.642 53.107 0 8.791-8.794 23.1-8.792 31.893 0 5.021 5.021 11.216 8.436 17.964 10.008zm36.435-195c-6.023 0-11.688-2.346-15.947-6.605-14.641-14.642-38.465-14.641-53.105 0-8.795 8.791-23.1 8.792-31.895 0-14.641-14.642-38.465-14.641-53.105 0-8.795 8.791-23.1 8.792-31.895 0-14.641-14.642-38.465-14.641-53.105 0-4.26 4.26-9.924 6.605-15.947 6.605-12.406 0-22.5-10.093-22.5-22.5s10.094-22.5 22.5-22.5h255c12.406 0 22.5 10.093 22.5 22.5s-10.095 22.5-22.501 22.5z"/></g></svg>