<svg id="Capa_1" enable-background="new 0 0 512 512" height="512" viewBox="0 0 512 512" width="512" xmlns="http://www.w3.org/2000/svg"><g><path d="m429.5 262.5h45v182h-45z" fill="#e0343f"/><path d="m37.5 262.5h392v182h-392z" fill="#ff4040"/><path d="m459.5 277.5-30 48.38-30-63.38h60z" fill="#49c470"/><path d="m241 277.5-94.25 152-94.25-152v-15h188.5z" fill="#77d489"/><path d="m429.5 262.5v63.38l-64.25 103.62-94.25-152v-15z" fill="#77d489"/><path d="m429.5 172.5h-30l-143.5 75 203.5-45c0-16.569-13.431-30-30-30z" fill="#ffdac7"/><path d="m399.5 172.5h-317c-16.569 0-30 13.431-30 30l203.5 45 173.5-45c0-16.569-13.431-30-30-30z" fill="#ffecc7"/><path d="m459.5 202.5-75 60h105v-60z" fill="#b53a4c"/><path d="m22.5 202.5h437v60h-437z" fill="#e0343f"/><path d="m22.5 262.5h30v182h-30z" fill="#ffdc96"/><path d="m241 262.5h30v182h-30z" fill="#ffdc96"/><path d="m459.5 262.5h30v182h-30z" fill="#ffc766"/><path d="m22.5 22.5c-8.284 0-15 6.716-15 15s6.716 15 15 15h452v-30z" fill="#ffdc96"/><path d="m489.5 127.5h-30v-30h30c8.284 0 15 6.716 15 15s-6.716 15-15 15z" fill="#ffc766"/><path d="m459.5 97.5h-422v30h422c8.284 0 15-6.716 15-15s-6.716-15-15-15z" fill="#ffdc96"/><circle cx="37.5" cy="112.5" fill="#ff4040" r="30"/><circle cx="474.5" cy="37.5" fill="#ff4040" r="30"/><path d="m384.5 444.5 75 60h30v-60z" fill="#b53a4c"/><path d="m22.5 444.5h437v60h-437z" fill="#e0343f"/><path d="m489.5 247.5h-30v30h30c8.284 0 15-6.716 15-15s-6.716-15-15-15z" fill="#ffa857"/><path d="m474.5 262.5c0-8.284-6.716-15-15-15h-437c-8.284 0-15 6.716-15 15s6.716 15 15 15h437c8.284 0 15-6.716 15-15z" fill="#ffc766"/><path d="m489.5 429.5h-30v30h30c8.284 0 15-6.716 15-15s-6.716-15-15-15z" fill="#ffa857"/><path d="m474.5 444.5c0-8.284-6.716-15-15-15h-437c-8.284 0-15 6.716-15 15s6.716 15 15 15h437c8.284 0 15-6.716 15-15z" fill="#ffc766"/><path d="m489.5 90h-422.02c-6.848-9.102-17.737-15-29.98-15-20.678 0-37.5 16.822-37.5 37.5s16.822 37.5 37.5 37.5c12.242 0 23.131-5.898 29.98-15h422.02c12.407 0 22.5-10.093 22.5-22.5s-10.093-22.5-22.5-22.5zm-452 45c-12.407 0-22.5-10.093-22.5-22.5s10.093-22.5 22.5-22.5 22.5 10.093 22.5 22.5-10.093 22.5-22.5 22.5zm452-15h-415.255c.494-2.424.755-4.932.755-7.5s-.261-5.076-.755-7.5h415.255c4.135 0 7.5 3.364 7.5 7.5s-3.365 7.5-7.5 7.5z"/><path d="m22.5 60h422.02c6.848 9.102 17.737 15 29.98 15 20.678 0 37.5-16.822 37.5-37.5s-16.822-37.5-37.5-37.5c-12.242 0-23.131 5.898-29.98 15h-422.02c-12.407 0-22.5 10.093-22.5 22.5s10.093 22.5 22.5 22.5zm452-45c12.407 0 22.5 10.093 22.5 22.5s-10.093 22.5-22.5 22.5-22.5-10.093-22.5-22.5 10.093-22.5 22.5-22.5zm-452 15h415.255c-.494 2.424-.755 4.932-.755 7.5s.261 5.076.755 7.5h-415.255c-4.135 0-7.5-3.364-7.5-7.5s3.365-7.5 7.5-7.5z"/><path d="m512 262.5c0-9.778-6.27-18.12-15-21.215v-38.785c0-4.142-3.358-7.5-7.5-7.5h-23.255c-3.484-17.096-18.635-30-36.745-30h-347c-18.11 0-33.261 12.904-36.745 30h-23.255c-4.142 0-7.5 3.358-7.5 7.5v38.785c-8.73 3.095-15 11.437-15 21.215s6.271 18.114 15 21.21v139.58c-8.729 3.096-15 11.432-15 21.21s6.271 18.114 15 21.21v38.79c0 4.142 3.358 7.5 7.5 7.5h467c4.142 0 7.5-3.358 7.5-7.5v-38.79c8.729-3.096 15-11.432 15-21.21s-6.271-18.114-15-21.21v-139.58c8.729-3.096 15-11.432 15-21.21zm-45 159.5v-137h15v137zm-422-137v137h-15v-137zm15 18.827 73.275 118.173h-73.275zm5.975-18.827h161.55l-80.775 130.268zm167.525 18.827v118.173h-73.275zm15-18.827h15v137h-15zm30 18.827 73.275 118.173h-73.275zm5.975-18.827h161.55l-80.775 130.268zm167.525 18.827v118.173h-73.275zm-369.5-123.827h347c9.778 0 18.114 6.271 21.21 15h-389.42c3.096-8.729 11.432-15 21.21-15zm-60 75c4.142 0 7.5-3.358 7.5-7.5v-37.5h452v30h-429.5c-4.142 0-7.5 3.358-7.5 7.5s3.358 7.5 7.5 7.5h437c4.136 0 7.5 3.364 7.5 7.5s-3.364 7.5-7.5 7.5h-467c-4.136 0-7.5-3.364-7.5-7.5s3.364-7.5 7.5-7.5zm7.5 242v-30h452v30zm459.5-45h-467c-4.136 0-7.5-3.364-7.5-7.5s3.364-7.5 7.5-7.5h467c4.136 0 7.5 3.364 7.5 7.5s-3.364 7.5-7.5 7.5z"/></g></svg>