<svg id="Capa_1" enable-background="new 0 0 512 512" height="512" viewBox="0 0 512 512" width="512" xmlns="http://www.w3.org/2000/svg"><g><path d="m256 7.5v90c24.853 0 45-20.147 45-45s-20.147-45-45-45z" fill="#c7adc0"/><path d="m271 52.5c0-24.853-6.716-45-15-45-24.853 0-45 20.147-45 45s20.147 45 45 45c8.284 0 15-20.147 15-45z" fill="#d9c8d4"/><path d="m80.284 80.284 63.64 63.64c17.574-17.574 17.574-46.066 0-63.64s-46.066-17.574-63.64 0z" fill="#c7adc0"/><path d="m122.71 101.497c-17.574-17.574-36.569-27.071-42.426-21.213-17.574 17.574-17.574 46.066 0 63.64s46.066 17.574 63.64 0c5.857-5.858-3.64-24.853-21.214-42.427z" fill="#d9c8d4"/><path d="m7.5 256h90c0-24.853-20.147-45-45-45s-45 20.147-45 45z" fill="#c7adc0"/><path d="m52.5 241c-24.853 0-45 6.716-45 15 0 24.853 20.147 45 45 45s45-20.147 45-45c0-8.284-20.147-15-45-15z" fill="#d9c8d4"/><path d="m80.284 431.716 63.64-63.64c-17.574-17.574-46.066-17.574-63.64 0s-17.574 46.066 0 63.64z" fill="#c7adc0"/><path d="m101.497 389.29c-17.574 17.574-27.071 36.569-21.213 42.426 17.574 17.574 46.066 17.574 63.64 0s17.574-46.066 0-63.64c-5.858-5.857-24.853 3.64-42.427 21.214z" fill="#d9c8d4"/><path d="m256 504.5v-90c-24.853 0-45 20.147-45 45s20.147 45 45 45z" fill="#c7adc0"/><path d="m241 459.5c0 24.853 6.716 45 15 45 24.853 0 45-20.147 45-45s-20.147-45-45-45c-8.284 0-15 20.147-15 45z" fill="#d9c8d4"/><path d="m431.716 431.716-63.64-63.64c-17.574 17.574-17.574 46.066 0 63.64s46.066 17.574 63.64 0z" fill="#c7adc0"/><path d="m389.29 410.503c17.574 17.574 36.569 27.071 42.426 21.213 17.574-17.574 17.574-46.066 0-63.64s-46.066-17.574-63.64 0c-5.857 5.858 3.64 24.853 21.214 42.427z" fill="#d9c8d4"/><path d="m504.5 256h-90c0 24.853 20.147 45 45 45s45-20.147 45-45z" fill="#c7adc0"/><path d="m459.5 271c24.853 0 45-6.716 45-15 0-24.853-20.147-45-45-45s-45 20.147-45 45c0 8.284 20.147 15 45 15z" fill="#d9c8d4"/><path d="m431.716 80.284-63.64 63.64c17.574 17.574 46.066 17.574 63.64 0s17.574-46.066 0-63.64z" fill="#c7adc0"/><path d="m410.503 122.71c17.574-17.574 27.071-36.569 21.213-42.426-17.574-17.574-46.066-17.574-63.64 0s-17.574 46.066 0 63.64c5.858 5.857 24.853-3.64 42.427-21.214z" fill="#d9c8d4"/><circle cx="256" cy="256" fill="#7e4158" r="218.5"/><circle cx="256" cy="256" fill="#ffdc96" r="188.5"/><path d="m256 97.5v317c87.537 0 158.5-70.963 158.5-158.5s-70.963-158.5-158.5-158.5z" fill="#e0343f"/><path d="m384.5 256c0-87.537-57.531-158.5-128.5-158.5-87.537 0-158.5 70.963-158.5 158.5s70.963 158.5 158.5 158.5c70.969 0 128.5-70.963 128.5-158.5z" fill="#ff4040"/><path d="m512 256c0-22.681-14.349-42.45-35.441-49.651-5.642-25.295-15.596-49.324-29.492-71.2 9.823-20.005 5.991-44.131-10.048-60.169-16.037-16.038-40.163-19.871-60.169-10.048-21.876-13.896-45.905-23.85-71.2-29.492-7.2-21.091-26.969-35.44-49.65-35.44s-42.45 14.349-49.651 35.441c-25.295 5.642-49.324 15.595-71.2 29.492-20.006-9.823-44.131-5.99-60.169 10.048s-19.87 40.163-10.047 60.169c-13.896 21.876-23.849 45.905-29.492 71.199-21.091 7.2-35.441 26.969-35.441 49.651 0 22.681 14.349 42.45 35.441 49.651 5.642 25.295 15.596 49.324 29.492 71.2-9.823 20.005-5.991 44.131 10.048 60.169 10.157 10.158 23.557 15.422 37.102 15.421 7.841 0 15.73-1.772 23.066-5.374 21.876 13.897 45.905 23.85 71.2 29.492 7.2 21.091 26.969 35.441 49.651 35.441 22.681 0 42.45-14.349 49.651-35.441 25.295-5.642 49.325-15.596 71.201-29.493 7.336 3.602 15.224 5.374 23.066 5.374 13.543 0 26.945-5.264 37.102-15.421 16.039-16.038 19.871-40.163 10.048-60.169 13.896-21.876 23.849-45.905 29.492-71.199 21.09-7.2 35.44-26.969 35.44-49.651zm-15 0c0 13.084-6.683 24.81-17.186 31.548 1.439-10.367 2.186-20.899 2.186-31.548 0-10.648-.747-21.181-2.186-31.547 10.503 6.737 17.186 18.464 17.186 31.547zm-70.587-170.413c9.252 9.251 12.818 22.268 10.155 34.46-6.312-8.348-13.232-16.323-20.762-23.853s-15.505-14.449-23.853-20.761c12.192-2.663 25.208.903 34.46 10.154zm-170.413-70.587c13.083 0 24.81 6.683 31.547 17.186-10.366-1.439-20.899-2.186-31.547-2.186s-21.181.747-31.547 2.186c6.737-10.503 18.464-17.186 31.547-17.186zm-170.413 70.587c9.252-9.252 22.268-12.818 34.459-10.155-8.348 6.312-16.323 13.232-23.853 20.762s-14.449 15.505-20.762 23.853c-2.662-12.191.905-25.208 10.156-34.46zm-70.587 170.413c0-13.084 6.683-24.81 17.186-31.548-1.439 10.367-2.186 20.899-2.186 31.548 0 10.648.747 21.181 2.186 31.547-10.503-6.737-17.186-18.464-17.186-31.547zm70.587 170.413c-9.252-9.251-12.818-22.268-10.155-34.46 6.312 8.348 13.232 16.323 20.762 23.853s15.505 14.449 23.853 20.761c-12.192 2.663-25.208-.903-34.46-10.154zm170.413 70.587c-13.084 0-24.81-6.683-31.548-17.186 10.367 1.439 20.899 2.186 31.548 2.186 10.648 0 21.181-.747 31.547-2.186-6.737 10.503-18.464 17.186-31.547 17.186zm170.413-70.587c-9.252 9.251-22.268 12.817-34.459 10.155 8.348-6.312 16.323-13.232 23.853-20.761 7.53-7.53 14.449-15.505 20.762-23.853 2.662 12.19-.905 25.207-10.156 34.459zm-170.413 40.587c-116.346 0-211-94.654-211-211s94.654-211 211-211 211 94.654 211 211-94.654 211-211 211z"/><path d="m256 422c91.533 0 166-74.467 166-166s-74.467-166-166-166-166 74.467-166 166 74.467 166 166 166zm0-317c83.262 0 151 67.738 151 151s-67.738 151-151 151-151-67.738-151-151 67.738-151 151-151z"/><path d="m256 60c-46.574 0-91.72 16.63-127.122 46.826-3.151 2.688-3.527 7.422-.839 10.573s7.422 3.527 10.573.839c32.69-27.882 74.379-43.238 117.388-43.238 99.804 0 181 81.196 181 181s-81.196 181-181 181-181-81.196-181-181c0-43.009 15.355-84.698 43.238-117.387 2.688-3.151 2.313-7.885-.839-10.573-3.151-2.688-7.885-2.313-10.573.839-30.196 35.401-46.826 80.547-46.826 127.121 0 108.075 87.925 196 196 196s196-87.925 196-196-87.925-196-196-196z"/></g></svg>