<svg id="Capa_1" enable-background="new 0 0 512.001 512.001" height="512" viewBox="0 0 512.001 512.001" width="512" xmlns="http://www.w3.org/2000/svg"><g><path d="m256 7.5c-8.284 0-15 6.716-15 15v60.767h30s0-52.483 0-60.767c0-8.284-6.715-15-15-15z" fill="#ffdc96"/><path d="m316 68.27 15 44.23h-75l30-44.23z" fill="#ffa857"/><path d="m286 68.27 15 44.23h-120l15-44.23z" fill="#ffc766"/><path d="m67.5 301.552c0 104.106 84.394 188.5 188.5 188.5s188.5-84.394 188.5-188.5z" fill="#524051"/><path d="m425.294 316.552-154.294 187.948c90.202-6.573 164.08-71.939 183.497-157.948z" fill="#ffa857"/><path d="m57.503 346.552c19.417 86.01 93.295 151.376 183.497 157.948v-71.972c-8.964-5.188-15-14.874-15-25.977 0-16.569 13.431-30 30-30s30 13.431 30 30c0 11.102-6.036 20.789-15 25.977v71.972c75.847-6.573 137.967-71.939 154.293-157.948l-169.293-30z" fill="#ffc766"/><path d="m459.5 301.55h-30l-64.25-109.248-107.01-94.232c111.36 1.19 201.26 91.84 201.26 203.48z" fill="#ffc766"/><path d="m258.24 98.07c-.74-.01-1.49-.02-2.24-.02-112.39 0-203.5 91.11-203.5 203.5h377c0-111.51-76.47-202.08-171.26-203.48zm-2.24 143.48c-30.32 0-55.71-36-62.48-64.25 6.75-28.25 32.16-49.25 62.48-49.25s55.73 21 62.48 49.25c-6.77 28.25-32.16 64.25-62.48 64.25z" fill="#ffdc96"/><path d="m256 226.552c-30.317 0-55.713-21.004-62.471-49.25-1.152 4.814-1.779 9.833-1.779 15 0 35.484 28.766 64.25 64.25 64.25s64.25-28.766 64.25-64.25c0-5.167-.627-10.186-1.779-15-6.758 28.246-32.154 49.25-62.471 49.25z" fill="#524051"/><path d="m459.5 301.552h-94.207l60 45h29.204c3.269-14.477 5.003-29.535 5.003-45z" fill="#ff8e59"/><path d="m429.5 301.552h-377c0 15.465 1.734 30.523 5.003 45h367.791c2.748-14.477 4.206-29.535 4.206-45z" fill="#ffa857"/><path d="m458.954 286.552h-30v30h30c8.284 0 15-6.716 15-15s-6.715-15-15-15z" fill="#ffa857"/><path d="m428.954 286.552h-375.908c-8.284 0-15 6.716-15 15s6.716 15 15 15h375.908c8.284 0 15-6.716 15-15s-6.715-15-15-15z" fill="#ffc766"/><path d="m256 264.052c39.563 0 71.75-32.187 71.75-71.75s-32.187-71.75-71.75-71.75-71.75 32.187-71.75 71.75 32.187 71.75 71.75 71.75zm0-15c-25.279 0-46.743-16.618-54.061-39.501 13.258 15.199 32.701 24.501 54.061 24.501s40.804-9.302 54.061-24.5c-7.318 22.882-28.782 39.5-54.061 39.5zm0-113.5c26.098 0 48.123 17.713 54.721 41.745-6.72 24.674-28.964 41.755-54.721 41.755s-48-17.081-54.722-41.755c6.598-24.032 28.624-41.745 54.722-41.745z"/><path d="m465.913 280.158c-5.118-50.799-28.389-97.788-65.946-132.857-18.646-17.411-39.998-31.091-63.034-40.659l-13.83-40.783c-1.032-3.043-3.889-5.091-7.103-5.091h-37.5v-38.268c0-12.407-10.093-22.5-22.5-22.5s-22.5 10.093-22.5 22.5v38.267h-37.5c-3.214 0-6.071 2.048-7.103 5.091l-13.83 40.783c-23.037 9.568-44.389 23.248-63.035 40.66-37.556 35.069-60.827 82.058-65.945 132.857-9.011 2.938-15.542 11.415-15.542 21.394 0 9.974 6.523 18.454 15.528 21.395 4.871 48.184 26.299 93.374 60.728 127.801 35.818 35.816 83.284 57.563 133.653 61.233 2.077.155 4.125-.568 5.652-1.987s2.393-3.409 2.393-5.493v-7.093c2.501.094 5.007.144 7.5.144s4.999-.05 7.5-.144v7.092c0 2.084.867 4.074 2.393 5.493 1.393 1.294 3.219 2.007 5.107 2.007.181 0 .363-.006.545-.02 50.369-3.67 97.835-25.417 133.653-61.233 34.429-34.427 55.857-79.617 60.729-127.801 9.004-2.942 15.527-11.421 15.527-21.395.001-9.978-6.53-18.455-15.54-21.393zm-217.413-257.658c0-4.136 3.364-7.5 7.5-7.5s7.5 3.364 7.5 7.5v38.267h-15zm-47.124 53.267h109.248l8.248 24.323c-20.142-6.274-41.302-9.538-62.872-9.538s-42.729 3.264-62.872 9.538zm54.624 29.785c99.481 0 183.475 75.576 194.702 173.5h-389.404c11.228-97.924 95.22-173.5 194.702-173.5zm11.243 320.485c-2.316 1.341-3.743 3.814-3.743 6.491v49.867c-4.988.202-10.012.202-15 0v-49.867c0-2.677-1.427-5.15-3.743-6.491-6.943-4.019-11.257-11.485-11.257-19.485 0-12.407 10.093-22.5 22.5-22.5 12.406 0 22.5 10.093 22.5 22.5 0 8-4.313 15.467-11.257 19.485zm11.257 70.228v-59.724c9.348-7.032 15-18.159 15-29.989 0-20.678-16.822-37.5-37.5-37.5s-37.5 16.822-37.5 37.5c0 11.831 5.652 22.957 15 29.99v59.723c-79.535-9.144-145.194-66.768-166.328-142.213h377.651c-21.134 75.445-86.787 133.069-166.323 142.213zm180.498-187.213c-.039-.001-.08 0-.118 0h-375.834c-4.142 0-7.5 3.358-7.5 7.5s3.358 7.5 7.5 7.5h367.674c-.582 5.06-1.37 10.06-2.336 15h-384.766c-1.476-7.543-2.523-15.232-3.092-23.045-.286-3.92-3.549-6.955-7.48-6.955-4.136 0-7.5-3.364-7.5-7.5s3.364-7.5 7.5-7.5h405.908c4.136 0 7.5 3.364 7.5 7.5 0 4.121-3.34 7.476-7.456 7.5z"/></g></svg>