<svg id="Capa_1" enable-background="new 0 0 512 512" height="512" viewBox="0 0 512 512" width="512" xmlns="http://www.w3.org/2000/svg"><g><path d="m504.5 256c0-12.911-4.105-24.876-11.073-34.671-4.981-7.002-6.75-15.721-4.819-24.094 2.706-11.734 1.926-24.382-3.024-36.331-4.9-11.829-13.173-21.253-23.244-27.634-7.435-4.71-12.481-12.263-13.988-20.935-2.041-11.747-7.582-22.997-16.636-32.05-9.053-9.053-20.303-14.595-32.05-16.636-8.671-1.507-16.224-6.553-20.935-13.988-6.381-10.072-15.806-18.345-27.634-23.244-8.997-3.727-18.389-5.088-27.49-4.379l75 233.963-75 233.963c9.101.709 18.493-.652 27.49-4.379 11.829-4.9 21.253-13.173 27.634-23.244 4.71-7.435 12.263-12.481 20.935-13.988 11.747-2.041 22.997-7.582 32.05-16.636 9.053-9.053 14.595-20.303 16.636-32.05 1.507-8.671 6.553-16.224 13.988-20.935 10.071-6.381 18.345-15.806 23.244-27.634 4.949-11.949 5.73-24.598 3.023-36.331-1.931-8.373-.162-17.093 4.819-24.094 6.969-9.797 11.074-21.762 11.074-34.673z" fill="#38ad63"/><path d="m363.915 462.34c4.142-7.435 10.783-12.481 18.407-13.988 10.329-2.041 20.221-7.582 28.181-16.636 7.96-9.053 12.833-20.303 14.627-32.05 1.325-8.671 5.762-16.224 12.299-20.935 8.856-6.381 16.13-15.806 20.438-27.634 4.352-11.949 5.038-24.598 2.659-36.331-1.698-8.373-.142-17.093 4.237-24.094 6.127-9.795 9.737-21.76 9.737-34.671s-3.609-24.876-9.737-34.671c-4.38-7.002-5.935-15.721-4.237-24.094 2.38-11.734 1.693-24.382-2.659-36.331-4.308-11.829-11.583-21.253-20.438-27.634-6.537-4.71-10.974-12.263-12.299-20.935-1.795-11.747-6.667-22.997-14.627-32.05s-17.852-14.595-28.181-16.636c-7.625-1.507-14.266-6.553-18.407-13.988-5.611-10.072-13.898-18.345-24.298-23.244-5.242-2.469-10.637-3.9-16.009-4.379-2.987.233-5.942.687-8.842 1.355-8.373 1.931-17.093.162-24.094-4.819-9.796-6.97-21.761-11.075-34.672-11.075s-24.876 4.105-34.671 11.073c-7.002 4.981-15.721 6.75-24.094 4.819-11.734-2.706-24.382-1.926-36.331 3.024-11.829 4.9-21.253 13.173-27.634 23.244-4.711 7.435-12.263 12.481-20.935 13.988-11.747 2.041-22.997 7.582-32.05 16.636-9.053 9.053-14.595 20.303-16.636 32.05-1.507 8.671-6.553 16.224-13.988 20.935-10.072 6.381-18.345 15.806-23.244 27.634-4.949 11.949-5.73 24.598-3.023 36.331 1.931 8.373.162 17.093-4.819 24.094-6.97 9.796-11.075 21.761-11.075 34.672s4.105 24.876 11.073 34.671c4.981 7.002 6.75 15.721 4.819 24.094-2.706 11.734-1.926 24.382 3.024 36.331 4.9 11.829 13.173 21.253 23.244 27.634 7.435 4.71 12.481 12.263 13.988 20.935 2.041 11.747 7.582 22.997 16.636 32.05 9.053 9.053 20.303 14.594 32.05 16.636 8.671 1.507 16.224 6.553 20.935 13.988 6.381 10.072 15.806 18.345 27.634 23.244 11.949 4.949 24.598 5.73 36.331 3.023 8.373-1.931 17.093-.162 24.094 4.819 9.795 6.969 21.76 11.073 34.671 11.073s24.876-4.105 34.671-11.073c7.002-4.981 15.721-6.75 24.094-4.819 2.899.669 5.855 1.123 8.842 1.355 5.372-.479 10.767-1.909 16.009-4.379 10.402-4.898 18.689-13.171 24.3-23.242zm-49.288-118.599c-6.919-.579-14.073.428-20.93 3.268s-12.627 7.187-17.11 12.489c-6.171-3.182-13.166-4.99-20.587-4.99s-14.416 1.808-20.587 4.99c-4.483-5.302-10.254-9.649-17.11-12.489s-14.011-3.846-20.93-3.268c-2.113-6.614-5.781-12.838-11.029-18.086s-11.472-8.915-18.086-11.029c.579-6.919-.428-14.073-3.268-20.93s-7.187-12.627-12.489-17.11c3.182-6.171 4.99-13.166 4.99-20.587s-1.808-14.416-4.99-20.587c5.302-4.483 9.649-10.254 12.489-17.11s3.846-14.011 3.268-20.93c6.614-2.113 12.838-5.781 18.086-11.029s8.915-11.472 11.029-18.086c6.919.579 14.073-.428 20.93-3.268s12.627-7.187 17.11-12.489c6.171 3.182 13.166 4.99 20.587 4.99s14.416-1.808 20.587-4.99c4.483 5.302 10.254 9.649 17.11 12.489s14.011 3.846 20.93 3.268c2.113 6.614 5.781 12.838 11.029 18.086s11.472 8.915 18.086 11.029c-.579 6.919.428 14.073 3.268 20.93s7.187 12.627 12.489 17.11c-3.182 6.171-4.99 13.166-4.99 20.587s1.808 14.416 4.99 20.587c-5.302 4.483-9.649 10.254-12.489 17.11s-3.846 14.011-3.268 20.93c-6.614 2.113-12.838 5.781-18.086 11.029s-8.916 11.473-11.029 18.086z" fill="#49c470"/><circle cx="178.124" cy="67.991" fill="#7e4158" r="15"/><circle cx="201.085" cy="123.423" fill="#b53a4c" r="15"/><circle cx="67.99" cy="178.124" fill="#b53a4c" r="15"/><circle cx="123.423" cy="201.085" fill="#7e4158" r="15"/><circle cx="67.991" cy="333.876" fill="#7e4158" r="15"/><circle cx="123.423" cy="310.915" fill="#b53a4c" r="15"/><circle cx="178.124" cy="444.01" fill="#b53a4c" r="15"/><circle cx="201.085" cy="388.577" fill="#7e4158" r="15"/><circle cx="333.876" cy="444.009" fill="#7e4158" r="15"/><circle cx="310.915" cy="388.577" fill="#b53a4c" r="15"/><circle cx="444.01" cy="333.876" fill="#b53a4c" r="15"/><circle cx="388.577" cy="310.915" fill="#7e4158" r="15"/><circle cx="444.009" cy="178.124" fill="#7e4158" r="15"/><circle cx="388.577" cy="201.085" fill="#b53a4c" r="15"/><circle cx="333.876" cy="67.99" fill="#b53a4c" r="15"/><circle cx="310.915" cy="123.423" fill="#7e4158" r="15"/><circle cx="256" cy="67.5" fill="#e0343f" r="30"/><circle cx="256" cy="256" fill="#ffc766" r="45"/><circle cx="256" cy="256" fill="#524051" r="15"/><circle cx="122.71" cy="122.71" fill="#e0343f" r="30"/><circle cx="67.5" cy="256" fill="#ff4040" r="30"/><circle cx="122.71" cy="389.29" fill="#e0343f" r="30"/><circle cx="256" cy="444.5" fill="#ff4040" r="30"/><circle cx="389.29" cy="389.29" fill="#e0343f" r="30"/><circle cx="444.5" cy="256" fill="#e0343f" r="30"/><circle cx="389.29" cy="122.71" fill="#ff4040" r="30"/><path d="m169.514 47.203c-11.462 4.748-16.925 17.935-12.177 29.398 2.299 5.552 6.624 9.877 12.176 12.177 2.776 1.15 5.693 1.725 8.611 1.725 2.917 0 5.834-.575 8.61-1.725 11.462-4.748 16.925-17.935 12.177-29.397-4.749-11.464-17.938-16.923-29.397-12.178zm11.48 27.716c-1.852.767-3.89.767-5.741 0s-3.292-2.208-4.058-4.058c-1.583-3.821.238-8.217 4.059-9.8.936-.388 1.905-.571 2.86-.571 2.944 0 5.744 1.746 6.939 4.631 1.583 3.82-.239 8.216-4.059 9.798z"/><path d="m192.475 102.636c-11.462 4.748-16.925 17.935-12.178 29.397 2.3 5.553 6.625 9.877 12.178 12.177 2.776 1.15 5.693 1.725 8.61 1.725s5.835-.575 8.61-1.725c11.462-4.748 16.925-17.936 12.178-29.397-4.749-11.462-17.936-16.925-29.398-12.177zm11.48 27.717c-1.849.767-3.888.768-5.74 0-1.852-.767-3.293-2.208-4.059-4.059-1.583-3.821.238-8.217 4.059-9.8.936-.388 1.905-.571 2.859-.571 2.944 0 5.744 1.745 6.939 4.629 1.584 3.822-.238 8.218-4.058 9.801z"/><path d="m147.659 229.686c-2.669 2.257-3.425 6.059-1.823 9.165 2.758 5.346 4.156 11.116 4.156 17.149s-1.398 11.803-4.156 17.149c-1.602 3.106-.846 6.908 1.823 9.165 4.594 3.885 8.094 8.68 10.402 14.254 2.309 5.571 3.225 11.437 2.724 17.435-.291 3.483 1.861 6.705 5.19 7.769 5.731 1.832 10.801 4.923 15.065 9.188 4.266 4.266 7.356 9.334 9.188 15.065 1.064 3.329 4.27 5.478 7.77 5.191 5.993-.5 11.862.414 17.435 2.723s10.368 5.809 14.254 10.403c2.257 2.668 6.057 3.423 9.164 1.823 5.348-2.758 11.118-4.156 17.149-4.156s11.802 1.398 17.149 4.156c1.092.563 2.269.834 3.435.834 2.151 0 4.266-.926 5.729-2.657 3.886-4.595 8.682-8.095 14.254-10.403 5.574-2.308 11.441-3.225 17.435-2.723 3.491.289 6.705-1.862 7.77-5.191 1.831-5.73 4.922-10.8 9.187-15.065 4.266-4.265 9.335-7.356 15.066-9.188 3.329-1.064 5.481-4.286 5.19-7.769-.501-5.998.415-11.863 2.724-17.435 2.309-5.573 5.809-10.369 10.402-14.253 2.669-2.257 3.425-6.059 1.823-9.165-2.758-5.347-4.156-11.117-4.156-17.149 0-6.033 1.398-11.803 4.156-17.149 1.602-3.106.846-6.908-1.823-9.165-4.594-3.885-8.094-8.68-10.402-14.254-2.309-5.571-3.225-11.437-2.724-17.435.291-3.483-1.861-6.705-5.19-7.769-5.731-1.832-10.801-4.923-15.065-9.188-4.266-4.266-7.356-9.334-9.188-15.065-1.064-3.329-4.279-5.488-7.77-5.191-5.993.503-11.861-.414-17.435-2.723-5.572-2.309-10.368-5.809-14.254-10.403-2.257-2.669-6.057-3.424-9.164-1.823-5.348 2.758-11.118 4.156-17.149 4.156s-11.802-1.398-17.149-4.156c-3.105-1.599-6.906-.847-9.164 1.823-3.886 4.595-8.682 8.095-14.254 10.403-5.574 2.308-11.442 3.224-17.435 2.723-3.498-.295-6.705 1.862-7.77 5.191-1.831 5.731-4.922 10.8-9.187 15.065-4.266 4.265-9.335 7.356-15.066 9.188-3.329 1.064-5.481 4.286-5.19 7.769.501 5.998-.415 11.863-2.724 17.435-2.308 5.573-5.808 10.368-10.402 14.253zm13.849 7.518c4.403-4.647 7.957-10.105 10.411-16.031 2.455-5.925 3.802-12.297 3.975-18.699 5.847-2.609 11.219-6.291 15.755-10.827 4.535-4.536 8.217-9.908 10.826-15.754 6.4-.173 12.772-1.519 18.698-3.973s11.383-6.008 16.031-10.413c5.979 2.29 12.382 3.485 18.796 3.485s12.816-1.195 18.796-3.485c4.647 4.404 10.105 7.958 16.031 10.413 5.927 2.455 12.298 3.8 18.698 3.973 2.609 5.847 6.291 11.219 10.826 15.754 4.536 4.536 9.908 8.218 15.755 10.827.173 6.402 1.52 12.774 3.975 18.699 2.454 5.926 6.008 11.384 10.411 16.031-2.29 5.979-3.484 12.381-3.484 18.796s1.194 12.817 3.484 18.796c-4.403 4.647-7.957 10.105-10.411 16.031-2.455 5.925-3.802 12.297-3.975 18.699-5.847 2.609-11.219 6.291-15.755 10.827-4.535 4.536-8.217 9.908-10.826 15.754-6.399.173-12.771 1.519-18.698 3.974-5.926 2.454-11.383 6.008-16.031 10.413-5.979-2.29-12.382-3.485-18.796-3.485s-12.816 1.195-18.796 3.485c-4.647-4.404-10.105-7.958-16.031-10.413-5.927-2.455-12.298-3.8-18.698-3.973-2.609-5.847-6.291-11.219-10.826-15.754-4.536-4.536-9.908-8.218-15.755-10.827-.173-6.402-1.52-12.774-3.975-18.699-2.454-5.926-6.008-11.384-10.411-16.031 2.29-5.979 3.484-12.381 3.484-18.796s-1.194-12.818-3.484-18.797z"/><path d="m76.601 157.336c-11.462-4.747-24.649.715-29.398 12.178-4.747 11.461.716 24.649 12.178 29.397 2.808 1.163 5.717 1.712 8.581 1.712 8.833 0 17.232-5.235 20.817-13.89 4.746-11.462-.716-24.649-12.178-29.397zm-1.682 23.659c-1.582 3.82-5.98 5.641-9.799 4.059-3.82-1.583-5.642-5.979-4.06-9.799 1.195-2.886 3.995-4.63 6.94-4.63.954 0 1.924.183 2.859.571 3.822 1.581 5.643 5.977 4.06 9.799z"/><path d="m132.033 180.298c-5.553-2.3-11.668-2.3-17.221 0-5.552 2.3-9.877 6.625-12.176 12.176-2.301 5.553-2.301 11.668-.001 17.221 2.3 5.552 6.624 9.877 12.177 12.177 2.808 1.163 5.717 1.713 8.581 1.712 8.833 0 17.232-5.234 20.816-13.889 2.301-5.553 2.301-11.669.001-17.221s-6.624-9.876-12.177-12.176zm-1.681 23.658c-1.582 3.82-5.979 5.64-9.799 4.059-1.851-.767-3.292-2.208-4.059-4.059s-.767-3.889.001-5.741c.766-1.851 2.207-3.292 4.058-4.059.926-.383 1.897-.575 2.87-.575.972 0 1.944.192 2.87.575 1.852.767 3.293 2.208 4.06 4.059s.766 3.889-.001 5.741z"/><path d="m59.38 354.664c2.776 1.15 5.693 1.725 8.61 1.725s5.835-.575 8.61-1.725c11.462-4.748 16.925-17.935 12.177-29.398-2.299-5.552-6.624-9.877-12.176-12.177s-11.668-2.3-17.222 0c-5.553 2.3-9.877 6.625-12.177 12.177-2.3 5.553-2.3 11.668 0 17.22 2.301 5.553 6.626 9.877 12.178 12.178zm1.682-23.658c.767-1.851 2.208-3.292 4.059-4.059 1.854-.767 3.892-.766 5.741 0 1.851.767 3.292 2.208 4.058 4.058 1.583 3.821-.238 8.217-4.059 9.8-1.85.767-3.888.768-5.739 0-1.852-.767-3.293-2.208-4.06-4.06-.767-1.85-.767-3.888 0-5.739z"/><path d="m102.636 302.305c-2.3 5.553-2.3 11.669 0 17.22 2.3 5.553 6.625 9.877 12.177 12.178 2.776 1.15 5.693 1.725 8.61 1.725s5.835-.575 8.61-1.725c5.553-2.3 9.878-6.625 12.178-12.177s2.3-11.668-.001-17.221c-2.299-5.552-6.624-9.877-12.176-12.177-5.553-2.3-11.669-2.3-17.222 0s-9.876 6.624-12.176 12.177zm13.858 5.74c.767-1.851 2.208-3.292 4.059-4.059.926-.383 1.898-.575 2.87-.575.973 0 1.945.192 2.871.575 1.851.767 3.292 2.208 4.059 4.059s.767 3.889 0 5.74-2.208 3.292-4.06 4.059c-1.851.767-3.889.768-5.739 0-1.852-.767-3.293-2.208-4.06-4.06-.766-1.85-.766-3.888 0-5.739z"/><path d="m169.514 464.797c2.807 1.163 5.717 1.713 8.581 1.713 8.833 0 17.23-5.234 20.817-13.89 4.747-11.461-.716-24.649-12.178-29.397-11.459-4.746-24.648.714-29.397 12.176-4.748 11.462.715 24.65 12.177 29.398zm1.68-23.657c1.583-3.822 5.979-5.643 9.8-4.059 3.82 1.583 5.642 5.979 4.06 9.799-1.583 3.821-5.98 5.64-9.8 4.059-3.82-1.583-5.642-5.979-4.06-9.799z"/><path d="m221.872 397.187c4.748-11.462-.715-24.65-12.177-29.397-11.458-4.746-24.649.714-29.397 12.176s.715 24.65 12.177 29.398c2.807 1.163 5.716 1.712 8.58 1.712 8.833.001 17.232-5.234 20.817-13.889zm-27.716-11.481c1.583-3.819 5.977-5.641 9.799-4.058 3.82 1.583 5.642 5.978 4.06 9.798-1.582 3.821-5.977 5.646-9.8 4.06-3.82-1.583-5.642-5.979-4.059-9.8z"/><path d="m333.905 466.51c2.864 0 5.775-.551 8.581-1.713 11.462-4.748 16.925-17.935 12.177-29.398-2.299-5.552-6.624-9.877-12.176-12.177-5.552-2.299-11.668-2.3-17.222 0-11.462 4.748-16.925 17.935-12.177 29.397 3.587 8.657 11.984 13.891 20.817 13.891zm-2.899-29.429c1.852-.767 3.89-.767 5.741 0s3.292 2.208 4.058 4.058c1.583 3.821-.238 8.217-4.059 9.8-3.821 1.582-8.217-.238-9.8-4.06-1.582-3.82.24-8.216 4.06-9.798z"/><path d="m310.945 411.077c2.863 0 5.774-.55 8.58-1.712 11.462-4.748 16.925-17.936 12.178-29.397-2.3-5.553-6.625-9.877-12.178-12.177-5.553-2.301-11.67-2.299-17.221 0-11.462 4.748-16.925 17.936-12.178 29.397 3.588 8.655 11.985 13.889 20.819 13.889zm-2.9-29.43c1.85-.766 3.889-.766 5.74 0 1.852.767 3.293 2.208 4.059 4.059 1.583 3.821-.238 8.217-4.059 9.8-3.821 1.585-8.216-.239-9.799-4.059-1.583-3.821.239-8.217 4.059-9.8z"/><path d="m435.399 354.664c2.807 1.163 5.716 1.712 8.58 1.712 8.833 0 17.232-5.234 20.818-13.89 4.747-11.461-.716-24.649-12.178-29.397-11.466-4.748-24.65.716-29.398 12.178-4.746 11.462.717 24.649 12.178 29.397zm1.682-23.659c1.581-3.821 5.979-5.644 9.799-4.059 3.82 1.583 5.642 5.979 4.06 9.799s-5.977 5.645-9.8 4.06c-3.821-1.582-5.642-5.978-4.059-9.8z"/><path d="m367.79 302.304c-2.301 5.553-2.301 11.669-.001 17.221 2.301 5.553 6.625 9.877 12.178 12.177 2.776 1.15 5.693 1.725 8.61 1.725s5.834-.575 8.61-1.725c5.552-2.3 9.877-6.625 12.176-12.176 2.301-5.553 2.301-11.668.001-17.221-2.3-5.552-6.624-9.877-12.177-12.177-11.464-4.747-24.651.715-29.397 12.176zm13.858 5.74c1.194-2.885 3.994-4.629 6.938-4.629.955 0 1.925.183 2.86.571 1.851.767 3.292 2.208 4.059 4.059s.767 3.889-.001 5.741c-.766 1.851-2.207 3.292-4.058 4.059s-3.888.767-5.74 0-3.293-2.208-4.06-4.059-.765-3.89.002-5.742z"/><path d="m452.62 157.336c-5.553-2.3-11.67-2.3-17.221 0-11.462 4.748-16.925 17.935-12.177 29.398 2.299 5.552 6.624 9.877 12.176 12.177 2.776 1.15 5.693 1.725 8.611 1.725 2.917 0 5.834-.575 8.61-1.725 5.553-2.3 9.877-6.625 12.177-12.177 2.3-5.553 2.3-11.668 0-17.22-2.299-5.553-6.624-9.877-12.176-12.178zm-1.682 23.658c-.767 1.851-2.208 3.292-4.059 4.059-1.852.768-3.89.767-5.741 0s-3.292-2.208-4.058-4.058c-1.583-3.821.238-8.217 4.059-9.8.926-.383 1.897-.575 2.87-.575.972 0 1.944.192 2.869.575 1.852.767 3.293 2.208 4.06 4.06.767 1.85.767 3.888 0 5.739z"/><path d="m409.364 192.475c-2.3-5.553-6.625-9.877-12.177-12.178-5.552-2.299-11.668-2.3-17.222 0-5.553 2.3-9.877 6.625-12.177 12.177-2.3 5.553-2.3 11.668.001 17.221 2.299 5.552 6.624 9.877 12.176 12.177 2.776 1.15 5.693 1.725 8.611 1.725 2.917 0 5.834-.575 8.61-1.725 5.553-2.3 9.877-6.625 12.177-12.177 2.301-5.553 2.301-11.669.001-17.22zm-13.858 11.48c-.767 1.851-2.208 3.292-4.059 4.059-1.853.768-3.891.767-5.741 0s-3.292-2.208-4.059-4.059-.767-3.889 0-5.74 2.208-3.292 4.059-4.059c.926-.383 1.897-.575 2.87-.575s1.945.192 2.87.575c1.852.767 3.293 2.208 4.06 4.06.766 1.85.766 3.888 0 5.739z"/><path d="m342.486 47.203c-11.461-4.747-24.647.715-29.398 12.177-4.747 11.461.716 24.649 12.178 29.397 2.807 1.163 5.716 1.713 8.581 1.713 8.832 0 17.23-5.235 20.816-13.889 4.748-11.462-.715-24.65-12.177-29.398zm-1.68 23.657c-1.583 3.82-5.981 5.641-9.8 4.059-3.82-1.583-5.642-5.979-4.06-9.799 1.195-2.885 3.995-4.63 6.939-4.63.955 0 1.925.184 2.86.571 3.821 1.583 5.643 5.979 4.061 9.799z"/><path d="m302.305 102.636c-5.553 2.3-9.878 6.625-12.177 12.177-4.748 11.462.715 24.65 12.177 29.397 2.807 1.163 5.716 1.713 8.581 1.713 8.832 0 17.231-5.235 20.816-13.889 4.748-11.462-.715-24.65-12.177-29.398-5.552-2.3-11.668-2.301-17.22 0zm15.539 23.658c-1.583 3.82-5.976 5.642-9.799 4.058-3.82-1.583-5.642-5.978-4.059-9.799.766-1.851 2.207-3.292 4.059-4.059.926-.383 1.897-.575 2.87-.575s1.945.192 2.87.575c3.82 1.583 5.642 5.979 4.059 9.8z"/><path d="m256 30c-20.678 0-37.5 16.822-37.5 37.5s16.822 37.5 37.5 37.5 37.5-16.822 37.5-37.5-16.822-37.5-37.5-37.5zm0 60c-12.406 0-22.5-10.093-22.5-22.5s10.094-22.5 22.5-22.5 22.5 10.093 22.5 22.5-10.094 22.5-22.5 22.5z"/><path d="m256 308.5c28.948 0 52.5-23.551 52.5-52.5s-23.552-52.5-52.5-52.5-52.5 23.551-52.5 52.5 23.552 52.5 52.5 52.5zm0-90c20.678 0 37.5 16.822 37.5 37.5s-16.822 37.5-37.5 37.5-37.5-16.822-37.5-37.5 16.822-37.5 37.5-37.5z"/><path d="m256 278.5c12.406 0 22.5-10.093 22.5-22.5s-10.094-22.5-22.5-22.5-22.5 10.093-22.5 22.5 10.094 22.5 22.5 22.5zm0-30c4.136 0 7.5 3.364 7.5 7.5s-3.364 7.5-7.5 7.5-7.5-3.364-7.5-7.5 3.364-7.5 7.5-7.5z"/><circle cx="256" cy="127.5" r="7.5"/><path d="m170.44 170.44c2.929-2.929 2.929-7.678 0-10.607s-7.678-2.929-10.607 0-2.929 7.678 0 10.607 7.678 2.929 10.607 0z"/><circle cx="127.5" cy="256" r="7.5"/><circle cx="165.137" cy="346.863" r="7.5"/><circle cx="256" cy="384.5" r="7.5"/><circle cx="346.863" cy="346.863" r="7.5"/><circle cx="384.5" cy="256" r="7.5"/><path d="m352.167 170.44c2.929-2.929 2.929-7.678 0-10.607s-7.678-2.929-10.607 0-2.929 7.678 0 10.607 7.678 2.929 10.607 0z"/><path d="m149.227 96.194c-14.621-14.621-38.41-14.62-53.033 0-14.621 14.621-14.621 38.412.001 53.033 7.311 7.311 16.913 10.966 26.516 10.966 9.604 0 19.206-3.655 26.518-10.966 14.62-14.621 14.62-38.412-.002-53.033zm-10.606 42.427c-8.773 8.772-23.047 8.773-31.82 0s-8.773-23.047-.001-31.82c4.387-4.386 10.148-6.579 15.911-6.579 5.762 0 11.523 2.193 15.909 6.579 8.774 8.772 8.774 23.047.001 31.82z"/><path d="m67.5 218.5c-20.678 0-37.5 16.822-37.5 37.5s16.822 37.5 37.5 37.5 37.5-16.822 37.5-37.5-16.822-37.5-37.5-37.5zm0 60c-12.406 0-22.5-10.093-22.5-22.5s10.094-22.5 22.5-22.5 22.5 10.093 22.5 22.5-10.094 22.5-22.5 22.5z"/><path d="m122.711 426.772c9.603 0 19.205-3.656 26.517-10.966 7.082-7.083 10.983-16.5 10.983-26.517s-3.901-19.434-10.983-26.516c-14.623-14.621-38.412-14.62-53.033 0-7.083 7.083-10.984 16.5-10.984 26.516s3.901 19.434 10.983 26.517c7.311 7.311 16.913 10.966 26.517 10.966zm-15.911-53.392c4.387-4.386 10.148-6.58 15.91-6.58 5.763 0 11.524 2.193 15.911 6.58 4.249 4.25 6.59 9.9 6.59 15.91s-2.341 11.66-6.591 15.91c-8.771 8.772-23.047 8.773-31.819 0-4.25-4.25-6.591-9.9-6.591-15.91s2.341-11.661 6.59-15.91z"/><path d="m256 482c20.678 0 37.5-16.822 37.5-37.5s-16.822-37.5-37.5-37.5-37.5 16.822-37.5 37.5 16.822 37.5 37.5 37.5zm0-60c12.406 0 22.5 10.093 22.5 22.5s-10.094 22.5-22.5 22.5-22.5-10.093-22.5-22.5 10.094-22.5 22.5-22.5z"/><path d="m362.773 415.806c7.311 7.311 16.913 10.966 26.516 10.966 9.604 0 19.206-3.655 26.518-10.966 14.621-14.621 14.621-38.412-.001-53.033-14.621-14.621-38.41-14.62-53.033 0-14.622 14.621-14.622 38.412 0 53.033zm10.606-42.427c8.773-8.772 23.047-8.773 31.82 0s8.773 23.047.001 31.82c-8.772 8.772-23.047 8.773-31.821 0-8.773-8.772-8.773-23.047 0-31.82z"/><path d="m482 256c0-20.678-16.822-37.5-37.5-37.5s-37.5 16.822-37.5 37.5 16.822 37.5 37.5 37.5 37.5-16.822 37.5-37.5zm-37.5 22.5c-12.406 0-22.5-10.093-22.5-22.5s10.094-22.5 22.5-22.5 22.5 10.093 22.5 22.5-10.094 22.5-22.5 22.5z"/><path d="m362.772 96.194c-7.082 7.083-10.983 16.5-10.983 26.517s3.901 19.434 10.983 26.516c7.312 7.311 16.914 10.966 26.517 10.966 9.604 0 19.206-3.656 26.517-10.966 7.083-7.083 10.984-16.5 10.984-26.516s-3.901-19.434-10.983-26.517c-14.622-14.621-38.411-14.622-53.035 0zm42.428 42.426c-8.773 8.773-23.049 8.771-31.821 0-4.249-4.25-6.59-9.9-6.59-15.91s2.341-11.66 6.591-15.91c4.386-4.386 10.147-6.58 15.91-6.58 5.762 0 11.523 2.193 15.909 6.58 4.25 4.25 6.591 9.9 6.591 15.91s-2.341 11.661-6.59 15.91z"/><path d="m512 256c0-14.067-4.31-27.56-12.462-39.02-3.737-5.253-5.058-11.836-3.622-18.061 3.166-13.73 1.989-27.868-3.403-40.887-5.336-12.883-14.382-23.638-26.159-31.1-5.607-3.553-9.477-9.342-10.612-15.883-2.387-13.737-8.861-26.209-18.723-36.07-9.861-9.861-22.333-16.334-36.068-18.721-6.541-1.137-12.33-5.005-15.884-10.614-7.463-11.777-18.217-20.823-31.1-26.159-13.019-5.393-27.156-6.57-40.887-3.402-6.224 1.436-12.809.115-18.062-3.623-11.459-8.151-24.952-12.46-39.018-12.46-14.065 0-27.559 4.309-39.02 12.462-5.255 3.738-11.839 5.058-18.061 3.623-13.729-3.167-27.866-1.99-40.887 3.402-12.884 5.336-23.639 14.382-31.101 26.16-3.552 5.608-9.341 9.476-15.883 10.613-8.004 1.391-15.612 4.186-22.612 8.308-3.569 2.102-4.759 6.699-2.657 10.269 2.103 3.569 6.699 4.76 10.269 2.657 5.438-3.203 11.35-5.374 17.569-6.455 10.702-1.859 20.174-8.188 25.985-17.363 5.799-9.152 14.156-16.182 24.17-20.329 10.117-4.191 21.104-5.107 31.775-2.645 10.397 2.398 21.381.206 30.127-6.016 8.908-6.337 19.394-9.686 30.326-9.686s21.418 3.349 30.323 9.685c8.746 6.222 19.729 8.415 30.128 6.016 10.669-2.462 21.656-1.547 31.775 2.645 10.012 4.147 18.37 11.177 24.169 20.329 5.813 9.175 15.285 15.504 25.986 17.364 10.674 1.855 20.367 6.886 28.031 14.55 7.663 7.663 12.694 17.356 14.549 28.031 1.86 10.701 8.188 20.172 17.363 25.986 9.153 5.799 16.183 14.157 20.33 24.169 4.19 10.118 5.104 21.105 2.644 31.776-2.398 10.401-.205 21.382 6.017 30.127 6.336 8.904 9.685 19.389 9.685 30.322s-3.349 21.418-9.685 30.323c-6.222 8.745-8.415 19.726-6.016 30.128 2.461 10.668 1.546 21.656-2.645 31.775-4.147 10.013-11.178 18.371-20.329 24.169-9.176 5.813-15.504 15.285-17.364 25.986-1.854 10.674-6.886 20.367-14.55 28.031-7.663 7.664-17.355 12.695-28.03 14.55-10.702 1.859-20.174 8.188-25.985 17.363-5.799 9.152-14.156 16.182-24.17 20.329-10.117 4.191-21.104 5.104-31.775 2.645-10.397-2.398-21.381-.207-30.127 6.016-8.906 6.336-19.392 9.685-30.324 9.685s-21.418-3.349-30.323-9.685c-8.747-6.223-19.729-8.414-30.128-6.016-10.669 2.461-21.657 1.546-31.775-2.645-10.012-4.147-18.37-11.177-24.169-20.329-5.813-9.175-15.284-15.504-25.986-17.364-10.674-1.855-20.367-6.886-28.031-14.55-7.663-7.664-12.694-17.356-14.549-28.031-1.86-10.701-8.188-20.172-17.363-25.986-9.153-5.799-16.183-14.157-20.33-24.169-4.19-10.118-5.104-21.105-2.644-31.776 2.398-10.401.205-21.382-6.017-30.127-6.336-8.904-9.685-19.389-9.685-30.322s3.349-21.418 9.685-30.323c6.222-8.745 8.415-19.726 6.016-30.128-2.461-10.668-1.546-21.656 2.645-31.775 4.147-10.013 11.178-18.371 20.329-24.169 9.176-5.813 15.504-15.285 17.364-25.987 1.08-6.218 3.251-12.129 6.454-17.57 2.102-3.569.911-8.167-2.658-10.268-3.567-2.101-8.167-.912-10.268 2.659-4.122 7.002-6.917 14.61-8.308 22.612-1.136 6.541-5.005 12.33-10.612 15.883-11.777 7.461-20.823 18.216-26.159 31.1-5.394 13.021-6.57 27.159-3.403 40.886 1.436 6.225.115 12.808-3.622 18.062-8.153 11.458-12.463 24.951-12.463 39.018s4.31 27.56 12.462 39.02c3.737 5.253 5.058 11.836 3.622 18.061-3.166 13.73-1.989 27.868 3.403 40.887 5.336 12.883 14.382 23.638 26.159 31.1 5.607 3.553 9.477 9.342 10.612 15.883 2.387 13.736 8.861 26.209 18.722 36.069 9.861 9.861 22.334 16.335 36.069 18.722 6.542 1.137 12.331 5.005 15.884 10.614 7.463 11.777 18.217 20.823 31.1 26.159 13.018 5.392 27.155 6.569 40.887 3.402 6.225-1.436 12.807-.116 18.062 3.623 11.459 8.151 24.952 12.46 39.018 12.46 14.065 0 27.559-4.309 39.02-12.462 5.255-3.738 11.839-5.057 18.061-3.623 13.729 3.166 27.867 1.991 40.887-3.402 12.884-5.336 23.639-14.382 31.101-26.16 3.552-5.608 9.341-9.476 15.883-10.613 13.736-2.387 26.209-8.86 36.068-18.722 9.861-9.86 16.336-22.333 18.723-36.069 1.136-6.541 5.005-12.33 10.612-15.883 11.777-7.461 20.823-18.216 26.159-31.1 5.394-13.021 6.57-27.159 3.403-40.887-1.436-6.225-.115-12.808 3.622-18.061 8.151-11.458 12.461-24.951 12.461-39.018z"/></g></svg>