<svg id="Capa_1" enable-background="new 0 0 512 512" height="512" viewBox="0 0 512 512" width="512" xmlns="http://www.w3.org/2000/svg"><g><path d="m404.741 479.75-60.726-105.18h-30l46.436 129.93h30c12.702 0 20.641-13.75 14.29-24.75z" fill="#377d5b"/><path d="m374.741 479.75-60.726-105.18h-146.03l-60.726 105.18c-6.351 11 1.588 24.75 14.289 24.75h238.903c12.702 0 20.641-13.75 14.29-24.75z" fill="#33965d"/><path d="m374.989 380.922-61.362-106.282h-30l47.709 129.93h30c12.136 0 19.721-13.137 13.653-23.648z" fill="#33965d"/><path d="m344.989 380.922-61.362-106.282h-85.253l-61.362 106.282c-6.068 10.51 1.517 23.648 13.653 23.648h180.671c12.136 0 19.721-13.137 13.653-23.648z" fill="#38ad63"/><path d="m343.964 282.095-74.947-129.812c-2.893-5.01-7.955-7.515-13.017-7.515s-10.124 2.505-13.017 7.515l-1.983 3.435 59.947 148.923h30c11.571-.001 18.802-12.526 13.017-22.546z" fill="#38ad63"/><path d="m313.964 282.095-72.964-126.377-72.964 126.377c-5.785 10.02 1.446 22.546 13.017 22.546h119.894c11.571-.001 18.802-12.526 13.017-22.546z" fill="#49c470"/><path d="m301.977 40.214-23.357-1.555-8.696-21.733c-2.515-6.284-8.219-9.426-13.924-9.426s-11.409 3.142-13.924 9.426l-8.696 21.733-23.357 1.555c-13.506.899-19.004 17.818-8.605 26.484l17.982 14.986-5.739 22.694c-3.319 13.123 11.074 23.58 22.529 16.368l19.81-12.47 19.81 12.471c11.455 7.212 25.847-3.245 22.529-16.368l-5.739-22.695 17.982-14.987c10.398-8.665 4.901-25.584-8.605-26.483z" fill="#ffc766"/><path d="m196.616 72.459 14.355 11.964-4.582 18.117c-2.268 8.969 1.103 18.278 8.587 23.715s17.378 5.768 25.21.838l15.814-9.955 15.814 9.956c3.694 2.326 7.849 3.48 11.992 3.48 4.639 0 9.264-1.447 13.217-4.319 7.484-5.438 10.854-14.747 8.587-23.716l-4.582-18.116 14.355-11.964c7.106-5.923 9.852-15.436 6.993-24.234s-10.671-14.881-19.902-15.495l-18.646-1.241-6.942-17.35c-3.436-8.589-11.635-14.139-20.886-14.139s-17.45 5.55-20.887 14.14l-6.942 17.35-18.646 1.241c-9.231.614-17.043 6.697-19.902 15.495-2.858 8.798-.113 18.31 6.993 24.233zm7.274-19.599c.367-1.132 1.933-4.851 6.632-5.164l23.356-1.554c2.879-.191 5.394-2.018 6.465-4.697l8.696-21.733c1.75-4.372 5.771-4.712 6.961-4.712s5.211.34 6.961 4.712l8.696 21.733c1.071 2.679 3.586 4.506 6.465 4.697l23.356 1.554c4.699.313 6.265 4.031 6.632 5.164.368 1.132 1.288 5.061-2.33 8.076l-17.982 14.987c-2.217 1.847-3.177 4.803-2.47 7.6l5.739 22.693c1.155 4.566-1.898 7.204-2.861 7.903-.963.7-4.415 2.788-8.4.279l-19.81-12.471c-1.222-.769-2.608-1.153-3.996-1.153s-2.774.384-3.996 1.153l-19.809 12.471c-3.988 2.509-7.438.421-8.401-.279s-4.017-3.337-2.861-7.903l5.739-22.694c.707-2.797-.253-5.753-2.47-7.6l-17.982-14.986c-3.618-3.015-2.699-6.943-2.33-8.076z"/><path d="m271 282.141c4.143 0 7.5-3.358 7.5-7.5v-15c0-4.142-3.357-7.5-7.5-7.5s-7.5 3.358-7.5 7.5v15c0 4.142 3.357 7.5 7.5 7.5z"/><path d="m241 252.141c4.143 0 7.5-3.358 7.5-7.5v-15c0-4.142-3.357-7.5-7.5-7.5s-7.5 3.358-7.5 7.5v15c0 4.142 3.357 7.5 7.5 7.5z"/><path d="m301.336 382.07c4.143 0 7.5-3.358 7.5-7.5v-15c0-4.142-3.357-7.5-7.5-7.5s-7.5 3.358-7.5 7.5v15c0 4.142 3.357 7.5 7.5 7.5z"/><path d="m210.664 357.141c4.143 0 7.5-3.358 7.5-7.5v-15c0-4.142-3.357-7.5-7.5-7.5s-7.5 3.358-7.5 7.5v15c0 4.142 3.357 7.5 7.5 7.5z"/><path d="m181.549 452c-4.143 0-7.5 3.358-7.5 7.5v15c0 4.142 3.357 7.5 7.5 7.5s7.5-3.358 7.5-7.5v-15c0-4.142-3.358-7.5-7.5-7.5z"/><path d="m330.451 452c-4.143 0-7.5 3.358-7.5 7.5v15c0 4.142 3.357 7.5 7.5 7.5s7.5-3.358 7.5-7.5v-15c0-4.142-3.357-7.5-7.5-7.5z"/><path d="m241 427.07c-4.143 0-7.5 3.358-7.5 7.5v15c0 4.142 3.357 7.5 7.5 7.5s7.5-3.358 7.5-7.5v-15c0-4.142-3.357-7.5-7.5-7.5z"/><path d="m271 452c-4.143 0-7.5 3.358-7.5 7.5v15c0 4.142 3.357 7.5 7.5 7.5s7.5-3.358 7.5-7.5v-15c0-4.142-3.357-7.5-7.5-7.5z"/><path d="m411.235 476-38.586-66.834c3.605-2.001 6.665-4.97 8.834-8.728 4.206-7.284 4.206-15.981 0-23.265l-39.267-68.012c3.356-1.935 6.203-4.753 8.242-8.285 4.072-7.054 4.072-15.477 0-22.531l-74.947-129.813c-4.072-7.054-11.366-11.265-19.512-11.265s-15.439 4.211-19.512 11.265l-74.947 129.813c-4.072 7.054-4.072 15.477 0 22.531 2.039 3.531 4.886 6.35 8.242 8.285l-39.267 68.012c-4.206 7.284-4.206 15.981 0 23.266 2.169 3.758 5.225 6.735 8.829 8.736l-38.579 66.825c-4.339 7.514-4.339 16.486-.001 24s12.108 12 20.785 12h268.902c8.677 0 16.447-4.486 20.785-12s4.338-16.486-.001-24zm-236.704-190.155 74.947-129.813c1.962-3.398 5.214-3.765 6.521-3.765s4.56.367 6.521 3.765l74.947 129.813c1.962 3.398.653 6.398 0 7.531-.653 1.132-2.598 3.765-6.521 3.765h-149.893c-3.924 0-5.868-2.633-6.521-3.765-.654-1.133-1.963-4.133-.001-7.531zm223.715 206.655c-.781 1.353-3.104 4.5-7.795 4.5h-268.902c-4.69 0-7.014-3.147-7.795-4.5-.78-1.353-2.345-4.938.001-9l43.404-75.18c1.34-2.32 1.34-5.18 0-7.5s-3.815-3.75-6.495-3.75c-4.307 0-6.44-2.89-7.157-4.132-.718-1.243-2.153-4.536 0-8.266l41.876-72.532h141.234l41.876 72.532c2.153 3.73.718 7.023 0 8.266-.717 1.242-2.851 4.132-7.157 4.132h-180.672c-4.143 0-7.5 3.358-7.5 7.5s3.357 7.5 7.5 7.5h176.342l41.239 71.43c2.346 4.062.781 7.647.001 9z"/></g></svg>