<svg id="Capa_1" enable-background="new 0 0 512 512" height="512" viewBox="0 0 512 512" width="512" xmlns="http://www.w3.org/2000/svg"><g><path d="m301.132 117.731-45.132 386.769c108.248 0 196-87.752 196-196 0-92.715-64.378-170.385-150.868-190.769z" fill="#e0343f"/><path d="m422 308.5c0-92.704-51.574-170.374-120.869-190.769-14.49-3.415-29.598-5.231-45.132-5.231-108.248 0-196 87.752-196 196s87.752 196 196 196c91.68 0 166.001-87.752 166.001-196z" fill="#ff4040"/><path d="m301 67.5h-90l60 56.703c10.147-1.076 20.207-3.24 30-6.504z" fill="#b53a4c"/><path d="m211 67.5v50.198c19.417 6.472 39.881 8.637 60 6.504v-56.703h-60z" fill="#e0343f"/><path d="m301 52.5h-30v30h30c8.284 0 15-6.716 15-15s-6.716-15-15-15z" fill="#ffa857"/><path d="m286 67.5c0-8.284-6.716-15-15-15h-60c-8.284 0-15 6.716-15 15s6.716 15 15 15h60c8.284 0 15-6.716 15-15z" fill="#ffc766"/><path d="m377 293.5h-30l9.51-16.471c4.142-7.174 1.684-16.348-5.49-20.49s-16.348-1.684-20.49 5.49l-18.17 31.471h-41.36v30h41.359l18.17 31.471c4.142 7.174 13.316 9.633 20.49 5.49s9.633-13.316 5.49-20.49l-9.509-16.471h30c8.284 0 15-6.716 15-15s-6.716-15-15-15z" fill="#ebe1e8"/><path d="m302.471 383.029-31.471-18.17v-41.359c8.284 0 15-6.716 15-15s-6.716-15-15-15v-41.359l31.471-18.17c7.174-4.142 9.633-13.316 5.49-20.49s-13.316-9.633-20.49-5.49l-16.471 9.509v-30c0-8.284-6.716-15-15-15s-15 6.716-15 15v30l-16.471-9.51c-7.174-4.142-16.348-1.684-20.49 5.49s-1.684 16.348 5.49 20.49l31.471 18.171v41.359h-41.359l-18.17-31.471c-4.142-7.174-13.316-9.633-20.49-5.49s-9.633 13.316-5.49 20.49l9.509 16.471h-30c-8.284 0-15 6.716-15 15s6.716 15 15 15h30l-9.51 16.471c-4.142 7.174-1.684 16.348 5.49 20.49s16.348 1.684 20.49-5.49l18.17-31.471h41.36v41.359l-31.471 18.17c-7.174 4.142-9.633 13.316-5.49 20.49s13.316 9.633 20.49 5.49l16.471-9.509v30c0 8.284 6.716 15 15 15s15-6.716 15-15v-30l16.471 9.51c7.174 4.142 16.348 1.684 20.49-5.49s1.684-16.349-5.49-20.491z" fill="#f7f4f6"/><path d="m414.809 181.246c-27.13-33.812-64.703-58.283-106.309-69.386v-23.145c8.73-3.096 15-11.437 15-21.215 0-12.406-10.093-22.5-22.5-22.5h-19.036c2.561-4.416 4.036-9.538 4.036-15 0-16.542-13.458-30-30-30s-30 13.458-30 30c0 5.462 1.475 10.584 4.036 15h-19.036c-12.407 0-22.5 10.094-22.5 22.5 0 9.778 6.27 18.119 15 21.215v23.145c-41.605 11.103-79.178 35.574-106.309 69.386-28.819 35.918-44.691 81.11-44.691 127.254 0 112.21 91.29 203.5 203.5 203.5s203.5-91.29 203.5-203.5c0-46.144-15.872-91.336-44.691-127.254zm-173.809-151.246c0-8.271 6.729-15 15-15s15 6.729 15 15-6.729 15-15 15-15-6.729-15-15zm-30 30h90c4.136 0 7.5 3.364 7.5 7.5s-3.364 7.5-7.5 7.5h-60c-4.142 0-7.5 3.357-7.5 7.5s3.358 7.5 7.5 7.5h52.5v22.178c-24.373 7.037-50.626 7.037-75 0v-29.678c0-4.143-3.358-7.5-7.5-7.5-4.136 0-7.5-3.364-7.5-7.5s3.364-7.5 7.5-7.5zm45 437c-103.939 0-188.5-84.561-188.5-188.5 0-87.268 58.793-162.225 143.226-183.011 14.643 4.638 29.958 6.962 45.274 6.962s30.63-2.325 45.274-6.962c84.433 20.786 143.226 95.742 143.226 183.011 0 103.939-84.561 188.5-188.5 188.5z"/><path d="m377 286h-17.009l3.015-5.222c6.202-10.744 2.507-24.532-8.237-30.735-10.746-6.202-24.532-2.508-30.735 8.236l-16.005 27.721h-29.529v-29.529l27.721-16.005c5.205-3.005 8.928-7.856 10.484-13.662 1.555-5.805.757-11.868-2.248-17.073-6.203-10.744-19.99-14.438-30.735-8.235l-5.221 3.015v-17.011c0-12.406-10.093-22.5-22.5-22.5s-22.5 10.094-22.5 22.5v17.01l-5.222-3.015c-10.744-6.202-24.533-2.509-30.735 8.235-3.005 5.205-3.803 11.269-2.248 17.073 1.556 5.806 5.279 10.657 10.483 13.662l27.721 16.005v29.53h-29.529l-16.005-27.721c-6.202-10.745-19.991-14.44-30.736-8.236-10.743 6.203-14.438 19.991-8.235 30.736l3.014 5.221h-17.009c-12.407 0-22.5 10.094-22.5 22.5s10.093 22.5 22.5 22.5h17.009l-3.015 5.222c-6.202 10.744-2.507 24.532 8.237 30.735 10.744 6.202 24.532 2.507 30.735-8.236l16.005-27.721h29.529v29.529l-27.721 16.005c-5.205 3.005-8.928 7.856-10.484 13.662-1.555 5.805-.757 11.868 2.248 17.073 6.203 10.744 19.992 14.438 30.735 8.235l5.221-3.015v17.01c0 12.406 10.093 22.5 22.5 22.5s22.5-10.094 22.5-22.5v-17.01l5.222 3.015c10.742 6.202 24.532 2.509 30.735-8.235 3.005-5.205 3.803-11.269 2.248-17.073-1.556-5.806-5.279-10.657-10.483-13.662l-27.721-16.005v-29.529h29.529l16.005 27.721c6.202 10.744 19.991 14.439 30.736 8.236 10.743-6.203 14.438-19.991 8.235-30.736l-3.014-5.221h17.009c12.407 0 22.5-10.094 22.5-22.5s-10.093-22.5-22.5-22.5zm0 30h-30c-2.68 0-5.155 1.43-6.495 3.75s-1.34 5.18 0 7.5l9.509 16.47c2.068 3.582.836 8.179-2.745 10.247-3.583 2.066-8.178.834-10.246-2.746l-18.17-31.471c-1.34-2.32-3.815-3.75-6.495-3.75h-41.358c-4.142 0-7.5 3.357-7.5 7.5v41.359c0 2.68 1.43 5.155 3.75 6.495l31.472 18.17c1.734 1.002 2.976 2.619 3.494 4.554.519 1.936.252 3.956-.749 5.691-2.068 3.582-6.664 4.813-10.245 2.745l-16.471-9.51c-2.32-1.34-5.18-1.34-7.5 0s-3.75 3.815-3.75 6.495v30c0 4.136-3.364 7.5-7.5 7.5s-7.5-3.364-7.5-7.5v-30c0-2.68-1.43-5.155-3.75-6.495-1.16-.67-2.455-1.005-3.75-1.005s-2.59.335-3.75 1.005l-16.471 9.51c-3.581 2.066-8.177.837-10.246-2.745-1.001-1.735-1.268-3.756-.749-5.691.518-1.935 1.759-3.552 3.494-4.554l31.471-18.17c2.32-1.34 3.75-3.815 3.75-6.495v-41.359c0-4.143-3.358-7.5-7.5-7.5h-41.359c-2.68 0-5.155 1.43-6.495 3.75l-18.17 31.471c-2.067 3.583-6.664 4.813-10.245 2.746-3.582-2.068-4.813-6.665-2.746-10.246l9.51-16.471c1.34-2.32 1.34-5.18 0-7.5s-3.815-3.75-6.495-3.75h-30c-4.136 0-7.5-3.364-7.5-7.5s3.364-7.5 7.5-7.5h30c2.68 0 5.155-1.43 6.495-3.75s1.34-5.18 0-7.5l-9.509-16.47c-2.068-3.582-.836-8.179 2.745-10.247 3.582-2.066 8.178-.836 10.246 2.746l18.17 31.471c1.34 2.32 3.815 3.75 6.495 3.75h41.358c4.142 0 7.5-3.357 7.5-7.5v-41.359c0-2.68-1.43-5.155-3.75-6.495l-31.472-18.17c-1.734-1.002-2.976-2.619-3.494-4.554-.519-1.936-.252-3.956.749-5.691 2.068-3.581 6.665-4.811 10.245-2.745l16.471 9.51c2.32 1.34 5.18 1.34 7.5 0s3.75-3.815 3.75-6.495v-30c0-4.136 3.364-7.5 7.5-7.5s7.5 3.364 7.5 7.5v30c0 2.68 1.43 5.155 3.75 6.495s5.18 1.34 7.5 0l16.471-9.51c3.582-2.065 8.177-.837 10.246 2.745 1.001 1.735 1.268 3.756.749 5.691-.518 1.935-1.759 3.552-3.494 4.554l-31.471 18.17c-2.32 1.34-3.75 3.815-3.75 6.495v41.359c0 4.143 3.358 7.5 7.5 7.5h41.359c2.68 0 5.155-1.43 6.495-3.75l18.17-31.471c2.068-3.582 6.666-4.812 10.245-2.746 3.582 2.068 4.813 6.665 2.746 10.246l-9.51 16.471c-1.34 2.32-1.34 5.18 0 7.5s3.815 3.75 6.495 3.75h30c4.136 0 7.5 3.364 7.5 7.5s-3.364 7.5-7.5 7.5z"/></g></svg>