<svg id="Capa_1" enable-background="new 0 0 512 512" height="512" viewBox="0 0 512 512" width="512" xmlns="http://www.w3.org/2000/svg"><g><path d="m213.256 390.026-24.757 84.474v15h135v-15l-24.756-84.472-42.742-26.91z" fill="#ffa857"/><path d="m256.002 297.669-30.003 48.874-12.743 43.483 42.745-26.908 42.742 26.91-12.744-43.485z" fill="#ff8e59"/><path d="m255.999 7.5-45 136.13h45l20.29 50.7 20.835-28.68-33.283-148.72c-1.413-6.29-4.627-9.43-7.842-9.43z" fill="#ffc766"/><path d="m269.929 16.93c-2.51-6.29-8.22-9.43-13.93-9.43l41.125 158.15 20.835-28.68z" fill="#ffa857"/><path d="m65.029 145.558 129.007-8.585 41.676 57.356-54.489 3.63-13.906 42.798-115.561-84.865c1.765-5.431 6.516-9.891 13.273-10.334z" fill="#ffc766"/><path d="m124.044 380.177 31.701-125.346 67.427-21.912-13.386 52.943 36.406 26.45-116.421 83.681c-4.62-3.355-7.394-9.252-5.727-15.816z" fill="#ffc766"/><path d="m256.002 327.669 109.415 68.883c5.728 3.613 12.193 2.797 16.812-.559l-43.609-136.581z" fill="#ffa857"/><path d="m338.62 259.412-36.406 26.45-46.215-29.091.003 70.898 93.68 23.528z" fill="#ffc766"/><path d="m460.243 155.891h-107.701l-30 87.983 33.715 10.953 99.323-82.774c5.206-4.331 6.427-10.731 4.663-16.162z" fill="#ffa857"/><path d="m352.542 155.891-21.766 42.067-41.949 34.964 33.715 10.952 85.039-70.871z" fill="#ffc766"/><path d="m446.969 145.56-129.01-8.59-20.835 28.68s33.651 17.307 33.651 17.307l76.803-9.955 52.66-17.113c-1.759-5.419-6.519-9.879-13.269-10.329z" fill="#ffc766"/><path d="m297.124 165.65-20.835 28.68 54.49 3.63 76.8-24.957z" fill="#ffdc96"/><path d="m356.259 254.83-33.717-10.956c-.001.001-5.328 41.988-5.328 41.988l32.466 65.33 32.549 44.797c4.62-3.35 7.39-9.24 5.73-15.81z" fill="#ffc766"/><g fill="#ffdc96"><path d="m322.542 243.874-33.713-10.954 13.39 52.95 47.462 65.323z"/><path d="m255.999 256.77v70.9l-109.42 68.88c-5.73 3.61-12.19 2.8-16.81-.55 0-.01 80.01-110.13 80.01-110.13z"/><path d="m255.999 7.5v136.13l-20.29 50.7-41.67-57.36 48.03-120.04c2.51-6.29 8.22-9.43 13.93-9.43z"/><path d="m223.169 232.92-67.43 21.91-99.32-82.78c-5.2-4.34-6.43-10.74-4.66-16.16l129.46 42.07z"/></g><path d="m323.499 474.5h-30v30h30c8.284 0 15-6.716 15-15s-6.715-15-15-15z" fill="#ffc766"/><path d="m308.499 489.5c0-8.284-6.716-15-15-15h-105c-8.284 0-15 6.716-15 15s6.716 15 15 15h105c8.285 0 15-6.716 15-15z" fill="#ffdc96"/><path d="m467.376 153.573c-2.859-8.801-10.673-14.885-19.907-15.499l-124.298-8.273-46.278-115.657c-3.438-8.592-11.639-14.144-20.893-14.144s-17.455 5.552-20.893 14.144l-46.278 115.657-124.298 8.273c-9.233.614-17.048 6.698-19.907 15.5-2.86 8.801-.114 18.315 6.995 24.24l95.696 79.753-30.541 120.771c-2.269 8.972 1.103 18.283 8.589 23.723 3.954 2.873 8.58 4.32 13.219 4.32 4.145 0 8.301-1.155 11.996-3.482l62.649-39.44-30.57 104.31c-9.583 2.58-16.657 11.344-16.657 21.731 0 12.406 10.093 22.5 22.5 22.5h135c12.407 0 22.5-10.094 22.5-22.5 0-10.385-7.074-19.145-16.656-21.726l-30.571-104.315 62.649 39.44c7.83 4.93 17.729 4.602 25.215-.837 7.487-5.439 10.859-14.751 8.59-23.724l-30.542-120.771 95.697-79.753c7.109-5.924 9.854-15.44 6.994-24.241zm-137.54 36.805-39.496-2.629 31.256-43.02 123.444 8.216zm-45.811 36.78c-2.217 1.848-3.177 4.803-2.469 7.601l8.794 34.773-30.354-19.108c-1.221-.769-2.608-1.153-3.996-1.153-1.387 0-2.775.385-3.996 1.153l-30.354 19.108 8.794-34.773c.708-2.798-.252-5.753-2.469-7.601l-27.554-22.963 35.789-2.382c2.879-.191 5.393-2.019 6.465-4.697l13.325-33.302 13.325 33.302c1.072 2.679 3.586 4.506 6.465 4.697l35.789 2.382zm-101.861-36.78-115.204-37.432 123.445-8.217 31.255 43.02zm127.296-54.465-31.256 43.019-14.704-36.751v-121.131zm-60.96-114.862v121.13l-14.705 36.751-31.255-43.019zm-186.173 146.161 115.201 37.432 30.408 25.341-50.572 16.432zm99.672 93.47 50.572-16.432-9.705 38.375-71.199 97.998zm-18.196 128.758 71.2-97.999 33.497-21.087v53.175l-26.313 16.565c-.157.093-.313.188-.464.292zm169.684 77.56h-94.987c-4.142 0-7.5 3.357-7.5 7.5s3.358 7.5 7.5 7.5h105c4.136 0 7.5 3.364 7.5 7.5s-3.364 7.5-7.5 7.5h-135c-4.136 0-7.5-3.364-7.5-7.5s3.364-7.5 7.5-7.5c3.33 0 6.261-2.195 7.197-5.391l36.697-125.216 23.606-14.861 23.606 14.861zm-49.987-143.471v-53.175l33.498 21.088 71.199 97.998zm116.833 57.095-71.2-97.999-9.704-38.374 50.572 16.432zm-25.698-134.207-50.572-16.432 30.408-25.341 115.202-37.431z"/></g></svg>