<svg id="Capa_1" enable-background="new 0 0 512 512" height="512" viewBox="0 0 512 512" width="512" xmlns="http://www.w3.org/2000/svg"><g><path d="m61 196h45v120h-45z" fill="#377d5b"/><path d="m46 196h30v120h-30z" fill="#33965d"/><path d="m102.833 70.664-11.833-23.666v-24.498c0-8.284-6.716-15-15-15s-15 6.716-15 15v173.5h45v-111.92c0-4.657-1.084-9.251-3.167-13.416z" fill="#e0343f"/><path d="m72.833 70.664-11.833-23.666-11.833 23.666c-2.083 4.165-3.167 8.759-3.167 13.416v111.92h30v-111.92c0-4.657-1.084-9.251-3.167-13.416z" fill="#ff4040"/><path d="m106 181h-30v30h30c8.284 0 15-6.716 15-15s-6.716-15-15-15z" fill="#33965d"/><path d="m91 196c0-8.284-6.716-15-15-15h-30c-8.284 0-15 6.716-15 15s6.716 15 15 15h30c8.284 0 15-6.716 15-15z" fill="#38ad63"/><path d="m181 196h45v120h-45z" fill="#377d5b"/><path d="m166 196h30v120h-30z" fill="#33965d"/><path d="m222.833 70.664-11.833-23.666v-24.498c0-8.284-6.716-15-15-15s-15 6.716-15 15v173.5h45v-111.92c0-4.657-1.084-9.251-3.167-13.416z" fill="#ffc766"/><path d="m192.833 70.664-11.833-23.666-11.833 23.666c-2.083 4.165-3.167 8.759-3.167 13.416v111.92h30v-111.92c0-4.657-1.084-9.251-3.167-13.416z" fill="#ffdc96"/><path d="m226 181h-30v30h30c8.284 0 15-6.716 15-15s-6.716-15-15-15z" fill="#33965d"/><path d="m211 196c0-8.284-6.716-15-15-15h-30c-8.284 0-15 6.716-15 15s6.716 15 15 15h30c8.284 0 15-6.716 15-15z" fill="#38ad63"/><path d="m301 196h45v120h-45z" fill="#377d5b"/><path d="m286 196h30v120h-30z" fill="#33965d"/><path d="m342.833 70.664-11.833-23.666v-24.498c0-8.284-6.716-15-15-15s-15 6.716-15 15v173.5h45v-111.92c0-4.657-1.084-9.251-3.167-13.416z" fill="#ff4040"/><path d="m312.833 70.664-11.833-23.666-11.833 23.666c-2.083 4.165-3.167 8.759-3.167 13.416v111.92h30v-111.92c0-4.657-1.084-9.251-3.167-13.416z" fill="#ff6f4f"/><path d="m346 181h-30v30h30c8.284 0 15-6.716 15-15s-6.716-15-15-15z" fill="#33965d"/><path d="m331 196c0-8.284-6.716-15-15-15h-30c-8.284 0-15 6.716-15 15s6.716 15 15 15h30c8.284 0 15-6.716 15-15z" fill="#38ad63"/><path d="m421 196h45v120h-45z" fill="#377d5b"/><path d="m406 196h30v120h-30z" fill="#33965d"/><path d="m106 271h-98.5v-30h68.5z" fill="#49c470"/><path d="m226 271h-120c-16.58 0-30-13.42-30-30h120z" fill="#77d489"/><path d="m346 271h-120c-16.58 0-30-13.42-30-30h120z" fill="#49c470"/><path d="m466 271h-120c-16.58 0-30-13.42-30-30h120z" fill="#77d489"/><path d="m504.5 241v30h-30l-15-15 15-15z" fill="#38ad63"/><path d="m474.5 241v30h-8.5c-16.58 0-30-13.42-30-30z" fill="#49c470"/><path d="m462.833 70.664-11.833-23.666v-24.498c0-8.284-6.716-15-15-15s-15 6.716-15 15v173.5h45v-111.92c0-4.657-1.084-9.251-3.167-13.416z" fill="#ff8e59"/><path d="m432.833 70.664-11.833-23.666-11.833 23.666c-2.083 4.165-3.167 8.759-3.167 13.416v111.92h30v-111.92c0-4.657-1.084-9.251-3.167-13.416z" fill="#ffa857"/><path d="m466 181h-30v30h30c8.284 0 15-6.716 15-15s-6.716-15-15-15z" fill="#33965d"/><path d="m451 196c0-8.284-6.716-15-15-15h-30c-8.284 0-15 6.716-15 15s6.716 15 15 15h30c8.284 0 15-6.716 15-15z" fill="#38ad63"/><path d="m102.833 441.336-11.833 23.666v24.498c0 8.284-6.716 15-15 15s-15-6.716-15-15v-173.5h45v111.92c0 4.657-1.084 9.251-3.167 13.416z" fill="#ff8e59"/><path d="m72.833 441.336-11.833 23.666-11.833-23.666c-2.083-4.165-3.167-8.759-3.167-13.416v-111.92h30v111.92c0 4.657-1.084 9.251-3.167 13.416z" fill="#ffa857"/><path d="m106 331h-30v-30h30c8.284 0 15 6.716 15 15s-6.716 15-15 15z" fill="#33965d"/><path d="m91 316c0 8.284-6.716 15-15 15h-30c-8.284 0-15-6.716-15-15s6.716-15 15-15h30c8.284 0 15 6.716 15 15z" fill="#38ad63"/><path d="m222.833 441.336-11.833 23.666v24.498c0 8.284-6.716 15-15 15s-15-6.716-15-15v-173.5h45v111.92c0 4.657-1.084 9.251-3.167 13.416z" fill="#ff4040"/><path d="m192.833 441.336-11.833 23.666-11.833-23.666c-2.083-4.166-3.167-8.759-3.167-13.416v-111.92h30v111.92c0 4.657-1.084 9.251-3.167 13.416z" fill="#ff6f4f"/><path d="m226 331h-30v-30h30c8.284 0 15 6.716 15 15s-6.716 15-15 15z" fill="#33965d"/><path d="m211 316c0 8.284-6.716 15-15 15h-30c-8.284 0-15-6.716-15-15s6.716-15 15-15h30c8.284 0 15 6.716 15 15z" fill="#38ad63"/><path d="m342.833 441.336-11.833 23.666v24.498c0 8.284-6.716 15-15 15s-15-6.716-15-15v-173.5h45v111.92c0 4.657-1.084 9.251-3.167 13.416z" fill="#ffc766"/><path d="m312.833 441.336-11.833 23.666-11.833-23.666c-2.083-4.166-3.167-8.759-3.167-13.416v-111.92h30v111.92c0 4.657-1.084 9.251-3.167 13.416z" fill="#ffdc96"/><path d="m346 331h-30v-30h30c8.284 0 15 6.716 15 15s-6.716 15-15 15z" fill="#33965d"/><path d="m331 316c0 8.284-6.716 15-15 15h-30c-8.284 0-15-6.716-15-15s6.716-15 15-15h30c8.284 0 15 6.716 15 15z" fill="#38ad63"/><path d="m462.833 441.336-11.833 23.666v24.498c0 8.284-6.716 15-15 15s-15-6.716-15-15v-173.5h45v111.92c0 4.657-1.084 9.251-3.167 13.416z" fill="#e0343f"/><path d="m432.833 441.336-11.833 23.666-11.833-23.666c-2.083-4.166-3.167-8.759-3.167-13.416v-111.92h30v111.92c0 4.657-1.084 9.251-3.167 13.416z" fill="#ff4040"/><path d="m466 331h-30v-30h30c8.284 0 15 6.716 15 15s-6.716 15-15 15z" fill="#33965d"/><path d="m451 316c0 8.284-6.716 15-15 15h-30c-8.284 0-15-6.716-15-15s6.716-15 15-15h30c8.284 0 15 6.716 15 15z" fill="#38ad63"/><path d="m504.5 233.5h-31v-16.29c8.729-3.096 15-11.433 15-21.21s-6.271-18.114-15-21.21v-90.71c0-5.793-1.369-11.592-3.959-16.771l-11.041-22.081v-22.728c0-12.406-10.094-22.5-22.5-22.5s-22.5 10.094-22.5 22.5v22.728l-11.041 22.082c-2.59 5.179-3.959 10.978-3.959 16.771v90.71c-8.729 3.096-15 11.433-15 21.21s6.271 18.114 15 21.21v16.29h-45v-16.29c8.729-3.096 15-11.433 15-21.21s-6.271-18.114-15-21.21v-90.711c0-5.793-1.369-11.592-3.959-16.771l-11.041-22.081v-22.728c0-12.406-10.094-22.5-22.5-22.5s-22.5 10.094-22.5 22.5v22.728l-11.041 22.082c-2.59 5.179-3.959 10.978-3.959 16.771v90.71c-8.729 3.096-15 11.433-15 21.21s6.271 18.114 15 21.21v16.29h-45v-16.29c8.729-3.096 15-11.433 15-21.21s-6.271-18.114-15-21.21v-90.711c0-5.791-1.369-11.591-3.959-16.771l-11.041-22.081v-22.728c0-12.406-10.093-22.5-22.5-22.5s-22.5 10.094-22.5 22.5v22.728l-11.041 22.082c-2.59 5.18-3.959 10.979-3.959 16.771v90.71c-8.729 3.096-15 11.433-15 21.21 0 9.778 6.27 18.119 15 21.215v16.284h-45v-16.29c8.729-3.096 15-11.433 15-21.21s-6.271-18.114-15-21.21v-90.71c0-5.791-1.369-11.591-3.959-16.771l-11.041-22.081v-22.728c0-12.406-10.093-22.5-22.5-22.5s-22.5 10.094-22.5 22.5v22.728l-11.041 22.082c-2.59 5.18-3.959 10.979-3.959 16.771v90.71c-8.729 3.096-15 11.433-15 21.21s6.271 18.114 15 21.21v16.29h-31c-4.142 0-7.5 3.357-7.5 7.5v30c0 4.143 3.358 7.5 7.5 7.5h31v16.29c-8.729 3.096-15 11.433-15 21.21s6.271 18.114 15 21.21v90.71c0 5.791 1.369 11.591 3.959 16.771l11.041 22.08v22.728c0 12.406 10.093 22.5 22.5 22.5s22.5-10.094 22.5-22.5v-22.728l11.041-22.082c2.59-5.18 3.959-10.979 3.959-16.771v-90.71c8.729-3.096 15-11.433 15-21.21s-6.271-18.114-15-21.21v-16.289h45v16.29c-8.729 3.096-15 11.433-15 21.21s6.271 18.114 15 21.21v90.71c0 5.791 1.369 11.591 3.959 16.771l11.041 22.082v22.727c0 12.406 10.093 22.5 22.5 22.5s22.5-10.094 22.5-22.5v-22.728l11.041-22.082c2.59-5.18 3.959-10.979 3.959-16.771v-90.71c8.729-3.096 15-11.433 15-21.21s-6.271-18.114-15-21.21v-16.289h45v16.29c-8.729 3.096-15 11.433-15 21.21s6.271 18.114 15 21.21v90.71c0 5.793 1.369 11.592 3.959 16.771l11.041 22.082v22.727c0 12.406 10.094 22.5 22.5 22.5s22.5-10.094 22.5-22.5v-22.728l11.041-22.082c2.59-5.179 3.959-10.978 3.959-16.771v-90.71c8.729-3.096 15-11.433 15-21.21s-6.271-18.114-15-21.21v-16.289h45v16.29c-8.729 3.096-15 11.433-15 21.21s6.271 18.114 15 21.21v90.71c0 5.793 1.369 11.592 3.959 16.771l11.041 22.082v22.727c0 12.406 10.094 22.5 22.5 22.5s22.5-10.094 22.5-22.5v-22.728l11.041-22.082c2.59-5.179 3.959-10.978 3.959-16.771v-90.71c8.729-3.096 15-11.433 15-21.21s-6.271-18.114-15-21.21v-16.289h31c4.143 0 7.5-3.357 7.5-7.5v-30c0-4.143-3.357-7.5-7.5-7.5zm-88.625-159.481 11.833-23.666c.521-1.042.792-2.19.792-3.354v-24.499c0-4.136 3.364-7.5 7.5-7.5s7.5 3.364 7.5 7.5v24.498c0 1.164.271 2.313.792 3.354l11.833 23.666c1.554 3.106 2.375 6.586 2.375 10.062v89.42h-45v-89.42c0-3.476.821-6.955 2.375-10.061zm-9.875 114.481h60c4.136 0 7.5 3.364 7.5 7.5s-3.364 7.5-7.5 7.5h-60c-4.136 0-7.5-3.364-7.5-7.5s3.364-7.5 7.5-7.5zm7.5 30h45v15h-45zm-328.71 30h104.465c1.129 5.539 3.483 10.637 6.766 15h-90.021c-9.777 0-18.114-6.271-21.21-15zm120 0h104.465c1.129 5.539 3.483 10.637 6.766 15h-90.021c-9.777 0-18.114-6.271-21.21-15zm120 0h104.464c1.129 5.539 3.483 10.637 6.766 15h-90.02c-9.777 0-18.114-6.271-21.21-15zm-28.915-174.481 11.833-23.666c.521-1.042.792-2.19.792-3.354v-24.499c0-4.136 3.364-7.5 7.5-7.5s7.5 3.364 7.5 7.5v24.498c0 1.164.271 2.313.792 3.354l11.833 23.666c1.554 3.106 2.375 6.586 2.375 10.062v89.42h-45v-89.42c0-3.476.821-6.955 2.375-10.061zm-9.875 114.481h60c4.136 0 7.5 3.364 7.5 7.5s-3.364 7.5-7.5 7.5h-60c-4.136 0-7.5-3.364-7.5-7.5s3.364-7.5 7.5-7.5zm7.5 30h45v15h-45zm-117.625-144.481 11.833-23.666c.521-1.042.792-2.19.792-3.354v-24.499c0-4.136 3.364-7.5 7.5-7.5s7.5 3.364 7.5 7.5v24.498c0 1.164.271 2.313.792 3.354l11.833 23.666c1.554 3.107 2.375 6.587 2.375 10.062v89.42h-45v-89.42c0-3.475.821-6.954 2.375-10.061zm-9.875 129.481c-4.136 0-7.5-3.364-7.5-7.5s3.364-7.5 7.5-7.5h60c4.136 0 7.5 3.364 7.5 7.5s-3.364 7.5-7.5 7.5h-30c-4.142 0-7.5 3.357-7.5 7.5s3.358 7.5 7.5 7.5h22.5v15h-45v-22.5c0-4.143-3.358-7.5-7.5-7.5zm-110.125-129.481 11.833-23.666c.521-1.042.792-2.19.792-3.354v-24.499c0-4.136 3.364-7.5 7.5-7.5s7.5 3.364 7.5 7.5v24.498c0 1.164.271 2.313.792 3.354l11.833 23.666c1.554 3.107 2.375 6.587 2.375 10.062v89.42h-45v-89.42c0-3.475.821-6.954 2.375-10.061zm-9.875 114.481h60c4.136 0 7.5 3.364 7.5 7.5s-3.364 7.5-7.5 7.5h-60c-4.136 0-7.5-3.364-7.5-7.5s3.364-7.5 7.5-7.5zm7.5 30h45v15h-45zm-38.5 30h54.255c1.129 5.539 3.483 10.637 6.766 15h-61.021zm83.5 30v15h-45v-15zm-2.375 159.481-11.833 23.666c-.521 1.042-.792 2.19-.792 3.354v24.499c0 4.136-3.364 7.5-7.5 7.5s-7.5-3.364-7.5-7.5v-24.498c0-1.164-.271-2.313-.792-3.354l-11.833-23.666c-1.554-3.107-2.375-6.587-2.375-10.062v-89.42h45v89.42c0 3.475-.821 6.954-2.375 10.061zm9.875-114.481h-60c-4.136 0-7.5-3.364-7.5-7.5s3.364-7.5 7.5-7.5h60c4.136 0 7.5 3.364 7.5 7.5s-3.364 7.5-7.5 7.5zm112.5-45v15h-45v-15zm-2.375 159.481-11.833 23.666c-.521 1.042-.792 2.19-.792 3.354v24.499c0 4.136-3.364 7.5-7.5 7.5s-7.5-3.364-7.5-7.5v-24.498c0-1.164-.271-2.313-.792-3.354l-11.833-23.666c-1.554-3.107-2.375-6.587-2.375-10.062v-89.42h45v89.42c0 3.475-.821 6.954-2.375 10.061zm9.875-114.481h-60c-4.136 0-7.5-3.364-7.5-7.5s3.364-7.5 7.5-7.5h60c4.136 0 7.5 3.364 7.5 7.5s-3.364 7.5-7.5 7.5zm112.5-45v15h-45v-15zm-2.375 159.481-11.833 23.666c-.521 1.042-.792 2.19-.792 3.354v24.499c0 4.136-3.364 7.5-7.5 7.5s-7.5-3.364-7.5-7.5v-24.498c0-1.164-.271-2.313-.792-3.354l-11.833-23.666c-1.554-3.106-2.375-6.586-2.375-10.062v-89.42h45v89.42c0 3.476-.821 6.955-2.375 10.061zm9.875-114.481h-60c-4.136 0-7.5-3.364-7.5-7.5s3.364-7.5 7.5-7.5h60c4.136 0 7.5 3.364 7.5 7.5s-3.364 7.5-7.5 7.5zm112.5-45v15h-45v-15zm-2.375 159.481-11.833 23.666c-.521 1.042-.792 2.19-.792 3.354v24.499c0 4.136-3.364 7.5-7.5 7.5s-7.5-3.364-7.5-7.5v-24.498c0-1.164-.271-2.313-.792-3.354l-11.833-23.666c-1.554-3.106-2.375-6.586-2.375-10.062v-89.42h45v89.42c0 3.476-.821 6.955-2.375 10.061zm9.875-114.481h-60c-4.136 0-7.5-3.364-7.5-7.5s3.364-7.5 7.5-7.5h60c4.136 0 7.5 3.364 7.5 7.5s-3.364 7.5-7.5 7.5zm31-60h-31c-9.777 0-18.114-6.271-21.21-15h52.21z"/></g></svg>