<svg id="Capa_1" enable-background="new 0 0 512 512" height="512" viewBox="0 0 512 512" width="512" xmlns="http://www.w3.org/2000/svg"><g><path d="m322.518 87.748c.017 0-54.421-74.118-54.421-74.118-2.751-3.711-7.136-6.13-12.097-6.13s-9.346 2.419-12.077 6.13c-.021 0-54.459 74.118-54.459 74.118-10.023 13.666-15.964 30.529-15.964 48.787 0 45.563 36.937 82.5 82.5 82.5s82.5-36.937 82.5-82.5c0-18.258-5.942-35.122-15.982-48.787z" fill="#ff8e59"/><path d="m256 189.035c-24.813 0-45-20.187-45-45 0-9.644 3.01-18.845 8.705-26.61 8.242-11.222 36.298-49.412 36.298-49.412l36.29 49.429c5.696 7.753 8.707 16.949 8.707 26.593 0 24.813-20.187 45-45 45z" fill="#ffdc96"/><circle cx="256" cy="144.035" fill="#fff" r="15"/><path d="m384.5 384.5v120h30c33.14 0 60-26.86 60-60v-60z" fill="#ffc1b0"/><path d="m37.5 384.5v60c0 33.14 26.86 60 60 60h287c33.14 0 60-26.86 60-60v-60z" fill="#ffdac7"/><path d="m474.5 204.03v180.47c0 22.21-12.07 41.6-30 51.97l-188.5-232.44z" fill="#ffa294"/><path d="m444.5 204.03v45.005l-60 67.733 60 67.733v51.97c-8.83 5.11-19.07 8.03-30 8.03h-317c-33.14 0-60-26.86-60-60v-180.471z" fill="#ffc1b0"/><path d="m474.5 189.035h-30v30h30c8.284 0 15-6.716 15-15s-6.716-15-15-15z" fill="#ffc1b0"/><path d="m459.5 204.035c0-8.284-6.716-15-15-15h-407c-8.284 0-15 6.716-15 15s6.716 15 15 15h407c8.284 0 15-6.716 15-15z" fill="#ffdac7"/><path d="m414.5 249.035-30 165.465h30c16.569 0 30-13.431 30-30v-135.465z" fill="#e0343f"/><path d="m414.5 384.5v-135.465h-347v135.465c0 16.569 13.431 30 30 30h287c16.569 0 30-13.431 30-30z" fill="#ff4040"/><path d="m256 121.535c-12.406 0-22.5 10.094-22.5 22.5s10.094 22.5 22.5 22.5 22.5-10.094 22.5-22.5-10.094-22.5-22.5-22.5zm0 30c-4.136 0-7.5-3.364-7.5-7.5s3.364-7.5 7.5-7.5 7.5 3.364 7.5 7.5-3.364 7.5-7.5 7.5z"/><path d="m474.5 181.534h-140.571c7.844-13.602 12.071-29.146 12.071-45 0-19.295-6.029-37.7-17.438-53.227l-.063.046c-.619-.979-54.378-74.191-54.378-74.191-4.254-5.737-11.028-9.162-18.121-9.162-7.112 0-13.886 3.434-18.117 9.185l.05.037c-.704.848-54.516 74.091-54.516 74.091-11.395 15.534-17.417 33.937-17.417 53.221 0 15.854 4.227 31.398 12.071 45h-140.571c-12.406 0-22.5 10.094-22.5 22.5 0 9.778 6.27 18.119 15 21.215v219.251c0 37.22 30.28 67.5 67.5 67.5h317c37.22 0 67.5-30.28 67.5-67.5v-219.251c8.73-3.096 15-11.437 15-21.215 0-12.406-10.094-22.5-22.5-22.5zm-293.5-45c0-16.071 5.019-31.407 14.51-44.347 18.32-24.943 53.119-72.318 54.384-74.018.023-.031.048-.063.071-.095 1.437-1.953 3.638-3.074 6.035-3.074 2.4 0 4.613 1.129 6.053 3.069 18.364 25.004 53.238 72.489 54.36 74.034l.062.085c9.503 12.934 14.525 28.269 14.525 44.346 0 16.233-5.307 32.078-15.003 45h-23.304c9.744-9.537 15.807-22.82 15.807-37.499 0-11.254-3.515-21.985-10.161-31.032l-36.29-49.429c-1.413-1.925-3.657-3.062-6.045-3.062s-4.632 1.136-6.045 3.06l-36.303 49.417c-6.645 9.061-10.156 19.796-10.156 31.046 0 14.679 6.063 27.962 15.807 37.499h-23.304c-9.696-12.922-15.003-28.767-15.003-45zm74.961 45c-20.66-.021-37.461-16.834-37.461-37.499 0-8.038 2.508-15.706 7.249-22.171l30.252-41.181 30.248 41.198c4.743 6.457 7.251 14.117 7.251 22.153 0 20.665-16.801 37.478-37.461 37.499h-.078zm211.039 262.966c0 28.948-23.552 52.5-52.5 52.5h-317c-28.948 0-52.5-23.552-52.5-52.5v-17.639c12.384 15.319 31.313 25.139 52.5 25.139h317c21.187 0 40.116-9.82 52.5-25.139zm7.5-232.966h-407c-4.143 0-7.5 3.357-7.5 7.5s3.357 7.5 7.5 7.5h181v15h-181c-4.143 0-7.5 3.357-7.5 7.5v135.466c0 20.678 16.822 37.5 37.5 37.5h317c20.678 0 37.5-16.822 37.5-37.5v-135.466c0-4.143-3.357-7.5-7.5-7.5h-181v-15h203.5v157.966c0 28.948-23.552 52.5-52.5 52.5h-317c-28.948 0-52.5-23.552-52.5-52.5v-165.466c0-4.143-3.357-7.5-7.5-7.5-4.136 0-7.5-3.364-7.5-7.5s3.364-7.5 7.5-7.5h218.461 218.539c4.136 0 7.5 3.364 7.5 7.5s-3.364 7.5-7.5 7.5zm-37.5 45v127.966c0 12.406-10.094 22.5-22.5 22.5h-317c-12.406 0-22.5-10.094-22.5-22.5v-127.966z"/></g></svg>