<svg id="Capa_1" enable-background="new 0 0 512 512" height="512" viewBox="0 0 512 512" width="512" xmlns="http://www.w3.org/2000/svg"><g><circle cx="256" cy="217.5" fill="#ebe1e8" r="210"/><path d="m255.492 37.501 76.356 316.781c16.994 7.932 37.159 4.453 50.509-8.719 33.098-32.657 53.643-78.004 53.643-128.063 0-99.421-81.024-180.276-180.508-179.999z" fill="#f7f4f6"/><path d="m367.808 345.562c23.564-32.656 38.192-78.003 38.192-128.062 0-99.421-67.558-180.276-150.508-179.999-98.055.272-178.372 79.879-179.48 177.929-.575 50.866 20.068 97.004 53.607 130.108 13.357 13.183 33.528 16.68 50.534 8.743 23.061-10.763 48.763-16.781 75.847-16.781s52.786 6.018 75.848 16.781c13.886 6.482 26.455 4.453 35.96-8.719z" fill="#fff"/><path d="m358.237 274.64-57.29-47.267 18.577 77.267h30c11.57 0 18.802-12.525 13.017-22.546z" fill="#33965d"/><path d="m300.947 227.374-147.184 47.266-4.304 7.454c-5.785 10.02 1.446 22.546 13.017 22.546h157.048c11.57 0 18.802-12.525 13.017-22.546z" fill="#38ad63"/><path d="m313.627 197.374h-60l74.61 77.266h30z" fill="#d9c8d4"/><path d="m283.627 197.374h-85.254l-44.61 77.266h174.474z" fill="#ebe1e8"/><path d="m364.222 397.5h-30l-78.222 60 108.222-30c8.284 0 15-6.716 15-15s-6.716-15-15-15z" fill="#b53a4c"/><path d="m349.222 412.5c0-8.284-6.716-15-15-15h-186.443c-8.284 0-15 6.716-15 15s6.716 15 15 15l108.221 30 78.222-30c8.284 0 15-6.716 15-15z" fill="#e0343f"/><path d="m328.728 427.5h-180.95l-13.859 21.712c-10.055 15.753-27.452 25.288-46.141 25.288v15h336.444z" fill="#ff4040"/><path d="m378.081 449.212-13.859-21.712h-35.494l13.859 21.712c10.055 15.753 27.452 25.288 46.141 25.288l35.494 15v-15c-18.688 0-36.086-9.535-46.141-25.288z" fill="#e0343f"/><path d="m424.222 474.5h-30v30h30c8.284 0 15-6.716 15-15s-6.716-15-15-15z" fill="#b53a4c"/><path d="m409.222 489.5c0-8.284-6.716-15-15-15h-306.443c-8.284 0-15 6.716-15 15s6.716 15 15 15h306.444c8.283 0 14.999-6.716 14.999-15z" fill="#e0343f"/><path d="m343.964 204.828-74.947-129.812c-2.893-5.01-7.955-7.515-13.017-7.515s-10.124 2.505-13.017 7.515l-1.983 3.435 59.947 148.923h30c11.571 0 18.802-12.526 13.017-22.546z" fill="#ebe1e8"/><path d="m313.964 204.828-72.964-126.377-72.964 126.377c-5.785 10.02 1.446 22.546 13.017 22.546h119.895c11.57 0 18.801-12.526 13.016-22.546z" fill="#f7f4f6"/><path d="m424.223 467c-16.212 0-31.098-8.158-39.819-21.823l-8.563-13.416c6.517-3.946 10.882-11.103 10.882-19.261 0-6.35-2.648-12.089-6.893-16.184 26.377-18.307 48.56-42.35 64.642-70.196 18.99-32.879 29.028-70.438 29.028-108.62 0-58.097-22.624-112.715-63.704-153.796-41.081-41.08-95.699-63.704-153.796-63.704s-112.715 22.624-153.796 63.704c-41.08 41.081-63.704 95.699-63.704 153.796 0 38.182 10.038 75.741 29.028 108.62 16.083 27.846 38.266 51.889 64.643 70.196-4.245 4.095-6.893 9.834-6.893 16.184 0 8.158 4.365 15.316 10.882 19.261l-8.563 13.416c-8.721 13.665-23.607 21.823-39.819 21.823-12.406 0-22.5 10.094-22.5 22.5s10.094 22.5 22.5 22.5h336.444c12.406 0 22.499-10.094 22.499-22.5s-10.092-22.5-22.498-22.5zm-276.445-47c-4.136 0-7.5-3.364-7.5-7.5s3.364-7.5 7.5-7.5h216.444c4.136 0 7.5 3.364 7.5 7.5s-3.364 7.5-7.5 7.5zm-94.278-202.5c0-111.659 90.841-202.5 202.5-202.5s202.5 90.841 202.5 202.5c0 70.98-36.018 135.3-96.435 172.5h-212.13c-60.417-37.2-96.435-101.52-96.435-172.5zm86.742 235.747 11.647-18.247h208.223l11.647 18.247c3.336 5.226 7.359 9.835 11.907 13.753h-255.331c4.548-3.918 8.571-8.527 11.907-13.753zm283.981 43.753h-336.445c-4.136 0-7.5-3.364-7.5-7.5s3.364-7.5 7.5-7.5h336.444c4.135 0 7.499 3.364 7.499 7.5s-3.364 7.5-7.498 7.5z"/><path d="m183.324 361.077c22.858-10.668 47.309-16.077 72.676-16.077s49.818 5.409 72.676 16.077c7.037 3.284 14.573 4.88 22.063 4.879 13.529 0 26.902-5.204 36.886-15.055 36.031-35.552 55.875-82.928 55.875-133.401 0-50.104-19.591-97.234-55.163-132.708-35.444-35.346-82.421-54.792-132.333-54.792-.177 0-.356.001-.533.001-49.409.138-96.058 19.482-131.354 54.472-35.298 34.991-55.046 81.469-55.604 130.872-.579 51.285 19.251 99.417 55.839 135.531 15.52 15.32 39.219 19.421 58.972 10.201zm72.188-316.076c.166-.001.325-.001.491-.001 45.91 0 89.133 17.894 121.742 50.413 32.73 32.639 50.755 75.997 50.755 122.087 0 46.428-18.258 90.012-51.411 122.724-11.068 10.922-27.974 13.841-42.069 7.262-24.859-11.603-51.445-17.486-79.02-17.486s-54.161 5.883-79.02 17.485c-14.096 6.58-31.013 3.652-42.093-7.285-33.664-33.228-51.91-77.509-51.376-124.686 1.06-93.76 78.219-170.252 172.001-170.513z"/><path d="m162.477 312.141h187.047c8.145 0 15.439-4.211 19.512-11.265 4.072-7.055 4.072-15.478 0-22.531l-26.818-46.45c3.357-1.936 6.203-4.754 8.242-8.285 4.072-7.055 4.072-15.478 0-22.531l-74.948-129.813c-4.072-7.054-11.367-11.265-19.512-11.265s-15.439 4.211-19.512 11.265l-74.947 129.813c-4.072 7.054-4.072 15.477 0 22.531 2.039 3.531 4.885 6.35 8.242 8.285l-26.818 46.45c-4.072 7.054-4.072 15.477 0 22.531s11.367 11.265 19.512 11.265zm193.568-18.765c-.653 1.132-2.598 3.765-6.521 3.765h-187.047c-3.924 0-5.868-2.633-6.521-3.765-.653-1.133-1.962-4.133 0-7.531l2.139-3.704h195.813l2.139 3.704c1.96 3.398.651 6.398-.002 7.531zm-168.497-69.752c-1.34-2.32-3.815-3.75-6.495-3.75-3.924 0-5.868-2.633-6.521-3.765-.653-1.133-1.962-4.133 0-7.531l74.947-129.813c1.962-3.397 5.214-3.765 6.521-3.765s4.56.367 6.521 3.765l74.947 129.813c1.962 3.398.653 6.398 0 7.531-.648 1.122-2.565 3.722-6.426 3.764-.079 0-.16-.001-.239.001h-119.75c-4.143 0-7.5 3.357-7.5 7.5s3.357 7.5 7.5 7.5h115.564l18.629 32.267h-178.492l20.794-36.017c1.34-2.32 1.34-5.18 0-7.5z"/></g></svg>