<svg id="Capa_1" enable-background="new 0 0 512 512" height="512" viewBox="0 0 512 512" width="512" xmlns="http://www.w3.org/2000/svg"><g><path d="m427.198 84.802-64.382 64.382c3.458 3.458 7.856 5.82 12.657 6.774l56.448 11.293c9.836 1.973 20.004-1.11 27.096-8.202z" fill="#377d5b"/><path d="m352.952 52.983 74.246 31.82 10.607 53.033c-7.092 7.092-15.846 11.589-23.32 11.978l-42.9 2.256c-3.649.198-6.696-.813-8.768-2.885-3.458-3.458-5.819-7.856-6.774-12.657l-11.293-56.448c-1.974-9.837 1.109-20.005 8.202-27.097z" fill="#33965d"/><path d="m298.434 213.567 64.382-64.382c3.458 3.458 5.82 7.856 6.774 12.657l11.293 56.448c1.973 9.836-1.11 20.004-8.202 27.096z" fill="#33965d"/><path d="m266.614 139.32 31.82 74.246 53.033 10.607c7.092-7.092 11.589-15.846 11.978-23.32l2.256-42.9c.198-3.649-.813-6.696-2.885-8.768-3.458-3.458-7.856-5.819-12.657-6.774l-56.448-11.292c-9.837-1.974-20.005 1.109-27.097 8.201z" fill="#38ad63"/><path d="m504.499 113.568-45.481 45.481-21.214-21.214 1.528-43.953 43.953-1.528z" fill="#33965d"/><path d="m385.958 12.669h64.32v120h-64.32z" fill="#38ad63" transform="matrix(.707 -.707 .707 .707 71.08 316.939)"/><path d="m84.802 427.198 64.382-64.382c3.458 3.458 5.82 7.856 6.774 12.657l11.293 56.448c1.973 9.836-1.11 20.004-8.202 27.096z" fill="#377d5b"/><path d="m52.983 352.952 31.82 74.246 53.033 10.607c7.092-7.092 11.589-15.846 11.978-23.32l2.256-42.9c.198-3.649-.813-6.696-2.885-8.768-3.458-3.458-7.856-5.819-12.657-6.774l-56.448-11.293c-9.837-1.974-20.005 1.109-27.097 8.202z" fill="#33965d"/><path d="m213.567 298.434-64.382 64.382c3.458 3.458 7.856 5.82 12.657 6.774l56.448 11.293c9.836 1.973 20.004-1.11 27.096-8.202z" fill="#33965d"/><path d="m139.32 266.614 74.246 31.82 10.607 53.033c-7.092 7.092-15.846 11.589-23.32 11.978l-42.9 2.256c-3.649.198-6.696-.813-8.768-2.885-3.458-3.458-5.819-7.856-6.774-12.657l-11.292-56.448c-1.974-9.837 1.109-20.005 8.201-27.097z" fill="#38ad63"/><path d="m113.568 504.499 45.481-45.481-21.214-21.214-43.953 1.528-1.528 43.953z" fill="#33965d"/><path d="m40.509 358.118h64.32v120h-64.32z" fill="#38ad63" transform="matrix(.707 -.707 .707 .707 -274.37 173.849)"/><path d="m372.673 245.393-127.28 127.28-21.213-21.213 21.213-106.067 106.067-21.213z" fill="#38ad63"/><path d="m351.46 224.18-21.214 21.213-74.246 10.607-10.607 74.246-21.213 21.214-84.853-84.853 127.28-127.28z" fill="#49c470"/><path d="m330.246 245.393-84.853 84.853-21.213-21.213 10.607-74.246 74.246-10.607z" fill="#ffc766"/><path d="m185.393 215.393h120v60h-120z" fill="#ffdc96" transform="matrix(.707 -.707 .707 .707 -101.645 245.393)"/><path d="m509.803 108.262-106.066-106.066c-2.929-2.928-7.678-2.928-10.606 0l-45.481 45.481c-8.886 8.887-12.72 21.549-10.255 33.871l10.555 52.774-52.775-10.555c-12.321-2.465-24.984 1.369-33.871 10.255l-127.28 127.28c-8.886 8.886-12.719 21.548-10.255 33.87l10.555 52.774-52.774-10.553c-12.321-2.464-24.984 1.368-33.871 10.255l-45.482 45.482c-1.407 1.407-2.197 3.314-2.197 5.303s.79 3.896 2.197 5.304l106.066 106.066c1.464 1.464 3.384 2.196 5.303 2.196s3.839-.732 5.303-2.196l45.481-45.481c8.886-8.887 12.72-21.549 10.255-33.871l-10.555-52.774 52.774 10.555c2.459.492 4.932.732 7.386.732 9.84 0 19.372-3.875 26.484-10.987l127.28-127.28c8.886-8.886 12.719-21.548 10.255-33.87l-10.555-52.774 52.774 10.555c2.459.492 4.932.732 7.386.732 9.841 0 19.373-3.876 26.485-10.987l45.482-45.481c1.407-1.407 2.197-3.314 2.197-5.304s-.788-3.898-2.195-5.306zm-217.571 30.215 56.45 11.29c3.356.672 6.408 2.305 8.827 4.724 2.419 2.418 4.052 5.471 4.723 8.825l11.29 56.451c.97 4.847.305 9.779-1.763 14.105l-93.62-93.62c3.008-1.437 6.299-2.215 9.662-2.215 1.471.001 2.956.145 4.431.44zm-142.298 128.129 116.672-116.672 95.459 95.459-116.671 116.673zm-71.326 85.496 56.452 11.29c3.354.671 6.405 2.304 8.825 4.724 2.419 2.419 4.052 5.471 4.723 8.824l11.29 56.452c.97 4.847.305 9.779-1.763 14.105l-93.631-93.631c4.326-2.068 9.257-2.732 14.104-1.764zm34.958 141.791-95.46-95.46 34.875-34.875 95.459 95.459zm106.202-120.371-56.452-11.29c-3.354-.671-6.406-2.304-8.825-4.724-2.419-2.418-4.052-5.47-4.723-8.824l-11.291-56.452c-.97-4.847-.305-9.779 1.763-14.105l93.632 93.632c-4.325 2.068-9.255 2.732-14.104 1.763zm213.624-213.625-56.451-11.29c-3.354-.671-6.406-2.304-8.825-4.724-2.419-2.418-4.052-5.47-4.723-8.824l-11.291-56.452c-.97-4.847-.305-9.779 1.763-14.105l93.631 93.632c-4.325 2.068-9.255 2.732-14.104 1.763zm25.626-11.456-95.459-95.459 34.875-34.875 95.46 95.46z"/><path d="m335.549 240.09-63.64-63.64c-2.928-2.928-7.677-2.928-10.606 0l-31.82 31.819c-2.929 2.93-2.929 7.678 0 10.607 2.928 2.928 7.677 2.928 10.606 0l26.517-26.517 53.033 53.033-74.246 74.246-53.033-53.033 26.517-26.516c2.929-2.93 2.929-7.678 0-10.607-2.928-2.928-7.677-2.928-10.606 0l-31.82 31.819c-1.407 1.407-2.197 3.314-2.197 5.304s.79 3.896 2.197 5.304l63.64 63.64c1.464 1.464 3.384 2.196 5.303 2.196s3.839-.732 5.303-2.196l84.853-84.853c2.929-2.929 2.929-7.677-.001-10.606z"/></g></svg>