<svg id="Capa_1" enable-background="new 0 0 512 512" height="512" viewBox="0 0 512 512" width="512" xmlns="http://www.w3.org/2000/svg"><g><path d="m286 413.521 60 45h30v-45z" fill="#38ad63"/><path d="m136 413.521h210v45h-210z" fill="#49c470"/><path d="m346 368.521v60h30c8.28 0 15-6.72 15-15v-15z" fill="#ffdac7"/><path d="m361 308.521v105c0 8.28-6.72 15-15 15h-210c-8.28 0-15-6.72-15-15v-15z" fill="#ffecc7"/><path d="m121 94.571 30 105-90 46.47 30-135z" fill="#33965d"/><path d="m421 111.041 30 135-90-46.47 30-105z" fill="#33965d"/><path d="m361 78.101-90 160.211 90 160.209h30v-303.949z" fill="#e0343f"/><path d="m320.61 55.931h-129.22l-70.39 38.641v303.949h240v-320.42z" fill="#ff4040"/><path d="m22.5 308.521h53.5v60h-53.5z" fill="#49c470"/><path d="m436 308.521h53.5v60h-53.5z" fill="#49c470"/><path d="m459.5 263.521v60h30c8.28 0 15-6.72 15-15v-15z" fill="#ffdac7"/><path d="m91 293.521v15c0 8.28-6.72 15-15 15h-53.5c-8.28 0-15-6.72-15-15v-15l41.75-30z" fill="#ffecc7"/><path d="m30.88 144.052c-13.94 7.64-23.38 22.45-23.38 39.47v110h83.5v-182.48z" fill="#49c470"/><path d="m474.5 263.521v45c0 8.28-6.72 15-15 15h-23.5c-8.28 0-15-6.72-15-15v-15z" fill="#ffecc7"/><path d="m481.12 144.052-30-16.47 23.38 165.94h30v-110c0-17.021-9.44-31.831-23.38-39.47z" fill="#38ad63"/><path d="m451.12 127.582-30.12-16.54v182.48h53.5v-126.47c0-17.01-9.44-31.821-23.38-39.47z" fill="#49c470"/><path d="m311 53.479h-110c-11.046 0-20 8.954-20 20 0 41.421 33.579 75 75 75s75-33.579 75-75c0-11.046-8.954-20-20-20z" fill="#49c470"/><path d="m256 118.479c-21.377 0-39.32-14.984-43.88-35h87.761c-4.561 20.015-22.504 35-43.881 35z" fill="#33965d"/><path d="m256 248.521v120c33.137 0 60-26.863 60-60s-26.863-60-60-60z" fill="#ffdac7"/><path d="m286 308.521c0-33.137-13.431-60-30-60-33.137 0-60 26.863-60 60s26.863 60 60 60c16.569 0 30-26.862 30-60z" fill="#ffecc7"/><path d="m256 178.521v70c19.33 0 35-15.67 35-35s-15.67-35-35-35z" fill="#ffdac7"/><path d="m261 213.521c0-19.33-2.239-35-5-35-19.33 0-35 15.67-35 35s15.67 35 35 35c2.761 0 5-15.67 5-35z" fill="#ffecc7"/><path d="m256 125.979c24.273 0 45.802-17.173 51.193-40.834.507-2.225-.026-4.56-1.45-6.344-1.423-1.783-3.581-2.822-5.863-2.822h-87.76c-2.282 0-4.439 1.039-5.863 2.822-1.423 1.784-1.957 4.119-1.45 6.344 5.391 23.661 26.92 40.834 51.193 40.834zm33.144-35c-6.402 11.991-19.133 20-33.144 20s-26.741-8.009-33.144-20z"/><path d="m484.732 137.474-160.513-88.114c-3.929-2.15-8.433-3.382-13.219-3.382h-110c-4.787 0-9.29 1.232-13.214 3.391-.005-.009-160.518 88.104-160.518 88.104-16.819 9.232-27.268 26.877-27.268 46.048v125c0 9.777 6.271 18.114 15 21.21v38.79c0 4.143 3.358 7.5 7.5 7.5h53.5c4.142 0 7.5-3.357 7.5-7.5v-38.79c8.729-3.096 15-11.433 15-21.21v-73.04l15-8.234v186.275c0 9.778 6.27 18.119 15 21.215v23.785c0 4.143 3.358 7.5 7.5 7.5h240c4.142 0 7.5-3.357 7.5-7.5v-23.79c8.729-3.096 15-11.433 15-21.21v-186.275l15 8.234v73.04c0 9.777 6.271 18.114 15 21.21v38.79c0 4.143 3.358 7.5 7.5 7.5h53.5c4.142 0 7.5-3.357 7.5-7.5v-38.79c8.729-3.096 15-11.433 15-21.21v-125c0-19.171-10.449-36.816-27.268-46.047zm-7.218 13.149c12.02 6.597 19.486 19.203 19.486 32.898v102.5h-68.5v-162.305zm-94.014-51.609v292.008h-255v-292.008l45.021-24.715c.444 45.112 37.264 81.679 82.479 81.679s82.035-36.567 82.479-81.679zm-72.5-38.035c6.893 0 12.5 5.607 12.5 12.5 0 37.22-30.28 67.5-67.5 67.5s-67.5-30.28-67.5-67.5c0-6.893 5.607-12.5 12.5-12.5zm-276.514 89.643 49.014-26.906v162.306h-68.5v-102.5c0-13.696 7.466-26.302 19.486-32.9zm-4.486 210.399v-30h38.5v30zm46-45h-53.5c-4.135 0-7.5-3.364-7.5-7.5v-7.5h68.5v7.5c0 4.136-3.364 7.5-7.5 7.5zm22.5-97.651v-102.888l15-8.234v102.888zm277.5 202.651h-210c-4.142 0-7.5 3.357-7.5 7.5s3.358 7.5 7.5 7.5h202.5v15h-225v-22.5c0-4.143-3.358-7.5-7.5-7.5-4.136 0-7.5-3.364-7.5-7.5v-7.5h255v7.5c0 4.136-3.364 7.5-7.5 7.5zm22.5-210.885v-102.888l15 8.234v102.888zm45 150.885v-30h38.5v30zm46-45h-53.5c-4.136 0-7.5-3.364-7.5-7.5v-7.5h68.5v7.5c0 4.136-3.365 7.5-7.5 7.5z"/><path d="m282.713 246.544c9.622-7.798 15.787-19.702 15.787-33.023 0-23.435-19.065-42.5-42.5-42.5s-42.5 19.065-42.5 42.5c0 13.321 6.165 25.225 15.787 33.023-23.969 10.371-40.787 34.243-40.787 61.977 0 37.22 30.28 67.5 67.5 67.5s67.5-30.28 67.5-67.5c0-27.734-16.818-51.605-40.787-61.977zm-54.213-33.023c0-15.163 12.336-27.5 27.5-27.5s27.5 12.337 27.5 27.5-12.336 27.5-27.5 27.5-27.5-12.336-27.5-27.5zm27.5 147.5c-28.949 0-52.5-23.552-52.5-52.5s23.551-52.5 52.5-52.5 52.5 23.552 52.5 52.5-23.551 52.5-52.5 52.5z"/><circle cx="256" cy="278.521" r="7.5"/><circle cx="256" cy="308.521" r="7.5"/></g></svg>