<svg id="Capa_1" enable-background="new 0 0 512 512" height="512" viewBox="0 0 512 512" width="512" xmlns="http://www.w3.org/2000/svg"><g><path d="m444.5 264.5h30c0 33.14-26.86 60-60 60h-30z" fill="#ffdc96"/><path d="m391 279.5c-16.57 0-30 28.43-30 45h23.5c33.14 0 60-26.86 60-60z" fill="#ffecc7"/><path d="m391 264.5h53.5c0 16.57-13.43 30-30 30h-23.5c-16.57 0-30 13.43-30 30l-45-30h45c0-16.57 13.43-30 30-30z" fill="#ff4040"/><path d="m121 279.5-53.5-15h-30c0 33.14 26.86 60 60 60h53.5c0-16.57-13.43-45-30-45z" fill="#ffecc7"/><path d="m121 264.5h-53.5c0 16.57 13.43 30 30 30h23.5c16.57 0 30 13.43 30 30l45-30h-45c0-16.57-13.43-30-30-30z" fill="#ff6f4f"/><path d="m217.5 219.5-29-15v60l29-15c8.28 0 15-6.72 15-15s-6.72-15-15-15z" fill="#b59ab0"/><path d="m196 219.5c8.28 0 15 6.72 15 15s-6.72 15-15 15l-7.5 15-7.5-15c-8.28 0-15-6.72-15-15s6.72-15 15-15l7.5-15z" fill="#c7adc0"/><path d="m331 219.5-29-15v60l29-15c8.28 0 15-6.72 15-15s-6.72-15-15-15z" fill="#b59ab0"/><path d="m309.5 219.5c8.28 0 15 6.72 15 15s-6.72 15-15 15l-7.5 15-7.5-15c-8.28 0-15-6.72-15-15s6.72-15 15-15l7.5-15z" fill="#c7adc0"/><path d="m331 249.5h-30l15 180 31.355-38.155c8.822-10.735 13.645-24.199 13.645-38.095v-73.75c0-16.569-13.431-30-30-30z" fill="#ff6f4f"/><path d="m331 279.5c0-16.569-13.432-30-30-30h-120c-16.569 0-30 13.431-30 30v73.751c0 13.895 4.823 27.359 13.645 38.094l31.355 38.155h120c8.822-10.735 15-24.199 15-38.094z" fill="#ff8e59"/><path d="m256 354.5v150c33.137 0 60-26.863 60-60v-30c0-33.137-26.863-60-60-60z" fill="#ffdc96"/><path d="m286 444.5v-30c0-33.137-13.431-60-30-60-33.137 0-60 26.863-60 60v30c0 33.137 26.863 60 60 60 16.569 0 30-26.863 30-60z" fill="#ffecc7"/><path d="m202.5 102.935c-8.284 0-15 6.716-15 15v26.565c0 8.284-6.716 15-15 15s-15-6.716-15-15v-105c0-8.284-6.716-15-15-15s-15 6.716-15 15v105c0 8.284-6.716 15-15 15s-15-6.716-15-15v-60c0-8.284-6.716-15-15-15s-15 6.716-15 15v60c0 8.284-6.716 15-15 15s-15-6.716-15-15v-122c0-8.284-6.716-15-15-15s-15 6.716-15 15v122c0 24.853 20.147 45 45 45h98.5c16.568 0 30 13.431 30 30h36.5v-101.566c0-8.284-6.716-14.999-15-14.999z" fill="#ebe1e8"/><path d="m474.5 144.5c1.401 8.165-6.716 15-15 15s-15-6.716-15-15v-60c0-8.284-6.716-15-15-15s-15 6.716-15 15v60c0 8.284-6.716 15-15 15s-15-6.716-15-15v-105c0-8.284-6.716-15-15-15s-15 6.716-15 15v105c0 8.284-6.716 15-15 15s-15-6.716-15-15v-26.566c0-8.284-6.716-15-15-15s-15 6.716-15 15v101.566h36.5c0-16.568 13.431-30 30-30h68.5c37.5 0 50.147-15 45-45z" fill="#ebe1e8"/><path d="m489.5 7.5c-8.284 0-15 6.716-15 15v122c0 24.853-20.147 45-45 45h30c24.853 0 45-20.147 45-45v-122c0-8.284-6.716-15-15-15z" fill="#d9c8d4"/><circle cx="196" cy="324.5" fill="#524051" r="15"/><circle cx="316" cy="324.5" fill="#524051" r="15"/><circle cx="256" cy="414.5" fill="#ff4040" r="30"/><path d="m196 302c-12.407 0-22.5 10.094-22.5 22.5s10.093 22.5 22.5 22.5 22.5-10.094 22.5-22.5-10.093-22.5-22.5-22.5zm0 30c-4.136 0-7.5-3.364-7.5-7.5s3.364-7.5 7.5-7.5 7.5 3.364 7.5 7.5-3.364 7.5-7.5 7.5z"/><path d="m256 377c-20.678 0-37.5 16.822-37.5 37.5s16.822 37.5 37.5 37.5 37.5-16.822 37.5-37.5-16.822-37.5-37.5-37.5zm0 60c-12.407 0-22.5-10.094-22.5-22.5s10.093-22.5 22.5-22.5c12.406 0 22.5 10.094 22.5 22.5s-10.094 22.5-22.5 22.5z"/><path d="m316 302c-12.406 0-22.5 10.094-22.5 22.5s10.094 22.5 22.5 22.5 22.5-10.094 22.5-22.5-10.094-22.5-22.5-22.5zm0 30c-4.136 0-7.5-3.364-7.5-7.5s3.364-7.5 7.5-7.5 7.5 3.364 7.5 7.5-3.364 7.5-7.5 7.5z"/><path d="m489.5 0c-12.406 0-22.5 10.094-22.5 22.5v122c0 4.136-3.364 7.5-7.5 7.5s-7.5-3.364-7.5-7.5v-60c0-12.406-10.094-22.5-22.5-22.5s-22.5 10.094-22.5 22.5v60c0 4.136-3.364 7.5-7.5 7.5s-7.5-3.364-7.5-7.5v-105c0-12.406-10.094-22.5-22.5-22.5s-22.5 10.094-22.5 22.5v105c0 4.136-3.364 7.5-7.5 7.5s-7.5-3.364-7.5-7.5v-26.565c0-12.406-10.094-22.5-22.5-22.5s-22.5 10.094-22.5 22.5v95.356c-8.729 3.096-15 11.433-15 21.21 0 2.629.458 5.153 1.29 7.5h-34.58c.833-2.347 1.29-4.871 1.29-7.5 0-9.777-6.271-18.114-15-21.21v-95.355c0-12.406-10.093-22.5-22.5-22.5s-22.5 10.094-22.5 22.5v26.564c0 4.136-3.364 7.5-7.5 7.5s-7.5-3.364-7.5-7.5v-105c0-12.406-10.093-22.5-22.5-22.5s-22.5 10.094-22.5 22.5v105c0 4.136-3.364 7.5-7.5 7.5s-7.5-3.364-7.5-7.5v-60c0-12.406-10.093-22.5-22.5-22.5s-22.5 10.094-22.5 22.5v60c0 4.136-3.364 7.5-7.5 7.5s-7.5-3.364-7.5-7.5v-122c0-12.406-10.093-22.5-22.5-22.5s-22.5 10.094-22.5 22.5v122c0 28.948 23.551 52.5 52.5 52.5 4.142 0 7.5-3.357 7.5-7.5s-3.358-7.5-7.5-7.5c-20.678 0-37.5-16.822-37.5-37.5v-122c0-4.136 3.364-7.5 7.5-7.5s7.5 3.364 7.5 7.5v122c0 12.406 10.093 22.5 22.5 22.5s22.5-10.094 22.5-22.5v-60c0-4.136 3.364-7.5 7.5-7.5s7.5 3.364 7.5 7.5v60c0 12.406 10.093 22.5 22.5 22.5s22.5-10.094 22.5-22.5v-105c0-4.136 3.364-7.5 7.5-7.5s7.5 3.364 7.5 7.5v105c0 12.406 10.093 22.5 22.5 22.5s22.5-10.094 22.5-22.5v-26.565c0-4.136 3.364-7.5 7.5-7.5s7.5 3.364 7.5 7.5v94.065h-22.255c-3.484-17.096-18.635-30-36.745-30h-68.5c-4.142 0-7.5 3.357-7.5 7.5s3.358 7.5 7.5 7.5h68.5c10.362 0 19.105 7.042 21.707 16.591-8.313 3.309-14.207 11.431-14.207 20.909 0 4.627 1.405 8.931 3.809 12.511-7.516 4.341-13.396 11.206-16.462 19.436-6.621-5.872-15.322-9.447-24.847-9.447h-83.5c-4.142 0-7.5 3.357-7.5 7.5 0 37.22 30.28 67.5 67.5 67.5h46v21.251c0 15.592 5.452 30.812 15.351 42.855l29.649 36.08v12.314c0 37.22 30.28 67.5 67.5 67.5s67.5-30.28 67.5-67.5v-12.314l29.649-36.079c9.899-12.045 15.351-27.265 15.351-42.855v-21.252h46c37.22 0 67.5-30.28 67.5-67.5 0-4.143-3.357-7.5-7.5-7.5h-83.5c-9.525 0-18.226 3.575-24.847 9.447-3.066-8.23-8.946-15.095-16.462-19.436 2.404-3.58 3.809-7.884 3.809-12.511 0-9.478-5.894-17.6-14.207-20.909 2.603-9.549 11.346-16.591 21.707-16.591h98.5c28.948 0 52.5-23.552 52.5-52.5v-122c0-12.406-10.094-22.5-22.5-22.5zm-316 234.5c0-4.136 3.364-7.5 7.5-7.5h36.5c4.136 0 7.5 3.364 7.5 7.5s-3.364 7.5-7.5 7.5h-36.5c-4.136 0-7.5-3.364-7.5-7.5zm-30 60c-6.272-4.699-14.064-7.5-22.5-7.5h-23.5c-9.777 0-18.114-6.271-21.21-15h44.71c12.407 0 22.5 10.094 22.5 22.5zm-97.966-22.5h15.22c3.484 17.096 18.635 30 36.745 30h23.501c9.777 0 18.114 6.271 21.21 15h-44.71c-26.402 0-48.315-19.592-51.966-45zm262.966 172.5c0 28.948-23.552 52.5-52.5 52.5-28.949 0-52.5-23.552-52.5-52.5v-30c0-28.948 23.551-52.5 52.5-52.5 28.948 0 52.5 23.552 52.5 52.5zm106-127.5h-44.71c3.096-8.729 11.433-15 21.21-15h23.5c18.11 0 33.261-12.904 36.745-30h15.22c-3.65 25.408-25.563 45-51.965 45zm-23.5-45h44.71c-3.096 8.729-11.433 15-21.21 15h-23.5c-8.436 0-16.228 2.801-22.5 7.52 0-12.426 10.094-22.52 22.5-22.52zm-37.5 81.251c0 12.126-4.24 23.964-11.938 33.332l-18.314 22.286c-2.874-34.593-31.926-61.869-67.248-61.869s-64.374 27.276-67.247 61.868l-18.314-22.285c-7.699-9.368-11.939-21.205-11.939-33.332v-73.751c0-12.406 10.093-22.5 22.5-22.5h150c12.406 0 22.5 10.094 22.5 22.5zm-59-111.251c-4.136 0-7.5-3.364-7.5-7.5s3.364-7.5 7.5-7.5h36.5c4.136 0 7.5 3.364 7.5 7.5s-3.364 7.5-7.5 7.5zm202.5-97.5c0 20.678-16.822 37.5-37.5 37.5h-98.5c-18.11 0-33.261 12.904-36.745 30h-22.255v-94.065c0-4.136 3.364-7.5 7.5-7.5s7.5 3.364 7.5 7.5v26.565c0 12.406 10.094 22.5 22.5 22.5s22.5-10.094 22.5-22.5v-105c0-4.136 3.364-7.5 7.5-7.5s7.5 3.364 7.5 7.5v105c0 12.406 10.094 22.5 22.5 22.5s22.5-10.094 22.5-22.5v-60c0-4.136 3.364-7.5 7.5-7.5s7.5 3.364 7.5 7.5v60c0 12.406 10.094 22.5 22.5 22.5s22.5-10.094 22.5-22.5v-122c0-4.136 3.364-7.5 7.5-7.5s7.5 3.364 7.5 7.5z"/></g></svg>