<svg id="Capa_1" enable-background="new 0 0 512 512" height="512" viewBox="0 0 512 512" width="512" xmlns="http://www.w3.org/2000/svg"><g><path d="m325.648 196.005v119.667h104.071c30.955-8.331 58.549-28.99 74.781-59.672z" fill="#38ad63"/><path d="m429.719 196.327h-104.071v59.677l178.852-.004c-16.232-30.683-43.827-51.342-74.781-59.673z" fill="#49c470"/><path d="m238.867 165.686 103.635 59.834 52.036-90.128c8.262-30.973 4.169-65.2-14.287-94.598z" fill="#38ad63"/><path d="m291.181 75.719-52.035 90.128 51.682 29.839 89.422-154.893c-34.688-1.285-66.376 12.284-89.069 34.926z" fill="#49c470"/><path d="m169.219 225.681 103.635-59.834-52.036-90.128c-22.692-22.642-54.381-36.21-89.068-34.926z" fill="#38ad63"/><path d="m117.463 135.392 52.035 90.128 51.682-29.839-89.43-154.888c-18.456 29.398-22.55 63.625-14.287 94.599z" fill="#49c470"/><path d="m186.352 315.995v-119.667h-104.071c-30.955 8.331-58.549 28.99-74.781 59.672z" fill="#38ad63"/><path d="m82.281 315.673h104.071v-59.677l-178.852.004c16.232 30.683 43.827 51.342 74.781 59.673z" fill="#49c470"/><path d="m273.133 346.314-103.635-59.834-52.036 90.128c-8.262 30.973-4.169 65.2 14.287 94.598z" fill="#38ad63"/><path d="m220.819 436.281 52.035-90.128-51.682-29.839-89.422 154.893c34.688 1.285 66.376-12.284 89.069-34.926z" fill="#49c470"/><path d="m342.781 286.319-103.635 59.834 52.036 90.128c22.692 22.642 54.381 36.21 89.068 34.926z" fill="#38ad63"/><path d="m394.537 376.608-52.035-90.128-51.682 29.839 89.43 154.888c18.456-29.398 22.55-63.625 14.287-94.599z" fill="#49c470"/><path d="m271.08 20.33c-1.2-7.39-7.59-12.83-15.08-12.83s-13.88 5.44-15.08 12.83l-5.63 34.8h41.42z" fill="#e0343f"/><path d="m256 37.5c5.79 0 11.1 2.36 14.93 6.24 2.98 3.01 5.06 6.94 5.78 11.39l.83 5.1c34.04 31.45 43.3 83.46 19 125.56l-40.54 85.21-40.54-85.21c-24.3-42.1-15.04-94.11 19-125.56l.83-5.1c1.64-10.16 10.42-17.63 20.71-17.63z" fill="#ff4040"/><path d="m59.444 125.105c-7-2.656-14.906.158-18.651 6.645s-2.229 14.74 3.571 19.475l27.323 22.275 20.71-35.871z" fill="#e0343f"/><path d="m66.773 146.75c2.895-5.014 7.594-8.433 12.869-9.81 4.097-1.076 8.54-.912 12.754.689l4.832 1.831c44.257-13.755 93.928 4.231 118.238 46.326l53.524 77.714-94.064-7.496c-48.61-.006-89.022-34.03-99.238-79.234l-4.002-3.269c-7.978-6.501-10.058-17.84-4.913-26.751z" fill="#ff4040"/><path d="m44.364 360.775c-5.8 4.734-7.316 12.988-3.571 19.475s11.651 9.3 18.651 6.645l32.953-12.524-20.71-35.871z" fill="#e0343f"/><path d="m66.773 365.25c-2.895-5.014-3.506-10.793-2.061-16.05 1.117-4.086 3.48-7.852 6.974-10.701l4.002-3.269c10.216-45.204 50.628-79.229 99.238-79.234l94.064-7.496-53.524 77.714c-24.31 42.094-73.982 60.08-118.238 46.326l-4.832 1.831c-9.618 3.659-20.478-.21-25.623-9.121z" fill="#ff4040"/><path d="m240.92 491.67c1.2 7.39 7.59 12.83 15.08 12.83s13.88-5.44 15.08-12.83l5.63-34.8h-41.42z" fill="#e0343f"/><path d="m256 474.5c-5.79 0-11.1-2.36-14.93-6.24-2.98-3.01-5.06-6.94-5.78-11.39l-.83-5.1c-34.04-31.45-43.3-83.46-19-125.56l40.54-85.21 40.54 85.21c24.3 42.1 15.04 94.11-19 125.56l-.83 5.1c-1.64 10.16-10.42 17.63-20.71 17.63z" fill="#ff4040"/><path d="m452.556 386.895c7 2.656 14.906-.158 18.651-6.645s2.229-14.74-3.571-19.475l-27.322-22.275-20.71 35.871z" fill="#e0343f"/><path d="m445.227 365.25c-2.895 5.014-7.594 8.433-12.869 9.81-4.097 1.076-8.54.912-12.754-.689l-4.832-1.831c-44.257 13.755-93.928-4.231-118.238-46.326l-53.524-77.714 94.064 7.496c48.61.006 89.022 34.03 99.238 79.234l4.002 3.269c7.978 6.501 10.058 17.84 4.913 26.751z" fill="#ff4040"/><path d="m467.636 151.225c5.8-4.734 7.316-12.988 3.571-19.475s-11.651-9.3-18.651-6.645l-32.953 12.524 20.71 35.871z" fill="#e0343f"/><path d="m445.227 146.75c2.895 5.014 3.506 10.793 2.061 16.05-1.117 4.086-3.48 7.852-6.974 10.701l-4.002 3.269c-10.216 45.205-50.628 79.229-99.238 79.234l-94.064 7.496 53.524-77.714c24.31-42.094 73.982-60.08 118.238-46.326l4.832-1.831c9.618-3.659 20.478.21 25.623 9.121z" fill="#ff4040"/><path d="m294.971 278.5c15.91-3.184 30.633-11.027 42.106-22.5-11.473-11.473-26.196-19.316-42.106-22.5 5.198-15.37 5.767-32.043 1.567-47.715-15.672 4.199-29.826 13.029-40.538 25.215-10.712-12.186-24.866-21.016-40.539-25.215-4.199 15.672-3.63 32.345 1.568 47.715-15.91 3.184-30.633 11.027-42.106 22.5 11.473 11.473 26.196 19.316 42.106 22.5-5.198 15.37-5.767 32.043-1.567 47.715 15.672-4.199 29.826-13.029 40.538-25.215 10.712 12.186 24.866 21.016 40.539 25.215 4.199-15.672 3.63-32.345-1.568-47.715z" fill="#377d5b"/><path d="m256 225.892-26.074 15.054v30.108l26.074 15.054 26.074-15.054v-30.108z" fill="#49c470"/><circle cx="281.981" cy="271" fill="#ffc766" r="15"/><circle cx="256" cy="256" fill="#ffdc96" r="15"/><circle cx="281.981" cy="241" fill="#ffecc7" r="15"/><circle cx="256" cy="226" fill="#ffc766" r="15"/><circle cx="230.019" cy="241" fill="#ffecc7" r="15"/><circle cx="230.019" cy="271" fill="#ffc766" r="15"/><circle cx="256" cy="286" fill="#ffecc7" r="15"/><path d="m511.13 252.493c-15.155-28.647-40.883-50.489-71.395-60.934 1.265-3.467 2.374-6.993 3.278-10.581l29.359-23.942c8.705-7.098 10.946-19.31 5.33-29.036-5.615-9.726-17.311-13.893-27.812-9.902l-35.414 13.455c-3.559-1.011-7.168-1.813-10.803-2.452 6.211-31.647.16-64.849-17.072-92.297-1.319-2.102-3.594-3.415-6.074-3.507-32.384-1.202-64.165 10.16-88.468 31.363-2.37-2.828-4.869-5.552-7.524-8.128l-6.055-37.398c-1.794-11.087-11.25-19.134-22.48-19.134-11.231 0-20.687 8.047-22.48 19.135l-6.055 37.396c-2.655 2.577-5.155 5.301-7.525 8.13-24.302-21.203-56.079-32.572-88.467-31.363-2.48.092-4.755 1.405-6.074 3.508-17.231 27.446-23.283 60.649-17.073 92.296-3.634.638-7.243 1.44-10.802 2.451l-35.415-13.455c-10.497-3.989-22.194.176-27.811 9.902-5.616 9.726-3.375 21.938 5.329 29.036l29.36 23.942c.904 3.588 2.014 7.115 3.278 10.582-30.513 10.445-56.241 32.287-71.396 60.933-1.16 2.193-1.16 4.82 0 7.014 15.155 28.647 40.883 50.489 71.395 60.934-1.265 3.467-2.374 6.993-3.278 10.581l-29.36 23.942c-8.704 7.099-10.945 19.311-5.329 29.036 5.614 9.726 17.309 13.891 27.812 9.902l35.414-13.455c3.559 1.011 7.168 1.813 10.803 2.452-6.211 31.647-.16 64.849 17.072 92.297 1.319 2.102 3.594 3.415 6.074 3.507 1.556.058 3.107.086 4.66.086 30.76 0 60.674-11.264 83.809-31.447 2.369 2.828 4.868 5.551 7.522 8.127l6.055 37.398c1.796 11.086 11.252 19.133 22.482 19.133 11.231 0 20.687-8.047 22.48-19.135l6.055-37.396c2.655-2.577 5.154-5.3 7.523-8.128 23.136 20.184 53.047 31.448 83.81 31.447 1.55 0 3.105-.028 4.659-.086 2.48-.092 4.755-1.405 6.074-3.508 17.231-27.446 23.283-60.649 17.073-92.296 3.634-.638 7.243-1.44 10.802-2.451l35.415 13.455c10.5 3.992 22.195-.175 27.811-9.902 5.616-9.726 3.375-21.938-5.329-29.036l-29.36-23.942c-.904-3.588-2.014-7.115-3.278-10.582 30.513-10.445 56.241-32.287 71.396-60.933 1.159-2.194 1.159-4.82-.001-7.014zm-93.695-106.018 37.783-14.355c3.584-1.361 7.577.061 9.494 3.381s1.152 7.488-1.819 9.911l-31.324 25.545c-1.299 1.06-2.206 2.524-2.575 4.159-9.545 42.242-45.893 72.012-88.963 73.322-10.19-9.478-22.364-16.411-35.696-20.343 3.261-13.511 3.344-27.52.23-41.082 22.669-36.647 66.625-53.24 107.98-40.386 1.601.496 3.32.444 4.89-.152zm-168.935 109.525c0-4.136 3.364-7.5 7.5-7.5s7.5 3.364 7.5 7.5-3.364 7.5-7.5 7.5-7.5-3.364-7.5-7.5zm39.976-18.75c1.002 1.735 1.268 3.757.75 5.691-.519 1.935-1.76 3.552-3.494 4.554-1.734 1.001-3.755 1.269-5.691.75s-3.553-1.76-4.555-3.494c-2.067-3.582-.836-8.179 2.745-10.246 1.156-.667 2.438-1.008 3.738-1.008.651 0 1.308.085 1.953.258 1.934.518 3.552 1.76 4.554 3.495zm-24.976-11.25c0 4.136-3.364 7.5-7.5 7.5s-7.5-3.364-7.5-7.5 3.364-7.5 7.5-7.5 7.5 3.364 7.5 7.5zm-29.73 8.505c3.581 2.067 4.813 6.664 2.745 10.245-1.002 1.735-2.619 2.977-4.555 3.495-1.934.517-3.956.251-5.691-.75-1.734-1.002-2.976-2.619-3.494-4.554-.517-1.933-.252-3.952.748-5.688 1.007-1.741 2.623-2.981 4.556-3.499.646-.173 1.302-.258 1.953-.258 1.299.001 2.581.342 3.738 1.009zm-10.246 40.245c-1.002-1.735-1.268-3.757-.75-5.691.519-1.935 1.76-3.552 3.494-4.554 1.116-.643 2.35-.976 3.602-.999.038 0 .075.004.113.004.048 0 .097-.004.145-.005.611.01 1.226.088 1.831.25 1.936.519 3.553 1.76 4.555 3.494 2.067 3.582.836 8.179-2.745 10.246-1.735 1.002-3.757 1.269-5.691.75s-3.552-1.76-4.554-3.495zm24.976 11.25c0-4.136 3.364-7.5 7.5-7.5s7.5 3.364 7.5 7.5-3.364 7.5-7.5 7.5-7.5-3.364-7.5-7.5zm29.73-8.505c-3.581-2.067-4.813-6.664-2.745-10.245 1.002-1.735 2.619-2.977 4.555-3.495.606-.162 1.22-.24 1.831-.25.048 0 .097.005.145.005.038 0 .075-.004.113-.004 1.252.023 2.487.355 3.602.999 1.734 1.002 2.976 2.619 3.494 4.554.517 1.933.252 3.952-.748 5.688-1.007 1.741-2.623 2.981-4.556 3.499-1.933.516-3.955.25-5.691-.751zm12.708-82.012c1.294 8.224 1.195 16.583-.281 24.78-.925-.385-1.87-.733-2.854-.997-3.465-.928-7.018-1-10.43-.283-1.436-4.363-4.171-8.141-7.748-10.872 6.36-5.373 13.547-9.636 21.313-12.628zm-56.312 23.501c-3.412-.718-6.966-.646-10.43.283-.984.264-1.929.612-2.854.997-1.476-8.197-1.574-16.555-.281-24.78 7.767 2.992 14.954 7.254 21.313 12.628-3.577 2.731-6.312 6.508-7.748 10.872zm-26.904 24.87c.129.993.3 1.985.564 2.969.929 3.466 2.645 6.581 4.972 9.177-2.328 2.596-4.044 5.71-4.972 9.177-.264.984-.435 1.976-.564 2.969-7.836-2.82-15.124-6.914-21.6-12.146 6.477-5.232 13.764-9.326 21.6-12.146zm13.34 72.663c-1.294-8.224-1.195-16.583.281-24.78.925.385 1.87.733 2.854.997 1.938.52 3.904.776 5.859.776 1.54 0 3.071-.166 4.574-.482 1.437 4.359 4.17 8.132 7.744 10.861-6.359 5.373-13.546 9.636-21.312 12.628zm56.308-23.489c1.504.316 3.035.482 4.574.482 1.954 0 3.922-.257 5.859-.776.984-.264 1.929-.612 2.854-.997 1.476 8.197 1.574 16.555.281 24.78-7.767-2.992-14.954-7.254-21.313-12.628 3.575-2.73 6.308-6.503 7.745-10.861zm26.908-24.882c-.129-.993-.3-1.985-.564-2.969-.929-3.466-2.645-6.581-4.972-9.177 2.328-2.596 4.044-5.71 4.972-9.177.264-.984.435-1.976.564-2.969 7.836 2.82 15.124 6.914 21.6 12.146-6.477 5.232-13.764 9.326-21.6 12.146zm71.38-219.938h.311c14.054 24.193 18.504 52.002 12.738 79.302-14.64-.525-29.389 1.874-43.215 7.168-5.135 1.967-10.093 4.326-14.842 7.03l38.265-66.283c2.071-3.588.842-8.175-2.745-10.245-3.589-2.074-8.175-.842-10.245 2.745l-38.27 66.292c-.032-5.468-.468-10.946-1.333-16.381-2.327-14.62-7.624-28.593-15.399-41.009 20.684-18.576 46.871-28.619 74.735-28.619zm-136.105 17.533c1.231-1.138 2.046-2.655 2.313-4.311l6.46-39.899c.613-3.784 3.84-6.531 7.674-6.531s7.062 2.747 7.675 6.531l6.46 39.9c.268 1.655 1.082 3.173 2.314 4.311 31.809 29.385 39.416 75.748 19.017 113.704-13.303 4.084-25.395 11.162-35.466 20.742-10.071-9.581-22.163-16.657-35.466-20.741-20.4-37.956-12.792-84.318 19.019-113.706zm-103.522-17.533h.311c27.862 0 54.053 10.045 74.736 28.619-7.775 12.416-13.072 26.388-15.4 41.009-.865 5.431-1.301 10.904-1.333 16.367l-38.269-66.279c-2.072-3.588-6.659-4.815-10.245-2.745-3.587 2.071-4.816 6.658-2.745 10.245l38.275 66.289c-4.752-2.707-9.713-5.067-14.852-7.036-13.825-5.295-28.575-7.693-43.215-7.168-5.767-27.299-1.317-55.109 12.737-79.301zm-86.924 97.203c-2.972-2.423-3.736-6.591-1.819-9.911 1.918-3.321 5.912-4.741 9.493-3.381l37.784 14.355c1.568.597 3.287.648 4.891.151 41.352-12.854 85.309 3.739 107.979 40.384-3.115 13.563-3.031 27.572.231 41.084-13.332 3.933-25.506 10.865-35.696 20.343-43.071-1.312-79.418-31.081-88.963-73.322-.369-1.635-1.276-3.1-2.575-4.159zm-33.044 110.589c13.924-24.266 35.782-42.026 62.308-50.682 6.865 12.941 16.317 24.515 27.815 33.84 4.271 3.464 8.792 6.578 13.508 9.338l-76.534.004c-4.143 0-7.5 3.358-7.5 7.5 0 4.143 3.358 7.5 7.5 7.5l76.545-.003c-4.72 2.762-9.245 5.878-13.52 9.345-11.498 9.326-20.95 20.9-27.815 33.841-26.525-8.657-48.383-26.416-62.307-50.683zm78.502 109.525-37.783 14.355c-3.585 1.358-7.578-.061-9.494-3.381-1.917-3.32-1.152-7.488 1.819-9.911l31.324-25.545c1.299-1.06 2.206-2.524 2.575-4.159 9.545-42.242 45.893-72.012 88.963-73.322 10.19 9.478 22.364 16.411 35.696 20.343-3.261 13.511-3.344 27.52-.23 41.082-22.669 36.646-66.624 53.238-107.98 40.386-1.602-.497-3.321-.444-4.89.152zm41.777 98.267h-.311c-14.054-24.192-18.504-52.002-12.738-79.301 14.64.526 29.389-1.874 43.215-7.168 5.135-1.967 10.093-4.326 14.842-7.03l-38.265 66.283c-2.071 3.588-.842 8.175 2.745 10.245 1.182.683 2.471 1.006 3.743 1.006 2.592 0 5.113-1.346 6.502-3.751l38.27-66.292c.032 5.468.468 10.946 1.333 16.381 2.327 14.62 7.624 28.593 15.399 41.009-20.684 18.575-46.871 28.618-74.735 28.618zm136.105-17.533c-1.231 1.138-2.046 2.655-2.313 4.311l-6.46 39.899c-.613 3.784-3.84 6.531-7.674 6.531s-7.062-2.747-7.675-6.531l-6.46-39.9c-.268-1.655-1.082-3.173-2.314-4.311-31.809-29.385-39.416-75.748-19.017-113.704 13.303-4.084 25.395-11.162 35.466-20.742 10.071 9.581 22.163 16.657 35.466 20.741 20.4 37.956 12.792 84.318-19.019 113.706zm103.522 17.533h-.311c-27.862 0-54.053-10.045-74.736-28.619 7.775-12.416 13.072-26.388 15.4-41.009.865-5.431 1.301-10.904 1.333-16.367l38.269 66.279c1.39 2.406 3.91 3.751 6.502 3.751 1.272 0 2.563-.324 3.743-1.006 3.587-2.071 4.816-6.658 2.745-10.245l-38.275-66.289c4.752 2.707 9.713 5.067 14.852 7.036 13.826 5.295 28.575 7.693 43.215 7.168 5.767 27.299 1.317 55.109-12.737 79.301zm86.924-97.203c2.972 2.423 3.736 6.591 1.819 9.911-1.918 3.322-5.913 4.74-9.493 3.381l-37.784-14.355c-1.569-.597-3.288-.649-4.891-.151-41.349 12.855-85.309-3.738-107.979-40.384 3.115-13.563 3.031-27.572-.231-41.084 13.332-3.933 25.506-10.865 35.696-20.343 43.07 1.31 79.418 31.08 88.963 73.322.369 1.635 1.276 3.1 2.575 4.159zm-29.264-59.907c-6.865-12.941-16.317-24.515-27.815-33.84-4.271-3.464-8.792-6.578-13.508-9.338l76.533-.003c4.143 0 7.5-3.358 7.5-7.5 0-4.143-3.358-7.5-7.5-7.5l-76.545.003c4.72-2.762 9.245-5.878 13.519-9.345 11.498-9.326 20.95-20.9 27.815-33.841 26.526 8.656 48.383 26.416 62.308 50.683-13.922 24.265-35.781 42.025-62.307 50.681z"/></g></svg>