<svg id="Capa_1" enable-background="new 0 0 512.001 512.001" height="512" viewBox="0 0 512.001 512.001" width="512" xmlns="http://www.w3.org/2000/svg"><g><path d="m444.5 405.501-83.136-15v61h36.177c9.977 0 19.302-4.96 24.878-13.234z" fill="#d9c8d4"/><path d="m67.5 405.501 22.081 32.766c5.576 8.274 14.901 13.234 24.878 13.234h246.905c9.977 0 19.302-4.96 24.878-13.234l22.081-32.766v-15h-340.823z" fill="#ebe1e8"/><path d="m489.5 375.501h-30v30h30c8.284 0 15-6.716 15-15s-6.715-15-15-15z" fill="#ebe1e8"/><path d="m474.5 390.501c0-8.284-6.716-15-15-15h-437c-8.284 0-15 6.716-15 15s6.716 15 15 15h437c8.285 0 15-6.716 15-15z" fill="#f7f4f6"/><path d="m380.25 60.501h-30l64.25 278.5h30c33.137 0 60-26.863 60-60v-94.25c0-68.622-55.628-124.25-124.25-124.25z" fill="#ff6f4f"/><path d="m474.5 279.001v-94.25c0-68.621-55.628-124.25-124.25-124.25h-98.5l64.25 278.5h98.5c33.138 0 60-26.863 60-60z" fill="#ff8e59"/><path d="m251.751 60.501c-68.622 0-124.25 55.629-124.25 124.25v94.25c0 33.137 26.863 60 60 60h128.499c33.137 0 60-26.863 60-60v-94.25c0-68.622-55.628-124.25-124.249-124.25z" fill="#ffecc7"/><path d="m251.75 90.501 64.25 145.5h30v-51.25c0-51.97-42.28-94.25-94.25-94.25z" fill="#ffc1b0"/><path d="m251.75 90.501c-51.97 0-94.25 42.28-94.25 94.25v51.25h158.5v-51.25c0-51.97-28.82-94.25-64.25-94.25z" fill="#ffdac7"/><path d="m316 213.46-30 95.54h30c16.54 0 30-13.46 30-30v-43c-9.109-9.109-19.23-16.629-30-22.54z" fill="#ffa294"/><path d="m316 213.461v65.54c0 16.54-13.46 30-30 30h-98.5c-16.54 0-30-13.46-30-30v-43c42.86-42.86 107.87-50.37 158.5-22.54z" fill="#ffc1b0"/><path d="m161.75 60.501h-30l64.25 278.5h30c33.137 0 60-26.863 60-60v-94.25c0-68.622-55.628-124.25-124.25-124.25z" fill="#ff6f4f"/><path d="m131.751 60.501c-68.622 0-124.251 55.628-124.251 124.249v94.25c0 33.137 26.863 60 60 60h128.5c33.137 0 60-26.863 60-60v-94.25c0-68.621-55.628-124.249-124.249-124.249z" fill="#ffecc7"/><path d="m131.75 90.501 64.25 145.5h30v-51.25c0-51.97-42.28-94.25-94.25-94.25z" fill="#ffc1b0"/><path d="m131.75 90.501c35.43 0 64.25 42.28 64.25 94.25v51.25h-158.5v-51.25z" fill="#ffdac7"/><path d="m131.75 90.501c0 51.97-42.28 94.25-94.25 94.25 0-51.97 42.28-94.25 94.25-94.25z" fill="#ffa294"/><path d="m196 213.46-30 95.54h30c16.54 0 30-13.46 30-30v-43c-9.109-9.109-19.23-16.629-30-22.54z" fill="#ffa294"/><path d="m196 213.461v65.54c0 16.54-13.46 30-30 30h-98.5c-16.54 0-30-13.46-30-30v-43c42.86-42.86 107.87-50.37 158.5-22.54z" fill="#ffc1b0"/><path d="m511.975 389.424c-.564-12.014-10.623-21.424-22.898-21.424h-466.576c-6.121 0-12.055 2.541-16.281 6.971-4.286 4.492-6.486 10.391-6.193 16.608.566 12.012 10.625 21.421 22.898 21.421h40.585l19.852 29.457c6.981 10.358 18.606 16.543 31.098 16.543h283.082c12.491 0 24.116-6.185 31.098-16.543l19.852-29.457h41.01c6.121 0 12.056-2.541 16.282-6.971 4.285-4.492 6.484-10.391 6.191-16.605zm-17.046 6.251c-1.431 1.5-3.358 2.325-5.429 2.325h-44.887c-.07-.002-.143-.002-.213 0h-340.723c-4.143 0-7.5 3.357-7.5 7.5s3.357 7.5 7.5 7.5h326.725l-14.202 21.075c-4.188 6.215-11.163 9.926-18.658 9.926h-283.083c-7.495 0-14.47-3.711-18.658-9.926l-22.081-32.766c-1.395-2.068-3.726-3.309-6.22-3.309h-44.576c-4.179 0-7.73-3.197-7.915-7.127-.099-2.08.635-4.051 2.063-5.549 1.43-1.499 3.357-2.324 5.428-2.324h466.576c4.18 0 7.729 3.197 7.915 7.129.098 2.08-.634 4.049-2.062 5.546z"/><path d="m67.501 316.501h128.5c20.678 0 37.5-16.822 37.5-37.5v-94.25c0-56.105-45.645-101.75-101.75-101.75s-101.75 45.645-101.75 101.75v94.25c0 20.677 16.822 37.5 37.5 37.5zm128.5-15h-128.5c-12.406 0-22.5-10.094-22.5-22.5v-39.838c48.464-46.189 125.036-46.189 173.5 0v39.838c0 12.406-10.094 22.5-22.5 22.5zm22.5-116.75v34.61c-50.76-39.768-122.74-39.768-173.5 0v-27.387c50.039-3.663 90.145-43.672 93.954-93.671 44.475 3.673 79.546 41.04 79.546 86.448zm-94.61-86.391c-3.752 41.574-36.956 74.778-78.53 78.53 3.751-41.574 36.955-74.778 78.53-78.53z"/><path d="m67.501 346.501h377c37.22 0 67.5-30.28 67.5-67.5v-94.25c0-72.647-59.103-131.75-131.75-131.75h-128.5c-15.481 0-30.615 2.66-45.031 7.907-14.039-5.114-29.184-7.907-44.969-7.907h-30c-72.647 0-131.75 59.103-131.75 131.75v94.25c0 37.219 30.28 67.5 67.5 67.5zm312.75-278.5c64.376 0 116.75 52.374 116.75 116.75v94.25c0 28.948-23.552 52.5-52.5 52.5h-86.139c15.319-12.384 25.139-31.313 25.139-52.5v-94.25c0-50.65-28.734-94.708-70.752-116.75zm-128.5 0c64.376 0 116.75 52.374 116.75 116.75v94.25c0 28.948-23.552 52.5-52.5 52.5h-47.639c5.293-4.279 9.932-9.334 13.733-15h33.906c20.678 0 37.5-16.822 37.5-37.5v-94.25c0-56.105-45.645-101.75-101.75-101.75-2.046 0-4.099.084-6.144.207-5.692-4.709-11.784-8.949-18.218-12.661 7.959-1.692 16.104-2.546 24.362-2.546zm86.75 151.384c-13.436-10.51-28.693-18.511-45-23.556v-11.079c0-32.942-12.153-63.099-32.211-86.223 43.362 4.765 77.211 41.613 77.211 86.223zm-45 59.616v-67.378c16.728 5.87 32.095 15.264 45 27.556v39.821c0 12.406-10.094 22.5-22.5 22.5h-26.37c2.497-7.042 3.87-14.612 3.87-22.499zm-15-94.25v94.25c0 23.76-15.871 43.873-37.564 50.323 13.838-12.37 22.564-30.345 22.564-50.323v-94.25c0-43.954-21.64-82.943-54.82-106.89 41.072 18.103 69.82 59.199 69.82 106.89zm-263.5 0c0-64.376 52.374-116.75 116.75-116.75s116.75 52.374 116.75 116.75v94.25c0 28.948-23.552 52.5-52.5 52.5h-128.5c-28.948 0-52.5-23.552-52.5-52.5z"/></g></svg>