<svg id="Capa_1" enable-background="new 0 0 512.001 512.001" height="512" viewBox="0 0 512.001 512.001" width="512" xmlns="http://www.w3.org/2000/svg"><g><path d="m385.901 209.985c-9.75-31.35-38.77-52.71-71.61-52.71h-30v111.06h119.77z" fill="#ebe1e8"/><path d="m355.901 209.985c-9.75-31.35-38.77-52.71-71.61-52.71h-86.58c-32.84 0-61.86 21.36-71.61 52.71l-18.16 58.35v98.94h259.57v-120z" fill="#f7f4f6"/><path d="m226 247.275c-8.28 0-15 6.72-15 15h30c0-8.28-6.719-15-15-15z" fill="#ffecc7"/><path d="m286 247.275c-8.28 0-15 6.72-15 15h30c0-8.28-6.719-15-15-15z" fill="#ffecc7"/><path d="m404.07 268.365 40.43 129.91h-30l-68.495-75.5 21.505-75.5h7.92c13.12 0 24.72 8.53 28.64 21.09z" fill="#7e4158"/><path d="m367.51 247.275 46.99 151h-347l40.43-129.91c3.92-12.56 15.52-21.09 28.64-21.09h29.43c8.28 0 15 6.72 15 15v47.51c0 8.29 6.72 15 15 15s15-6.71 15-15v-47.51c0-8.28 6.72-15 15-15s15 6.72 15 15v76c0 8.28 6.72 15 15 15s15-6.72 15-15v-76c0-8.28 6.72-15 15-15s15 6.72 15 15v47.51c0 8.29 6.72 15 15 15s15-6.71 15-15v-47.51c0-8.28 6.72-15 15-15z" fill="#b53a4c"/><circle cx="233.5" cy="134.775" fill="#ff4040" r="22.5"/><circle cx="278.5" cy="134.775" fill="#e0343f" r="22.5"/><circle cx="256" cy="95.804" fill="#ff4040" r="22.5"/><path d="m444.5 458.275-83.136-15v61h36.177c9.977 0 19.302-4.96 24.878-13.234z" fill="#d9c8d4"/><path d="m67.5 458.275 22.081 32.766c5.576 8.274 14.901 13.234 24.878 13.234h246.905c9.977 0 19.302-4.96 24.878-13.234l22.081-32.766v-15h-340.823z" fill="#ebe1e8"/><path d="m489.5 428.275h-30v30h30c8.284 0 15-6.716 15-15s-6.715-15-15-15z" fill="#ebe1e8"/><path d="m474.5 443.275c0-8.284-6.716-15-15-15h-437c-8.284 0-15 6.716-15 15s6.716 15 15 15h437c8.285 0 15-6.715 15-15z" fill="#f7f4f6"/><path d="m267.25 115.285c47.624-28.866 65.42-63.327 65.42-63.327l73.41-20.823c-15.07 20.06-17.52 45.64-8.71 67.28-24.88-3.22-48.35 7.25-62.84 25.58-18.68-14.03-47.3-20.82-67.28-8.71z" fill="#33965d"/><path d="m406.08 31.135-138.83 84.15c19.98-12.11 27.2-40.62 23.4-63.68 22.95-4.36 43.09-20.33 51.75-43.88 15.11 17.82 38.92 27.48 63.68 23.41z" fill="#38ad63"/><path d="m244.75 115.285c-47.624-28.866-65.42-63.327-65.42-63.327l-73.41-20.823c15.07 20.06 17.52 45.64 8.71 67.28 24.88-3.22 48.35 7.25 62.84 25.58 18.68-14.03 47.3-20.82 67.28-8.71z" fill="#33965d"/><path d="m105.92 31.135 138.83 84.15c-19.98-12.11-27.2-40.62-23.4-63.68-22.95-4.36-43.09-20.33-51.75-43.88-15.11 17.82-38.92 27.48-63.68 23.41z" fill="#38ad63"/><path d="m67.501 405.773h377c2.384 0 4.626-1.134 6.04-3.054s1.83-4.398 1.121-6.675l-58.595-188.286c-10.793-34.683-42.45-57.985-78.773-57.985h-9.828c2.561-4.416 4.036-9.538 4.036-15 0-6.303-1.958-12.156-5.293-16.99 9.791 2.103 19.316 6.572 26.824 12.208 1.348 1.012 2.929 1.502 4.498 1.502 2.217 0 4.411-.979 5.889-2.85 13.487-17.064 34.42-25.584 55.99-22.795 2.643.341 5.275-.747 6.904-2.86 1.628-2.114 2.011-4.934 1.005-7.405-8.202-20.146-5.302-42.558 7.758-59.952 1.839-2.449 2.004-5.771.416-8.391-1.588-2.621-4.609-4.013-7.632-3.513-21.462 3.534-42.674-4.262-56.743-20.852-1.726-2.036-4.402-2.998-7.03-2.534-2.627.466-4.809 2.293-5.729 4.798-7.503 20.417-24.739 35.033-46.106 39.098-3.998.761-6.66 4.571-5.999 8.587 1.454 8.833 1.116 18.801-1.229 28.077-5.181-9.013-14.901-15.101-26.022-15.101s-20.841 6.088-26.022 15.101c-2.345-9.277-2.683-19.245-1.229-28.077.661-4.016-2.001-7.826-5.999-8.587-21.367-4.064-38.603-18.681-46.106-39.098-.92-2.505-3.102-4.332-5.729-4.798-2.628-.464-5.305.499-7.03 2.534-14.068 16.59-35.282 24.384-56.743 20.852-3.021-.5-6.044.892-7.632 3.513-1.588 2.619-1.423 5.941.416 8.391 13.06 17.395 15.96 39.807 7.758 59.952-1.006 2.472-.624 5.291 1.005 7.405 1.628 2.113 4.255 3.207 6.904 2.86 21.567-2.787 42.502 5.73 55.99 22.795 1.478 1.87 3.671 2.85 5.889 2.85 1.569 0 3.15-.49 4.498-1.502 7.507-5.637 17.033-10.106 26.823-12.208-3.334 4.834-5.293 10.686-5.293 16.989 0 5.462 1.475 10.584 4.036 15h-9.828c-36.323 0-67.98 23.303-78.773 57.985l-58.599 188.288c-.708 2.276-.292 4.755 1.121 6.675s3.656 3.053 6.041 3.053zm196-271c0-8.271 6.729-15 15-15s15 6.729 15 15-6.729 15-15 15-15-6.728-15-15zm69.74-20.734c-8.821-5.475-19.393-9.742-30.346-11.59l84.914-51.476c-3.761 12.714-4.128 26.236-.919 39.363-20.362.373-39.533 8.798-53.649 23.703zm11.466-93.284c10.155 8.917 22.314 14.846 35.326 17.392l-84.923 51.481c3.429-10.568 4.543-21.916 3.769-32.271 19.744-5.621 36.081-18.722 45.828-36.602zm-88.706 60.047c8.271 0 15 6.729 15 15 0 5.073-2.538 9.558-6.404 12.274-.259.174-.522.342-.787.509-2.278 1.397-4.946 2.217-7.808 2.217s-5.53-.82-7.808-2.217c-.265-.167-.528-.335-.787-.509-3.866-2.716-6.404-7.201-6.404-12.274-.002-8.272 6.727-15 14.998-15zm-88.708-60.047c9.747 17.881 26.084 30.981 45.828 36.603-.774 10.355.34 21.703 3.769 32.271l-84.924-51.482c13.013-2.548 25.174-8.477 35.327-17.392zm11.468 93.284c-14.118-14.906-33.286-23.332-53.649-23.702 3.208-13.127 2.841-26.649-.919-39.363l84.899 51.467c-10.953 1.844-21.513 6.125-30.331 11.598zm39.74 20.734c0-8.271 6.729-15 15-15s15 6.729 15 15-6.729 15-15 15-15-6.728-15-15zm-20.793 30h116.585c29.719 0 55.62 19.065 64.451 47.442l9.244 29.703c-3.947-1.392-8.178-2.145-12.562-2.145h-29.425c-12.407 0-22.5 10.094-22.5 22.5v47.514c0 4.136-3.364 7.5-7.5 7.5s-7.5-3.364-7.5-7.5v-47.514c0-12.406-10.093-22.5-22.5-22.5s-22.5 10.094-22.5 22.5v76c0 4.136-3.364 7.5-7.5 7.5s-7.5-3.364-7.5-7.5v-76c0-12.406-10.093-22.5-22.5-22.5s-22.5 10.094-22.5 22.5v47.514c0 4.136-3.364 7.5-7.5 7.5s-7.5-3.364-7.5-7.5v-47.514c0-12.406-10.093-22.5-22.5-22.5h-29.425c-4.384 0-8.615.753-12.562 2.146l9.244-29.703c8.83-28.377 34.731-47.443 64.45-47.443zm-82.614 105.806c2.946-9.453 11.578-15.805 21.481-15.805h29.425c4.136 0 7.5 3.364 7.5 7.5v47.514c0 12.406 10.093 22.5 22.5 22.5s22.5-10.094 22.5-22.5v-47.514c0-4.136 3.364-7.5 7.5-7.5s7.5 3.364 7.5 7.5v76c0 12.406 10.093 22.5 22.5 22.5s22.5-10.094 22.5-22.5v-76c0-4.136 3.364-7.5 7.5-7.5s7.5 3.364 7.5 7.5v47.514c0 12.406 10.093 22.5 22.5 22.5s22.5-10.094 22.5-22.5v-47.514c0-4.136 3.364-7.5 7.5-7.5h29.425c9.904 0 18.535 6.352 21.481 15.805l37.405 120.195h-356.622z"/><path d="m511.975 442.195c-.565-12.013-10.624-21.422-22.898-21.422h-466.576c-6.121 0-12.056 2.541-16.282 6.971-4.286 4.493-6.486 10.391-6.193 16.606.565 12.013 10.624 21.423 22.898 21.423h40.586l19.852 29.457c6.981 10.358 18.606 16.543 31.097 16.543h283.082c12.491 0 24.116-6.185 31.097-16.543l19.852-29.457h41.01c6.121 0 12.055-2.54 16.281-6.97 4.287-4.493 6.487-10.391 6.194-16.608zm-17.047 6.254c-1.43 1.499-3.357 2.324-5.428 2.324h-44.887c-.071-.002-.142-.002-.213 0h-340.723c-4.142 0-7.5 3.357-7.5 7.5s3.358 7.5 7.5 7.5h326.725l-14.202 21.074c-4.189 6.215-11.164 9.926-18.659 9.926h-283.081c-7.495 0-14.47-3.711-18.658-9.926l-22.082-32.765c-1.394-2.068-3.726-3.309-6.22-3.309h-44.576c-4.179 0-7.73-3.197-7.915-7.128-.098-2.08.635-4.051 2.063-5.548 1.43-1.499 3.358-2.324 5.428-2.324h466.577c4.179 0 7.729 3.197 7.915 7.127.097 2.081-.635 4.052-2.064 5.549z"/></g></svg>