<svg id="Capa_1" enable-background="new 0 0 512.001 512.001" height="512" viewBox="0 0 512.001 512.001" width="512" xmlns="http://www.w3.org/2000/svg"><g><path d="m384 82.5 89.8 135.5 29.77-30c-7.38-59.469-58.1-105.5-119.57-105.5z" fill="#524051"/><path d="m384 82.5c-66.55 0-256 0-256 0v210.5h286l59.8-105c-5.54-59.469-43.63-105.5-89.8-105.5z" fill="#7e4158"/><path d="m504.5 203c0-5.08-.31-10.09-.93-15h-29.77l-89.8 135.5c50.64 0 93.99-31.24 111.81-75.5l-16.227-15 23.987-15c.62-4.91.93-9.919.93-15z" fill="#7e4158"/><path d="m473.8 188h-44.8c-24.85 0-45 20.15-45 45s-20.15 45-45 45h-211v45.5h256c38.03 0 70.59-31.24 83.97-75.5l5.83-30c.46-4.91.7-9.92.7-15s-.24-10.09-.7-15z" fill="#b53a4c"/><path d="m353.5 112.5c20.71 0 37.5 16.79 37.5 37.5s-16.79 37.5-37.5 37.5h-225.5v-75z" fill="#b53a4c"/><circle cx="128" cy="203" fill="#e0343f" r="120.5"/><path d="m473.8 218h29.77c-1.3 10.48-3.94 20.54-7.76 30h-27.84l-12.056-15.147z" fill="#524051"/><path d="m429 218h44.8c-.97 10.48-2.96 20.54-5.83 30h-38.97c-8.28 0-15-6.72-15-15s6.72-15 15-15z" fill="#7e4158"/><circle cx="128" cy="203" fill="#ffdc96" r="90.5"/><circle cx="128" cy="203" fill="#e0343f" r="60.5"/><circle cx="128" cy="203" fill="#ffdc96" r="30.5"/><path d="m444.5 383.5-83.136-15v61h36.177c9.977 0 19.302-4.96 24.878-13.234z" fill="#d9c8d4"/><path d="m67.5 383.5 22.081 32.766c5.576 8.274 14.901 13.234 24.878 13.234h246.905c9.977 0 19.302-4.96 24.878-13.234l22.081-32.766v-15h-340.823z" fill="#ebe1e8"/><path d="m489.5 353.5h-30v30h30c8.284 0 15-6.716 15-15s-6.715-15-15-15z" fill="#ebe1e8"/><path d="m474.5 368.5c0-8.284-6.716-15-15-15h-437c-8.284 0-15 6.716-15 15s6.716 15 15 15h437c8.285 0 15-6.715 15-15z" fill="#f7f4f6"/><path d="m128.001 331h256c70.58 0 128-57.421 128-128s-57.42-128-128-128h-256c-70.58 0-128 57.421-128 128s57.42 128 128 128zm256-15h-195.931c14.436-7.705 27.229-18.095 37.712-30.5h113.219c28.949 0 52.5-23.552 52.5-52.5 0-20.678 16.822-37.5 37.5-37.5h67.745c.163 2.48.255 4.979.255 7.5s-.092 5.02-.255 7.5h-67.745c-12.407 0-22.5 10.094-22.5 22.5s10.093 22.5 22.5 22.5h55.038c-18.938 35.939-56.671 60.5-100.038 60.5zm110.747-90.5c-1.042 5.135-2.438 10.142-4.152 15h-61.596c-4.136 0-7.5-3.364-7.5-7.5s3.364-7.5 7.5-7.5zm-110.747-135.5c54.606 0 100.287 38.934 110.747 90.5h-65.747c-28.949 0-52.5 23.552-52.5 52.5 0 20.678-16.822 37.5-37.5 37.5h-102.294c12.22-19.609 19.293-42.742 19.293-67.5 0-2.688-.093-5.353-.257-8h97.757c24.813 0 45-20.187 45-45s-20.187-45-45-45h-143.258c-6.823-5.735-14.25-10.772-22.172-15zm-158.642 30h128.142c16.542 0 30 13.458 30 30s-13.458 30-30 30h-99.574c-4.122-22.621-14.211-43.183-28.568-60zm-97.358-30c62.309 0 113 50.691 113 113s-50.691 113-113 113-113-50.691-113-113 50.691-113 113-113z"/><path d="m128.001 301c54.038 0 98-43.963 98-98s-43.962-98-98-98-98 43.963-98 98 43.962 98 98 98zm0-181c45.767 0 83 37.233 83 83s-37.233 83-83 83-83-37.233-83-83 37.233-83 83-83z"/><path d="m128.001 271c37.495 0 68-30.505 68-68s-30.505-68-68-68-68 30.505-68 68 30.504 68 68 68zm0-121c29.224 0 53 23.775 53 53s-23.776 53-53 53-53-23.775-53-53 23.775-53 53-53z"/><path d="m128.001 241c20.953 0 38-17.047 38-38s-17.047-38-38-38-38 17.047-38 38 17.046 38 38 38zm0-61c12.682 0 23 10.317 23 23s-10.318 23-23 23-23-10.317-23-23 10.317-23 23-23z"/><path d="m511.975 367.423c-.565-12.012-10.623-21.423-22.898-21.423h-466.576c-6.121 0-12.055 2.541-16.281 6.971-4.287 4.493-6.486 10.392-6.193 16.607.564 12.013 10.623 21.422 22.897 21.422h40.586l19.851 29.457c6.982 10.359 18.607 16.543 31.099 16.543h283.082c12.492 0 24.117-6.185 31.097-16.543l19.851-29.457h41.01c6.121 0 12.055-2.54 16.281-6.97 4.287-4.492 6.487-10.391 6.194-16.607zm-17.047 6.253c-1.43 1.499-3.357 2.324-5.428 2.324h-44.887c-.071-.002-.142-.002-.213 0h-340.723c-4.142 0-7.5 3.357-7.5 7.5s3.358 7.5 7.5 7.5h326.725l-14.202 21.075c-4.188 6.215-11.164 9.926-18.658 9.926h-283.082c-7.495 0-14.47-3.711-18.658-9.926l-22.082-32.766c-1.394-2.068-3.726-3.309-6.22-3.309h-44.576c-4.179 0-7.73-3.197-7.915-7.127-.098-2.081.635-4.052 2.063-5.549 1.43-1.499 3.358-2.324 5.428-2.324h466.577c4.179 0 7.729 3.197 7.915 7.128.097 2.08-.635 4.051-2.064 5.548z"/></g></svg>