<svg id="Capa_1" enable-background="new 0 0 512.001 512.001" height="512" viewBox="0 0 512.001 512.001" width="512" xmlns="http://www.w3.org/2000/svg"><g><path d="m420.991 218.001-14 75 44-45v-30z" fill="#ebe1e8"/><path d="m420.99 218.001h-359.99v30l15.001 30h345z" fill="#f7f4f6"/><path d="m450.99 248.001.002 45-29.999 30 30.002 30 .005 45h-30l-208.999-75 208.989-75z" fill="#ffdc96"/><path d="m420.99 248.001.01 150h-360v-45l30-32.937-30-27.063v-45z" fill="#ffecc7"/><path d="m105.001 293.001h-29v60h29c16.569 0 30-13.431 30-30s-13.432-30-30-30z" fill="#ffc766"/><path d="m76.001 293.001h-15v60h15c16.569 0 29-13.431 29-30s-12.432-30-29-30z" fill="#ffdc96"/><path d="m264.501 308.001 22.5 45h30c16.568 0 30-13.431 30-30z" fill="#ffa857"/><path d="m242.001 353.001h45c16.568 0 30-13.431 30-30l-52.5-15-52.5 15c0 16.568 13.431 30 30 30z" fill="#ffc766"/><path d="m317.001 293.001h-30l30 30h30c0-16.569-13.432-30-30-30z" fill="#ffc766"/><path d="m287.001 293.001h-45c-16.569 0-30 13.431-30 30h105c0-16.569-13.432-30-30-30z" fill="#ffdc96"/><path d="m421.001 293.001-29 30 29 30h30v-60z" fill="#ffc766"/><path d="m407.001 293.001c-16.568 0-30 13.431-30 30s13.432 30 30 30h14v-60z" fill="#ffdc96"/><path d="m444.501 458.001-83.136-15v61h36.177c9.977 0 19.302-4.96 24.878-13.234z" fill="#d9c8d4"/><path d="m67.501 458.001 22.081 32.766c5.576 8.274 14.901 13.234 24.878 13.234h246.905c9.977 0 19.302-4.96 24.878-13.234l22.081-32.766v-15h-340.823z" fill="#ebe1e8"/><path d="m489.5 428.001h-30v30h30c8.284 0 15-6.716 15-15s-6.715-15-15-15z" fill="#ebe1e8"/><path d="m474.501 443.001c0-8.284-6.716-15-15-15h-437c-8.284 0-15 6.716-15 15s6.716 15 15 15h437c8.284 0 15-6.716 15-15z" fill="#f7f4f6"/><path d="m420.994 8.001-30 60 60-30v-30z" fill="#ebe1e8"/><path d="m420.993 8.001h-359.996v30l30.001 30h329.995z" fill="#f7f4f6"/><path d="m450.993 38.001.011 150h-30l-111.507-75 111.496-75z" fill="#ffdc96"/><path d="m420.993 38.001.011 150h-360.007v-45l15-30-15-30v-45z" fill="#ffecc7"/><path d="m83.498 98.001 22.5 45h30c16.568 0 30-13.431 30-30z" fill="#ffa857"/><path d="m60.998 143.001h45c16.568 0 30-13.431 30-30l-37.5-15-37.5 15z" fill="#ffc766"/><path d="m135.998 83.001h-30l30 30h30c0-16.569-13.432-30-30-30z" fill="#ffc766"/><path d="m105.998 83.001h-45v30h75c0-16.569-13.432-30-30-30z" fill="#ffdc96"/><path d="m300.998 83.001h-30v60h30c16.569 0 30-13.431 30-30s-13.432-30-30-30z" fill="#ffc766"/><path d="m300.998 113.001c0-16.569-13.431-30-30-30h-45c-16.569 0-30 13.431-30 30s13.431 30 30 30h45c16.568 0 30-13.432 30-30z" fill="#ffdc96"/><circle cx="405.998" cy="128.001" fill="#ffa857" r="15"/><path d="m458.492 218.004c0-4.143-3.358-7.5-7.5-7.5l-389.84-.004c-1.043 0-2.091.163-3.049.574-2.882 1.236-4.602 3.992-4.602 6.926v180c0 4.142 3.358 7.5 7.5 7.5h382.499c8.285 0 15-6.716 15-15.001zm-14.994 127.497h-36.498c-12.406 0-22.5-10.094-22.5-22.5s10.094-22.5 22.5-22.5h36.495zm-374.997-120 374.991.004.001 14.996h-374.992zm0 75h36.5c12.407 0 22.5 10.094 22.5 22.5s-10.093 22.5-22.5 22.5h-36.5zm0 90v-30h36.5c20.678 0 37.5-16.822 37.5-37.5s-16.822-37.5-37.5-37.5h-36.5v-30h374.993l.002 30h-36.494c-20.678 0-37.5 16.822-37.5 37.5s16.822 37.5 37.5 37.5h36.498l.002 30z"/><path d="m317.001 285.501h-75c-20.678 0-37.5 16.822-37.5 37.5s16.822 37.5 37.5 37.5h75c20.678 0 37.5-16.822 37.5-37.5s-16.823-37.5-37.5-37.5zm-75 15h75c9.777 0 18.114 6.271 21.21 15h-117.42c3.096-8.73 11.432-15 21.21-15zm75 45h-75c-9.777 0-18.114-6.271-21.21-15h117.42c-3.097 8.729-11.433 15-21.21 15z"/><path d="m511.975 441.924c-.564-12.014-10.623-21.424-22.898-21.424h-466.576c-6.121 0-12.055 2.541-16.281 6.971-4.287 4.493-6.486 10.392-6.193 16.607.565 12.013 10.624 21.422 22.898 21.422h40.586l19.851 29.457c6.981 10.358 18.606 16.543 31.098 16.543h283.082c12.491 0 24.116-6.185 31.098-16.543l19.852-29.457h41.01c6.121 0 12.056-2.541 16.282-6.971 4.285-4.492 6.484-10.391 6.191-16.605zm-17.046 6.251c-1.431 1.5-3.358 2.325-5.429 2.325h-385.823c-4.142 0-7.5 3.357-7.5 7.5s3.358 7.5 7.5 7.5h326.725l-14.202 21.075c-4.188 6.215-11.163 9.926-18.658 9.926h-283.082c-7.495 0-14.47-3.711-18.658-9.926l-22.082-32.766c-1.394-2.068-3.726-3.309-6.22-3.309h-44.576c-4.179 0-7.73-3.197-7.915-7.127-.098-2.081.635-4.052 2.063-5.549 1.43-1.499 3.358-2.324 5.428-2.324h466.576c4.18 0 7.729 3.197 7.915 7.129.098 2.08-.634 4.049-2.062 5.546z"/><path d="m60.998 195.501h390.006c1.989 0 3.896-.79 5.304-2.197 1.406-1.406 2.196-3.313 2.196-5.303l-.009-179.997c0-4.143-3.358-7.5-7.5-7.5l-389.997-.003c-1.989 0-3.897.79-5.303 2.196-1.407 1.407-2.197 3.314-2.197 5.304v180c0 4.142 3.357 7.5 7.5 7.5zm7.5-90v-15h67.5c9.777 0 18.114 6.271 21.21 15zm88.709 15c-3.096 8.729-11.432 15-21.21 15h-67.5v-15zm-88.709 60v-30h67.5c20.678 0 37.5-16.822 37.5-37.5s-16.822-37.5-37.5-37.5h-67.5v-30h374.999l.007 135zm374.997-164.997.001 14.996h-374.998v-15z"/><path d="m300.998 75.501h-75c-20.678 0-37.5 16.822-37.5 37.5s16.822 37.5 37.5 37.5h75c20.678 0 37.5-16.822 37.5-37.5s-16.823-37.5-37.5-37.5zm0 60h-75c-12.407 0-22.5-10.094-22.5-22.5s10.093-22.5 22.5-22.5h75c12.406 0 22.5 10.094 22.5 22.5s-10.094 22.5-22.5 22.5z"/><path d="m405.998 105.501c-12.406 0-22.5 10.094-22.5 22.5s10.094 22.5 22.5 22.5 22.5-10.094 22.5-22.5-10.094-22.5-22.5-22.5zm0 30c-4.136 0-7.5-3.364-7.5-7.5s3.364-7.5 7.5-7.5 7.5 3.364 7.5 7.5-3.365 7.5-7.5 7.5z"/></g></svg>