<svg id="Capa_1" enable-background="new 0 0 512 512" height="512" viewBox="0 0 512 512" width="512" xmlns="http://www.w3.org/2000/svg"><g><path d="m504.5 256c0-12.927-4.094-24.893-11.052-34.685-4.973-6.998-6.74-15.71-4.816-24.077 2.698-11.726 1.907-24.371-3.049-36.335-4.906-11.844-13.17-21.273-23.23-27.655-7.426-4.711-12.468-12.256-13.978-20.92-2.046-11.736-7.595-22.98-16.66-32.044s-20.308-14.614-32.044-16.66c-8.663-1.51-16.209-6.552-20.92-13.978-6.382-10.06-15.811-18.324-27.655-23.23-9.019-3.736-18.425-5.102-27.532-4.394v467.957c9.108.708 18.513-.658 27.532-4.394 11.844-4.906 21.273-13.169 27.655-23.229 4.711-7.426 12.256-12.468 20.92-13.978 11.736-2.046 22.979-7.596 32.044-16.66 9.065-9.065 14.614-20.308 16.66-32.044 1.51-8.664 6.552-16.209 13.978-20.92 10.06-6.381 18.324-15.811 23.229-27.655 4.956-11.964 5.746-24.609 3.049-36.335-1.925-8.367-.157-17.078 4.815-24.077 6.96-9.794 11.054-21.76 11.054-34.687z" fill="#ebe1e8"/><path d="m363.933 462.354c4.142-7.426 10.777-12.468 18.394-13.978 10.32-2.046 20.205-7.596 28.176-16.66 7.97-9.065 12.85-20.308 14.649-32.044 1.328-8.664 5.761-16.209 12.291-20.92 8.846-6.381 16.112-15.811 20.425-27.655 4.357-11.964 5.053-24.609 2.681-36.335-1.693-8.367-.138-17.078 4.234-24.077 6.118-9.792 9.717-21.757 9.717-34.685 0-12.927-3.6-24.893-9.717-34.685-4.373-6.998-5.927-15.71-4.234-24.077 2.372-11.726 1.677-24.371-2.681-36.335-4.313-11.844-11.58-21.273-20.425-27.655-6.529-4.711-10.963-12.256-12.291-20.92-1.799-11.736-6.678-22.98-14.649-32.044s-17.856-14.614-28.176-16.66c-7.617-1.51-14.252-6.552-18.394-13.978-5.611-10.06-13.902-18.324-24.316-23.23-5.26-2.478-10.669-3.914-16.052-4.394-2.974.231-5.917.682-8.803 1.346-8.367 1.925-17.078.157-24.077-4.816-9.792-6.958-21.758-11.052-34.685-11.052s-24.893 4.094-34.685 11.052c-6.999 4.973-15.71 6.741-24.077 4.816-11.726-2.698-24.371-1.907-36.335 3.049-11.844 4.906-21.273 13.169-27.655 23.23-4.711 7.426-12.256 12.468-20.92 13.978-11.736 2.046-22.98 7.595-32.044 16.66-9.065 9.065-14.614 20.308-16.66 32.044-1.51 8.664-6.552 16.209-13.978 20.92-10.06 6.382-18.324 15.811-23.229 27.655-4.956 11.964-5.747 24.609-3.049 36.335 1.925 8.367.157 17.078-4.816 24.077-6.958 9.791-11.052 21.757-11.052 34.684s4.094 24.893 11.052 34.685c4.973 6.999 6.74 15.71 4.816 24.077-2.698 11.726-1.907 24.371 3.049 36.335 4.906 11.844 13.17 21.273 23.23 27.655 7.426 4.711 12.468 12.256 13.978 20.92 2.046 11.736 7.595 22.98 16.66 32.044s20.308 14.614 32.044 16.66c8.663 1.51 16.209 6.552 20.92 13.978 6.382 10.06 15.811 18.324 27.655 23.229 11.964 4.956 24.609 5.747 36.335 3.049 8.367-1.925 17.078-.157 24.077 4.815 9.791 6.958 21.757 11.052 34.685 11.052s24.893-4.094 34.685-11.052c6.999-4.973 15.71-6.74 24.077-4.815 2.886.664 5.829 1.114 8.803 1.345 5.383-.48 10.792-1.917 16.052-4.394 10.413-4.905 18.704-13.168 24.315-23.229z" fill="#f7f4f6"/><circle cx="256" cy="256" fill="#ffc1b0" r="105"/><path d="m256 181v150c41.421 0 75-33.579 75-75s-33.579-75-75-75z" fill="#e0343f"/><path d="m301 256c0-41.421-20.147-75-45-75-41.421 0-75 33.579-75 75s33.579 75 75 75c24.853 0 45-33.579 45-75z" fill="#ff4040"/><path d="m512 256c0-14.083-4.301-27.579-12.438-39.028-3.731-5.252-5.052-11.832-3.621-18.052 3.156-13.715 1.971-27.854-3.429-40.887-5.341-12.897-14.381-23.657-26.141-31.118-5.602-3.554-9.468-9.34-10.607-15.875-2.392-13.72-8.874-26.188-18.745-36.059-9.871-9.872-22.34-16.354-36.06-18.746-6.535-1.14-12.321-5.006-15.875-10.607-7.461-11.76-18.221-20.8-31.118-26.141-13.032-5.399-27.171-6.584-40.887-3.43-6.219 1.434-12.8.111-18.051-3.619-11.449-8.137-24.945-12.438-39.028-12.438s-27.579 4.301-39.029 12.438c-5.251 3.73-11.832 5.049-18.051 3.62-13.714-3.158-27.853-1.971-40.887 3.429-12.898 5.343-23.658 14.382-31.118 26.141-3.554 5.602-9.34 9.468-15.875 10.607-13.72 2.392-26.188 8.874-36.059 18.745-9.872 9.871-16.354 22.34-18.746 36.06-1.14 6.535-5.006 12.321-10.607 15.875-11.759 7.46-20.798 18.22-26.141 31.118-5.398 13.031-6.584 27.17-3.43 40.887 1.432 6.221.112 12.8-3.619 18.051-8.137 11.45-12.438 24.946-12.438 39.029s4.301 27.579 12.438 39.029c3.731 5.251 5.051 11.83 3.619 18.051-3.154 13.717-1.969 27.855 3.43 40.887 5.343 12.898 14.382 23.658 26.141 31.118 5.602 3.554 9.468 9.34 10.607 15.875 2.392 13.718 8.874 26.188 18.745 36.059 9.871 9.872 22.34 16.354 36.06 18.746 6.535 1.14 12.322 5.006 15.875 10.607 7.46 11.759 18.22 20.798 31.118 26.141 13.035 5.399 27.174 6.584 40.888 3.429 6.218-1.429 12.799-.111 18.05 3.62 11.452 8.137 24.947 12.438 39.029 12.438 14.083 0 27.579-4.301 39.028-12.438 5.251-3.731 11.83-5.054 18.052-3.62 13.717 3.153 27.855 1.97 40.887-3.43 12.898-5.343 23.658-14.382 31.118-26.141 3.554-5.602 9.34-9.468 15.875-10.607 13.718-2.392 26.188-8.874 36.059-18.745 9.872-9.871 16.354-22.34 18.746-36.06 1.14-6.535 5.006-12.322 10.607-15.875 11.76-7.459 20.799-18.22 26.141-31.118 5.399-13.033 6.585-27.172 3.43-40.887-1.432-6.221-.112-12.8 3.619-18.051 8.137-11.449 12.438-24.945 12.438-39.028zm-24.665 30.341c-6.211 8.739-8.401 19.711-6.011 30.103 2.452 10.658 1.529 21.648-2.67 31.783-4.153 10.03-11.18 18.396-20.317 24.192-9.162 5.811-15.485 15.274-17.35 25.965-1.858 10.661-6.898 20.353-14.575 28.028-7.677 7.677-17.368 12.717-28.028 14.575-10.688 1.864-20.152 8.188-25.965 17.35-5.797 9.137-14.162 16.163-24.192 20.318-10.134 4.197-21.125 5.121-31.783 2.669-10.391-2.395-21.362-.2-30.104 6.011-8.898 6.323-19.389 9.665-30.34 9.665-10.95 0-21.441-3.342-30.341-9.665-6.422-4.563-14.048-6.957-21.765-6.957-2.784 0-5.581.312-8.337.946-10.659 2.452-21.647 1.529-31.784-2.669-10.03-4.155-18.396-11.182-24.192-20.318-5.811-9.162-15.274-15.485-25.965-17.35-10.661-1.858-20.353-6.898-28.028-14.575-7.677-7.677-12.717-17.368-14.575-28.028-1.864-10.688-8.188-20.152-17.35-25.965-9.137-5.797-16.163-14.162-20.318-24.192-4.197-10.134-5.12-21.124-2.669-31.783 2.391-10.392.2-21.363-6.011-30.104-6.323-8.898-9.665-19.389-9.665-30.34s3.342-21.442 9.665-30.341c6.211-8.739 8.401-19.711 6.012-30.103-2.452-10.659-1.529-21.649 2.668-31.783 4.155-10.03 11.182-18.396 20.318-24.192 9.162-5.813 15.485-15.276 17.35-25.965 1.858-10.661 6.898-20.353 14.575-28.029 7.676-7.676 17.367-12.716 28.028-14.574 10.688-1.864 20.152-8.188 25.965-17.35 5.797-9.137 14.162-16.163 24.192-20.318 10.136-4.199 21.125-5.121 31.783-2.669 10.393 2.392 21.363.199 30.104-6.011 8.898-6.323 19.389-9.665 30.34-9.665s21.442 3.342 30.341 9.665c8.739 6.21 19.708 8.403 30.103 6.011 10.659-2.451 21.649-1.527 31.783 2.67 10.029 4.153 18.395 11.179 24.192 20.317 5.813 9.162 15.276 15.485 25.965 17.35 10.661 1.858 20.353 6.898 28.029 14.575 7.676 7.676 12.716 17.367 14.574 28.028 1.864 10.688 8.188 20.152 17.35 25.965 9.139 5.798 16.164 14.163 20.318 24.192 4.198 10.135 5.121 21.125 2.669 31.783-2.391 10.391-.2 21.362 6.011 30.104 6.323 8.898 9.665 19.389 9.665 30.34s-3.342 21.442-9.665 30.341z"/><path d="m256 338.5c45.49 0 82.5-37.01 82.5-82.5s-37.01-82.5-82.5-82.5-82.5 37.01-82.5 82.5 37.01 82.5 82.5 82.5zm0-150c37.22 0 67.5 30.28 67.5 67.5s-30.28 67.5-67.5 67.5-67.5-30.28-67.5-67.5 30.28-67.5 67.5-67.5z"/><circle cx="256" cy="67.5" r="7.5"/><path d="m175.254 61.062c3.827-1.585 5.644-5.972 4.059-9.799s-5.972-5.644-9.799-4.059-5.644 5.972-4.059 9.799c1.585 3.826 5.972 5.643 9.799 4.059z"/><path d="m106.801 106.801c2.929-2.929 2.929-7.678 0-10.607s-7.678-2.929-10.607 0-2.929 7.678 0 10.607 7.678 2.928 10.607 0z"/><circle cx="37.5" cy="256" r="7.5"/><path d="m51.262 332.687c-3.827 1.585-5.644 5.972-4.059 9.799s5.972 5.644 9.799 4.059 5.644-5.972 4.059-9.799-5.972-5.644-9.799-4.059z"/><path d="m96.194 405.2c-2.929 2.929-2.929 7.677 0 10.606s7.678 2.929 10.607 0 2.929-7.678 0-10.606c-2.929-2.929-7.678-2.929-10.607 0z"/><path d="m175.254 450.938c-3.827-1.585-8.214.232-9.799 4.059s.232 8.214 4.059 9.799 8.214-.232 9.799-4.059c1.585-3.826-.232-8.213-4.059-9.799z"/><circle cx="256" cy="474.5" r="7.5"/><path d="m405.2 405.199c-2.929 2.929-2.929 7.678 0 10.607s7.678 2.929 10.607 0 2.929-7.678 0-10.607c-2.93-2.928-7.678-2.928-10.607 0z"/><circle cx="474.5" cy="256" r="7.5"/><path d="m454.998 165.454c-3.827 1.585-5.644 5.972-4.059 9.799s5.972 5.644 9.799 4.059 5.644-5.972 4.059-9.799c-1.585-3.826-5.973-5.644-9.799-4.059z"/><path d="m394.593 128.014c2.929-2.929 2.929-7.678 0-10.607s-7.678-2.929-10.607 0-2.929 7.678 0 10.607 7.678 2.929 10.607 0z"/><path d="m427.281 176.935c-3.827 1.585-5.644 5.972-4.059 9.799s5.972 5.644 9.799 4.059 5.644-5.972 4.059-9.799-5.972-5.644-9.799-4.059z"/><path d="m325.266 423.222c-3.827 1.585-5.644 5.972-4.059 9.799s5.972 5.644 9.799 4.059 5.644-5.972 4.059-9.799-5.972-5.644-9.799-4.059z"/><circle cx="122.711" cy="389.29" r="7.5"/><circle cx="67.5" cy="256" r="7.5"/><path d="m84.719 176.935c-3.827-1.585-8.214.232-9.799 4.059s.232 8.214 4.059 9.799 8.214-.232 9.799-4.059-.232-8.214-4.059-9.799z"/><path d="m128.014 128.014c2.929-2.929 2.929-7.678 0-10.607s-7.678-2.929-10.607 0-2.929 7.678 0 10.607 7.678 2.929 10.607 0z"/><circle cx="97.5" cy="286" r="7.5"/><circle cx="286" cy="97.5" r="7.5"/><circle cx="226" cy="97.5" r="7.5"/><path d="m170.498 127.975c3.827-1.585 5.644-5.972 4.059-9.799s-5.972-5.644-9.799-4.059-5.644 5.972-4.059 9.799 5.973 5.644 9.799 4.059z"/><path d="m95.215 229.99c3.827 1.585 8.214-.232 9.799-4.059s-.232-8.214-4.059-9.799-8.214.232-9.799 4.059c-1.586 3.827.232 8.214 4.059 9.799z"/><path d="m123.916 351.301c3.827-1.585 5.644-5.972 4.059-9.799s-5.972-5.644-9.799-4.059-5.644 5.972-4.059 9.799 5.972 5.644 9.799 4.059z"/><circle cx="165.137" cy="389.29" r="7.5"/><path d="m225.931 406.986c-3.827-1.585-8.214.232-9.799 4.059s.232 8.214 4.059 9.799 8.214-.232 9.799-4.059c1.585-3.826-.232-8.213-4.059-9.799z"/><circle cx="286" cy="414.5" r="7.5"/><path d="m341.502 384.025c-3.827 1.585-5.644 5.972-4.059 9.799s5.972 5.644 9.799 4.059 5.644-5.972 4.059-9.799-5.972-5.644-9.799-4.059z"/><path d="m416.786 282.01c-3.827-1.585-8.214.232-9.799 4.059s.232 8.214 4.059 9.799 8.214-.232 9.799-4.059-.232-8.214-4.059-9.799z"/><path d="m388.084 160.699c-3.827 1.585-5.644 5.972-4.059 9.799s5.972 5.644 9.799 4.059 5.644-5.972 4.059-9.799-5.972-5.644-9.799-4.059z"/><path d="m352.167 128.014c2.929-2.929 2.929-7.678 0-10.607s-7.678-2.929-10.607 0-2.929 7.678 0 10.607 7.678 2.929 10.607 0z"/><path d="m256 143.5c-24.512 0-47.811 7.746-67.378 22.401-3.315 2.483-3.99 7.184-1.507 10.499 2.484 3.315 7.184 3.991 10.499 1.507 16.952-12.696 37.142-19.407 58.386-19.407 53.762 0 97.5 43.738 97.5 97.5s-43.738 97.5-97.5 97.5-97.5-43.738-97.5-97.5c0-21.243 6.711-41.433 19.408-58.386 2.483-3.315 1.809-8.016-1.507-10.499s-8.017-1.808-10.499 1.507c-14.655 19.568-22.402 42.867-22.402 67.378 0 62.033 50.467 112.5 112.5 112.5s112.5-50.467 112.5-112.5-50.467-112.5-112.5-112.5z"/></g></svg>