<svg id="Capa_1" enable-background="new 0 0 511.976 511.976" height="512" viewBox="0 0 511.976 511.976" width="512" xmlns="http://www.w3.org/2000/svg"><g><path d="m179.88 385.131-106.179 106.179c17.572 17.572 46.068 17.572 63.64 0l74.359-74.36z" fill="#ebe1e8"/><path d="m164.267 421.957-48.14 48.14c-17.572 17.572-36.572 27.068-42.426 21.213-17.579-17.579-17.572-46.068 0-63.64l10.72-10.72z" fill="#f7f4f6"/><path d="m269.951 358.699-58.251 58.251c-18.844 18.844-43.975 27.584-68.646 26.22l20.831-84.471z" fill="#e0343f"/><path d="m227.525 358.699-84.471 84.471c-21.333-1.181-42.327-9.914-58.633-26.22l58.251-58.251z" fill="#ff4040"/><path d="m328.203 300.447-58.251 58.251c-18.844 18.844-43.975 27.584-68.646 26.22l20.831-84.471z" fill="#ebe1e8"/><path d="m285.776 300.447-84.471 84.471c-21.333-1.181-42.327-9.914-58.633-26.22l58.251-58.251z" fill="#f7f4f6"/><path d="m386.454 242.196-58.251 58.251c-18.844 18.844-43.975 27.584-68.646 26.22l20.831-84.471z" fill="#e0343f"/><path d="m344.028 242.196-84.471 84.471c-21.333-1.181-42.327-9.914-58.633-26.22l58.251-58.251z" fill="#ff4040"/><path d="m416.372 212.278-29.925 29.925c-18.844 18.844-43.975 27.584-68.646 26.22l60.705-124.345 51.675 51.675c-4.03 5.813-8.633 11.349-13.809 16.525z" fill="#ebe1e8"/><path d="m410.326 175.898-92.525 92.525c-21.34-1.174-42.327-9.914-58.633-26.22l58.251-58.251z" fill="#f7f4f6"/><path d="m450.073 109.21c-.028 0-31.848-31.82-31.848-31.82l-42.179 132.788c18.781 1.032 37.809-3.769 54.136-14.425 17.798-25.675 24.43-56.802 19.891-86.543z" fill="#e0343f"/><path d="m395.159 191.065-19.113 19.113c-21.326-1.188-42.327-9.928-58.626-26.227l35.313-35.313c3.861-3.861 6.449-8.514 7.75-13.449.014 0 74.069-12.608 74.069-12.608-5.587 23.759-18.923 48.013-39.393 68.484z" fill="#ff4040"/><path d="m450.044 109.21c-4.653 5.049-9.857 9.532-15.493 13.371l-18.18-80.009c18.753 18.753 29.996 42.229 33.673 66.638z" fill="#ebe1e8"/><path d="m416.372 42.573c19.742 19.742 25.364 49.462 18.18 80.009-20.916 14.269-47.68 19.679-74.055 12.608 2.666-10.006.078-21.135-7.764-28.977l22.246-90.623c15.096 5.833 29.238 14.827 41.393 26.983z" fill="#f7f4f6"/><path d="m374.978 15.589c9.694 30.95 2.277 66.1-22.246 90.623-7.835-7.835-18.965-10.423-28.977-7.75l-67.38-64.594c33.969-27.337 79.486-33.425 118.603-18.279z" fill="#ff4040"/><path d="m323.755 98.448c-4.936 1.315-9.588 3.903-13.449 7.764l-10.607 10.607c-17.572 17.572-46.061 17.579-63.64 0-17.572-17.572-17.572-46.068 0-63.64l10.607-10.607c3.111-3.111 6.35-6.01 9.709-8.704 31.657 7.078 58.407 31.07 67.38 64.58z" fill="#f7f4f6"/><path d="m421.674 37.287c-24.046-24.045-56.063-37.287-90.157-37.287-34.093 0-66.11 13.242-90.156 37.287l-10.606 10.606c-20.47 20.47-20.47 53.777 0 74.247 20.471 20.468 53.776 20.47 74.247 0l10.606-10.606c4.24-4.241 9.891-6.577 15.909-6.577 6.02 0 11.67 2.336 15.91 6.577 8.773 8.772 8.773 23.047.001 31.818l-151.812 151.812c-1.406 1.407-2.196 3.314-2.196 5.304s.79 3.896 2.196 5.304c18.416 18.415 42.9 28.557 68.943 28.557 7.338 0 14.552-.805 21.541-2.373l-21.577 21.576c-15.567 15.506-36.233 24.046-58.213 24.046-19.517 0-37.992-6.743-52.789-19.109l31.488-31.484c2.93-2.929 2.93-7.678.001-10.606s-7.678-2.93-10.606-.001l-106.012 106c-9.916 9.916-15.378 23.1-15.378 37.122-.001 14.024 5.46 27.208 15.376 37.125 10.236 10.235 23.679 15.354 37.124 15.352 13.442-.001 26.889-5.118 37.122-15.351l279.038-279.024c24.045-24.046 37.287-56.063 37.287-90.157s-13.242-66.112-37.287-90.158zm-289.643 448.731c-14.623 14.621-38.412 14.62-53.033-.001-7.083-7.082-10.983-16.5-10.983-26.517s3.901-19.434 10.983-26.516l5.619-5.618c17.659 15.179 39.915 23.46 63.445 23.46 7.336 0 14.548-.805 21.535-2.373zm74.215-74.213c-30.388 30.239-78.646 31.865-110.972 4.904l47.594-47.589c17.658 15.177 39.913 23.457 63.441 23.457 7.337 0 14.55-.805 21.539-2.373zm235.815-305.12c-19.272 19.216-46.516 27.624-73.115 22.734.415-7.944-1.678-15.992-6.276-22.85 18.736-21.509 26.972-49.863 22.949-77.795 9.234 5.069 17.801 11.471 25.449 19.12 16.246 16.247 26.894 36.625 30.993 58.791zm-137.061-5.758-10.606 10.606c-7.082 7.083-16.499 10.983-26.517 10.983-10.017 0-19.434-3.9-26.516-10.983-14.622-14.621-14.622-38.411 0-53.032l10.606-10.606c2.026-2.026 4.117-3.964 6.267-5.814 26.289 7.071 47.199 26.447 56.274 51.938-3.467 1.766-6.677 4.078-9.508 6.908zm26.517-10.97c-.837 0-1.667.037-2.494.091-9.256-26.99-29.695-48.306-55.901-58.791 17.407-10.592 37.455-16.257 58.395-16.257 12.903 0 25.466 2.155 37.283 6.282 7.027 26.307.701 54.112-16.841 74.72-6.026-3.93-13.067-6.045-20.442-6.045zm49.62 146.966c-15.58 15.578-36.295 24.156-58.328 24.156-19.517 0-37.992-6.743-52.787-19.106l47.613-47.612c15.123 12.944 33.972 21.049 53.842 23 3.17.312 6.342.466 9.511.466 7.317 0 14.595-.833 21.688-2.441zm-58.671 58.668c-15.532 15.313-36.072 23.737-57.907 23.737-19.518 0-38-6.731-52.797-19.097l47.608-47.608c17.657 15.177 39.911 23.455 63.438 23.455 7.339 0 14.554-.806 21.545-2.375zm102.436-105.375c-30.191 18.978-69.481 16.081-96.629-6.493l29.763-29.762c2.994-2.994 5.364-6.377 7.132-9.982 6.239 1.22 12.511 1.822 18.74 1.822 21.677 0 42.805-7.25 60.024-20.764.017.802.029 1.604.029 2.408 0 22.717-6.664 44.386-19.059 62.771z"/></g></svg>