<svg id="Capa_1" enable-background="new 0 0 512 512" height="512" viewBox="0 0 512 512" width="512" xmlns="http://www.w3.org/2000/svg"><g><path d="m135 189.5v315c70.416 0 127.5-70.515 127.5-157.5s-57.084-157.5-127.5-157.5z" fill="#77d489"/><path d="m232.5 347c0-86.985-43.652-157.5-97.5-157.5-70.416 0-127.5 70.515-127.5 157.5s57.084 157.5 127.5 157.5c53.848 0 97.5-70.515 97.5-157.5z" fill="#bbd890"/><ellipse cx="377" cy="165" fill="#bbd890" rx="127.5" ry="157.5"/><path d="m443.839 72.507c-8.784-10.851-18.831-19.355-29.654-25.263l-37.185 245.256c24.827 0 48.564-12.433 66.839-35.007 19.772-24.424 30.661-57.272 30.661-92.493s-10.889-68.068-30.661-92.493z" fill="#ffdc96"/><path d="m423.273 257.493c13.688-24.424 21.227-57.272 21.227-92.493s-5.473-68.068-15.411-92.493c-4.415-10.851-9.465-19.355-14.905-25.263-9.993-5.455-22.184 1.793-22.184 13.178v29.154c0 8.077-6.207 15.027-14.275 15.406-8.614.406-15.725-6.458-15.725-14.982v-29.578c0-11.385-12.191-18.633-22.184-13.178-10.823 5.907-20.87 14.412-29.654 25.263-19.773 24.425-30.662 57.272-30.662 92.493s10.889 68.069 30.661 92.493c18.275 22.574 42.012 35.007 66.839 35.007 17.188 0 33.622-12.433 46.273-35.007z" fill="#ffecc7"/><path d="m338.686 152.971c-3.639 2.744-6.016 7.095-6.016 12.012 0 8.284 6.716 15 15 15s15-6.716 15-15l.055-30z" fill="#7e4158"/><path d="m416.764 152.971c3.639 2.744 6.016 7.095 6.016 12.012 0 8.284-6.716 15-15 15s-15-6.716-15-15l-.055-30z" fill="#7e4158"/><path d="m135 182c-36.364 0-70.452 17.37-95.985 48.912-25.16 31.078-39.015 72.306-39.015 116.088s13.855 85.01 39.015 116.089c25.533 31.541 59.621 48.911 95.985 48.911s70.452-17.37 95.985-48.911c25.16-31.079 39.015-72.307 39.015-116.089s-13.855-85.01-39.015-116.088c-25.533-31.542-59.621-48.912-95.985-48.912zm0 315c-66.168 0-120-67.29-120-150s53.832-150 120-150 120 67.29 120 150-53.832 150-120 150z"/><path d="m472.985 48.911c-25.533-31.541-59.621-48.911-95.985-48.911s-70.452 17.37-95.985 48.911c-25.16 31.079-39.015 72.307-39.015 116.089s13.855 85.01 39.015 116.088c25.533 31.542 59.621 48.912 95.985 48.912s70.452-17.37 95.985-48.912c25.16-31.078 39.015-72.306 39.015-116.088s-13.855-85.01-39.015-116.089zm-95.985 266.089c-66.168 0-120-67.29-120-150s53.832-150 120-150 120 67.29 120 150-53.832 150-120 150z"/><path d="m370.17 164.996.055-30c.005-2.842-1.596-5.442-4.136-6.717s-5.582-1.004-7.857.698l-24.039 17.988c-5.742 4.327-9.023 10.889-9.023 18.017 0 12.406 10.093 22.5 22.5 22.5s22.5-10.093 22.5-22.486zm-30-.014c0-2.373 1.102-4.565 3.023-6.017l12.004-8.983-.027 15c0 4.136-3.364 7.5-7.5 7.5s-7.5-3.364-7.5-7.5z"/><path d="m407.78 187.482c12.407 0 22.5-10.094 22.5-22.5 0-7.128-3.281-13.689-9.002-18.001-.021-.016-24.059-18.004-24.059-18.004-2.275-1.702-5.317-1.974-7.857-.698-2.54 1.274-4.142 3.875-4.136 6.717l.055 29.986c-.001 12.407 10.092 22.5 22.499 22.5zm4.474-28.518c1.923 1.451 3.025 3.645 3.025 6.019 0 4.136-3.364 7.5-7.5 7.5s-7.5-3.364-7.5-7.514l-.027-14.986z"/><path d="m449.668 67.788c-9.355-11.557-20.084-20.684-31.891-27.127-7.036-3.84-15.356-3.689-22.253.402-6.902 4.097-11.024 11.334-11.024 19.359v29.154c0 4.179-3.197 7.729-7.128 7.915-2.084.084-4.05-.636-5.547-2.063-1.499-1.43-2.325-3.357-2.325-5.428v-29.578c0-8.024-4.122-15.262-11.025-19.358-6.897-4.094-15.216-4.243-22.253-.402-11.806 6.443-22.536 15.57-31.891 27.127-17.89 22.1-28.827 50.297-31.627 81.542-.37 4.126 2.675 7.771 6.801 8.14 4.121.375 7.77-2.675 8.14-6.8 2.533-28.27 12.335-53.666 28.346-73.444 8.116-10.025 17.34-17.897 27.418-23.398 3.377-1.843 6.309-.519 7.412.137 1.106.656 3.68 2.6 3.68 6.458v29.576c0 6.121 2.541 12.056 6.971 16.282 4.493 4.286 10.396 6.473 16.606 6.192 12.013-.566 21.422-10.624 21.422-22.898v-29.154c0-3.858 2.573-5.802 3.68-6.458 1.104-.655 4.035-1.978 7.412-.137 10.078 5.501 19.302 13.373 27.418 23.398 18.694 23.095 28.99 54.267 28.99 87.775 0 33.509-10.295 64.681-28.99 87.774-16.823 20.782-38.49 32.226-61.01 32.226s-44.187-11.444-61.01-32.226c-16.01-19.777-25.812-45.173-28.345-73.444-.37-4.126-4.025-7.17-8.14-6.8-4.125.369-7.17 4.014-6.801 8.14 2.801 31.246 13.737 59.443 31.627 81.542 19.727 24.368 45.535 37.788 72.669 37.788s52.942-13.42 72.668-37.788c20.85-25.755 32.332-60.278 32.332-97.212 0-36.933-11.482-71.456-32.332-97.212z"/></g></svg>