<svg id="Capa_1" enable-background="new 0 0 512 512" height="512" viewBox="0 0 512 512" width="512" xmlns="http://www.w3.org/2000/svg"><g><path d="m330.16 433.12v71.38h30c10.17 0 18.71-7.62 19.87-17.72l6.15-53.66z" fill="#ffc1b0"/><path d="m125.82 433.12 6.15 53.66c1.16 10.1 9.7 17.72 19.87 17.72h178.32c10.17 0 18.71-7.62 19.87-17.72l6.079-53.66z" fill="#ffdac7"/><path d="m391 82.5-135 232.68 97.13 144.32h3.27c15.18 0 27.96-11.34 29.78-26.38.01-.07.02-.13.03-.2l13.1-114.32c1.95-17.05 9.6-32.95 21.69-45.13v-190.97z" fill="#ffdac7"/><path d="m91 82.5v190.97c6.04 6.09 10.98 13.11 14.65 20.74s6.07 15.87 7.04 24.39l13.1 114.32c.01.07.02.13.03.2 1.82 15.04 14.6 26.38 29.78 26.38h197.53l3.271-30-100.401-114.32 135-112.68v-120z" fill="#ffecc7"/><path d="m271 7.5c-8.284 0-15 6.716-15 15l-15 90 45-30v-60c0-8.284-6.716-15-15-15z" fill="#7e4158"/><path d="m241 82.5h45v105h-45z" fill="#e0343f"/><path d="m241 7.5c-8.284 0-15 6.716-15 15v60l15 30 15-30v-60c0-8.284-6.716-15-15-15z" fill="#b53a4c"/><path d="m226 82.5h30v105h-30z" fill="#ff4040"/><path d="m361 172.5h-30v119.788l60-30v-59.788c0-16.569-13.431-30-30-30z" fill="#ffc766"/><path d="m361 202.5c0-16.569-13.431-30-30-30h-180c-16.569 0-30 13.431-30 30v59.788l240 45z" fill="#ffdc96"/><path d="m294.505 315.183 31.896 114.317h30l13.104-114.317c2.207-19.249 9.727-37.619 21.495-52.895h-30z" fill="#ffa857"/><path d="m361 262.288h-240c11.769 15.275 19.289 33.646 21.495 52.895l13.104 114.317h170.802l13.104-114.317c2.207-19.249 9.726-37.62 21.495-52.895z" fill="#ffc766"/><path d="m421 75h-127.5v-52.5c0-12.406-10.093-22.5-22.5-22.5-5.757 0-11.017 2.174-15 5.743-3.983-3.569-9.243-5.743-15-5.743-12.407 0-22.5 10.094-22.5 22.5v142.5h-67.5c-20.678 0-37.5 16.822-37.5 37.5v59.788c0 1.656.548 3.266 1.559 4.577 11.028 14.314 17.939 31.317 19.985 49.172l13.104 114.317c.434 3.786 3.64 6.646 7.451 6.646h200.801c3.812 0 7.017-2.859 7.451-6.646l13.104-114.317c2.047-17.855 8.958-34.858 19.985-49.172 1.01-1.312 1.559-2.921 1.559-4.577v-59.788c0-20.678-16.822-37.5-37.5-37.5h-67.5v-75h120v180.468c-11.974 13.012-19.625 29.679-21.642 47.277l-13.104 114.317c-1.301 11.367-10.911 19.938-22.352 19.938h-200.802c-11.441 0-21.051-8.571-22.354-19.938 0 0-13.104-114.317-13.104-114.317-2.017-17.599-9.667-34.266-21.642-47.277v-180.468h97.501c4.142 0 7.5-3.357 7.5-7.5s-3.358-7.5-7.5-7.5h-105c-4.142 0-7.5 3.357-7.5 7.5v190.975c0 1.98.783 3.88 2.179 5.285 10.859 10.933 17.806 25.385 19.561 40.694l19.278 168.178c1.592 13.891 13.337 24.368 27.32 24.368h208.323c13.983 0 25.729-10.477 27.321-24.368l19.278-168.178c1.755-15.31 8.702-29.762 19.561-40.694 1.396-1.405 2.179-3.305 2.179-5.285v-190.975c0-4.143-3.358-7.5-7.5-7.5zm-150-60c4.136 0 7.5 3.364 7.5 7.5v52.5h-15v-52.5c0-4.136 3.364-7.5 7.5-7.5zm-30 0c4.136 0 7.5 3.364 7.5 7.5v52.5h-15v-52.5c0-4.136 3.364-7.5 7.5-7.5zm-7.5 75h15v75h-15zm128.554 224.328-12.343 107.672h-187.422l-12.342-107.671c-1.804-15.744-6.898-30.904-14.879-44.541h241.865c-7.98 13.637-13.074 28.797-14.879 44.54zm21.446-111.828v52.288h-255v-52.288c0-12.406 10.093-22.5 22.5-22.5h210c12.407 0 22.5 10.094 22.5 22.5zm-105-37.5h-15v-75h15zm81.662 332h-208.324c-6.356 0-11.695-4.762-12.419-11.077l-2.758-24.059c5.579 3.268 12.057 5.136 18.937 5.136h200.802c6.88 0 13.359-1.868 18.937-5.136l-2.758 24.059c-.723 6.315-6.061 11.077-12.417 11.077z"/><circle cx="151" cy="202.5" r="7.5"/><circle cx="181" cy="232.288" r="7.5"/><circle cx="211" cy="217.288" r="7.5"/></g></svg>