<svg id="Capa_1" enable-background="new 0 0 512 512" height="512" viewBox="0 0 512 512" width="512" xmlns="http://www.w3.org/2000/svg"><g><path d="m256 7.5v497c137.243 0 248.5-111.257 248.5-248.5s-111.257-248.5-248.5-248.5z" fill="#6a5269"/><path d="m474.5 256c0-137.243-97.826-248.5-218.5-248.5-137.243 0-248.5 111.257-248.5 248.5s111.257 248.5 248.5 248.5c120.674 0 218.5-111.257 218.5-248.5z" fill="#7d617d"/><circle cx="256" cy="256" fill="#ffc766" r="188.5"/><path d="m286 176.75-30-79.25c-28.875 0-55.945 7.725-79.261 21.216.011.019 13.655 83.651 13.655 83.651l65.606 53.633s30-79.25 30-79.25z" fill="#ebe1e8"/><path d="m335.25 118.735c-25.007-14.438-52.312-21.282-79.25-21.257v158.522l65.606-53.633z" fill="#d9c8d4"/><path d="m393.265 176.75c-14.438-25.007-34.663-44.587-58.004-58.034l-79.261 137.284 83.633-13.644z" fill="#ebe1e8"/><path d="m414.5 256c0-28.875-7.725-55.945-21.216-79.261l-137.284 79.261 79.25 30z" fill="#d9c8d4"/><path d="m393.265 335.25c14.438-25.007 21.282-52.312 21.257-79.25h-158.522l53.633 65.606z" fill="#ebe1e8"/><path d="m335.25 393.265c25.007-14.438 44.587-34.663 58.034-58.004l-137.284-79.261 13.644 83.633z" fill="#d9c8d4"/><path d="m256 414.5c28.875 0 55.945-7.725 79.261-21.216l-79.261-137.284-30 79.25z" fill="#ebe1e8"/><path d="m176.75 393.265c25.007 14.438 52.312 21.282 79.25 21.257v-158.522l-65.606 53.633z" fill="#d9c8d4"/><path d="m118.735 335.25c14.438 25.007 34.663 44.587 58.004 58.034l79.261-137.284-83.633 13.644z" fill="#ebe1e8"/><path d="m97.5 256c0 28.875 7.725 55.945 21.216 79.261l137.284-79.261-79.25-30z" fill="#d9c8d4"/><path d="m118.735 176.75c-14.438 25.007-21.282 52.312-21.257 79.25h158.522l-53.633-65.606z" fill="#ebe1e8"/><path d="m176.75 118.735c-25.007 14.438-44.587 34.663-58.034 58.004l137.284 79.261z" fill="#d9c8d4"/><path d="m256 127.5v257c70.969 0 128.5-57.531 128.5-128.5s-57.531-128.5-128.5-128.5z" fill="#f7f4f6"/><path d="m354.5 256c0-70.969-44.1-128.5-98.5-128.5-70.969 0-128.5 57.531-128.5 128.5s57.531 128.5 128.5 128.5c54.4 0 98.5-57.531 98.5-128.5z" fill="#fff"/><path d="m256 157.5c-8.284 0-15 6.716-15 15v30h30v-30c0-8.284-6.716-15-15-15z" fill="#b59ab0"/><path d="m256 187.5c-8.284 0-15 6.716-15 15v53.5h30v-53.5c0-8.284-6.716-15-15-15z" fill="#6a5269"/><circle cx="256" cy="256" fill="#ffc766" r="22.5"/><path d="m437.02 74.98c-48.352-48.351-112.64-74.98-181.02-74.98s-132.667 26.629-181.02 74.98c-48.351 48.352-74.98 112.64-74.98 181.02s26.629 132.668 74.98 181.02c48.353 48.351 112.64 74.98 181.02 74.98s132.668-26.629 181.02-74.98 74.98-112.64 74.98-181.02-26.629-132.668-74.98-181.02zm-181.02 422.02c-132.888 0-241-108.112-241-241s108.112-241 241-241 241 108.112 241 241-108.112 241-241 241z"/><path d="m227.099 264.026-60.153 34.729c-3.587 2.071-4.816 6.658-2.745 10.245 1.389 2.406 3.91 3.751 6.502 3.751 1.272 0 2.562-.324 3.743-1.006l60.165-34.736c5.447 5.544 13.022 8.991 21.389 8.991 16.542 0 30-13.458 30-30 0-7.588-2.838-14.522-7.5-19.812v-63.688c0-12.406-10.094-22.5-22.5-22.5-12.407 0-22.5 10.094-22.5 22.5v63.688c-4.662 5.289-7.5 12.223-7.5 19.812 0 2.78.388 5.469 1.099 8.026zm28.901 6.974c-8.271 0-15-6.729-15-15s6.729-15 15-15 15 6.729 15 15-6.729 15-15 15zm0-106c4.136 0 7.5 3.364 7.5 7.5v8.79c-2.347-.833-4.871-1.29-7.5-1.29s-5.153.458-7.5 1.29v-8.79c0-4.136 3.364-7.5 7.5-7.5zm0 30c4.136 0 7.5 3.364 7.5 7.5v24.449c-2.398-.619-4.911-.949-7.5-.949s-5.102.33-7.5.949v-24.449c0-4.136 3.364-7.5 7.5-7.5z"/><path d="m256 422c91.532 0 166-74.468 166-166s-74.468-166-166-166c-91.533 0-166 74.468-166 166s74.467 166 166 166zm7.5-301.79v-15.023c22.027 1.083 42.828 6.907 61.402 16.472l-7.51 13.008c-16.35-8.306-34.591-13.403-53.892-14.457zm-15 0c-19.301 1.054-37.542 6.151-53.892 14.457l-7.51-13.008c18.574-9.565 39.375-15.389 61.402-16.472zm7.5 14.79c66.72 0 121 54.28 121 121s-54.28 121-121 121-121-54.28-121-121 54.28-121 121-121zm135.79 128.5h15.023c-1.083 22.027-6.907 42.828-16.472 61.402l-13.008-7.51c8.306-16.35 13.403-34.591 14.457-53.892zm0-15c-1.054-19.301-6.151-37.542-14.457-53.892l13.008-7.51c9.565 18.574 15.389 39.375 16.472 61.402zm-143.29 143.29v15.023c-22.027-1.083-42.828-6.907-61.402-16.472l7.51-13.008c16.35 8.306 34.591 13.403 53.892 14.457zm15 0c19.301-1.054 37.542-6.151 53.892-14.457l7.51 13.008c-18.574 9.565-39.375 15.389-61.402 16.472zm-143.29-143.29h-15.023c1.083-22.027 6.907-42.828 16.472-61.402l13.008 7.51c-8.306 16.35-13.403 34.591-14.457 53.892zm0 15c1.054 19.301 6.151 37.542 14.457 53.892l-13.008 7.51c-9.565-18.574-15.389-39.375-16.472-61.402zm8.974 74.378 13.008-7.51c10.293 15.699 23.742 29.148 39.441 39.441l-7.51 13.008c-17.961-11.636-33.304-26.979-44.939-44.939zm208.694 44.938-7.51-13.009c15.699-10.293 29.147-23.742 39.441-39.441l13.009 7.511c-11.637 17.961-26.98 33.304-44.94 44.939zm44.938-208.694-13.009 7.511c-10.293-15.699-23.742-29.147-39.441-39.441l7.51-13.009c17.962 11.636 33.305 26.979 44.94 44.939zm-208.694-44.938 7.51 13.008c-15.699 10.293-29.148 23.742-39.441 39.441l-13.008-7.51c11.636-17.961 26.979-33.304 44.939-44.939z"/><path d="m256 60c-46.575 0-91.721 16.63-127.122 46.827-3.151 2.688-3.527 7.422-.839 10.573 2.688 3.152 7.423 3.527 10.573.839 32.689-27.883 74.378-43.239 117.388-43.239 99.804 0 181 81.196 181 181s-81.196 181-181 181-181-81.196-181-181c0-43.01 15.355-84.698 43.238-117.387 2.688-3.151 2.313-7.885-.839-10.573-3.151-2.689-7.885-2.313-10.573.839-30.196 35.4-46.826 80.547-46.826 127.121 0 108.075 87.925 196 196 196s196-87.925 196-196-87.925-196-196-196z"/></g></svg>