<svg id="Capa_1" enable-background="new 0 0 511.985 511.985" height="512" viewBox="0 0 511.985 511.985" width="512" xmlns="http://www.w3.org/2000/svg"><g><path d="m176.757 314.013-164.868 164.868c-5.858 5.858-5.858 15.355 0 21.213s15.355 5.858 21.213 0l164.868-164.868z" fill="#ffc766"/><path d="m251.003 345.832-42.426 42.427-21.213-21.214 31.819-95.459z" fill="#b53a4c"/><path d="m251.003 303.406-63.639 63.639-63.64-63.639 42.426-42.427z" fill="#e0343f"/><path d="m293.43 303.406-42.427 42.426-21.213-21.213 10.607-74.246z" fill="#7e4158"/><path d="m189.183 226.586h60v90h-60z" fill="#b53a4c" transform="matrix(.707 -.707 .707 .707 -127.843 234.532)"/><path d="m391.93 247.332-98.5 98.5-21.214-21.213 56.074-140.926z" fill="#e0343f"/><path d="m254.652 188.077c-22.818-11.83-71.135 13.11-88.502 30.476l106.066 106.066 84.775-84.775z" fill="#ff4040"/><path d="m463.135 176.127-71.206 71.206c-14.609 14.609-36.112 19.566-56.151 13.725l63.717-148.57z" fill="#ffc766"/><path d="m322.746 119.982c-23.101-11.547-72.217 14.192-90.474 32.449l-66.122 66.122c17.367-17.367 44.47-21.093 67.288-9.263l91.202 47.306c3.621 1.881 7.354 3.366 11.137 4.462l90.616-90.616z" fill="#ffdc96"/><path d="m431.315 123.094 31.82 53.033c-15.365 15.365-37.547 21.001-57.954 15.528z" fill="#e0343f"/><path d="m452.529 144.307-47.348 47.348c-3.854-1.025-7.637-2.461-11.307-4.292l-92.341-46.167c-23.101-11.547-51.004-7.022-69.261 11.236l114.191-114.191z" fill="#ff4040"/><path d="m504.396 24.209c.492-4.397-.929-8.963-4.294-12.328l-36.967 164.246 21.213 21.213z" fill="#7e4158"/><path d="m502.319 22.131c.98-3.909.308-7.726-2.217-10.25-3.366-3.365-7.931-4.787-12.319-4.285-.009-.009-173.14 20.039-173.14 20.039l148.492 148.492z" fill="#b53a4c"/><path d="m505.399 6.585c-4.872-4.874-11.606-7.22-18.475-6.434-.631.071-1.281.146-1.953.224l-171.197 19.815c-2.858.331-5.274 2.268-6.221 4.984s-.255 5.735 1.779 7.77l15.91 15.91-164.402 164.402c-2.929 2.93-2.929 7.678 0 10.606l15.91 15.911-58.337 58.336c-2.929 2.93-2.929 7.678 0 10.607l26.516 26.516-138.35 138.352c-8.771 8.772-8.771 23.046 0 31.82 4.387 4.386 10.148 6.579 15.91 6.579s11.523-2.193 15.91-6.579l138.351-138.351 26.516 26.516c1.465 1.464 3.385 2.196 5.304 2.196s3.839-.732 5.304-2.196l58.336-58.336 15.91 15.91c1.465 1.464 3.385 2.196 5.304 2.196s3.839-.732 5.304-2.196l164.401-164.401 15.909 15.909c1.431 1.43 3.348 2.196 5.305 2.196.826 0 1.659-.137 2.465-.417 2.717-.946 4.653-3.362 4.984-6.221l20.048-173.131c.773-6.899-1.577-13.629-6.441-18.493zm-169.55 52.876 116.287 116.288c-15.732 11.786-36.941 13.9-54.913 4.916l-92.346-46.173c-11.843-5.923-24.779-8.086-37.3-6.76zm-308.057 435.336c-2.923 2.926-7.681 2.925-10.605.001-2.924-2.925-2.925-7.683 0-10.606l138.351-138.352 10.606 10.606zm180.778-117.138-74.246-74.246 31.82-31.82 74.246 74.246zm84.853-42.427-79.55-79.55c-2.93-2.928-7.678-2.928-10.607 0-2.929 2.93-2.929 7.678 0 10.607l58.336 58.336-10.606 10.606-74.245-74.245 15.909-15.909c2.929-2.93 2.929-7.678 0-10.606l-15.481-15.482c14.897-10.757 35.234-12.141 52.794-3.034l91.212 47.305c10.007 5.19 20.734 7.722 31.271 7.722 1.827 0 3.647-.089 5.458-.241zm93.196-93.196c-15.072 15.072-38.592 18.25-58.527 7.908l-91.212-47.306c-11.742-6.089-24.477-8.506-36.729-7.48l37.416-37.416c16.003-16.005 40.359-19.957 60.602-9.835l92.346 46.173c9.616 4.809 19.949 7.146 30.199 7.146 2.375 0 4.744-.137 7.1-.386zm110.319-218.665-18.263 157.703-10.235-10.235c-.018-.018-137.532-137.533-137.532-137.533 41.998-4.863 155.412-17.994 157.658-18.246.021-.002.042-.004.063-.007 2.292-.258 4.542.517 6.162 2.138 1.621 1.619 2.402 3.871 2.147 6.18z"/></g></svg>