<svg id="Capa_1" enable-background="new 0 0 512 512" height="512" viewBox="0 0 512 512" width="512" xmlns="http://www.w3.org/2000/svg"><g><path d="m256 147v218c60.199 0 109-48.801 109-109s-48.801-109-109-109z" fill="#ffc766"/><path d="m335 256c0-60.199-35.37-109-79-109-60.199 0-109 48.801-109 109s48.801 109 109 109c43.63 0 79-48.801 79-109z" fill="#ffdc96"/><path d="m299.391 241.901 20.22-32.117-36.794 9.305-2.52-37.868-24.298 29.154-24.297-29.155-2.52 37.868-36.794-9.304 20.219 32.117-35.235 14.099 35.236 14.099-20.22 32.117 36.794-9.305 2.52 37.868 24.297-29.154 24.298 29.155 2.52-37.868 36.794 9.304-20.22-32.117 35.236-14.099z" fill="#ff8e59"/><circle cx="256" cy="256" fill="#ff4040" r="15"/><path d="m256 7.5c-8.284 0-15 6.716-15 15v30h30v-30c0-8.284-6.716-15-15-15z" fill="#ff4040"/><path d="m256 37.5c-8.284 0-15 6.716-15 15v49.5c0 8.284 6.716 15 15 15s15-6.716 15-15v-49.5c0-8.284-6.716-15-15-15z" fill="#ff6f4f"/><path d="m109.935 54.959c-6.702 4.869-8.188 14.25-3.318 20.952l17.634 24.271 24.271-17.634-17.634-24.271c-4.87-6.701-14.251-8.187-20.953-3.318z" fill="#ff4040"/><path d="m127.569 79.23c-6.702 4.869-8.188 14.25-3.318 20.952l29.095 40.046c4.869 6.702 14.25 8.188 20.952 3.318 6.702-4.869 8.188-14.25 3.318-20.952l-29.095-40.046c-4.869-6.702-14.25-8.188-20.952-3.318z" fill="#ff6f4f"/><path d="m19.662 179.209c-2.56 7.879 1.752 16.341 9.631 18.901l28.532 9.271 9.271-28.532-28.532-9.271c-7.879-2.559-16.342 1.753-18.902 9.631z" fill="#ff4040"/><path d="m48.194 188.48c-2.56 7.879 1.752 16.341 9.631 18.901l47.077 15.296c7.879 2.56 16.341-1.752 18.901-9.631s-1.752-16.341-9.631-18.901l-47.077-15.296c-7.879-2.56-16.341 1.752-18.901 9.631z" fill="#ff6f4f"/><path d="m19.662 332.791c2.56 7.879 11.022 12.191 18.901 9.631l28.532-9.271-9.271-28.532-28.532 9.271c-7.878 2.56-12.19 11.022-9.63 18.901z" fill="#ff4040"/><path d="m48.194 323.52c2.56 7.879 11.022 12.191 18.901 9.631l47.077-15.296c7.879-2.56 12.191-11.022 9.631-18.901s-11.022-12.191-18.901-9.631l-47.077 15.296c-7.879 2.56-12.191 11.022-9.631 18.901z" fill="#ff6f4f"/><path d="m109.935 457.041c6.702 4.869 16.083 3.384 20.952-3.318l17.634-24.271-24.271-17.634-17.634 24.271c-4.868 6.702-3.383 16.082 3.319 20.952z" fill="#ff4040"/><path d="m127.569 432.77c6.702 4.869 16.083 3.384 20.952-3.318l29.095-40.046c4.869-6.702 3.384-16.083-3.318-20.952s-16.083-3.384-20.952 3.318l-29.095 40.046c-4.87 6.702-3.384 16.083 3.318 20.952z" fill="#ff6f4f"/><path d="m256 504.5c8.284 0 15-6.716 15-15v-30h-30v30c0 8.284 6.716 15 15 15z" fill="#ff4040"/><path d="m256 474.5c8.284 0 15-6.716 15-15v-49.5c0-8.284-6.716-15-15-15s-15 6.716-15 15v49.5c0 8.284 6.716 15 15 15z" fill="#ff6f4f"/><path d="m402.065 457.041c6.702-4.869 8.188-14.25 3.318-20.952l-17.634-24.271-24.271 17.634 17.634 24.271c4.87 6.701 14.251 8.187 20.953 3.318z" fill="#ff4040"/><path d="m384.431 432.77c6.702-4.869 8.188-14.25 3.318-20.952l-29.095-40.046c-4.869-6.702-14.25-8.188-20.952-3.318s-8.188 14.25-3.318 20.952l29.095 40.046c4.869 6.702 14.25 8.188 20.952 3.318z" fill="#ff6f4f"/><path d="m492.338 332.791c2.56-7.879-1.752-16.341-9.631-18.901l-28.532-9.271-9.271 28.532 28.532 9.271c7.879 2.559 16.342-1.753 18.902-9.631z" fill="#ff4040"/><path d="m463.806 323.52c2.56-7.879-1.752-16.341-9.631-18.901l-47.077-15.296c-7.879-2.56-16.341 1.752-18.901 9.631s1.752 16.341 9.631 18.901l47.077 15.296c7.879 2.56 16.341-1.752 18.901-9.631z" fill="#ff6f4f"/><path d="m492.338 179.209c-2.56-7.879-11.022-12.191-18.901-9.631l-28.532 9.271 9.271 28.532 28.532-9.271c7.878-2.56 12.189-11.022 9.63-18.901z" fill="#ff4040"/><path d="m463.806 188.48c-2.56-7.879-11.022-12.191-18.901-9.631l-47.077 15.296c-7.879 2.56-12.191 11.022-9.631 18.901s11.022 12.191 18.901 9.631l47.077-15.296c7.879-2.56 12.191-11.022 9.631-18.901z" fill="#ff6f4f"/><path d="m402.065 54.959c-6.702-4.869-16.083-3.384-20.952 3.318l-17.634 24.271 24.271 17.634 17.634-24.271c4.868-6.702 3.383-16.082-3.319-20.952z" fill="#ff4040"/><path d="m384.431 79.23c-6.702-4.869-16.083-3.384-20.952 3.318l-29.095 40.046c-4.869 6.702-3.384 16.083 3.318 20.952s16.083 3.384 20.952-3.318l29.095-40.046c4.87-6.702 3.384-16.083-3.318-20.952z" fill="#ff6f4f"/><path d="m325.678 205.376c-1.802-2.481-4.937-3.614-7.906-2.863l-28.068 7.099-1.923-28.889c-.204-3.06-2.249-5.688-5.166-6.635-2.916-.949-6.116-.025-8.079 2.331l-18.536 22.241-18.535-22.242c-1.963-2.355-5.163-3.28-8.079-2.331-2.917.947-4.963 3.575-5.166 6.635l-1.923 28.89-28.069-7.099c-2.976-.751-6.104.382-7.906 2.863-1.803 2.48-1.913 5.809-.279 8.404l15.425 24.501-26.88 10.756c-2.847 1.139-4.714 3.896-4.714 6.963s1.867 5.824 4.714 6.963l26.88 10.756-15.424 24.501c-1.634 2.596-1.523 5.924.279 8.404 1.802 2.481 4.935 3.614 7.906 2.863l28.068-7.099 1.923 28.889c.203 3.06 2.249 5.688 5.166 6.635 2.915.949 6.116.024 8.079-2.331l18.535-22.241 18.536 22.242c1.45 1.74 3.575 2.698 5.763 2.698.773 0 1.555-.119 2.316-.367 2.917-.947 4.962-3.575 5.166-6.635l1.923-28.89 28.068 7.099c2.97.751 6.104-.382 7.906-2.863 1.803-2.48 1.913-5.809.279-8.404l-15.424-24.501 26.88-10.756c2.847-1.139 4.714-3.896 4.714-6.963s-1.867-5.824-4.714-6.963l-26.88-10.756 15.424-24.501c1.634-2.595 1.523-5.924-.279-8.404zm-11.24 50.624-17.833 7.136c-2.066.826-3.659 2.528-4.347 4.646-.688 2.116-.4 4.43.786 6.313l10.232 16.255-18.621-4.71c-2.159-.547-4.447-.105-6.247 1.204-1.801 1.308-2.928 3.349-3.075 5.569l-1.275 19.167-12.298-14.757c-1.425-1.71-3.536-2.698-5.762-2.698s-4.337.988-5.762 2.698l-12.297 14.755-1.275-19.165c-.147-2.221-1.274-4.262-3.075-5.569-1.801-1.31-4.09-1.751-6.247-1.204l-18.621 4.71 10.232-16.255c1.187-1.884 1.474-4.197.786-6.313-.688-2.117-2.28-3.819-4.347-4.646l-17.831-7.136 17.833-7.136c2.066-.826 3.659-2.528 4.347-4.646.688-2.116.4-4.43-.786-6.313l-10.233-16.255 18.622 4.71c2.157.543 4.446.104 6.247-1.204s2.928-3.349 3.075-5.569l1.275-19.166 12.297 14.756c1.425 1.71 3.536 2.698 5.762 2.698s4.337-.988 5.762-2.698l12.298-14.756 1.275 19.166c.147 2.221 1.274 4.262 3.075 5.569 1.8 1.309 4.088 1.747 6.247 1.204l18.621-4.71-10.232 16.255c-1.187 1.884-1.474 4.197-.786 6.313.688 2.117 2.28 3.819 4.347 4.646z"/><path d="m256 372.5c64.238 0 116.5-52.262 116.5-116.5s-52.262-116.5-116.5-116.5c-19.124 0-38.098 4.742-54.87 13.714-3.652 1.953-5.03 6.498-3.076 10.15s6.498 5.032 10.15 3.076c14.604-7.812 31.132-11.94 47.796-11.94 55.967 0 101.5 45.533 101.5 101.5s-45.533 101.5-101.5 101.5-101.5-45.533-101.5-101.5c0-27.834 11.049-53.802 31.11-73.12 2.983-2.873 3.073-7.621.2-10.604-2.871-2.984-7.62-3.073-10.604-.2-23.025 22.17-35.706 51.976-35.706 83.924 0 64.238 52.262 116.5 116.5 116.5z"/><path d="m256 233.5c-12.406 0-22.5 10.094-22.5 22.5s10.094 22.5 22.5 22.5 22.5-10.094 22.5-22.5-10.094-22.5-22.5-22.5zm0 30c-4.136 0-7.5-3.364-7.5-7.5s3.364-7.5 7.5-7.5 7.5 3.364 7.5 7.5-3.364 7.5-7.5 7.5z"/><path d="m299.648 121.663c3.939 1.28 8.171-.876 9.451-4.815s-.876-8.171-4.815-9.45c-3.939-1.28-8.17.876-9.45 4.815s.875 8.17 4.814 9.45z"/><path d="m308.919 93.132c3.939 1.28 8.171-.876 9.451-4.815s-.876-8.17-4.815-9.45-8.17.876-9.45 4.815c-1.281 3.938.874 8.17 4.814 9.45z"/><path d="m318.189 64.6c3.939 1.28 8.171-.876 9.451-4.815s-.876-8.171-4.815-9.451-8.17.876-9.45 4.815c-1.281 3.94.875 8.171 4.814 9.451z"/><path d="m327.46 36.068c3.939 1.28 8.171-.876 9.451-4.815s-.876-8.171-4.815-9.451-8.17.876-9.45 4.815.875 8.171 4.814 9.451z"/><path d="m202.901 116.848c1.28 3.939 5.511 6.095 9.451 4.815 3.939-1.28 6.095-5.511 4.815-9.451-1.28-3.939-5.511-6.095-9.45-4.815-3.94 1.28-6.096 5.512-4.816 9.451z"/><path d="m193.63 88.316c1.28 3.939 5.511 6.095 9.451 4.815 3.939-1.28 6.095-5.511 4.815-9.45s-5.511-6.095-9.45-4.815c-3.94 1.28-6.096 5.511-4.816 9.45z"/><path d="m184.36 59.785c1.28 3.939 5.511 6.095 9.451 4.815 3.939-1.28 6.095-5.511 4.815-9.45s-5.511-6.095-9.45-4.815c-3.94 1.279-6.096 5.51-4.816 9.45z"/><path d="m184.54 36.068c3.939-1.28 6.095-5.511 4.815-9.45s-5.511-6.095-9.45-4.815-6.095 5.511-4.815 9.451 5.51 6.094 9.45 4.814z"/><path d="m141.726 172.975c2.435-3.351 1.692-8.041-1.659-10.476s-8.041-1.692-10.476 1.659-1.692 8.041 1.659 10.476 8.042 1.692 10.476-1.659z"/><path d="m105.321 146.525c-2.435 3.351-1.692 8.041 1.659 10.476s8.041 1.692 10.476-1.659 1.692-8.041-1.659-10.476-8.042-1.692-10.476 1.659z"/><path d="m82.709 139.368c3.351 2.435 8.041 1.692 10.476-1.659s1.692-8.041-1.659-10.476-8.041-1.692-10.476 1.659-1.692 8.041 1.659 10.476z"/><path d="m58.439 121.734c3.351 2.435 8.041 1.692 10.476-1.659s1.692-8.041-1.659-10.476-8.041-1.692-10.476 1.659-1.692 8.041 1.659 10.476z"/><circle cx="107.25" cy="256" r="7.5"/><circle cx="77.25" cy="256" r="7.5"/><circle cx="47.25" cy="256" r="7.5"/><circle cx="17.25" cy="256" r="7.5"/><path d="m129.591 347.842c2.435 3.351 7.125 4.094 10.476 1.659s4.094-7.125 1.659-10.476-7.125-4.094-10.476-1.659c-3.351 2.434-4.094 7.124-1.659 10.476z"/><path d="m106.98 354.999c-3.351 2.435-4.094 7.125-1.659 10.476s7.125 4.094 10.476 1.659 4.094-7.125 1.659-10.476-7.125-4.094-10.476-1.659z"/><path d="m82.709 372.633c-3.351 2.435-4.094 7.125-1.659 10.476s7.125 4.094 10.476 1.659 4.094-7.125 1.659-10.476-7.125-4.094-10.476-1.659z"/><path d="m58.439 390.266c-3.351 2.435-4.094 7.125-1.659 10.476s7.125 4.094 10.476 1.659 4.094-7.125 1.659-10.476-7.125-4.093-10.476-1.659z"/><path d="m212.352 390.337c-3.939-1.28-8.171.876-9.451 4.815s.876 8.171 4.815 9.45c3.939 1.28 8.17-.876 9.45-4.815 1.281-3.939-.875-8.17-4.814-9.45z"/><path d="m203.081 418.868c-3.939-1.28-8.171.876-9.451 4.815s.876 8.17 4.815 9.45 8.17-.876 9.45-4.815c1.281-3.938-.874-8.17-4.814-9.45z"/><path d="m193.811 447.4c-3.939-1.28-8.171.876-9.451 4.815s.876 8.171 4.815 9.451 8.17-.876 9.45-4.815c1.281-3.94-.875-8.171-4.814-9.451z"/><path d="m184.54 475.932c-3.939-1.28-8.171.876-9.451 4.815s.876 8.171 4.815 9.451 8.17-.876 9.45-4.815-.875-8.171-4.814-9.451z"/><path d="m309.099 395.152c-1.28-3.939-5.511-6.095-9.451-4.815-3.939 1.28-6.095 5.511-4.815 9.45s5.511 6.095 9.45 4.815c3.94-1.279 6.096-5.511 4.816-9.45z"/><path d="m318.37 423.684c-1.28-3.939-5.511-6.095-9.451-4.815-3.939 1.28-6.095 5.511-4.815 9.45s5.511 6.095 9.45 4.815c3.94-1.28 6.096-5.511 4.816-9.45z"/><path d="m327.64 452.215c-1.28-3.939-5.511-6.095-9.451-4.815-3.939 1.28-6.095 5.511-4.815 9.45s5.511 6.095 9.45 4.815c3.94-1.279 6.096-5.51 4.816-9.45z"/><path d="m327.46 475.932c-3.939 1.28-6.095 5.511-4.815 9.451s5.511 6.095 9.45 4.815 6.095-5.511 4.815-9.451-5.51-6.095-9.45-4.815z"/><path d="m371.933 349.5c3.351 2.435 8.041 1.692 10.476-1.659s1.692-8.041-1.659-10.476-8.041-1.692-10.476 1.659-1.692 8.042 1.659 10.476z"/><path d="m406.679 365.475c2.435-3.351 1.692-8.041-1.659-10.476s-8.041-1.692-10.476 1.659-1.692 8.041 1.659 10.476 8.042 1.692 10.476-1.659z"/><path d="m429.291 372.632c-3.351-2.435-8.041-1.692-10.476 1.659s-1.692 8.041 1.659 10.476 8.041 1.692 10.476-1.659 1.692-8.041-1.659-10.476z"/><path d="m453.561 390.266c-3.351-2.435-8.041-1.692-10.476 1.659s-1.692 8.041 1.659 10.476 8.041 1.692 10.476-1.659 1.692-8.041-1.659-10.476z"/><circle cx="404.75" cy="256" r="7.5"/><circle cx="434.75" cy="256" r="7.5"/><circle cx="464.75" cy="256" r="7.5"/><circle cx="494.75" cy="256" r="7.5"/><path d="m380.75 174.635c3.351-2.435 4.094-7.125 1.659-10.476s-7.125-4.094-10.476-1.659-4.094 7.125-1.659 10.476c2.434 3.35 7.124 4.093 10.476 1.659z"/><path d="m405.02 157.001c3.351-2.435 4.094-7.125 1.659-10.476s-7.125-4.094-10.476-1.659-4.094 7.125-1.659 10.476 7.125 4.094 10.476 1.659z"/><path d="m429.291 139.367c3.351-2.435 4.094-7.125 1.659-10.476s-7.125-4.094-10.476-1.659-4.094 7.125-1.659 10.476c2.434 3.351 7.124 4.094 10.476 1.659z"/><path d="m453.561 121.734c3.351-2.435 4.094-7.125 1.659-10.476s-7.125-4.094-10.476-1.659-4.094 7.125-1.659 10.476 7.125 4.093 10.476 1.659z"/><path d="m256 124.5c12.406 0 22.5-10.094 22.5-22.5v-79.5c0-12.406-10.094-22.5-22.5-22.5s-22.5 10.094-22.5 22.5v79.5c0 12.406 10.094 22.5 22.5 22.5zm-7.5-102c0-4.136 3.364-7.5 7.5-7.5s7.5 3.364 7.5 7.5v79.5c0 4.136-3.364 7.5-7.5 7.5s-7.5-3.364-7.5-7.5z"/><path d="m100.55 80.319 46.729 64.317c3.532 4.862 8.747 8.058 14.683 8.998 1.192.188 2.384.282 3.567.282 4.713-.001 9.292-1.479 13.178-4.303 4.862-3.532 8.058-8.747 8.998-14.683.939-5.937-.487-11.883-4.021-16.745l-46.729-64.318c-7.295-10.035-21.392-12.269-31.429-4.977-4.861 3.533-8.057 8.747-8.997 14.683-.94 5.938.488 11.885 4.021 16.746zm13.794-19.293c1.328-.965 2.87-1.429 4.398-1.429 2.321 0 4.612 1.071 6.078 3.088l46.729 64.317c1.177 1.621 1.653 3.604 1.34 5.582s-1.379 3.717-2.999 4.895c-1.621 1.177-3.603 1.65-5.582 1.34-1.979-.313-3.717-1.379-4.895-2.999l-46.729-64.317c-2.43-3.346-1.686-8.045 1.66-10.477z"/><path d="m26.976 205.243 75.609 24.567c2.289.744 4.638 1.112 6.976 1.112 3.503 0 6.981-.827 10.191-2.464 5.355-2.729 9.327-7.379 11.184-13.094 3.834-11.799-2.646-24.518-14.445-28.353l-75.608-24.566c-11.802-3.836-24.519 2.646-28.353 14.445-1.857 5.716-1.377 11.813 1.352 17.168 2.727 5.356 7.378 9.329 13.094 11.185zm-.181-23.716c1.029-3.166 3.976-5.184 7.138-5.184.767 0 1.546.119 2.313.368l75.608 24.566c3.934 1.278 6.094 5.518 4.815 9.451-.619 1.905-1.943 3.455-3.728 4.364-1.785.91-3.816 1.071-5.723.451l-75.608-24.565c-1.905-.619-3.455-1.943-4.364-3.728-.91-1.785-1.07-3.818-.451-5.723z"/><path d="m129.585 313.804c2.729-5.355 3.208-11.453 1.351-17.168-1.856-5.716-5.828-10.366-11.184-13.095-5.354-2.727-11.45-3.209-17.167-1.351l-75.609 24.566c-5.716 1.856-10.366 5.829-13.095 11.184s-3.209 11.452-1.352 17.169c3.087 9.497 11.929 15.549 21.416 15.549 2.298 0 4.635-.355 6.936-1.104l75.609-24.567c5.716-1.856 10.366-5.829 13.095-11.183zm-17.73-3.082-75.609 24.567c-3.937 1.28-8.172-.885-9.451-4.815-.619-1.905-.459-3.938.451-5.724.909-1.784 2.459-3.108 4.364-3.728l75.61-24.566c.763-.248 1.546-.371 2.325-.371 1.168 0 2.326.275 3.396.821 1.785.909 3.108 2.459 3.728 4.365.619 1.905.459 3.938-.45 5.723-.908 1.784-2.458 3.109-4.364 3.728z"/><path d="m178.706 362.386c-4.861-3.532-10.806-4.958-16.745-4.021-5.936.94-11.15 4.136-14.683 8.998l-46.729 64.317c-3.533 4.862-4.96 10.809-4.021 16.745.94 5.936 4.136 11.15 8.998 14.683 3.886 2.823 8.465 4.303 13.178 4.303 1.184 0 2.375-.094 3.567-.282 5.936-.94 11.15-4.136 14.683-8.998l46.729-64.317c7.293-10.037 5.06-24.135-4.977-31.428zm-7.157 22.611-46.729 64.317c-1.178 1.62-2.916 2.686-4.895 2.999s-3.962-.163-5.582-1.34c-1.62-1.178-2.686-2.916-2.999-4.895s.163-3.961 1.34-5.582l46.729-64.317c1.178-1.62 2.916-2.686 4.895-2.999.397-.063.795-.094 1.189-.094 1.57 0 3.097.493 4.392 1.434 3.345 2.431 4.09 7.131 1.66 10.477z"/><path d="m256 387.5c-12.406 0-22.5 10.094-22.5 22.5v79.5c0 12.406 10.094 22.5 22.5 22.5s22.5-10.094 22.5-22.5v-79.5c0-12.406-10.094-22.5-22.5-22.5zm7.5 102c0 4.136-3.364 7.5-7.5 7.5s-7.5-3.364-7.5-7.5v-79.5c0-4.136 3.364-7.5 7.5-7.5s7.5 3.364 7.5 7.5z"/><path d="m411.45 431.681-46.729-64.317c-3.532-4.862-8.747-8.058-14.683-8.998-5.939-.938-11.884.488-16.745 4.021-4.862 3.532-8.058 8.747-8.998 14.683-.939 5.937.487 11.883 4.021 16.745l46.729 64.318c4.398 6.051 11.27 9.266 18.233 9.266 4.585-.001 9.21-1.395 13.195-4.289 4.861-3.533 8.057-8.747 8.997-14.683.941-5.938-.487-11.885-4.02-16.746zm-13.794 19.293c-3.346 2.431-8.046 1.685-10.477-1.659l-46.729-64.317c-1.177-1.621-1.653-3.604-1.34-5.582s1.379-3.717 2.999-4.895c1.296-.94 2.822-1.434 4.393-1.434.395 0 .792.031 1.189.094 1.979.313 3.717 1.379 4.895 2.999l46.729 64.317c2.431 3.346 1.687 8.045-1.659 10.477z"/><path d="m485.024 306.757-75.609-24.567c-5.72-1.859-11.815-1.378-17.167 1.352-5.355 2.729-9.327 7.379-11.184 13.094-3.834 11.799 2.646 24.518 14.445 28.353l75.608 24.566c2.303.748 4.639 1.104 6.938 1.104 9.485 0 18.328-6.052 21.414-15.549 1.857-5.716 1.377-11.813-1.352-17.168-2.726-5.356-7.377-9.329-13.093-11.185zm.181 23.716c-1.278 3.935-5.518 6.094-9.451 4.815l-75.608-24.566c-3.934-1.278-6.094-5.518-4.815-9.451.619-1.905 1.943-3.455 3.728-4.364 1.07-.546 2.229-.821 3.397-.821.779 0 1.563.122 2.325.37l75.609 24.567c1.905.619 3.455 1.943 4.364 3.728.91 1.784 1.07 3.817.451 5.722z"/><path d="m382.415 198.196c-2.729 5.355-3.208 11.453-1.351 17.168 1.856 5.716 5.828 10.366 11.184 13.095 3.211 1.636 6.688 2.464 10.19 2.464 2.338 0 4.688-.369 6.977-1.113l75.609-24.566c5.716-1.856 10.366-5.829 13.095-11.184s3.209-11.452 1.352-17.169c-3.835-11.798-16.551-18.28-28.352-14.445l-75.609 24.567c-5.716 1.856-10.366 5.829-13.095 11.183zm17.73 3.082 75.609-24.567c3.94-1.278 8.174.885 9.451 4.815.619 1.905.459 3.938-.451 5.724-.909 1.784-2.459 3.108-4.364 3.728l-75.61 24.566c-1.906.62-3.938.46-5.722-.45-1.785-.909-3.108-2.459-3.728-4.365-.619-1.905-.459-3.938.45-5.723.909-1.784 2.459-3.109 4.365-3.728z"/><path d="m333.294 149.614c3.886 2.823 8.465 4.303 13.178 4.303 1.184 0 2.375-.094 3.567-.282 5.936-.94 11.15-4.136 14.683-8.998l46.729-64.317c3.533-4.862 4.96-10.809 4.021-16.745-.94-5.936-4.136-11.15-8.998-14.683-4.861-3.532-10.806-4.96-16.745-4.021-5.936.94-11.15 4.136-14.683 8.998l-46.729 64.317c-7.293 10.037-5.06 24.135 4.977 31.428zm7.157-22.611 46.729-64.317c1.178-1.62 2.916-2.686 4.895-2.999.397-.063.795-.094 1.189-.094 1.57 0 3.098.493 4.393 1.434 1.62 1.178 2.686 2.916 2.999 4.895s-.163 3.961-1.34 5.582l-46.729 64.317c-1.178 1.62-2.916 2.686-4.895 2.999-1.979.311-3.961-.163-5.581-1.34-3.345-2.431-4.09-7.131-1.66-10.477z"/></g></svg>