<svg id="Capa_1" enable-background="new 0 0 511.983 511.983" height="512" viewBox="0 0 511.983 511.983" width="512" xmlns="http://www.w3.org/2000/svg"><g><path d="m355.597 282.518 9.789-35.934-49.994-49.994-214.261 277.902 21.213 21.213c11.716 11.716 30.711 11.716 42.426 0l42.426-42.426 21.213-63.64 63.64-21.213 32.629-32.629c14.767-14.767 25.425-33.131 30.919-53.279z" fill="#38ad63"/><path d="m315.393 196.591-50.011-50.011-35.906 9.817c-20.147 5.495-38.512 16.152-53.279 30.919l-32.631 32.626-21.216 63.637-63.642 21.21-42.429 42.423c-11.716 11.716-11.716 30.711 0 42.426l84.853 84.853c11.716 11.716 30.711 11.716 42.426 0z" fill="#49c470"/><path d="m326.654 274.624 19.243-70.555-24.432-24.431-193.901 268.421 1.109 3.052c3.192 8.788 8.273 16.769 14.885 23.38l159.907-159.907c11.056-11.056 19.075-24.874 23.189-39.96z" fill="#377d5b"/><path d="m297.712 266.73 23.753-87.092-13.552-13.552-70.555 19.242c-15.085 4.115-28.903 12.134-39.959 23.19l-159.907 159.908c6.613 6.613 14.589 11.692 23.373 14.885l21.69 7.885c17.784 6.465 31.791 20.475 38.252 38.26l6.758 18.603 154.688-154.688c7.37-7.371 12.715-16.583 15.459-26.641z" fill="#33965d"/><path d="m185.984 432.065 10.606-74.246 74.247-10.607 21.213 21.214-84.853 84.853z" fill="#ffdc96"/><path d="m104.771 235.999h120v180h-120z" fill="#ffecc7" transform="matrix(.707 -.707 .707 .707 -182.256 211.993)"/><path d="m374.832 211.963c2.744-10.083 8.075-19.262 15.457-26.644l62.982-62.982-42.426-42.426-122.202 122.202 45.396 45.396 31.346-.926z" fill="#ffa857"/><path d="m345.89 204.065-11.851 43.445-71.679 2.114 3.012-103.04 34.634-9.447c10.083-2.744 19.262-8.075 26.644-15.457l62.982-62.982 42.426 42.426-62.982 62.982c-11.059 11.059-19.078 24.876-23.186 39.959z" fill="#ffc766"/><path d="m495.705 37.492-21.213-21.213-42.426 84.853 21.213 21.213 42.426-42.426c11.667-11.668 11.667-30.76 0-42.427z" fill="#ffa857"/><path d="m474.492 16.278c-11.667-11.667-30.759-11.667-42.426 0l-42.426 42.426 42.426 42.426 42.426-42.426c11.667-11.666 11.667-30.758 0-42.426z" fill="#ffc766"/><path d="m463.885 111.738-21.213-21.213-21.213 21.213 21.213 21.213c5.858 5.858 15.355 5.858 21.213 0s5.858-15.355 0-21.213z" fill="#ff8e59"/><path d="m442.672 111.738c5.858-5.858 5.858-15.355 0-21.213l-42.426-42.426c-5.858-5.858-15.355-5.858-21.213 0s-5.858 15.355 0 21.213l42.426 42.426c5.857 5.858 15.355 5.858 21.213 0z" fill="#ffa857"/><path d="m501.008 32.179-21.213-21.213c-14.622-14.622-38.412-14.622-53.033 0l-27.425 27.426c-8.363-3.984-18.693-2.52-25.608 4.395-4.25 4.25-6.59 9.899-6.59 15.909 0 3.412.779 6.697 2.208 9.686l-47.991 47.991c-6.448 6.448-14.509 11.126-23.309 13.527l-70.555 19.242c-21.371 5.827-40.946 17.188-56.609 32.851l-159.908 159.908c-14.621 14.621-14.621 38.411 0 53.033l106.066 106.064c7.083 7.083 16.5 10.984 26.516 10.984s19.434-3.901 26.517-10.983l159.908-159.907c15.663-15.663 27.022-35.237 32.852-56.608l19.242-70.556c2.4-8.801 7.078-16.861 13.527-23.31l47.991-47.991c2.989 1.429 6.274 2.208 9.685 2.208 6.01 0 11.66-2.341 15.91-6.59 4.25-4.25 6.59-9.899 6.59-15.91 0-3.415-.756-6.713-2.188-9.705l27.417-27.418c14.621-14.62 14.621-38.41 0-53.033zm-325.631 399.878-31.461 31.461c-3.463-4.546-6.25-9.624-8.193-14.976l-7.867-21.656c-7.238-19.925-22.816-35.505-42.739-42.748l-21.69-7.885c-5.35-1.944-10.426-4.731-14.97-8.195l31.462-31.461zm-106.065-127.28 74.246-74.245 137.886 137.885-74.246 74.246zm106.066-63.639 27.324-27.324c10.136-10.136 22.802-17.486 36.63-21.258l17.337-4.729-1.805 61.568c-.061 2.064.733 4.063 2.194 5.523 1.408 1.408 3.317 2.196 5.302 2.196.074 0 .148-.001.222-.003l61.569-1.816-4.731 17.346c-3.771 13.828-11.122 26.494-21.257 36.63l-27.325 27.324zm6.111-48.538c13.821-13.821 31.093-23.845 49.949-28.987l26.149-7.132-.46 15.673-21.743 5.931c-16.342 4.457-31.311 13.144-43.289 25.121l-27.325 27.325-10.606-10.606zm-22.021 297.792c-4.25 4.25-9.9 6.591-15.91 6.591s-11.66-2.341-15.91-6.591l-106.066-106.064c-8.772-8.773-8.772-23.048 0-31.82l37.124-37.124 10.606 10.606-37.123 37.123c-1.407 1.407-2.197 3.314-2.197 5.304s.79 3.896 2.197 5.304c7.336 7.336 16.366 13.087 26.113 16.631l21.69 7.885c15.74 5.722 28.047 18.031 33.765 33.771l7.867 21.656c3.542 9.752 9.292 18.785 16.63 26.123 1.464 1.464 3.384 2.196 5.303 2.196s3.839-.732 5.303-2.196l37.123-37.123 10.606 10.606zm159.908-159.907-27.325 27.325-10.607-10.606 27.324-27.325c11.978-11.979 20.666-26.947 25.123-43.289l5.933-21.756 15.674-.462-7.136 26.166c-5.143 18.855-15.167 36.128-28.986 49.947zm65.62-150.474c-8.292 8.292-14.306 18.655-17.392 29.97l-7.98 29.261-89.534 2.641 2.625-89.528 29.279-7.985c11.315-3.086 21.678-9.101 29.969-17.392l47.07-47.069 53.032 53.032zm105.406-105.405-26.517 26.517-37.124-37.124c-2.929-2.928-7.678-2.928-10.606 0-2.929 2.93-2.929 7.678 0 10.607l42.414 42.413c1.433 1.438 2.21 3.318 2.21 5.316 0 2.004-.78 3.887-2.197 5.304-1.417 1.416-3.3 2.196-5.303 2.196s-3.887-.78-5.304-2.197l-63.64-63.64c-1.417-1.416-2.197-3.299-2.197-5.303 0-2.003.78-3.887 2.197-5.303 1.462-1.462 3.383-2.193 5.304-2.193 1.92 0 3.841.731 5.303 2.193 2.93 2.928 7.678 2.928 10.606 0l31.82-31.819c4.25-4.25 9.9-6.591 15.91-6.591s11.66 2.341 15.91 6.591l21.213 21.212c8.773 8.774 8.773 23.049.001 31.821z"/></g></svg>