<svg id="Capa_1" enable-background="new 0 0 512 512" height="512" viewBox="0 0 512 512" width="512" xmlns="http://www.w3.org/2000/svg"><g><path d="m374.852 321.483c-1.076-7.884 1.025-15.871 5.839-22.206l25.025-32.931-105.093 14.337 32.931 25.024c6.335 4.814 10.498 11.947 11.574 19.831l14.667 107.512 29.725-4.055z" fill="#ffc766"/><path d="m411.751 434.043-24.26-19.911-29.725 4.055 5.138 37.659s34.237 2.386 72.036-2.77l29.725-4.055c-18.953 2.585-38.127-2.842-52.914-14.978z" fill="#ffdc96"/><path d="m382.027 438.098-24.26-19.911s-9.089 12.938-18.041 25.682c-10.996 15.653-28.015 26.018-46.968 28.603l142.183-19.397c-18.954 2.586-38.128-2.841-52.914-14.977z" fill="#ffecc7"/><path d="m418.246 200.873c.012-.002-53.749-193.373-53.749-193.373l-29.988 4.091 21.629 283.688c41.041-5.599 69.773-43.408 64.174-84.449-.465-3.411-1.173-6.729-2.066-9.957z" fill="#ffdc96"/><path d="m390.588 214.885c-.264-1.93-.686-3.951-1.254-6.007l-40.001-36.775 17.389-44.604c-9.314-33.519-20.63-74.236-32.212-115.908l-63.51 8.664v200.705c.016 3.349.223 6.734.689 10.146 5.599 41.041 43.408 69.772 84.449 64.174 24.625-3.36 40.049-39.354 34.45-80.395z" fill="#ffecc7"/><path d="m389.334 208.878s-11.256-40.513-22.615-81.378h-22.452l7.816 138.054c24.586-3.354 41.858-26.084 38.504-50.67-.262-1.929-.685-3.95-1.253-6.006z" fill="#ff8e59"/><path d="m360.863 218.94c-.263-1.93-.59-3.964-.97-6.046 0 0-7.576-41.405-15.626-85.394h-43.266v93.382c.012 2.203.147 4.221.413 6.168 3.354 24.586 26.084 41.858 50.67 38.504 8.195-1.118 12.133-22.028 8.779-46.614z" fill="#ffa857"/><path d="m166.875 355.538c1.075-7.884 5.238-15.017 11.573-19.831l32.931-25.025-105.093-14.336 25.025 32.931c4.814 6.335 6.914 14.323 5.839 22.206l-14.666 107.512 29.725 4.055z" fill="#ffc766"/><path d="m172.276 473.869-18.04-25.682-29.725-4.055-5.137 37.659s32.347 11.47 70.146 16.626l29.725 4.055c-18.954-2.585-35.974-12.95-46.969-28.603z" fill="#ffdc96"/><path d="m142.551 469.814-18.04-25.682s-12.222 10.031-24.26 19.912c-14.787 12.136-33.96 17.563-52.914 14.977l142.183 19.396c-18.954-2.585-35.973-12.95-46.969-28.603z" fill="#ffecc7"/><path d="m240.989 250.959c.012.001.011-200.704.011-200.704l-29.988-4.091-55.148 279.116c41.041 5.599 78.85-23.133 84.449-64.174.465-3.412.672-6.798.676-10.147z" fill="#ffdc96"/><path d="m210.588 257.05c.263-1.93.398-3.991.401-6.123l-28.689-46.145 28.7-47.282c.004-34.789.01-68.084.013-111.336l-63.51-8.664-53.76 193.371c-.881 3.231-1.589 6.548-2.054 9.959-5.599 41.041 23.133 78.85 64.174 84.449 24.625 3.36 49.126-27.187 54.725-68.229z" fill="#ffecc7"/><path d="m210.989 250.927s.008-51.013.011-93.427h-21.38l-29.701 138.055c24.586 3.354 47.316-13.919 50.669-38.505.264-1.93.398-3.99.401-6.123z" fill="#ff8e59"/><path d="m180.864 252.995c.263-1.93.494-3.978.685-6.085 0 0 4.045-44.872 8.071-89.411h-44.34l-22.612 81.332c-.579 2.126-.989 4.106-1.254 6.053-3.354 24.586 13.919 47.316 38.505 50.669 8.195 1.12 17.591-17.972 20.945-42.558z" fill="#ffa857"/><path d="m486.959 445.979c-.56-4.104-4.34-6.976-8.445-6.418l-14.862 2.028c-16.832 2.302-34.013-2.568-47.143-13.344l-21.985-18.043-12.241-89.733c-.813-5.955.743-11.869 4.378-16.654l25.025-32.931c13.333-17.546 19.035-39.233 16.057-61.067-.49-3.589-1.253-7.271-2.27-10.944-.185-.672-.385-1.394-.603-2.179l-53.147-191.203c-1.004-3.613-4.522-5.923-8.24-5.423l-93.497 12.756c-3.716.507-6.486 3.681-6.486 7.431v200.741c.019 3.833.273 7.575.757 11.123 3.075 22.538 15.041 41.708 31.862 54.489l-.035.046 32.931 25.024c4.785 3.636 7.868 8.917 8.68 14.872l12.242 89.734-16.349 23.273c-9.762 13.896-25.011 23.184-41.838 25.481l-14.869 2.028c-4.104.561-6.978 4.341-6.417 8.445.513 3.761 3.729 6.487 7.422 6.487.337 0 .679-.022 1.023-.069l201.632-27.507c4.104-.558 6.978-4.339 6.418-8.443zm-207.839-215.888c-.401-2.943-.604-5.942-.62-9.132v-194.159l80.524-10.984c9.186 33.038 51.278 184.445 51.976 186.993.006.021.011.043.018.064.837 3.026 1.465 6.045 1.864 8.97 2.437 17.864-2.229 35.608-13.137 49.964-10.909 14.355-26.755 23.604-44.62 26.04-36.88 5.038-70.974-20.879-76.005-57.756zm63.116 73.297c1.231.056 2.467.085 3.708.085 3.697 0 7.444-.25 11.208-.763 4.998-.682 9.859-1.821 14.556-3.35-3.874 7.014-5.39 15.052-4.287 23.135l11.625 85.218-14.862 2.028-11.626-85.219c-1.102-8.08-4.714-15.416-10.322-21.134zm3.627 144.791 16.16-23.003 23.239-3.172 21.731 17.836c3.665 3.007 7.589 5.632 11.698 7.882l-82.003 11.187c3.36-3.271 6.448-6.847 9.175-10.73z"/><path d="m345.966 273.471c2.353 0 4.737-.159 7.131-.485 28.683-3.914 48.835-30.433 44.922-59.114-.307-2.254-.797-4.606-1.459-7.002 0 0-11.256-40.514-22.615-81.379-.902-3.245-3.857-5.491-7.226-5.491h-65.718c-4.142 0-7.5 3.357-7.5 7.5v63.382c0 4.143 3.358 7.5 7.5 7.5s7.5-3.357 7.5-7.5v-55.882h52.519c10.817 38.918 21.085 75.876 21.085 75.875.481 1.741.834 3.431 1.052 5.023 2.795 20.487-11.599 39.43-32.087 42.225-20.487 2.813-39.429-11.6-42.225-32.088-.221-1.621-.334-3.32-.344-5.195-.023-4.142-3.391-7.446-7.542-7.458-4.142.023-7.481 3.399-7.458 7.542.014 2.531.172 4.867.482 7.14 3.586 26.287 26.156 45.407 51.983 45.407z"/><path d="m242.014 42.824-93.497-12.756c-3.721-.497-7.235 1.81-8.24 5.423l-53.146 191.202c-.218.785-.418 1.507-.571 2.188-1.049 3.662-1.813 7.345-2.302 10.935-3.074 22.536 3.305 44.223 16.088 61.043-.032.024 24.993 32.955 24.993 32.955 3.636 4.785 5.191 10.699 4.379 16.654l-12.241 89.733-21.985 18.043c-13.13 10.776-30.308 15.645-47.143 13.344 0 0-14.862-2.027-14.862-2.027-4.104-.558-7.885 2.313-8.445 6.418-.56 4.104 2.313 7.885 6.417 8.445l201.632 27.507c.344.047.686.069 1.023.069 3.692 0 6.909-2.727 7.422-6.487.56-4.104-2.313-7.885-6.417-8.445l-14.869-2.028c-16.827-2.298-32.076-11.585-41.838-25.481l-16.349-23.273 12.242-89.734c.812-5.955 3.895-11.236 8.68-14.872l32.931-25.024-.036-.047c16.821-12.782 28.788-31.952 31.863-54.488.484-3.548.739-7.29.757-11.159v-200.708c0-3.75-2.77-6.923-6.486-7.43zm-75.877 435.355c2.727 3.883 5.815 7.459 9.176 10.73l-82.004-11.187c4.11-2.25 8.034-4.875 11.699-7.882l21.731-17.836 23.239 3.172zm-6.694-123.656-11.626 85.219-14.862-2.028 11.625-85.218c1.104-8.092-.417-16.139-4.301-23.158 4.67 1.531 9.53 2.686 14.57 3.373 3.766.514 7.508.763 11.208.763 1.241 0 2.477-.03 3.708-.085-5.609 5.717-9.22 13.053-10.322 21.134zm74.057-103.6c-.016 3.226-.218 6.225-.62 9.168-4.611 33.799-33.629 58.384-66.834 58.381-3.025 0-6.09-.204-9.17-.625-36.878-5.031-62.788-39.126-57.756-76.004.399-2.927 1.026-5.944 1.863-8.97.006-.021.012-.042.017-.063.697-2.544 42.79-153.953 51.976-186.994l80.524 10.984z"/><path d="m138.055 155.491-22.614 81.379c-.661 2.39-1.151 4.741-1.459 7.001-3.913 28.683 16.239 55.201 44.922 59.115 2.396.326 4.777.485 7.131.485 25.824 0 48.397-19.122 51.983-45.408.311-2.275.468-4.611.481-7.182v-93.382c0-4.143-3.358-7.5-7.5-7.5h-65.718c-3.368 0-6.323 2.247-7.226 5.492zm65.445 9.508v85.842c-.01 1.872-.123 3.571-.344 5.194-2.795 20.486-21.732 34.884-42.225 32.087-20.488-2.795-34.882-21.737-32.087-42.224.218-1.594.571-3.282 1.05-5.017-.001.003 21.087-75.883 21.087-75.883h52.519z"/></g></svg>