<svg id="Capa_1" enable-background="new 0 0 512 512" height="512" viewBox="0 0 512 512" width="512" xmlns="http://www.w3.org/2000/svg"><g><path d="m413.5 399.5v105h30c33.137 0 60-26.863 60-60v-45z" fill="#ffc1b0"/><path d="m113.5 399.5v45c0 33.137 26.863 60 60 60h240c30.695 0 55.99-23.055 59.554-52.79z" fill="#ffdac7"/><path d="m503.5 155.601c0-27.906-19.151-51.424-45-58.101v-45h-150l164.554 399.21c18.175-10.311 30.446-29.821 30.446-52.21z" fill="#ffdac7"/><path d="m398.5 110.6v-58.1h-240v45c-25.849 6.677-45 30.195-45 58.101h-30c-41.421 0-75 33.579-75 75v93.899c0 41.421 33.579 75 75 75h30c0 33.137 26.863 60 60 60h270c10.749 0 20.828-2.84 29.554-7.79.284-2.365.446-4.768.446-7.21v-45l-60-273.9c-8.284 0-15-6.716-15-15zm-315 243.9c-16.569 0-30-13.431-30-30v-93.898c0-16.569 13.431-30 30-30h30v153.898z" fill="#ffecc7"/><path d="m428.6 7.5-120.1 135h150v-135z" fill="#ffdac7"/><path d="m158.5 7.5v135h255v-90h15v-45z" fill="#ffecc7"/><path d="m458.5 37.5h-30v30h30c8.284 0 15-6.716 15-15s-6.716-15-15-15z" fill="#ffc1b0"/><path d="m443.5 52.5c0-8.284-6.716-15-15-15h-270c-8.284 0-15 6.716-15 15s6.716 15 15 15h270c8.284 0 15-6.716 15-15z" fill="#ffdac7"/><path d="m443.5 309.5-30 120h30c16.568 0 30-13.431 30-30v-90z" fill="#524051"/><path d="m443.5 399.5v-90h-300v90c0 16.569 13.431 30 30 30h240c16.569 0 30-13.432 30-30z" fill="#7e4158"/><path d="m443.5 125.6h-30v105h60v-75c0-16.57-13.43-30-30-30z" fill="#ffa294"/><path d="m173.5 125.6c-16.569 0-30 13.431-30 30v75l30 135h270v-210c0-16.569-13.431-30-30-30z" fill="#ffc1b0"/><path d="m443.5 200.601-60 99.449 60 99.449c16.568 0 30-13.431 30-30v-138.898c0-16.568-13.431-30-30-30z" fill="#b53a4c"/><path d="m353.5 200.601c-16.568 0-30 13.432-30 30v106.949c0 8.284-6.716 15-15 15s-15-6.716-15-15v-106.949c0-16.568-13.431-30-30-30s-30 13.432-30 30v46.949c0 8.284-6.716 15-15 15s-15-6.716-15-15v-46.949c0-16.568-13.431-30-30-30s-30 13.432-30 30v138.899c0 16.569 13.431 30 30 30h270v-198.899z" fill="#e0343f"/><path d="m188.5 105h240c4.143 0 7.5-3.357 7.5-7.5s-3.357-7.5-7.5-7.5h-240c-4.142 0-7.5 3.357-7.5 7.5s3.358 7.5 7.5 7.5z"/><path d="m443.5 118.102h-270c-20.678 0-37.5 16.822-37.5 37.5v243.898c0 20.678 16.822 37.5 37.5 37.5h270c20.678 0 37.5-16.822 37.5-37.5v-243.898c0-20.678-16.822-37.5-37.5-37.5zm-270 15h270c12.406 0 22.5 10.094 22.5 22.5v45.021c-6.272-4.719-14.064-7.521-22.5-7.521h-90c-20.678 0-37.5 16.822-37.5 37.5v106.949c0 4.136-3.364 7.5-7.5 7.5s-7.5-3.364-7.5-7.5v-106.949c0-20.678-16.822-37.5-37.5-37.5s-37.5 16.822-37.5 37.5v46.949c0 4.136-3.364 7.5-7.5 7.5s-7.5-3.364-7.5-7.5v-46.949c0-20.678-16.822-37.5-37.5-37.5-8.436 0-16.228 2.801-22.5 7.521v-45.021c0-12.407 10.093-22.5 22.5-22.5zm270 288.898h-270c-12.407 0-22.5-10.094-22.5-22.5 6.272 4.699 14.064 7.5 22.5 7.5h270c8.436 0 16.228-2.801 22.5-7.521 0 12.427-10.094 22.521-22.5 22.521zm22.5-52.5c0 12.406-10.094 22.5-22.5 22.5h-270c-12.407 0-22.5-10.094-22.5-22.5v-138.898c0-12.406 10.093-22.5 22.5-22.5s22.5 10.094 22.5 22.5v46.949c0 12.406 10.093 22.5 22.5 22.5s22.5-10.094 22.5-22.5v-46.949c0-12.406 10.093-22.5 22.5-22.5 12.406 0 22.5 10.094 22.5 22.5v106.949c0 12.406 10.094 22.5 22.5 22.5s22.5-10.094 22.5-22.5v-106.949c0-12.406 10.094-22.5 22.5-22.5h90c12.406 0 22.5 10.094 22.5 22.5z"/><path d="m113.5 193.102h-30c-20.678 0-37.5 16.822-37.5 37.5v93.898c0 20.678 16.822 37.5 37.5 37.5h30c4.142 0 7.5-3.357 7.5-7.5v-153.898c0-4.143-3.358-7.5-7.5-7.5zm-7.5 153.898h-22.5c-12.407 0-22.5-10.094-22.5-22.5v-93.898c0-12.406 10.093-22.5 22.5-22.5h22.5z"/><path d="m466 91.954v-18.244c8.729-3.096 15-11.433 15-21.21 0-9.778-6.27-18.119-15-21.215v-23.785c0-4.143-3.357-7.5-7.5-7.5h-300c-4.142 0-7.5 3.357-7.5 7.5v23.785c-8.73 3.096-15 11.437-15 21.215 0 9.777 6.271 18.114 15 21.21v18.244c-24.42 8.62-41.733 30.503-44.585 56.147h-22.915c-45.491 0-82.5 37.01-82.5 82.5v93.899c0 45.49 37.009 82.5 82.5 82.5h22.5v37.5c0 37.22 30.28 67.5 67.5 67.5h270c37.22 0 67.5-30.28 67.5-67.5v-288.898c0-28.811-18.23-54.199-45-63.648zm-307.5-46.954c4.142 0 7.5-3.357 7.5-7.5v-22.5h285v15h-262.5c-4.142 0-7.5 3.357-7.5 7.5s3.358 7.5 7.5 7.5h270c4.136 0 7.5 3.364 7.5 7.5s-3.364 7.5-7.5 7.5h-300c-4.136 0-7.5-3.364-7.5-7.5s3.364-7.5 7.5-7.5zm337.5 399.5c0 28.948-23.552 52.5-52.5 52.5h-270c-28.949 0-52.5-23.552-52.5-52.5v-2.639c12.384 15.319 31.313 25.139 52.5 25.139h270c21.187 0 40.116-9.82 52.5-25.139zm-52.5 7.5h-270c-28.949 0-52.5-23.552-52.5-52.5 0-4.143-3.358-7.5-7.5-7.5h-30c-37.22 0-67.5-30.28-67.5-67.5v-93.898c0-37.22 30.28-67.5 67.5-67.5h30c4.142 0 7.5-3.357 7.5-7.5 0-23.944 16.192-44.851 39.376-50.84 3.311-.855 5.624-3.842 5.624-7.262v-22.5h285v22.5c0 3.42 2.313 6.406 5.624 7.262 23.184 5.989 39.376 26.896 39.376 50.84v243.898c0 28.948-23.552 52.5-52.5 52.5z"/></g></svg>