<svg id="Capa_1" enable-background="new 0 0 512 512" height="512" viewBox="0 0 512 512" width="512" xmlns="http://www.w3.org/2000/svg"><g><path d="m196 196h120v120h-120z" fill="#ff4040"/><path d="m474.5 256-30-30v278.501h30c16.569 0 30-13.431 30-30v-188.501c0-16.568-13.431-30-30-30z" fill="#7e4158"/><path d="m256 286-124.25 94.25 124.25 94.25c0 16.569 13.431 30 30 30h158.5c16.569 0 30-13.431 30-30v-188.5c0-16.569-13.431-30-30-30l-64.25-124.25-94.25 124.25c-16.568 0-30 13.431-30 30z" fill="#b53a4c"/><path d="m316 316 32.125 64.25h64.25l32.125-64.25z" fill="#7e4158"/><path d="m412.375 380.25h-64.25l-32.125 64.25h128.5z" fill="#7e4158"/><path d="m316 316v128.5l64.25-64.25z" fill="#524051"/><path d="m380.25 380.25 64.25 64.25v-128.5z" fill="#524051"/><path d="m346 346.001h68.5v68.5h-68.5z" fill="#e0343f"/><path d="m474.5 7.5h-30.001l-64.25 124.25 64.251 124.25h30c16.569 0 30-13.431 30-30v-188.5c0-16.568-13.431-30-30-30z" fill="#b53a4c"/><path d="m256 37.5-124.25 94.25 124.25 94.25c0 16.569 13.431 30 30 30h158.5c16.569 0 30-13.431 30-30v-188.5c0-16.568-13.431-30-30-30h-158.5c-16.568 0-30 13.431-30 30z" fill="#e0343f"/><path d="m316 67.5 32.125 64.25h64.25l32.125-64.25z" fill="#b53a4c"/><path d="m412.375 131.75h-64.25l-32.125 64.25h128.5z" fill="#b53a4c"/><path d="m316 67.5v128.5l64.25-64.25z" fill="#7e4158"/><path d="m380.25 131.75 64.25 64.25v-128.5z" fill="#7e4158"/><path d="m346 97.501h68.5v68.5h-68.5z" fill="#ff4040"/><path d="m226 256-30-30v278.501h30c16.569 0 30-13.431 30-30v-188.501c0-16.568-13.431-30-30-30z" fill="#7e4158"/><path d="m7.5 286v188.5c0 16.569 13.431 30 30 30h158.5c16.569 0 30-13.431 30-30v-188.5c0-16.569-13.431-30-30-30l-64.25-124.25-94.25 124.25c-16.568 0-30 13.431-30 30z" fill="#b53a4c"/><path d="m67.5 316 32.125 64.25h64.25l32.125-64.25z" fill="#7e4158"/><path d="m163.875 380.25h-64.25l-32.125 64.25h128.5z" fill="#7e4158"/><path d="m67.5 316v128.5l64.25-64.25z" fill="#524051"/><path d="m131.75 380.25 64.25 64.25v-128.5z" fill="#524051"/><path d="m97.5 346.001h68.5v68.5h-68.5z" fill="#e0343f"/><path d="m226 7.5h-30l-64.25 124.25 64.25 124.25h30c16.569 0 30-13.431 30-30v-188.5c0-16.568-13.431-30-30-30z" fill="#b53a4c"/><path d="m7.5 37.5v188.5c0 16.569 13.431 30 30 30h158.5c16.569 0 30-13.431 30-30v-188.5c0-16.568-13.431-30-30-30h-158.5c-16.568 0-30 13.431-30 30z" fill="#e0343f"/><path d="m67.5 67.5 32.125 64.25h64.25l32.125-64.25z" fill="#b53a4c"/><path d="m163.875 131.75h-64.25l-32.125 64.25h128.5z" fill="#b53a4c"/><path d="m67.5 67.5v128.5l64.25-64.25z" fill="#7e4158"/><path d="m131.75 131.75 64.25 64.25v-128.5z" fill="#7e4158"/><path d="m97.5 97.501h68.5v68.5h-68.5z" fill="#ff4040"/><path d="m316.002 452h128.5c4.143 0 7.5-3.357 7.5-7.5v-128.5c0-4.143-3.357-7.5-7.5-7.5h-128.5c-4.143 0-7.5 3.357-7.5 7.5v128.5c0 4.143 3.357 7.5 7.5 7.5zm33.107-30h62.285l15 15h-92.285zm4.393-15v-53.5h53.5v53.5zm68.5 4.393v-62.285l15-15v92.285zm-10.607-72.893h-62.285l-15-15h92.285zm-72.893 10.607v62.285l-15 15v-92.285z"/><path d="m444.502 60h-128.5c-4.143 0-7.5 3.357-7.5 7.5v128.5c0 4.143 3.357 7.5 7.5 7.5h128.5c4.143 0 7.5-3.357 7.5-7.5v-128.5c0-4.143-3.357-7.5-7.5-7.5zm-33.107 30h-62.285l-15-15h92.285zm-4.393 15v53.5h-53.5v-53.5zm-68.5-4.393v62.285l-15 15v-92.285zm10.607 72.893h62.285l15 15h-92.285zm72.893-10.607v-62.285l15-15v92.285z"/><path d="m511.998 226v-188.5c0-20.678-16.822-37.5-37.5-37.5h-188.496c-12.255 0-23.155 5.91-30.002 15.028-6.847-9.118-17.747-15.028-30.002-15.028h-188.496c-20.678 0-37.5 16.822-37.5 37.5v188.5c0 12.254 5.909 23.153 15.026 30-9.117 6.847-15.026 17.746-15.026 30v188.5c0 20.678 16.822 37.5 37.5 37.5h188.496c12.255 0 23.155-5.91 30.002-15.028 6.847 9.118 17.747 15.028 30.002 15.028h188.496c20.678 0 37.5-16.822 37.5-37.5v-188.5c0-12.254-5.909-23.153-15.026-30 9.117-6.847 15.026-17.746 15.026-30zm-248.47 30c-2.85 2.141-5.387 4.678-7.528 7.528-2.141-2.851-4.677-5.387-7.528-7.528 2.85-2.141 5.387-4.678 7.528-7.528 2.141 2.85 4.677 5.387 7.528 7.528zm-248.526-30v-188.5c0-12.406 10.094-22.5 22.5-22.5h188.496c12.406 0 22.5 10.094 22.5 22.5v188.5c0 12.406-10.094 22.5-22.5 22.5h-188.496c-12.406 0-22.5-10.094-22.5-22.5zm481.996 60v188.5c0 12.406-10.094 22.5-22.5 22.5h-188.496c-12.406 0-22.5-10.094-22.5-22.5v-79.25c0-4.143-3.357-7.5-7.5-7.5s-7.5 3.357-7.5 7.5v79.25c-.004 12.406-10.098 22.5-22.504 22.5h-188.496c-12.406 0-22.5-10.094-22.5-22.5v-188.5c0-12.406 10.094-22.5 22.5-22.5h188.496c12.406 0 22.5 10.094 22.5 22.5.004 0 .004 79.25.004 79.25 0 4.143 3.357 7.5 7.5 7.5s7.5-3.357 7.5-7.5v-79.25c0-12.406 10.094-22.5 22.5-22.5h188.496c12.406 0 22.5 10.094 22.5 22.5zm0-60c0 12.406-10.094 22.5-22.5 22.5h-188.496c-12.406 0-22.5-10.094-22.5-22.5-.004 0-.004-188.5-.004-188.5.004-12.406 10.098-22.5 22.504-22.5h188.496c12.406 0 22.5 10.094 22.5 22.5z"/><path d="m196.002 308.5h-128.5c-4.143 0-7.5 3.357-7.5 7.5v128.5c0 4.143 3.357 7.5 7.5 7.5h128.5c4.143 0 7.5-3.357 7.5-7.5v-128.5c0-4.143-3.357-7.5-7.5-7.5zm-33.107 30h-62.285l-15-15h92.285zm-4.393 15v53.5h-53.5v-53.5zm-68.5-4.393v62.285l-15 15v-92.285zm10.607 72.893h62.285l15 15h-92.285zm72.893-10.607v-62.285l15-15v92.285z"/><path d="m196.002 60h-128.5c-4.143 0-7.5 3.357-7.5 7.5v128.5c0 4.143 3.357 7.5 7.5 7.5h128.5c4.143 0 7.5-3.357 7.5-7.5v-128.5c0-4.143-3.357-7.5-7.5-7.5zm-33.107 30h-62.285l-15-15h92.285zm-4.393 15v53.5h-53.5v-53.5zm-68.5-4.393v62.285l-15 15v-92.285zm10.607 72.893h62.285l15 15h-92.285zm72.893-10.607v-62.285l15-15v92.285z"/></g></svg>