<svg id="Capa_1" enable-background="new 0 0 512 512" height="512" viewBox="0 0 512 512" width="512" xmlns="http://www.w3.org/2000/svg"><g><path d="m255.736 7.236c-137.243 0-248.5 111.257-248.5 248.5s111.257 248.5 248.5 248.5 248.5-111.257 248.5-248.5-111.258-248.5-248.5-248.5zm0 317c-37.832 0-68.5-30.668-68.5-68.5s30.668-68.5 68.5-68.5 68.5 30.668 68.5 68.5-30.669 68.5-68.5 68.5z" fill="#ffa857"/><path d="m459.955 174.745c-11.343-7.299-16.464-21.161-12.58-34.078 6.155-20.468 1.149-43.575-15.024-59.748-16.047-16.047-38.917-21.096-59.266-15.16-12.915 3.768-26.734-1.358-33.949-12.713-17.295-27.219-47.711-45.282-82.348-45.282-34.436 0-64.699 17.854-82.044 44.81-7.299 11.343-21.161 16.464-34.078 12.58-20.469-6.155-43.575-1.149-59.748 15.024-16.047 16.047-21.097 38.917-15.16 59.266 3.768 12.915-1.358 26.734-12.713 33.949-27.218 17.294-45.281 47.71-45.281 82.347 0 34.436 17.854 64.699 44.81 82.044 11.343 7.299 16.464 21.161 12.58 34.078-6.155 20.469-1.149 43.575 15.024 59.748 16.047 16.047 38.917 21.096 59.266 15.16 12.915-3.768 26.734 1.358 33.949 12.713 17.295 27.219 47.711 45.282 82.348 45.282 34.436 0 64.699-17.854 82.044-44.81 7.299-11.343 21.161-16.464 34.078-12.58 20.469 6.155 43.575 1.149 59.748-15.024 16.047-16.047 21.096-38.917 15.16-59.266-3.768-12.915 1.358-26.734 12.713-33.948 27.219-17.295 45.282-47.711 45.282-82.348-.002-34.436-17.856-64.699-44.811-82.044zm-203.691 135.019c-29.547 0-53.5-23.953-53.5-53.5s23.953-53.5 53.5-53.5 53.5 23.953 53.5 53.5-23.952 53.5-53.5 53.5z" fill="#ff8e59"/><g fill="#ff4040"><circle cx="123.346" cy="122.604" r="30"/><circle cx="122.604" cy="389.183" r="30"/><circle cx="389.183" cy="389.925" r="30"/></g><path d="m256.789 37.764v135c37.279 0 67.5-30.221 67.5-67.5s-30.221-67.5-67.5-67.5z" fill="#ffc766"/><path d="m256.789 37.764c-37.279 0-67.5 30.221-67.5 67.5s30.221 67.5 67.5 67.5c20.711 0 37.5-30.221 37.5-67.5s-16.789-67.5-37.5-67.5z" fill="#ffdc96"/><path d="m105.264 188.24v135c37.279 0 67.5-30.221 67.5-67.5s-30.22-67.5-67.5-67.5z" fill="#ffc766"/><path d="m105.264 188.24c-37.279 0-67.5 30.221-67.5 67.5s30.221 67.5 67.5 67.5c20.711 0 37.5-30.221 37.5-67.5s-16.789-67.5-37.5-67.5z" fill="#ffdc96"/><path d="m255.74 339.764v135c37.279 0 67.5-30.221 67.5-67.5s-30.221-67.5-67.5-67.5z" fill="#ffc766"/><path d="m255.74 339.764c-37.279 0-67.5 30.221-67.5 67.5s30.221 67.5 67.5 67.5c20.711 0 37.5-30.221 37.5-67.5s-16.789-67.5-37.5-67.5z" fill="#ffdc96"/><path d="m407.264 189.289v135c37.279 0 67.5-30.221 67.5-67.5s-30.22-67.5-67.5-67.5z" fill="#ffc766"/><path d="m407.264 189.289c-37.279 0-67.5 30.221-67.5 67.5s30.221 67.5 67.5 67.5c20.711 0 37.5-30.221 37.5-67.5s-16.789-67.5-37.5-67.5z" fill="#ffdc96"/><path d="m275.538 72.788c-11.208-6.473-25.474-6.943-37.503.002l-18.745 32.473c-.016 6.372 1.599 12.829 5.019 18.753 3.42 5.923 8.205 10.551 13.727 13.737.004-.014 37.498-.011 37.498-.011 12.029-6.945 18.755-19.535 18.753-32.478z" fill="#fff"/><path d="m275.538 72.788c5.523 3.185 10.307 7.813 13.722 13.728s5.03 12.373 5.028 18.748l-37.495-.003z" fill="#ffecc7"/><path d="m256.785 105.266 18.75 32.476c-12.02 6.94-26.278 6.465-37.499.011.004-.014 18.749-32.487 18.749-32.487z" fill="#ffecc7"/><path d="m238.035 72.79 18.75 32.476-37.495-.003c.007-12.948 6.724-25.533 18.745-32.473z" fill="#ffecc7"/><path d="m72.788 236.991c-6.473 11.208-6.943 25.474.002 37.503l32.473 18.745c6.372.016 12.829-1.599 18.753-5.019 5.923-3.42 10.551-8.205 13.737-13.727-.014-.004-.011-37.498-.011-37.498-6.945-12.029-19.535-18.755-32.478-18.753z" fill="#fff"/><path d="m72.788 236.991c3.185-5.523 7.813-10.307 13.728-13.722s12.373-5.03 18.748-5.028l-.003 37.495z" fill="#ffecc7"/><path d="m105.266 255.744 32.476-18.75c6.94 12.02 6.465 26.278.011 37.499-.014-.004-32.487-18.749-32.487-18.749z" fill="#ffecc7"/><path d="m72.79 274.494 32.476-18.75-.003 37.495c-12.948-.007-25.533-6.724-32.473-18.745z" fill="#ffecc7"/><path d="m236.991 439.741c11.208 6.473 25.474 6.943 37.503-.002l18.745-32.473c.016-6.372-1.599-12.829-5.019-18.753-3.42-5.923-8.205-10.551-13.727-13.737-.004.014-37.498.011-37.498.011-12.029 6.945-18.755 19.535-18.753 32.478z" fill="#fff"/><path d="m236.991 439.741c-5.523-3.185-10.307-7.813-13.722-13.728s-5.03-12.373-5.028-18.748l37.495.003z" fill="#ffecc7"/><path d="m255.744 407.263-18.75-32.476c12.02-6.94 26.278-6.465 37.499-.011-.004.014-18.749 32.487-18.749 32.487z" fill="#ffecc7"/><path d="m274.494 439.739-18.75-32.476 37.495.003c-.007 12.948-6.724 25.533-18.745 32.473z" fill="#ffecc7"/><path d="m439.741 275.538c6.473-11.208 6.943-25.474-.002-37.503l-32.473-18.745c-6.372-.016-12.829 1.599-18.753 5.019-5.923 3.42-10.551 8.205-13.737 13.727.014.004.011 37.498.011 37.498 6.945 12.029 19.535 18.755 32.478 18.753z" fill="#fff"/><path d="m439.741 275.538c-3.185 5.523-7.813 10.307-13.728 13.722s-12.373 5.03-18.748 5.028l.003-37.495z" fill="#ffecc7"/><path d="m407.263 256.785-32.476 18.75c-6.94-12.02-6.465-26.278-.011-37.499.014.004 32.487 18.749 32.487 18.749z" fill="#ffecc7"/><path d="m439.739 238.035-32.476 18.75.003-37.495c12.948.007 25.533 6.724 32.473 18.745z" fill="#ffecc7"/><circle cx="389.925" cy="123.346" fill="#ff4040" r="30"/><circle cx="347.234" cy="165.507" r="7.5"/><circle cx="326.021" cy="186.721" r="7.5"/><path d="m160.204 170.069c2.929 2.929 7.677 2.929 10.606 0s2.929-7.677 0-10.606-7.677-2.929-10.606 0-2.929 7.677 0 10.606z"/><path d="m192.024 191.282c2.929-2.929 2.929-7.678 0-10.607s-7.677-2.929-10.606 0-2.929 7.678 0 10.607c2.928 2.929 7.677 2.929 10.606 0z"/><circle cx="164.766" cy="346.492" r="7.5"/><circle cx="185.979" cy="325.279" r="7.5"/><circle cx="346.492" cy="347.234" r="7.5"/><circle cx="325.279" cy="326.021" r="7.5"/><path d="m437.02 74.98c-48.353-48.351-112.64-74.98-181.02-74.98s-132.668 26.629-181.02 74.98-74.98 112.64-74.98 181.02 26.629 132.667 74.98 181.02c48.352 48.351 112.64 74.98 181.02 74.98s132.667-26.629 181.02-74.98c48.351-48.353 74.98-112.64 74.98-181.02s-26.629-132.668-74.98-181.02zm-13.994 354.585c-13.517 11.566-32.029 15.55-49.27 10.363-16.006-4.813-33.5 1.646-42.544 15.704-16.668 25.903-44.981 41.368-75.736 41.368-30.968 0-59.387-15.628-76.019-41.805-6.988-10.998-19.201-17.39-31.875-17.39-3.5 0-7.034.487-10.504 1.499-17.2 5.018-35.654.924-49.062-10.665-1.86-1.811-3.696-3.646-5.498-5.515-11.63-13.526-15.644-32.084-10.446-49.368 4.812-16.003-1.646-33.498-15.704-42.544-25.903-16.668-41.368-44.981-41.368-75.736 0-30.968 15.628-59.386 41.804-76.019 14.034-8.917 20.569-26.344 15.892-42.379-5.02-17.206-.923-35.666 10.674-49.074 1.859-1.91 3.755-3.782 5.676-5.63 13.512-11.519 31.989-15.478 49.198-10.302 16.001 4.809 33.498-1.646 42.544-15.704 16.667-25.903 44.981-41.368 75.736-41.368 30.968 0 59.386 15.627 76.018 41.804 8.917 14.033 26.343 20.572 42.38 15.892 17.229-5.026 35.718-.911 49.13 10.722 1.869 1.82 3.702 3.676 5.511 5.555 11.566 13.518 15.55 32.028 10.364 49.271-4.812 16.004 1.646 33.499 15.704 42.544 25.904 16.667 41.369 44.981 41.369 75.736 0 30.969-15.628 59.386-41.805 76.018-14.034 8.917-20.568 26.345-15.891 42.38 5.023 17.213.918 35.682-10.691 49.093-1.831 1.881-3.696 3.729-5.587 5.55zm-34.461 27.598c-20.014 13.233-42.108 23.552-65.678 30.372 8.012-6.724 15.093-14.701 20.939-23.786 5.531-8.599 15.824-12.402 25.61-9.456 6.306 1.896 12.744 2.835 19.129 2.87zm-201.025 29.931c-23.434-6.954-45.387-17.385-65.262-30.69 6.341.006 12.735-.871 19.001-2.699 9.82-2.866 20.072.966 25.518 9.535 5.783 9.103 12.801 17.095 20.743 23.854zm-129.245-345.815c2.864 9.818-.968 20.073-9.536 25.518-9.091 5.776-17.069 12.787-23.822 20.717 6.952-23.414 17.36-45.354 30.653-65.214-.005 6.334.879 12.721 2.705 18.979zm-3.457 247.292c-13.252-20.041-23.6-42.162-30.42-65.768 6.737 8.042 14.72 15.158 23.833 21.022 8.599 5.533 12.398 15.826 9.456 25.611-1.897 6.308-2.834 12.748-2.869 19.135zm68.575-333.729c20.04-13.253 42.167-23.592 65.771-30.414-8.037 6.735-15.149 14.714-21.01 23.823-5.533 8.599-15.825 12.4-25.611 9.456-6.313-1.898-12.758-2.832-19.15-2.865zm201.05-29.929c23.438 6.956 45.395 17.385 65.272 30.693-6.345-.007-12.744.86-19.014 2.689-9.824 2.867-20.074-.968-25.519-9.536-5.782-9.1-12.799-17.089-20.739-23.846zm132.696 98.509c13.242 20.025 23.576 42.132 30.396 65.717-6.729-8.022-14.711-15.113-23.806-20.966-8.599-5.532-12.398-15.824-9.456-25.61 1.897-6.31 2.831-12.752 2.866-19.141zm-3.454 247.299c-2.865-9.819.967-20.074 9.535-25.519 9.096-5.779 17.09-12.787 23.845-20.723-6.955 23.427-17.379 45.377-30.681 65.247.007-6.342-.871-12.738-2.699-19.005z"/><path d="m256.524 180c41.355 0 75-33.645 75-75s-33.645-75-75-75-75 33.645-75 75 33.645 75 75 75zm0-135c33.084 0 60 26.916 60 60s-26.916 60-60 60-60-26.916-60-60 26.916-60 60-60z"/><path d="m256.524 149.999c24.813 0 45-20.187 45-45s-20.187-45-45-45-45 20.187-45 45 20.187 45 45 45zm-21.008-66.389 8.019 13.889h-16.061c1.382-5.353 4.213-10.127 8.042-13.889zm50.059 13.889h-16.061l8.019-13.889c3.829 3.762 6.659 8.536 8.042 13.889zm-8.042 28.888-8.019-13.888h16.06c-1.382 5.353-4.212 10.127-8.041 13.888zm-33.999-13.888-8.019 13.888c-3.829-3.761-6.659-8.536-8.042-13.888zm4.965 21.401 8.026-13.901 8.026 13.901c-2.556.711-5.246 1.099-8.026 1.099s-5.47-.388-8.026-1.099zm16.051-57.802-8.025 13.901-8.025-13.901c2.556-.711 5.246-1.099 8.025-1.099s5.469.388 8.025 1.099z"/><path d="m105 180.476c-41.355 0-75 33.645-75 75s33.645 75 75 75 75-33.645 75-75-33.645-75-75-75zm0 135c-33.084 0-60-26.916-60-60s26.916-60 60-60 60 26.916 60 60-26.916 60-60 60z"/><path d="m104.999 210.476c-24.813 0-45 20.187-45 45s20.187 45 45 45 45-20.187 45-45-20.186-45-45-45zm30 45c0 2.78-.388 5.469-1.099 8.026l-13.901-8.026 13.901-8.026c.711 2.556 1.099 5.246 1.099 8.026zm-60 0c0-2.78.388-5.469 1.099-8.025l13.901 8.025-13.901 8.025c-.711-2.556-1.099-5.246-1.099-8.025zm51.388-21.009-13.888 8.019v-16.06c5.353 1.382 10.127 4.212 13.888 8.041zm-28.888-8.042v16.061l-13.889-8.019c3.762-3.829 8.536-6.659 13.889-8.042zm-13.889 50.059 13.889-8.019v16.061c-5.353-1.382-10.127-4.213-13.889-8.042zm28.889 8.042v-16.06l13.888 8.019c-3.761 3.828-8.535 6.659-13.888 8.041z"/><path d="m255.476 332c-41.355 0-75 33.645-75 75s33.645 75 75 75 75-33.645 75-75-33.645-75-75-75zm0 135c-33.084 0-60-26.916-60-60s26.916-60 60-60 60 26.916 60 60-26.916 60-60 60z"/><path d="m255.476 362.001c-24.813 0-45 20.187-45 45s20.187 45 45 45 45-20.187 45-45-20.187-45-45-45zm21.009 66.388-8.019-13.888h16.061c-1.383 5.353-4.214 10.127-8.042 13.888zm-50.06-13.888h16.061l-8.019 13.888c-3.829-3.761-6.659-8.535-8.042-13.888zm8.042-28.888 8.019 13.888h-16.061c1.383-5.353 4.213-10.127 8.042-13.888zm33.999 13.888 8.019-13.888c3.829 3.761 6.659 8.536 8.042 13.888zm-4.965-21.401-8.026 13.901-8.025-13.901c2.556-.711 5.246-1.099 8.026-1.099s5.469.388 8.025 1.099zm-16.051 57.802 8.026-13.901 8.026 13.901c-2.556.711-5.246 1.099-8.026 1.099s-5.47-.388-8.026-1.099z"/><path d="m407 331.524c41.355 0 75-33.645 75-75s-33.645-75-75-75-75 33.645-75 75 33.645 75 75 75zm0-135c33.084 0 60 26.916 60 60s-26.916 60-60 60-60-26.916-60-60 26.916-60 60-60z"/><path d="m407.001 301.524c24.813 0 45-20.187 45-45s-20.187-45-45-45-45 20.187-45 45 20.187 45 45 45zm-30-45c0-2.78.388-5.469 1.099-8.026l13.901 8.026-13.901 8.026c-.711-2.556-1.099-5.246-1.099-8.026zm60 0c0 2.78-.388 5.469-1.099 8.026l-13.901-8.026 13.901-8.026c.711 2.557 1.099 5.246 1.099 8.026zm-51.388 21.009 13.888-8.019v16.061c-5.353-1.383-10.127-4.213-13.888-8.042zm28.888 8.042v-16.061l13.888 8.019c-3.761 3.829-8.535 6.659-13.888 8.042zm13.888-50.06-13.888 8.019v-16.061c5.353 1.383 10.127 4.214 13.888 8.042zm-28.888-8.041v16.061l-13.888-8.019c3.761-3.829 8.535-6.66 13.888-8.042z"/><path d="m123.081 159.84c10.017 0 19.434-3.901 26.517-10.983 14.621-14.622 14.621-38.412 0-53.033-7.083-7.083-16.5-10.984-26.517-10.984s-19.434 3.901-26.517 10.983c-14.621 14.622-14.621 38.412 0 53.034 7.083 7.081 16.5 10.983 26.517 10.983zm-15.909-53.41c4.249-4.25 9.899-6.591 15.909-6.591s11.66 2.341 15.909 6.591c8.773 8.772 8.773 23.047 0 31.82-4.249 4.249-9.899 6.59-15.909 6.59s-11.66-2.341-15.909-6.591c-8.774-8.772-8.774-23.047 0-31.819z"/><path d="m95.822 362.401c-14.621 14.622-14.621 38.412 0 53.034 7.312 7.311 16.914 10.966 26.517 10.966 9.604 0 19.206-3.655 26.518-10.966 14.621-14.622 14.621-38.412 0-53.034-14.623-14.621-38.411-14.622-53.035 0zm42.427 42.427c-8.772 8.774-23.049 8.772-31.819 0-8.773-8.772-8.773-23.047 0-31.819 4.386-4.387 10.147-6.58 15.91-6.58 5.762 0 11.523 2.193 15.909 6.58 8.773 8.772 8.773 23.047 0 31.819z"/><path d="m362.401 363.144c-14.621 14.622-14.621 38.412.001 53.034 7.311 7.31 16.913 10.965 26.516 10.965 9.604 0 19.206-3.655 26.518-10.965 14.621-14.622 14.621-38.412 0-53.034-14.623-14.622-38.412-14.621-53.035 0zm42.428 42.426c-8.774 8.772-23.048 8.772-31.82 0-8.773-8.772-8.773-23.047 0-31.819 4.386-4.387 10.147-6.58 15.909-6.58 5.763 0 11.524 2.193 15.91 6.58 8.774 8.772 8.774 23.047.001 31.819z"/><path d="m389.66 160.563c9.604 0 19.206-3.655 26.518-10.966 14.62-14.621 14.62-38.411 0-53.033-14.622-14.62-38.41-14.622-53.034 0-7.082 7.083-10.983 16.5-10.983 26.517s3.901 19.434 10.983 26.517c7.311 7.31 16.914 10.965 26.516 10.965zm-15.909-53.391c4.387-4.388 10.147-6.58 15.91-6.58 5.761 0 11.523 2.193 15.909 6.579 8.772 8.773 8.772 23.048 0 31.819-8.772 8.774-23.048 8.772-31.82 0-4.249-4.249-6.59-9.899-6.59-15.909s2.341-11.66 6.591-15.909z"/><path d="m212.688 223.716c-3.631-1.993-8.189-.667-10.185 2.964-4.908 8.937-7.503 19.076-7.503 29.32 0 33.636 27.364 61 61 61s61-27.364 61-61-27.364-61-61-61c-10.244 0-20.383 2.595-29.32 7.503-3.631 1.994-4.957 6.554-2.964 10.185 1.994 3.631 6.554 4.957 10.185 2.964 6.731-3.697 14.373-5.651 22.1-5.651 25.364 0 46 20.636 46 46s-20.636 46-46 46-46-20.636-46-46c0-7.727 1.954-15.368 5.651-22.1 1.993-3.631.666-8.191-2.964-10.185z"/></g></svg>