<svg xmlns="http://www.w3.org/2000/svg" viewBox="0 0 86.81 58.91"><defs><style>.cls-1{fill:#71cfff;}.cls-2,.cls-3,.cls-4{fill:none;stroke:#727171;stroke-miterlimit:10;}.cls-3{stroke-width:0.75px;}.cls-4{stroke-width:0.4px;}</style></defs><g id="Layer_3" data-name="Layer 3"><polygon class="cls-1" points="30.67 56.73 20.79 56.88 10.95 56.49 1.13 56.65 1.13 47.5 1.25 38.34 0.96 29.17 0.89 20 0.85 10.83 1.12 1.67 10.94 1.51 20.78 1.78 30.76 1.5 30.68 10.82 30.36 19.99 30.36 29.16 30.4 38.32 30.41 47.49 30.67 56.73"/><polygon class="cls-2" points="30.67 56.73 20.79 56.88 10.95 56.49 1.13 56.65 1.13 47.5 1.25 38.34 0.96 29.17 0.89 20 0.85 10.83 1.12 1.67 10.94 1.51 20.78 1.78 30.76 1.5 30.68 10.82 30.36 19.99 30.36 29.16 30.4 38.32 30.41 47.49 30.67 56.73"/><polygon class="cls-3" points="30.62 57.67 20.49 57.57 10.44 56.9 0.39 56.81 0.62 47.42 0.99 38.02 0.93 28.6 1.1 19.19 1.31 9.78 1.83 0.38 11.88 0.47 21.94 1.01 32.17 0.98 31.84 10.55 31.27 19.95 31.02 29.36 30.82 38.77 30.59 48.18 30.62 57.67"/><polygon class="cls-1" points="83.67 57.1 73.69 57.25 63.77 56.86 53.85 57.01 43.94 57.02 44.06 47.87 43.77 38.71 43.7 29.54 43.67 20.38 43.94 11.21 43.82 1.92 53.85 2.15 63.76 1.81 73.69 1.97 83.44 2.22 83.36 11.2 83.4 20.36 83.41 29.53 83.35 38.69 83.85 47.86 83.67 57.1"/><polygon class="cls-2" points="83.67 57.1 73.69 57.25 63.77 56.86 53.85 57.01 43.94 57.02 44.06 47.87 43.77 38.71 43.7 29.54 43.67 20.38 43.94 11.21 43.82 1.92 53.85 2.15 63.76 1.81 73.69 1.97 83.44 2.22 83.36 11.2 83.4 20.36 83.41 29.53 83.35 38.69 83.85 47.86 83.67 57.1"/><polygon class="cls-2" points="84.68 56.23 74.9 56.69 65.17 56.59 55.45 57.05 45.74 57.37 45.58 48.2 45 39.02 44.64 29.84 44.32 20.65 44.3 11.46 43.9 2.16 53.73 2.08 63.43 1.43 73.16 1.29 82.72 1.24 82.92 10.24 83.25 19.42 83.54 28.61 83.76 37.79 84.56 46.96 84.68 56.23"/><polygon class="cls-4" points="82.66 57.63 73.42 58.08 64.23 57.96 55.06 58.41 45.88 58.71 45.72 49.37 45.13 40.03 44.76 30.68 44.43 21.33 44.42 11.96 44 2.5 53.3 2.44 62.47 1.8 71.65 1.68 80.66 1.65 80.87 10.81 81.2 20.16 81.5 29.51 81.73 38.86 82.55 48.2 82.66 57.63"/></g><g id="Layer_2" data-name="Layer 2"><path d="M189.88,186a8.8,8.8,0,0,0-1.71-1.49,11.29,11.29,0,0,0-2.19-1.14,14.71,14.71,0,0,0-2.61-.78,13.82,13.82,0,0,0-2.94-.3q-4.53,0-6.65,1.73a5.74,5.74,0,0,0-2.12,4.69,4.73,4.73,0,0,0,1,3.21,7,7,0,0,0,3.14,1.9q2.14.74,5.46,1.51a38.74,38.74,0,0,1,6.38,1.85,9.84,9.84,0,0,1,4.14,2.89,7.71,7.71,0,0,1,1.46,4.94,8.68,8.68,0,0,1-.93,4.13,8.21,8.21,0,0,1-2.58,2.92,11.41,11.41,0,0,1-3.94,1.72,20.8,20.8,0,0,1-5,.56,22.68,22.68,0,0,1-5.14-.56,20.39,20.39,0,0,1-4.65-1.65,18.57,18.57,0,0,1-4.09-2.8l1.7-2.78a12.89,12.89,0,0,0,2.22,1.83,18.08,18.08,0,0,0,2.87,1.53,16.53,16.53,0,0,0,3.41,1,19.54,19.54,0,0,0,3.78.36,11.79,11.79,0,0,0,6.45-1.5,5,5,0,0,0,2.31-4.47,4.9,4.9,0,0,0-1.17-3.43,8.33,8.33,0,0,0-3.5-2.12,53.6,53.6,0,0,0-5.75-1.61,39.67,39.67,0,0,1-6.09-1.84,8.47,8.47,0,0,1-3.72-2.7,7.29,7.29,0,0,1-1.25-4.45,9.08,9.08,0,0,1,1.59-5.43,9.73,9.73,0,0,1,4.36-3.35,16.66,16.66,0,0,1,6.38-1.15,18.6,18.6,0,0,1,4.26.47,15.41,15.41,0,0,1,3.65,1.34,14.78,14.78,0,0,1,3.14,2.19Z" transform="translate(-158.89 -167.34)"/><path d="M242.29,214.06V185.91l-12.52,21.87h-2.14l-12.57-21.87v28.15h-3.41V179.48h3.51l13.49,23.67,13.59-23.67h3.46v34.58Z" transform="translate(-158.89 -167.34)"/></g></svg>