<svg xmlns="http://www.w3.org/2000/svg" viewBox="0 0 319.88 58.91"><defs><style>.cls-1{fill:#71cfff;}.cls-2,.cls-3,.cls-4{fill:none;stroke:#727171;stroke-miterlimit:10;}.cls-3{stroke-width:0.75px;}.cls-4{stroke-width:0.4px;}</style></defs><g id="Layer_3" data-name="Layer 3"><polygon class="cls-1" points="30.67 56.73 20.79 56.88 10.95 56.49 1.13 56.65 1.13 47.5 1.25 38.34 0.96 29.17 0.89 20 0.85 10.83 1.12 1.67 10.94 1.51 20.78 1.78 30.76 1.5 30.68 10.82 30.36 19.99 30.36 29.16 30.4 38.32 30.41 47.49 30.67 56.73"/><polygon class="cls-2" points="30.67 56.73 20.79 56.88 10.95 56.49 1.13 56.65 1.13 47.5 1.25 38.34 0.96 29.17 0.89 20 0.85 10.83 1.12 1.67 10.94 1.51 20.78 1.78 30.76 1.5 30.68 10.82 30.36 19.99 30.36 29.16 30.4 38.32 30.41 47.49 30.67 56.73"/><polygon class="cls-3" points="30.62 57.67 20.49 57.57 10.44 56.9 0.39 56.81 0.62 47.42 0.99 38.02 0.93 28.6 1.1 19.19 1.31 9.78 1.83 0.38 11.88 0.47 21.94 1.01 32.17 0.98 31.84 10.55 31.27 19.95 31.02 29.36 30.82 38.77 30.59 48.18 30.62 57.67"/><polygon class="cls-1" points="167.67 57.1 157.69 57.25 147.78 56.86 137.85 57.01 127.94 57.02 128.06 47.87 127.77 38.71 127.7 29.54 127.67 20.38 127.94 11.21 127.82 1.92 137.85 2.15 147.76 1.81 157.69 1.97 167.44 2.22 167.36 11.2 167.4 20.36 167.41 29.53 167.35 38.69 167.85 47.86 167.67 57.1"/><polygon class="cls-2" points="167.67 57.1 157.69 57.25 147.78 56.86 137.85 57.01 127.94 57.02 128.06 47.87 127.77 38.71 127.7 29.54 127.67 20.38 127.94 11.21 127.82 1.92 137.85 2.15 147.76 1.81 157.69 1.97 167.44 2.22 167.36 11.2 167.4 20.36 167.41 29.53 167.35 38.69 167.85 47.86 167.67 57.1"/><polygon class="cls-2" points="168.68 56.23 158.9 56.69 149.17 56.59 139.45 57.05 129.74 57.37 129.58 48.2 129 39.02 128.64 29.84 128.32 20.65 128.3 11.46 127.89 2.16 137.73 2.08 147.43 1.43 157.16 1.29 166.72 1.24 166.91 10.24 167.25 19.42 167.54 28.61 167.76 37.79 168.56 46.96 168.68 56.23"/><polygon class="cls-4" points="166.66 57.63 157.42 58.08 148.23 57.96 139.06 58.41 129.88 58.71 129.72 49.37 129.13 40.03 128.76 30.68 128.43 21.33 128.42 11.96 128 2.5 137.3 2.44 146.47 1.8 155.65 1.68 164.66 1.65 164.87 10.81 165.21 20.16 165.5 29.51 165.73 38.86 166.54 48.2 166.66 57.63"/></g><g id="Layer_2" data-name="Layer 2"><path d="M189.88,186a8.8,8.8,0,0,0-1.71-1.49,11.29,11.29,0,0,0-2.19-1.14,14.71,14.71,0,0,0-2.61-.78,13.82,13.82,0,0,0-2.94-.3q-4.53,0-6.65,1.73a5.74,5.74,0,0,0-2.12,4.69,4.73,4.73,0,0,0,1,3.21,7,7,0,0,0,3.14,1.9q2.14.74,5.46,1.51a38.74,38.74,0,0,1,6.38,1.85,9.84,9.84,0,0,1,4.14,2.89,7.71,7.71,0,0,1,1.46,4.94,8.68,8.68,0,0,1-.93,4.13,8.21,8.21,0,0,1-2.58,2.92,11.41,11.41,0,0,1-3.94,1.72,20.8,20.8,0,0,1-5,.56,22.68,22.68,0,0,1-5.14-.56,20.39,20.39,0,0,1-4.65-1.65,18.57,18.57,0,0,1-4.09-2.8l1.7-2.78a12.89,12.89,0,0,0,2.22,1.83,18.08,18.08,0,0,0,2.87,1.53,16.53,16.53,0,0,0,3.41,1,19.54,19.54,0,0,0,3.78.36,11.79,11.79,0,0,0,6.45-1.5,5,5,0,0,0,2.31-4.47,4.9,4.9,0,0,0-1.17-3.43,8.33,8.33,0,0,0-3.5-2.12,53.6,53.6,0,0,0-5.75-1.61,39.67,39.67,0,0,1-6.09-1.84,8.47,8.47,0,0,1-3.72-2.7,7.29,7.29,0,0,1-1.25-4.45,9.08,9.08,0,0,1,1.59-5.43,9.73,9.73,0,0,1,4.36-3.35,16.66,16.66,0,0,1,6.38-1.15,18.6,18.6,0,0,1,4.26.47,15.41,15.41,0,0,1,3.65,1.34,14.78,14.78,0,0,1,3.14,2.19Z" transform="translate(-158.89 -167.34)"/><path d="M209.51,214.55a12.38,12.38,0,0,1-9.11-3.91,13.28,13.28,0,0,1-2.66-4.2,13.63,13.63,0,0,1-1-5.09,13.17,13.17,0,0,1,1.64-6.48,12.41,12.41,0,0,1,4.5-4.71,12.2,12.2,0,0,1,6.53-1.77,11.93,11.93,0,0,1,6.55,1.79,12.81,12.81,0,0,1,4.41,4.72,13.11,13.11,0,0,1,1.6,6.41v.75a2.56,2.56,0,0,1,0,.55H200.25a11,11,0,0,0,1.54,4.83,9.76,9.76,0,0,0,3.36,3.34,8.65,8.65,0,0,0,4.5,1.23,9.33,9.33,0,0,0,4.7-1.26,7,7,0,0,0,3.1-3.31l2.87.78a9.6,9.6,0,0,1-2.39,3.26,11.45,11.45,0,0,1-3.77,2.26A13.22,13.22,0,0,1,209.51,214.55Zm-9.36-14.32h18.76a10.36,10.36,0,0,0-1.49-4.82,9.45,9.45,0,0,0-3.36-3.26,9.1,9.1,0,0,0-4.55-1.18,9,9,0,0,0-4.53,1.18,9.36,9.36,0,0,0-3.34,3.28A10.47,10.47,0,0,0,200.15,200.23Z" transform="translate(-158.89 -167.34)"/><path d="M225.09,206.8a6.39,6.39,0,0,1,1.37-4.09,8.79,8.79,0,0,1,3.77-2.66,15.25,15.25,0,0,1,5.58-.94,26,26,0,0,1,3.85.29,16.91,16.91,0,0,1,3.55.88v-2.14a6.81,6.81,0,0,0-1.9-5.08,7.12,7.12,0,0,0-5.26-1.89,11.27,11.27,0,0,0-4,.75,20.41,20.41,0,0,0-4.11,2.22l-1.27-2.34a21.43,21.43,0,0,1,4.87-2.56,14.6,14.6,0,0,1,4.87-.85,10.18,10.18,0,0,1,7.41,2.66,9.81,9.81,0,0,1,2.72,7.36v11.66a1.41,1.41,0,0,0,.3,1,1.33,1.33,0,0,0,.92.36v2.63l-.92.1a1.89,1.89,0,0,1-.59,0,2.43,2.43,0,0,1-1.85-.78,2.6,2.6,0,0,1-.68-1.56l0-1.85a11.12,11.12,0,0,1-4.43,3.38,13.67,13.67,0,0,1-5.55,1.2,9.32,9.32,0,0,1-4.41-1,7.81,7.81,0,0,1-3.07-2.81A7.27,7.27,0,0,1,225.09,206.8Zm17,1.93a6.24,6.24,0,0,0,.83-1.3,2.77,2.77,0,0,0,.29-1.11v-3.67a19.79,19.79,0,0,0-3.43-1,18.79,18.79,0,0,0-3.58-.34,10.49,10.49,0,0,0-5.75,1.4,4.31,4.31,0,0,0-2.19,3.81,5,5,0,0,0,.73,2.63,5.67,5.67,0,0,0,2.14,2,6.64,6.64,0,0,0,3.31.79,10.88,10.88,0,0,0,4.46-.91A8,8,0,0,0,242.09,208.73Z" transform="translate(-158.89 -167.34)"/><path d="M275,214.06h-3.31V200q0-4.46-1.32-6.51a4.57,4.57,0,0,0-4.14-2.06,8.7,8.7,0,0,0-3.85.94,10.88,10.88,0,0,0-3.33,2.56,9.82,9.82,0,0,0-2.07,3.7v15.45h-3.32V188.78h3v5.76a11.63,11.63,0,0,1,2.68-3.22,12.68,12.68,0,0,1,3.75-2.15,12.38,12.38,0,0,1,4.34-.78,7.45,7.45,0,0,1,3.55.78,5.89,5.89,0,0,1,2.34,2.2,10.14,10.14,0,0,1,1.27,3.44,23.58,23.58,0,0,1,.39,4.48Z" transform="translate(-158.89 -167.34)"/><path d="M325.82,214.06V185.91L313.3,207.78h-2.14l-12.57-21.87v28.15h-3.41V179.48h3.51l13.49,23.67,13.59-23.67h3.46v34.58Z" transform="translate(-158.89 -167.34)"/><path d="M347.84,214.55a12.32,12.32,0,0,1-5.09-1,12.66,12.66,0,0,1-4.05-2.89,13.43,13.43,0,0,1-3.62-9.25,13.47,13.47,0,0,1,1.6-6.54,12.33,12.33,0,0,1,4.48-4.7,12.57,12.57,0,0,1,6.63-1.74,12.07,12.07,0,0,1,6.28,1.63,10,10,0,0,1,4,4.41l-3.21,1a7.69,7.69,0,0,0-3-3,8.45,8.45,0,0,0-4.26-1.1,8.6,8.6,0,0,0-4.63,1.31,9.5,9.5,0,0,0-3.33,3.58,11.34,11.34,0,0,0,0,10.35,10.27,10.27,0,0,0,3.36,3.7,8.25,8.25,0,0,0,4.63,1.38,9.13,9.13,0,0,0,5.87-2.17,5.05,5.05,0,0,0,1.53-2.17l3.27,1a8.26,8.26,0,0,1-2.27,3.24,11.35,11.35,0,0,1-3.7,2.24A12.63,12.63,0,0,1,347.84,214.55Z" transform="translate(-158.89 -167.34)"/><path d="M361.77,196.48a18.22,18.22,0,0,1,1.09-6.21,18.48,18.48,0,0,1,3.19-5.56,15.37,15.37,0,0,1,5.17-4,15.74,15.74,0,0,1,7-1.49,14.32,14.32,0,0,1,7.92,2.12,13.08,13.08,0,0,1,4.85,5.43l-2.68,1.66a10.19,10.19,0,0,0-2.83-3.63,11.17,11.17,0,0,0-3.63-1.92,13.09,13.09,0,0,0-3.82-.59,11.9,11.9,0,0,0-5.51,1.24,12.2,12.2,0,0,0-4,3.32,14.68,14.68,0,0,0-2.46,4.62,16.57,16.57,0,0,0-.83,5.19,15.75,15.75,0,0,0,1,5.51,15,15,0,0,0,2.73,4.65A13.24,13.24,0,0,0,373,210a11.13,11.13,0,0,0,5.13,1.2,12.52,12.52,0,0,0,4-.69,12.34,12.34,0,0,0,3.82-2.09,10.1,10.1,0,0,0,2.85-3.65l2.83,1.46a10.94,10.94,0,0,1-3.32,4.38,16.06,16.06,0,0,1-5,2.73,16.72,16.72,0,0,1-5.38.92,14.06,14.06,0,0,1-6.53-1.53,16.84,16.84,0,0,1-5.14-4.09,19,19,0,0,1-3.33-5.75A18.63,18.63,0,0,1,361.77,196.48Z" transform="translate(-158.89 -167.34)"/><path d="M396.93,178.5h3.32v30a3.31,3.31,0,0,0,.68,2.5,2.45,2.45,0,0,0,1.65.59,8.12,8.12,0,0,0,1.76-.2c.58-.13,1.09-.26,1.51-.39l.58,2.68a10.67,10.67,0,0,1-2.26.63,12.69,12.69,0,0,1-2.32.25,4.59,4.59,0,0,1-4.92-5Z" transform="translate(-158.89 -167.34)"/><path d="M409.79,203.63V188.78h3.32V203q0,4.32,1.48,6.45a5,5,0,0,0,4.41,2.14,8.9,8.9,0,0,0,3.77-.85,9.87,9.87,0,0,0,3.24-2.43,10.53,10.53,0,0,0,2.15-3.65V188.78h3.31v21.29a1.46,1.46,0,0,0,.29,1,1.3,1.3,0,0,0,.88.36v2.63l-.93.07-.63,0a2.8,2.8,0,0,1-1.68-.78,2.41,2.41,0,0,1-.76-1.65l-.09-3.39a12.23,12.23,0,0,1-10.67,6.21,7,7,0,0,1-6-2.77C410.48,209.94,409.79,207.22,409.79,203.63Z" transform="translate(-158.89 -167.34)"/><path d="M451.63,191.61a10.43,10.43,0,0,0-5.82,1.85,9.27,9.27,0,0,0-3.53,4.82v15.78H439V188.78h3.12v6a11.87,11.87,0,0,1,3.48-4.33,8.57,8.57,0,0,1,4.6-1.85,7,7,0,0,1,.86-.05,2.58,2.58,0,0,1,.6.05Z" transform="translate(-158.89 -167.34)"/><path d="M466.25,214.55a12.24,12.24,0,0,1-5.07-1.05,12.37,12.37,0,0,1-4-2.86,13.28,13.28,0,0,1-2.66-4.2,13.63,13.63,0,0,1-1-5.09,13.17,13.17,0,0,1,1.64-6.48,12.41,12.41,0,0,1,4.5-4.71,12.2,12.2,0,0,1,6.53-1.77,11.93,11.93,0,0,1,6.55,1.79,12.81,12.81,0,0,1,4.41,4.72,13.12,13.12,0,0,1,1.61,6.41v.75a2.44,2.44,0,0,1,0,.55H457a11.14,11.14,0,0,0,1.54,4.83,9.76,9.76,0,0,0,3.36,3.34,8.65,8.65,0,0,0,4.5,1.23,9.33,9.33,0,0,0,4.7-1.26,7,7,0,0,0,3.1-3.31l2.87.78a9.46,9.46,0,0,1-2.39,3.26,11.45,11.45,0,0,1-3.77,2.26A13.22,13.22,0,0,1,466.25,214.55Zm-9.35-14.32h18.75a10.36,10.36,0,0,0-1.49-4.82,9.45,9.45,0,0,0-3.36-3.26,9.1,9.1,0,0,0-4.55-1.18,9,9,0,0,0-4.53,1.18,9.36,9.36,0,0,0-3.34,3.28A10.34,10.34,0,0,0,456.9,200.23Z" transform="translate(-158.89 -167.34)"/></g></svg>